%TF.GenerationSoftware,KiCad,Pcbnew,10.0.5*%
%TF.CreationDate,2026-09-05T09:08:24-07:00*%
%TF.ProjectId,droidrefit-pcb,64726f69-6472-4656-9669-742d7063622e,rev?*%
%TF.SameCoordinates,Original*%
%TF.FileFunction,Legend,Top*%
%TF.FilePolarity,Positive*%
%FSLAX46Y46*%
G04 Gerber Fmt 4.6, Leading zero omitted, Abs format (unit mm)*
G04 Created by KiCad (PCBNEW 10.0.5) date 2026-09-05 09:08:24*
%MOMM*%
%LPD*%
G01*
G04 APERTURE LIST*
%ADD10C,0.150000*%
%ADD11C,0.158750*%
%ADD12C,0.120000*%
G04 APERTURE END LIST*
D10*
X20774819Y-57166666D02*
X20298628Y-57499999D01*
X20774819Y-57738094D02*
X19774819Y-57738094D01*
X19774819Y-57738094D02*
X19774819Y-57357142D01*
X19774819Y-57357142D02*
X19822438Y-57261904D01*
X19822438Y-57261904D02*
X19870057Y-57214285D01*
X19870057Y-57214285D02*
X19965295Y-57166666D01*
X19965295Y-57166666D02*
X20108152Y-57166666D01*
X20108152Y-57166666D02*
X20203390Y-57214285D01*
X20203390Y-57214285D02*
X20251009Y-57261904D01*
X20251009Y-57261904D02*
X20298628Y-57357142D01*
X20298628Y-57357142D02*
X20298628Y-57738094D01*
X19774819Y-56833332D02*
X19774819Y-56166666D01*
X19774819Y-56166666D02*
X20774819Y-56595237D01*
X89074819Y-58333333D02*
X89789104Y-58333333D01*
X89789104Y-58333333D02*
X89931961Y-58380952D01*
X89931961Y-58380952D02*
X90027200Y-58476190D01*
X90027200Y-58476190D02*
X90074819Y-58619047D01*
X90074819Y-58619047D02*
X90074819Y-58714285D01*
X89170057Y-57904761D02*
X89122438Y-57857142D01*
X89122438Y-57857142D02*
X89074819Y-57761904D01*
X89074819Y-57761904D02*
X89074819Y-57523809D01*
X89074819Y-57523809D02*
X89122438Y-57428571D01*
X89122438Y-57428571D02*
X89170057Y-57380952D01*
X89170057Y-57380952D02*
X89265295Y-57333333D01*
X89265295Y-57333333D02*
X89360533Y-57333333D01*
X89360533Y-57333333D02*
X89503390Y-57380952D01*
X89503390Y-57380952D02*
X90074819Y-57952380D01*
X90074819Y-57952380D02*
X90074819Y-57333333D01*
X59833333Y-30929580D02*
X59785714Y-30977200D01*
X59785714Y-30977200D02*
X59642857Y-31024819D01*
X59642857Y-31024819D02*
X59547619Y-31024819D01*
X59547619Y-31024819D02*
X59404762Y-30977200D01*
X59404762Y-30977200D02*
X59309524Y-30881961D01*
X59309524Y-30881961D02*
X59261905Y-30786723D01*
X59261905Y-30786723D02*
X59214286Y-30596247D01*
X59214286Y-30596247D02*
X59214286Y-30453390D01*
X59214286Y-30453390D02*
X59261905Y-30262914D01*
X59261905Y-30262914D02*
X59309524Y-30167676D01*
X59309524Y-30167676D02*
X59404762Y-30072438D01*
X59404762Y-30072438D02*
X59547619Y-30024819D01*
X59547619Y-30024819D02*
X59642857Y-30024819D01*
X59642857Y-30024819D02*
X59785714Y-30072438D01*
X59785714Y-30072438D02*
X59833333Y-30120057D01*
X60690476Y-30024819D02*
X60500000Y-30024819D01*
X60500000Y-30024819D02*
X60404762Y-30072438D01*
X60404762Y-30072438D02*
X60357143Y-30120057D01*
X60357143Y-30120057D02*
X60261905Y-30262914D01*
X60261905Y-30262914D02*
X60214286Y-30453390D01*
X60214286Y-30453390D02*
X60214286Y-30834342D01*
X60214286Y-30834342D02*
X60261905Y-30929580D01*
X60261905Y-30929580D02*
X60309524Y-30977200D01*
X60309524Y-30977200D02*
X60404762Y-31024819D01*
X60404762Y-31024819D02*
X60595238Y-31024819D01*
X60595238Y-31024819D02*
X60690476Y-30977200D01*
X60690476Y-30977200D02*
X60738095Y-30929580D01*
X60738095Y-30929580D02*
X60785714Y-30834342D01*
X60785714Y-30834342D02*
X60785714Y-30596247D01*
X60785714Y-30596247D02*
X60738095Y-30501009D01*
X60738095Y-30501009D02*
X60690476Y-30453390D01*
X60690476Y-30453390D02*
X60595238Y-30405771D01*
X60595238Y-30405771D02*
X60404762Y-30405771D01*
X60404762Y-30405771D02*
X60309524Y-30453390D01*
X60309524Y-30453390D02*
X60261905Y-30501009D01*
X60261905Y-30501009D02*
X60214286Y-30596247D01*
X82666666Y-37074819D02*
X82666666Y-37789104D01*
X82666666Y-37789104D02*
X82619047Y-37931961D01*
X82619047Y-37931961D02*
X82523809Y-38027200D01*
X82523809Y-38027200D02*
X82380952Y-38074819D01*
X82380952Y-38074819D02*
X82285714Y-38074819D01*
X83190476Y-38074819D02*
X83380952Y-38074819D01*
X83380952Y-38074819D02*
X83476190Y-38027200D01*
X83476190Y-38027200D02*
X83523809Y-37979580D01*
X83523809Y-37979580D02*
X83619047Y-37836723D01*
X83619047Y-37836723D02*
X83666666Y-37646247D01*
X83666666Y-37646247D02*
X83666666Y-37265295D01*
X83666666Y-37265295D02*
X83619047Y-37170057D01*
X83619047Y-37170057D02*
X83571428Y-37122438D01*
X83571428Y-37122438D02*
X83476190Y-37074819D01*
X83476190Y-37074819D02*
X83285714Y-37074819D01*
X83285714Y-37074819D02*
X83190476Y-37122438D01*
X83190476Y-37122438D02*
X83142857Y-37170057D01*
X83142857Y-37170057D02*
X83095238Y-37265295D01*
X83095238Y-37265295D02*
X83095238Y-37503390D01*
X83095238Y-37503390D02*
X83142857Y-37598628D01*
X83142857Y-37598628D02*
X83190476Y-37646247D01*
X83190476Y-37646247D02*
X83285714Y-37693866D01*
X83285714Y-37693866D02*
X83476190Y-37693866D01*
X83476190Y-37693866D02*
X83571428Y-37646247D01*
X83571428Y-37646247D02*
X83619047Y-37598628D01*
X83619047Y-37598628D02*
X83666666Y-37503390D01*
X59238095Y-15184819D02*
X59238095Y-15994342D01*
X59238095Y-15994342D02*
X59285714Y-16089580D01*
X59285714Y-16089580D02*
X59333333Y-16137200D01*
X59333333Y-16137200D02*
X59428571Y-16184819D01*
X59428571Y-16184819D02*
X59619047Y-16184819D01*
X59619047Y-16184819D02*
X59714285Y-16137200D01*
X59714285Y-16137200D02*
X59761904Y-16089580D01*
X59761904Y-16089580D02*
X59809523Y-15994342D01*
X59809523Y-15994342D02*
X59809523Y-15184819D01*
X60238095Y-15280057D02*
X60285714Y-15232438D01*
X60285714Y-15232438D02*
X60380952Y-15184819D01*
X60380952Y-15184819D02*
X60619047Y-15184819D01*
X60619047Y-15184819D02*
X60714285Y-15232438D01*
X60714285Y-15232438D02*
X60761904Y-15280057D01*
X60761904Y-15280057D02*
X60809523Y-15375295D01*
X60809523Y-15375295D02*
X60809523Y-15470533D01*
X60809523Y-15470533D02*
X60761904Y-15613390D01*
X60761904Y-15613390D02*
X60190476Y-16184819D01*
X60190476Y-16184819D02*
X60809523Y-16184819D01*
X50892856Y-29108557D02*
X50892856Y-28508557D01*
X50892856Y-28594271D02*
X50935713Y-28551414D01*
X50935713Y-28551414D02*
X51021428Y-28508557D01*
X51021428Y-28508557D02*
X51149999Y-28508557D01*
X51149999Y-28508557D02*
X51235713Y-28551414D01*
X51235713Y-28551414D02*
X51278571Y-28637128D01*
X51278571Y-28637128D02*
X51278571Y-29108557D01*
X51278571Y-28637128D02*
X51321428Y-28551414D01*
X51321428Y-28551414D02*
X51407142Y-28508557D01*
X51407142Y-28508557D02*
X51535713Y-28508557D01*
X51535713Y-28508557D02*
X51621428Y-28551414D01*
X51621428Y-28551414D02*
X51664285Y-28637128D01*
X51664285Y-28637128D02*
X51664285Y-29108557D01*
X52092856Y-29108557D02*
X52092856Y-28508557D01*
X52092856Y-28208557D02*
X52049999Y-28251414D01*
X52049999Y-28251414D02*
X52092856Y-28294271D01*
X52092856Y-28294271D02*
X52135713Y-28251414D01*
X52135713Y-28251414D02*
X52092856Y-28208557D01*
X52092856Y-28208557D02*
X52092856Y-28294271D01*
X52907142Y-29065700D02*
X52821427Y-29108557D01*
X52821427Y-29108557D02*
X52649999Y-29108557D01*
X52649999Y-29108557D02*
X52564284Y-29065700D01*
X52564284Y-29065700D02*
X52521427Y-29022842D01*
X52521427Y-29022842D02*
X52478570Y-28937128D01*
X52478570Y-28937128D02*
X52478570Y-28679985D01*
X52478570Y-28679985D02*
X52521427Y-28594271D01*
X52521427Y-28594271D02*
X52564284Y-28551414D01*
X52564284Y-28551414D02*
X52649999Y-28508557D01*
X52649999Y-28508557D02*
X52821427Y-28508557D01*
X52821427Y-28508557D02*
X52907142Y-28551414D01*
X53292856Y-29108557D02*
X53292856Y-28508557D01*
X53292856Y-28679985D02*
X53335713Y-28594271D01*
X53335713Y-28594271D02*
X53378571Y-28551414D01*
X53378571Y-28551414D02*
X53464285Y-28508557D01*
X53464285Y-28508557D02*
X53549999Y-28508557D01*
X53978571Y-29108557D02*
X53892856Y-29065700D01*
X53892856Y-29065700D02*
X53849999Y-29022842D01*
X53849999Y-29022842D02*
X53807142Y-28937128D01*
X53807142Y-28937128D02*
X53807142Y-28679985D01*
X53807142Y-28679985D02*
X53849999Y-28594271D01*
X53849999Y-28594271D02*
X53892856Y-28551414D01*
X53892856Y-28551414D02*
X53978571Y-28508557D01*
X53978571Y-28508557D02*
X54107142Y-28508557D01*
X54107142Y-28508557D02*
X54192856Y-28551414D01*
X54192856Y-28551414D02*
X54235714Y-28594271D01*
X54235714Y-28594271D02*
X54278571Y-28679985D01*
X54278571Y-28679985D02*
X54278571Y-28937128D01*
X54278571Y-28937128D02*
X54235714Y-29022842D01*
X54235714Y-29022842D02*
X54192856Y-29065700D01*
X54192856Y-29065700D02*
X54107142Y-29108557D01*
X54107142Y-29108557D02*
X53978571Y-29108557D01*
X54621428Y-29065700D02*
X54750000Y-29108557D01*
X54750000Y-29108557D02*
X54964285Y-29108557D01*
X54964285Y-29108557D02*
X55050000Y-29065700D01*
X55050000Y-29065700D02*
X55092857Y-29022842D01*
X55092857Y-29022842D02*
X55135714Y-28937128D01*
X55135714Y-28937128D02*
X55135714Y-28851414D01*
X55135714Y-28851414D02*
X55092857Y-28765700D01*
X55092857Y-28765700D02*
X55050000Y-28722842D01*
X55050000Y-28722842D02*
X54964285Y-28679985D01*
X54964285Y-28679985D02*
X54792857Y-28637128D01*
X54792857Y-28637128D02*
X54707142Y-28594271D01*
X54707142Y-28594271D02*
X54664285Y-28551414D01*
X54664285Y-28551414D02*
X54621428Y-28465700D01*
X54621428Y-28465700D02*
X54621428Y-28379985D01*
X54621428Y-28379985D02*
X54664285Y-28294271D01*
X54664285Y-28294271D02*
X54707142Y-28251414D01*
X54707142Y-28251414D02*
X54792857Y-28208557D01*
X54792857Y-28208557D02*
X55007142Y-28208557D01*
X55007142Y-28208557D02*
X55135714Y-28251414D01*
X55521428Y-29108557D02*
X55521428Y-28208557D01*
X55521428Y-28208557D02*
X55735714Y-28208557D01*
X55735714Y-28208557D02*
X55864285Y-28251414D01*
X55864285Y-28251414D02*
X55950000Y-28337128D01*
X55950000Y-28337128D02*
X55992857Y-28422842D01*
X55992857Y-28422842D02*
X56035714Y-28594271D01*
X56035714Y-28594271D02*
X56035714Y-28722842D01*
X56035714Y-28722842D02*
X55992857Y-28894271D01*
X55992857Y-28894271D02*
X55950000Y-28979985D01*
X55950000Y-28979985D02*
X55864285Y-29065700D01*
X55864285Y-29065700D02*
X55735714Y-29108557D01*
X55735714Y-29108557D02*
X55521428Y-29108557D01*
X57492857Y-29065700D02*
X57407142Y-29108557D01*
X57407142Y-29108557D02*
X57235714Y-29108557D01*
X57235714Y-29108557D02*
X57149999Y-29065700D01*
X57149999Y-29065700D02*
X57107142Y-29022842D01*
X57107142Y-29022842D02*
X57064285Y-28937128D01*
X57064285Y-28937128D02*
X57064285Y-28679985D01*
X57064285Y-28679985D02*
X57107142Y-28594271D01*
X57107142Y-28594271D02*
X57149999Y-28551414D01*
X57149999Y-28551414D02*
X57235714Y-28508557D01*
X57235714Y-28508557D02*
X57407142Y-28508557D01*
X57407142Y-28508557D02*
X57492857Y-28551414D01*
X58264286Y-29108557D02*
X58264286Y-28637128D01*
X58264286Y-28637128D02*
X58221428Y-28551414D01*
X58221428Y-28551414D02*
X58135714Y-28508557D01*
X58135714Y-28508557D02*
X57964286Y-28508557D01*
X57964286Y-28508557D02*
X57878571Y-28551414D01*
X58264286Y-29065700D02*
X58178571Y-29108557D01*
X58178571Y-29108557D02*
X57964286Y-29108557D01*
X57964286Y-29108557D02*
X57878571Y-29065700D01*
X57878571Y-29065700D02*
X57835714Y-28979985D01*
X57835714Y-28979985D02*
X57835714Y-28894271D01*
X57835714Y-28894271D02*
X57878571Y-28808557D01*
X57878571Y-28808557D02*
X57964286Y-28765700D01*
X57964286Y-28765700D02*
X58178571Y-28765700D01*
X58178571Y-28765700D02*
X58264286Y-28722842D01*
X58692857Y-29108557D02*
X58692857Y-28508557D01*
X58692857Y-28679985D02*
X58735714Y-28594271D01*
X58735714Y-28594271D02*
X58778572Y-28551414D01*
X58778572Y-28551414D02*
X58864286Y-28508557D01*
X58864286Y-28508557D02*
X58950000Y-28508557D01*
X59635715Y-29108557D02*
X59635715Y-28208557D01*
X59635715Y-29065700D02*
X59550000Y-29108557D01*
X59550000Y-29108557D02*
X59378572Y-29108557D01*
X59378572Y-29108557D02*
X59292857Y-29065700D01*
X59292857Y-29065700D02*
X59250000Y-29022842D01*
X59250000Y-29022842D02*
X59207143Y-28937128D01*
X59207143Y-28937128D02*
X59207143Y-28679985D01*
X59207143Y-28679985D02*
X59250000Y-28594271D01*
X59250000Y-28594271D02*
X59292857Y-28551414D01*
X59292857Y-28551414D02*
X59378572Y-28508557D01*
X59378572Y-28508557D02*
X59550000Y-28508557D01*
X59550000Y-28508557D02*
X59635715Y-28551414D01*
X60707143Y-29065700D02*
X60792857Y-29108557D01*
X60792857Y-29108557D02*
X60964286Y-29108557D01*
X60964286Y-29108557D02*
X61050000Y-29065700D01*
X61050000Y-29065700D02*
X61092857Y-28979985D01*
X61092857Y-28979985D02*
X61092857Y-28937128D01*
X61092857Y-28937128D02*
X61050000Y-28851414D01*
X61050000Y-28851414D02*
X60964286Y-28808557D01*
X60964286Y-28808557D02*
X60835715Y-28808557D01*
X60835715Y-28808557D02*
X60750000Y-28765700D01*
X60750000Y-28765700D02*
X60707143Y-28679985D01*
X60707143Y-28679985D02*
X60707143Y-28637128D01*
X60707143Y-28637128D02*
X60750000Y-28551414D01*
X60750000Y-28551414D02*
X60835715Y-28508557D01*
X60835715Y-28508557D02*
X60964286Y-28508557D01*
X60964286Y-28508557D02*
X61050000Y-28551414D01*
X61607143Y-29108557D02*
X61521428Y-29065700D01*
X61521428Y-29065700D02*
X61478571Y-28979985D01*
X61478571Y-28979985D02*
X61478571Y-28208557D01*
X62078572Y-29108557D02*
X61992857Y-29065700D01*
X61992857Y-29065700D02*
X61950000Y-29022842D01*
X61950000Y-29022842D02*
X61907143Y-28937128D01*
X61907143Y-28937128D02*
X61907143Y-28679985D01*
X61907143Y-28679985D02*
X61950000Y-28594271D01*
X61950000Y-28594271D02*
X61992857Y-28551414D01*
X61992857Y-28551414D02*
X62078572Y-28508557D01*
X62078572Y-28508557D02*
X62207143Y-28508557D01*
X62207143Y-28508557D02*
X62292857Y-28551414D01*
X62292857Y-28551414D02*
X62335715Y-28594271D01*
X62335715Y-28594271D02*
X62378572Y-28679985D01*
X62378572Y-28679985D02*
X62378572Y-28937128D01*
X62378572Y-28937128D02*
X62335715Y-29022842D01*
X62335715Y-29022842D02*
X62292857Y-29065700D01*
X62292857Y-29065700D02*
X62207143Y-29108557D01*
X62207143Y-29108557D02*
X62078572Y-29108557D01*
X62635715Y-28508557D02*
X62978572Y-28508557D01*
X62764286Y-28208557D02*
X62764286Y-28979985D01*
X62764286Y-28979985D02*
X62807143Y-29065700D01*
X62807143Y-29065700D02*
X62892858Y-29108557D01*
X62892858Y-29108557D02*
X62978572Y-29108557D01*
X63835715Y-28508557D02*
X64178572Y-28508557D01*
X63964286Y-28208557D02*
X63964286Y-28979985D01*
X63964286Y-28979985D02*
X64007143Y-29065700D01*
X64007143Y-29065700D02*
X64092858Y-29108557D01*
X64092858Y-29108557D02*
X64178572Y-29108557D01*
X64478572Y-29108557D02*
X64478572Y-28208557D01*
X64864287Y-29108557D02*
X64864287Y-28637128D01*
X64864287Y-28637128D02*
X64821429Y-28551414D01*
X64821429Y-28551414D02*
X64735715Y-28508557D01*
X64735715Y-28508557D02*
X64607144Y-28508557D01*
X64607144Y-28508557D02*
X64521429Y-28551414D01*
X64521429Y-28551414D02*
X64478572Y-28594271D01*
X65292858Y-29108557D02*
X65292858Y-28508557D01*
X65292858Y-28208557D02*
X65250001Y-28251414D01*
X65250001Y-28251414D02*
X65292858Y-28294271D01*
X65292858Y-28294271D02*
X65335715Y-28251414D01*
X65335715Y-28251414D02*
X65292858Y-28208557D01*
X65292858Y-28208557D02*
X65292858Y-28294271D01*
X65678572Y-29065700D02*
X65764286Y-29108557D01*
X65764286Y-29108557D02*
X65935715Y-29108557D01*
X65935715Y-29108557D02*
X66021429Y-29065700D01*
X66021429Y-29065700D02*
X66064286Y-28979985D01*
X66064286Y-28979985D02*
X66064286Y-28937128D01*
X66064286Y-28937128D02*
X66021429Y-28851414D01*
X66021429Y-28851414D02*
X65935715Y-28808557D01*
X65935715Y-28808557D02*
X65807144Y-28808557D01*
X65807144Y-28808557D02*
X65721429Y-28765700D01*
X65721429Y-28765700D02*
X65678572Y-28679985D01*
X65678572Y-28679985D02*
X65678572Y-28637128D01*
X65678572Y-28637128D02*
X65721429Y-28551414D01*
X65721429Y-28551414D02*
X65807144Y-28508557D01*
X65807144Y-28508557D02*
X65935715Y-28508557D01*
X65935715Y-28508557D02*
X66021429Y-28551414D01*
X67478571Y-29065700D02*
X67392857Y-29108557D01*
X67392857Y-29108557D02*
X67221429Y-29108557D01*
X67221429Y-29108557D02*
X67135714Y-29065700D01*
X67135714Y-29065700D02*
X67092857Y-28979985D01*
X67092857Y-28979985D02*
X67092857Y-28637128D01*
X67092857Y-28637128D02*
X67135714Y-28551414D01*
X67135714Y-28551414D02*
X67221429Y-28508557D01*
X67221429Y-28508557D02*
X67392857Y-28508557D01*
X67392857Y-28508557D02*
X67478571Y-28551414D01*
X67478571Y-28551414D02*
X67521429Y-28637128D01*
X67521429Y-28637128D02*
X67521429Y-28722842D01*
X67521429Y-28722842D02*
X67092857Y-28808557D01*
X67907143Y-28508557D02*
X67907143Y-29108557D01*
X67907143Y-28594271D02*
X67950000Y-28551414D01*
X67950000Y-28551414D02*
X68035715Y-28508557D01*
X68035715Y-28508557D02*
X68164286Y-28508557D01*
X68164286Y-28508557D02*
X68250000Y-28551414D01*
X68250000Y-28551414D02*
X68292858Y-28637128D01*
X68292858Y-28637128D02*
X68292858Y-29108557D01*
X69107144Y-29108557D02*
X69107144Y-28208557D01*
X69107144Y-29065700D02*
X69021429Y-29108557D01*
X69021429Y-29108557D02*
X68850001Y-29108557D01*
X68850001Y-29108557D02*
X68764286Y-29065700D01*
X68764286Y-29065700D02*
X68721429Y-29022842D01*
X68721429Y-29022842D02*
X68678572Y-28937128D01*
X68678572Y-28937128D02*
X68678572Y-28679985D01*
X68678572Y-28679985D02*
X68721429Y-28594271D01*
X68721429Y-28594271D02*
X68764286Y-28551414D01*
X68764286Y-28551414D02*
X68850001Y-28508557D01*
X68850001Y-28508557D02*
X69021429Y-28508557D01*
X69021429Y-28508557D02*
X69107144Y-28551414D01*
X19666666Y-58309819D02*
X19666666Y-59024104D01*
X19666666Y-59024104D02*
X19619047Y-59166961D01*
X19619047Y-59166961D02*
X19523809Y-59262200D01*
X19523809Y-59262200D02*
X19380952Y-59309819D01*
X19380952Y-59309819D02*
X19285714Y-59309819D01*
X20666666Y-59309819D02*
X20095238Y-59309819D01*
X20380952Y-59309819D02*
X20380952Y-58309819D01*
X20380952Y-58309819D02*
X20285714Y-58452676D01*
X20285714Y-58452676D02*
X20190476Y-58547914D01*
X20190476Y-58547914D02*
X20095238Y-58595533D01*
X45916666Y-37074819D02*
X45916666Y-37789104D01*
X45916666Y-37789104D02*
X45869047Y-37931961D01*
X45869047Y-37931961D02*
X45773809Y-38027200D01*
X45773809Y-38027200D02*
X45630952Y-38074819D01*
X45630952Y-38074819D02*
X45535714Y-38074819D01*
X46297619Y-37074819D02*
X46964285Y-37074819D01*
X46964285Y-37074819D02*
X46535714Y-38074819D01*
X55238095Y-39054819D02*
X55238095Y-39864342D01*
X55238095Y-39864342D02*
X55285714Y-39959580D01*
X55285714Y-39959580D02*
X55333333Y-40007200D01*
X55333333Y-40007200D02*
X55428571Y-40054819D01*
X55428571Y-40054819D02*
X55619047Y-40054819D01*
X55619047Y-40054819D02*
X55714285Y-40007200D01*
X55714285Y-40007200D02*
X55761904Y-39959580D01*
X55761904Y-39959580D02*
X55809523Y-39864342D01*
X55809523Y-39864342D02*
X55809523Y-39054819D01*
X56190476Y-39054819D02*
X56809523Y-39054819D01*
X56809523Y-39054819D02*
X56476190Y-39435771D01*
X56476190Y-39435771D02*
X56619047Y-39435771D01*
X56619047Y-39435771D02*
X56714285Y-39483390D01*
X56714285Y-39483390D02*
X56761904Y-39531009D01*
X56761904Y-39531009D02*
X56809523Y-39626247D01*
X56809523Y-39626247D02*
X56809523Y-39864342D01*
X56809523Y-39864342D02*
X56761904Y-39959580D01*
X56761904Y-39959580D02*
X56714285Y-40007200D01*
X56714285Y-40007200D02*
X56619047Y-40054819D01*
X56619047Y-40054819D02*
X56333333Y-40054819D01*
X56333333Y-40054819D02*
X56238095Y-40007200D01*
X56238095Y-40007200D02*
X56190476Y-39959580D01*
X62833333Y-41024819D02*
X62500000Y-40548628D01*
X62261905Y-41024819D02*
X62261905Y-40024819D01*
X62261905Y-40024819D02*
X62642857Y-40024819D01*
X62642857Y-40024819D02*
X62738095Y-40072438D01*
X62738095Y-40072438D02*
X62785714Y-40120057D01*
X62785714Y-40120057D02*
X62833333Y-40215295D01*
X62833333Y-40215295D02*
X62833333Y-40358152D01*
X62833333Y-40358152D02*
X62785714Y-40453390D01*
X62785714Y-40453390D02*
X62738095Y-40501009D01*
X62738095Y-40501009D02*
X62642857Y-40548628D01*
X62642857Y-40548628D02*
X62261905Y-40548628D01*
X63166667Y-40024819D02*
X63785714Y-40024819D01*
X63785714Y-40024819D02*
X63452381Y-40405771D01*
X63452381Y-40405771D02*
X63595238Y-40405771D01*
X63595238Y-40405771D02*
X63690476Y-40453390D01*
X63690476Y-40453390D02*
X63738095Y-40501009D01*
X63738095Y-40501009D02*
X63785714Y-40596247D01*
X63785714Y-40596247D02*
X63785714Y-40834342D01*
X63785714Y-40834342D02*
X63738095Y-40929580D01*
X63738095Y-40929580D02*
X63690476Y-40977200D01*
X63690476Y-40977200D02*
X63595238Y-41024819D01*
X63595238Y-41024819D02*
X63309524Y-41024819D01*
X63309524Y-41024819D02*
X63214286Y-40977200D01*
X63214286Y-40977200D02*
X63166667Y-40929580D01*
X25238095Y-28184819D02*
X25238095Y-28994342D01*
X25238095Y-28994342D02*
X25285714Y-29089580D01*
X25285714Y-29089580D02*
X25333333Y-29137200D01*
X25333333Y-29137200D02*
X25428571Y-29184819D01*
X25428571Y-29184819D02*
X25619047Y-29184819D01*
X25619047Y-29184819D02*
X25714285Y-29137200D01*
X25714285Y-29137200D02*
X25761904Y-29089580D01*
X25761904Y-29089580D02*
X25809523Y-28994342D01*
X25809523Y-28994342D02*
X25809523Y-28184819D01*
X26809523Y-29184819D02*
X26238095Y-29184819D01*
X26523809Y-29184819D02*
X26523809Y-28184819D01*
X26523809Y-28184819D02*
X26428571Y-28327676D01*
X26428571Y-28327676D02*
X26333333Y-28422914D01*
X26333333Y-28422914D02*
X26238095Y-28470533D01*
X22642857Y-11231009D02*
X22976190Y-11231009D01*
X23119047Y-11754819D02*
X22642857Y-11754819D01*
X22642857Y-11754819D02*
X22642857Y-10754819D01*
X22642857Y-10754819D02*
X23119047Y-10754819D01*
X23547619Y-11754819D02*
X23547619Y-10754819D01*
X23547619Y-10754819D02*
X24119047Y-11754819D01*
X24119047Y-11754819D02*
X24119047Y-10754819D01*
X26071428Y-10707200D02*
X25214286Y-11992914D01*
X27119048Y-11469104D02*
X27595238Y-11469104D01*
X27023810Y-11754819D02*
X27357143Y-10754819D01*
X27357143Y-10754819D02*
X27690476Y-11754819D01*
X28023810Y-11754819D02*
X28023810Y-10754819D01*
X28023810Y-10754819D02*
X28595238Y-11754819D01*
X28595238Y-11754819D02*
X28595238Y-10754819D01*
X28928572Y-10754819D02*
X29500000Y-10754819D01*
X29214286Y-11754819D02*
X29214286Y-10754819D01*
X17833333Y-48254819D02*
X18166666Y-49254819D01*
X18166666Y-49254819D02*
X18499999Y-48254819D01*
X18833333Y-49254819D02*
X18833333Y-48254819D01*
X19309523Y-49254819D02*
X19309523Y-48254819D01*
X19309523Y-48254819D02*
X19880951Y-49254819D01*
X19880951Y-49254819D02*
X19880951Y-48254819D01*
X21833332Y-48207200D02*
X20976190Y-49492914D01*
X23357142Y-49254819D02*
X23357142Y-48254819D01*
X23357142Y-49207200D02*
X23261904Y-49254819D01*
X23261904Y-49254819D02*
X23071428Y-49254819D01*
X23071428Y-49254819D02*
X22976190Y-49207200D01*
X22976190Y-49207200D02*
X22928571Y-49159580D01*
X22928571Y-49159580D02*
X22880952Y-49064342D01*
X22880952Y-49064342D02*
X22880952Y-48778628D01*
X22880952Y-48778628D02*
X22928571Y-48683390D01*
X22928571Y-48683390D02*
X22976190Y-48635771D01*
X22976190Y-48635771D02*
X23071428Y-48588152D01*
X23071428Y-48588152D02*
X23261904Y-48588152D01*
X23261904Y-48588152D02*
X23357142Y-48635771D01*
X24214285Y-49207200D02*
X24119047Y-49254819D01*
X24119047Y-49254819D02*
X23928571Y-49254819D01*
X23928571Y-49254819D02*
X23833333Y-49207200D01*
X23833333Y-49207200D02*
X23785714Y-49111961D01*
X23785714Y-49111961D02*
X23785714Y-48731009D01*
X23785714Y-48731009D02*
X23833333Y-48635771D01*
X23833333Y-48635771D02*
X23928571Y-48588152D01*
X23928571Y-48588152D02*
X24119047Y-48588152D01*
X24119047Y-48588152D02*
X24214285Y-48635771D01*
X24214285Y-48635771D02*
X24261904Y-48731009D01*
X24261904Y-48731009D02*
X24261904Y-48826247D01*
X24261904Y-48826247D02*
X23785714Y-48921485D01*
X24595238Y-48588152D02*
X24833333Y-49254819D01*
X24833333Y-49254819D02*
X25071428Y-48588152D01*
X25452381Y-49254819D02*
X25452381Y-48254819D01*
X25547619Y-48873866D02*
X25833333Y-49254819D01*
X25833333Y-48588152D02*
X25452381Y-48969104D01*
X26261905Y-49254819D02*
X26261905Y-48588152D01*
X26261905Y-48254819D02*
X26214286Y-48302438D01*
X26214286Y-48302438D02*
X26261905Y-48350057D01*
X26261905Y-48350057D02*
X26309524Y-48302438D01*
X26309524Y-48302438D02*
X26261905Y-48254819D01*
X26261905Y-48254819D02*
X26261905Y-48350057D01*
X26595238Y-48588152D02*
X26976190Y-48588152D01*
X26738095Y-48254819D02*
X26738095Y-49111961D01*
X26738095Y-49111961D02*
X26785714Y-49207200D01*
X26785714Y-49207200D02*
X26880952Y-49254819D01*
X26880952Y-49254819D02*
X26976190Y-49254819D01*
X28071429Y-48254819D02*
X28071429Y-49064342D01*
X28071429Y-49064342D02*
X28119048Y-49159580D01*
X28119048Y-49159580D02*
X28166667Y-49207200D01*
X28166667Y-49207200D02*
X28261905Y-49254819D01*
X28261905Y-49254819D02*
X28452381Y-49254819D01*
X28452381Y-49254819D02*
X28547619Y-49207200D01*
X28547619Y-49207200D02*
X28595238Y-49159580D01*
X28595238Y-49159580D02*
X28642857Y-49064342D01*
X28642857Y-49064342D02*
X28642857Y-48254819D01*
X29071429Y-49207200D02*
X29214286Y-49254819D01*
X29214286Y-49254819D02*
X29452381Y-49254819D01*
X29452381Y-49254819D02*
X29547619Y-49207200D01*
X29547619Y-49207200D02*
X29595238Y-49159580D01*
X29595238Y-49159580D02*
X29642857Y-49064342D01*
X29642857Y-49064342D02*
X29642857Y-48969104D01*
X29642857Y-48969104D02*
X29595238Y-48873866D01*
X29595238Y-48873866D02*
X29547619Y-48826247D01*
X29547619Y-48826247D02*
X29452381Y-48778628D01*
X29452381Y-48778628D02*
X29261905Y-48731009D01*
X29261905Y-48731009D02*
X29166667Y-48683390D01*
X29166667Y-48683390D02*
X29119048Y-48635771D01*
X29119048Y-48635771D02*
X29071429Y-48540533D01*
X29071429Y-48540533D02*
X29071429Y-48445295D01*
X29071429Y-48445295D02*
X29119048Y-48350057D01*
X29119048Y-48350057D02*
X29166667Y-48302438D01*
X29166667Y-48302438D02*
X29261905Y-48254819D01*
X29261905Y-48254819D02*
X29500000Y-48254819D01*
X29500000Y-48254819D02*
X29642857Y-48302438D01*
X30404762Y-48731009D02*
X30547619Y-48778628D01*
X30547619Y-48778628D02*
X30595238Y-48826247D01*
X30595238Y-48826247D02*
X30642857Y-48921485D01*
X30642857Y-48921485D02*
X30642857Y-49064342D01*
X30642857Y-49064342D02*
X30595238Y-49159580D01*
X30595238Y-49159580D02*
X30547619Y-49207200D01*
X30547619Y-49207200D02*
X30452381Y-49254819D01*
X30452381Y-49254819D02*
X30071429Y-49254819D01*
X30071429Y-49254819D02*
X30071429Y-48254819D01*
X30071429Y-48254819D02*
X30404762Y-48254819D01*
X30404762Y-48254819D02*
X30500000Y-48302438D01*
X30500000Y-48302438D02*
X30547619Y-48350057D01*
X30547619Y-48350057D02*
X30595238Y-48445295D01*
X30595238Y-48445295D02*
X30595238Y-48540533D01*
X30595238Y-48540533D02*
X30547619Y-48635771D01*
X30547619Y-48635771D02*
X30500000Y-48683390D01*
X30500000Y-48683390D02*
X30404762Y-48731009D01*
X30404762Y-48731009D02*
X30071429Y-48731009D01*
X32214286Y-49207200D02*
X32119048Y-49254819D01*
X32119048Y-49254819D02*
X31928572Y-49254819D01*
X31928572Y-49254819D02*
X31833334Y-49207200D01*
X31833334Y-49207200D02*
X31785715Y-49111961D01*
X31785715Y-49111961D02*
X31785715Y-48731009D01*
X31785715Y-48731009D02*
X31833334Y-48635771D01*
X31833334Y-48635771D02*
X31928572Y-48588152D01*
X31928572Y-48588152D02*
X32119048Y-48588152D01*
X32119048Y-48588152D02*
X32214286Y-48635771D01*
X32214286Y-48635771D02*
X32261905Y-48731009D01*
X32261905Y-48731009D02*
X32261905Y-48826247D01*
X32261905Y-48826247D02*
X31785715Y-48921485D01*
X32690477Y-48588152D02*
X32690477Y-49254819D01*
X32690477Y-48683390D02*
X32738096Y-48635771D01*
X32738096Y-48635771D02*
X32833334Y-48588152D01*
X32833334Y-48588152D02*
X32976191Y-48588152D01*
X32976191Y-48588152D02*
X33071429Y-48635771D01*
X33071429Y-48635771D02*
X33119048Y-48731009D01*
X33119048Y-48731009D02*
X33119048Y-49254819D01*
X34023810Y-49254819D02*
X34023810Y-48254819D01*
X34023810Y-49207200D02*
X33928572Y-49254819D01*
X33928572Y-49254819D02*
X33738096Y-49254819D01*
X33738096Y-49254819D02*
X33642858Y-49207200D01*
X33642858Y-49207200D02*
X33595239Y-49159580D01*
X33595239Y-49159580D02*
X33547620Y-49064342D01*
X33547620Y-49064342D02*
X33547620Y-48778628D01*
X33547620Y-48778628D02*
X33595239Y-48683390D01*
X33595239Y-48683390D02*
X33642858Y-48635771D01*
X33642858Y-48635771D02*
X33738096Y-48588152D01*
X33738096Y-48588152D02*
X33928572Y-48588152D01*
X33928572Y-48588152D02*
X34023810Y-48635771D01*
X20024819Y-3642857D02*
X19548628Y-3976190D01*
X20024819Y-4214285D02*
X19024819Y-4214285D01*
X19024819Y-4214285D02*
X19024819Y-3833333D01*
X19024819Y-3833333D02*
X19072438Y-3738095D01*
X19072438Y-3738095D02*
X19120057Y-3690476D01*
X19120057Y-3690476D02*
X19215295Y-3642857D01*
X19215295Y-3642857D02*
X19358152Y-3642857D01*
X19358152Y-3642857D02*
X19453390Y-3690476D01*
X19453390Y-3690476D02*
X19501009Y-3738095D01*
X19501009Y-3738095D02*
X19548628Y-3833333D01*
X19548628Y-3833333D02*
X19548628Y-4214285D01*
X20024819Y-2690476D02*
X20024819Y-3261904D01*
X20024819Y-2976190D02*
X19024819Y-2976190D01*
X19024819Y-2976190D02*
X19167676Y-3071428D01*
X19167676Y-3071428D02*
X19262914Y-3166666D01*
X19262914Y-3166666D02*
X19310533Y-3261904D01*
X19024819Y-2071428D02*
X19024819Y-1976190D01*
X19024819Y-1976190D02*
X19072438Y-1880952D01*
X19072438Y-1880952D02*
X19120057Y-1833333D01*
X19120057Y-1833333D02*
X19215295Y-1785714D01*
X19215295Y-1785714D02*
X19405771Y-1738095D01*
X19405771Y-1738095D02*
X19643866Y-1738095D01*
X19643866Y-1738095D02*
X19834342Y-1785714D01*
X19834342Y-1785714D02*
X19929580Y-1833333D01*
X19929580Y-1833333D02*
X19977200Y-1880952D01*
X19977200Y-1880952D02*
X20024819Y-1976190D01*
X20024819Y-1976190D02*
X20024819Y-2071428D01*
X20024819Y-2071428D02*
X19977200Y-2166666D01*
X19977200Y-2166666D02*
X19929580Y-2214285D01*
X19929580Y-2214285D02*
X19834342Y-2261904D01*
X19834342Y-2261904D02*
X19643866Y-2309523D01*
X19643866Y-2309523D02*
X19405771Y-2309523D01*
X19405771Y-2309523D02*
X19215295Y-2261904D01*
X19215295Y-2261904D02*
X19120057Y-2214285D01*
X19120057Y-2214285D02*
X19072438Y-2166666D01*
X19072438Y-2166666D02*
X19024819Y-2071428D01*
X42929580Y-50166666D02*
X42977200Y-50214285D01*
X42977200Y-50214285D02*
X43024819Y-50357142D01*
X43024819Y-50357142D02*
X43024819Y-50452380D01*
X43024819Y-50452380D02*
X42977200Y-50595237D01*
X42977200Y-50595237D02*
X42881961Y-50690475D01*
X42881961Y-50690475D02*
X42786723Y-50738094D01*
X42786723Y-50738094D02*
X42596247Y-50785713D01*
X42596247Y-50785713D02*
X42453390Y-50785713D01*
X42453390Y-50785713D02*
X42262914Y-50738094D01*
X42262914Y-50738094D02*
X42167676Y-50690475D01*
X42167676Y-50690475D02*
X42072438Y-50595237D01*
X42072438Y-50595237D02*
X42024819Y-50452380D01*
X42024819Y-50452380D02*
X42024819Y-50357142D01*
X42024819Y-50357142D02*
X42072438Y-50214285D01*
X42072438Y-50214285D02*
X42120057Y-50166666D01*
X42024819Y-49261904D02*
X42024819Y-49738094D01*
X42024819Y-49738094D02*
X42501009Y-49785713D01*
X42501009Y-49785713D02*
X42453390Y-49738094D01*
X42453390Y-49738094D02*
X42405771Y-49642856D01*
X42405771Y-49642856D02*
X42405771Y-49404761D01*
X42405771Y-49404761D02*
X42453390Y-49309523D01*
X42453390Y-49309523D02*
X42501009Y-49261904D01*
X42501009Y-49261904D02*
X42596247Y-49214285D01*
X42596247Y-49214285D02*
X42834342Y-49214285D01*
X42834342Y-49214285D02*
X42929580Y-49261904D01*
X42929580Y-49261904D02*
X42977200Y-49309523D01*
X42977200Y-49309523D02*
X43024819Y-49404761D01*
X43024819Y-49404761D02*
X43024819Y-49642856D01*
X43024819Y-49642856D02*
X42977200Y-49738094D01*
X42977200Y-49738094D02*
X42929580Y-49785713D01*
X88833333Y-18059580D02*
X88785714Y-18107200D01*
X88785714Y-18107200D02*
X88642857Y-18154819D01*
X88642857Y-18154819D02*
X88547619Y-18154819D01*
X88547619Y-18154819D02*
X88404762Y-18107200D01*
X88404762Y-18107200D02*
X88309524Y-18011961D01*
X88309524Y-18011961D02*
X88261905Y-17916723D01*
X88261905Y-17916723D02*
X88214286Y-17726247D01*
X88214286Y-17726247D02*
X88214286Y-17583390D01*
X88214286Y-17583390D02*
X88261905Y-17392914D01*
X88261905Y-17392914D02*
X88309524Y-17297676D01*
X88309524Y-17297676D02*
X88404762Y-17202438D01*
X88404762Y-17202438D02*
X88547619Y-17154819D01*
X88547619Y-17154819D02*
X88642857Y-17154819D01*
X88642857Y-17154819D02*
X88785714Y-17202438D01*
X88785714Y-17202438D02*
X88833333Y-17250057D01*
X89690476Y-17488152D02*
X89690476Y-18154819D01*
X89452381Y-17107200D02*
X89214286Y-17821485D01*
X89214286Y-17821485D02*
X89833333Y-17821485D01*
X70261905Y-62884819D02*
X70261905Y-61884819D01*
X70261905Y-61884819D02*
X70500000Y-61884819D01*
X70500000Y-61884819D02*
X70642857Y-61932438D01*
X70642857Y-61932438D02*
X70738095Y-62027676D01*
X70738095Y-62027676D02*
X70785714Y-62122914D01*
X70785714Y-62122914D02*
X70833333Y-62313390D01*
X70833333Y-62313390D02*
X70833333Y-62456247D01*
X70833333Y-62456247D02*
X70785714Y-62646723D01*
X70785714Y-62646723D02*
X70738095Y-62741961D01*
X70738095Y-62741961D02*
X70642857Y-62837200D01*
X70642857Y-62837200D02*
X70500000Y-62884819D01*
X70500000Y-62884819D02*
X70261905Y-62884819D01*
X71785714Y-62884819D02*
X71214286Y-62884819D01*
X71500000Y-62884819D02*
X71500000Y-61884819D01*
X71500000Y-61884819D02*
X71404762Y-62027676D01*
X71404762Y-62027676D02*
X71309524Y-62122914D01*
X71309524Y-62122914D02*
X71214286Y-62170533D01*
X67166666Y-40184819D02*
X67166666Y-40899104D01*
X67166666Y-40899104D02*
X67119047Y-41041961D01*
X67119047Y-41041961D02*
X67023809Y-41137200D01*
X67023809Y-41137200D02*
X66880952Y-41184819D01*
X66880952Y-41184819D02*
X66785714Y-41184819D01*
X67642857Y-41184819D02*
X67642857Y-40184819D01*
X67642857Y-40184819D02*
X68023809Y-40184819D01*
X68023809Y-40184819D02*
X68119047Y-40232438D01*
X68119047Y-40232438D02*
X68166666Y-40280057D01*
X68166666Y-40280057D02*
X68214285Y-40375295D01*
X68214285Y-40375295D02*
X68214285Y-40518152D01*
X68214285Y-40518152D02*
X68166666Y-40613390D01*
X68166666Y-40613390D02*
X68119047Y-40661009D01*
X68119047Y-40661009D02*
X68023809Y-40708628D01*
X68023809Y-40708628D02*
X67642857Y-40708628D01*
X69166666Y-41184819D02*
X68595238Y-41184819D01*
X68880952Y-41184819D02*
X68880952Y-40184819D01*
X68880952Y-40184819D02*
X68785714Y-40327676D01*
X68785714Y-40327676D02*
X68690476Y-40422914D01*
X68690476Y-40422914D02*
X68595238Y-40470533D01*
X57833333Y-50929580D02*
X57785714Y-50977200D01*
X57785714Y-50977200D02*
X57642857Y-51024819D01*
X57642857Y-51024819D02*
X57547619Y-51024819D01*
X57547619Y-51024819D02*
X57404762Y-50977200D01*
X57404762Y-50977200D02*
X57309524Y-50881961D01*
X57309524Y-50881961D02*
X57261905Y-50786723D01*
X57261905Y-50786723D02*
X57214286Y-50596247D01*
X57214286Y-50596247D02*
X57214286Y-50453390D01*
X57214286Y-50453390D02*
X57261905Y-50262914D01*
X57261905Y-50262914D02*
X57309524Y-50167676D01*
X57309524Y-50167676D02*
X57404762Y-50072438D01*
X57404762Y-50072438D02*
X57547619Y-50024819D01*
X57547619Y-50024819D02*
X57642857Y-50024819D01*
X57642857Y-50024819D02*
X57785714Y-50072438D01*
X57785714Y-50072438D02*
X57833333Y-50120057D01*
X58309524Y-51024819D02*
X58500000Y-51024819D01*
X58500000Y-51024819D02*
X58595238Y-50977200D01*
X58595238Y-50977200D02*
X58642857Y-50929580D01*
X58642857Y-50929580D02*
X58738095Y-50786723D01*
X58738095Y-50786723D02*
X58785714Y-50596247D01*
X58785714Y-50596247D02*
X58785714Y-50215295D01*
X58785714Y-50215295D02*
X58738095Y-50120057D01*
X58738095Y-50120057D02*
X58690476Y-50072438D01*
X58690476Y-50072438D02*
X58595238Y-50024819D01*
X58595238Y-50024819D02*
X58404762Y-50024819D01*
X58404762Y-50024819D02*
X58309524Y-50072438D01*
X58309524Y-50072438D02*
X58261905Y-50120057D01*
X58261905Y-50120057D02*
X58214286Y-50215295D01*
X58214286Y-50215295D02*
X58214286Y-50453390D01*
X58214286Y-50453390D02*
X58261905Y-50548628D01*
X58261905Y-50548628D02*
X58309524Y-50596247D01*
X58309524Y-50596247D02*
X58404762Y-50643866D01*
X58404762Y-50643866D02*
X58595238Y-50643866D01*
X58595238Y-50643866D02*
X58690476Y-50596247D01*
X58690476Y-50596247D02*
X58738095Y-50548628D01*
X58738095Y-50548628D02*
X58785714Y-50453390D01*
X45024819Y-12166666D02*
X44548628Y-12499999D01*
X45024819Y-12738094D02*
X44024819Y-12738094D01*
X44024819Y-12738094D02*
X44024819Y-12357142D01*
X44024819Y-12357142D02*
X44072438Y-12261904D01*
X44072438Y-12261904D02*
X44120057Y-12214285D01*
X44120057Y-12214285D02*
X44215295Y-12166666D01*
X44215295Y-12166666D02*
X44358152Y-12166666D01*
X44358152Y-12166666D02*
X44453390Y-12214285D01*
X44453390Y-12214285D02*
X44501009Y-12261904D01*
X44501009Y-12261904D02*
X44548628Y-12357142D01*
X44548628Y-12357142D02*
X44548628Y-12738094D01*
X44120057Y-11785713D02*
X44072438Y-11738094D01*
X44072438Y-11738094D02*
X44024819Y-11642856D01*
X44024819Y-11642856D02*
X44024819Y-11404761D01*
X44024819Y-11404761D02*
X44072438Y-11309523D01*
X44072438Y-11309523D02*
X44120057Y-11261904D01*
X44120057Y-11261904D02*
X44215295Y-11214285D01*
X44215295Y-11214285D02*
X44310533Y-11214285D01*
X44310533Y-11214285D02*
X44453390Y-11261904D01*
X44453390Y-11261904D02*
X45024819Y-11833332D01*
X45024819Y-11833332D02*
X45024819Y-11214285D01*
X96754819Y-42333333D02*
X97469104Y-42333333D01*
X97469104Y-42333333D02*
X97611961Y-42380952D01*
X97611961Y-42380952D02*
X97707200Y-42476190D01*
X97707200Y-42476190D02*
X97754819Y-42619047D01*
X97754819Y-42619047D02*
X97754819Y-42714285D01*
X96754819Y-41952380D02*
X96754819Y-41333333D01*
X96754819Y-41333333D02*
X97135771Y-41666666D01*
X97135771Y-41666666D02*
X97135771Y-41523809D01*
X97135771Y-41523809D02*
X97183390Y-41428571D01*
X97183390Y-41428571D02*
X97231009Y-41380952D01*
X97231009Y-41380952D02*
X97326247Y-41333333D01*
X97326247Y-41333333D02*
X97564342Y-41333333D01*
X97564342Y-41333333D02*
X97659580Y-41380952D01*
X97659580Y-41380952D02*
X97707200Y-41428571D01*
X97707200Y-41428571D02*
X97754819Y-41523809D01*
X97754819Y-41523809D02*
X97754819Y-41809523D01*
X97754819Y-41809523D02*
X97707200Y-41904761D01*
X97707200Y-41904761D02*
X97659580Y-41952380D01*
X53833333Y-55059580D02*
X53785714Y-55107200D01*
X53785714Y-55107200D02*
X53642857Y-55154819D01*
X53642857Y-55154819D02*
X53547619Y-55154819D01*
X53547619Y-55154819D02*
X53404762Y-55107200D01*
X53404762Y-55107200D02*
X53309524Y-55011961D01*
X53309524Y-55011961D02*
X53261905Y-54916723D01*
X53261905Y-54916723D02*
X53214286Y-54726247D01*
X53214286Y-54726247D02*
X53214286Y-54583390D01*
X53214286Y-54583390D02*
X53261905Y-54392914D01*
X53261905Y-54392914D02*
X53309524Y-54297676D01*
X53309524Y-54297676D02*
X53404762Y-54202438D01*
X53404762Y-54202438D02*
X53547619Y-54154819D01*
X53547619Y-54154819D02*
X53642857Y-54154819D01*
X53642857Y-54154819D02*
X53785714Y-54202438D01*
X53785714Y-54202438D02*
X53833333Y-54250057D01*
X54785714Y-55154819D02*
X54214286Y-55154819D01*
X54500000Y-55154819D02*
X54500000Y-54154819D01*
X54500000Y-54154819D02*
X54404762Y-54297676D01*
X54404762Y-54297676D02*
X54309524Y-54392914D01*
X54309524Y-54392914D02*
X54214286Y-54440533D01*
X77833333Y-11009580D02*
X77785714Y-11057200D01*
X77785714Y-11057200D02*
X77642857Y-11104819D01*
X77642857Y-11104819D02*
X77547619Y-11104819D01*
X77547619Y-11104819D02*
X77404762Y-11057200D01*
X77404762Y-11057200D02*
X77309524Y-10961961D01*
X77309524Y-10961961D02*
X77261905Y-10866723D01*
X77261905Y-10866723D02*
X77214286Y-10676247D01*
X77214286Y-10676247D02*
X77214286Y-10533390D01*
X77214286Y-10533390D02*
X77261905Y-10342914D01*
X77261905Y-10342914D02*
X77309524Y-10247676D01*
X77309524Y-10247676D02*
X77404762Y-10152438D01*
X77404762Y-10152438D02*
X77547619Y-10104819D01*
X77547619Y-10104819D02*
X77642857Y-10104819D01*
X77642857Y-10104819D02*
X77785714Y-10152438D01*
X77785714Y-10152438D02*
X77833333Y-10200057D01*
X78214286Y-10200057D02*
X78261905Y-10152438D01*
X78261905Y-10152438D02*
X78357143Y-10104819D01*
X78357143Y-10104819D02*
X78595238Y-10104819D01*
X78595238Y-10104819D02*
X78690476Y-10152438D01*
X78690476Y-10152438D02*
X78738095Y-10200057D01*
X78738095Y-10200057D02*
X78785714Y-10295295D01*
X78785714Y-10295295D02*
X78785714Y-10390533D01*
X78785714Y-10390533D02*
X78738095Y-10533390D01*
X78738095Y-10533390D02*
X78166667Y-11104819D01*
X78166667Y-11104819D02*
X78785714Y-11104819D01*
D11*
X5306666Y-63579271D02*
X5306666Y-62309271D01*
X5306666Y-62309271D02*
X5730000Y-63216414D01*
X5730000Y-63216414D02*
X6153333Y-62309271D01*
X6153333Y-62309271D02*
X6153333Y-63579271D01*
X6758095Y-63579271D02*
X6758095Y-62309271D01*
X6758095Y-62914033D02*
X7483810Y-62914033D01*
X7483810Y-63579271D02*
X7483810Y-62309271D01*
X7967619Y-62309271D02*
X8753810Y-62309271D01*
X8753810Y-62309271D02*
X8330476Y-62793080D01*
X8330476Y-62793080D02*
X8511905Y-62793080D01*
X8511905Y-62793080D02*
X8632857Y-62853556D01*
X8632857Y-62853556D02*
X8693333Y-62914033D01*
X8693333Y-62914033D02*
X8753810Y-63034985D01*
X8753810Y-63034985D02*
X8753810Y-63337366D01*
X8753810Y-63337366D02*
X8693333Y-63458318D01*
X8693333Y-63458318D02*
X8632857Y-63518795D01*
X8632857Y-63518795D02*
X8511905Y-63579271D01*
X8511905Y-63579271D02*
X8149048Y-63579271D01*
X8149048Y-63579271D02*
X8028095Y-63518795D01*
X8028095Y-63518795D02*
X7967619Y-63458318D01*
D10*
X34666666Y-57281009D02*
X34333333Y-57281009D01*
X34333333Y-57804819D02*
X34333333Y-56804819D01*
X34333333Y-56804819D02*
X34809523Y-56804819D01*
X35714285Y-57804819D02*
X35142857Y-57804819D01*
X35428571Y-57804819D02*
X35428571Y-56804819D01*
X35428571Y-56804819D02*
X35333333Y-56947676D01*
X35333333Y-56947676D02*
X35238095Y-57042914D01*
X35238095Y-57042914D02*
X35142857Y-57090533D01*
D11*
X5306666Y-7579271D02*
X5306666Y-6309271D01*
X5306666Y-6309271D02*
X5730000Y-7216414D01*
X5730000Y-7216414D02*
X6153333Y-6309271D01*
X6153333Y-6309271D02*
X6153333Y-7579271D01*
X6758095Y-7579271D02*
X6758095Y-6309271D01*
X6758095Y-6914033D02*
X7483810Y-6914033D01*
X7483810Y-7579271D02*
X7483810Y-6309271D01*
X8753810Y-7579271D02*
X8028095Y-7579271D01*
X8390952Y-7579271D02*
X8390952Y-6309271D01*
X8390952Y-6309271D02*
X8270000Y-6490699D01*
X8270000Y-6490699D02*
X8149048Y-6611652D01*
X8149048Y-6611652D02*
X8028095Y-6672128D01*
D10*
X92666666Y-8554819D02*
X92666666Y-9269104D01*
X92666666Y-9269104D02*
X92619047Y-9411961D01*
X92619047Y-9411961D02*
X92523809Y-9507200D01*
X92523809Y-9507200D02*
X92380952Y-9554819D01*
X92380952Y-9554819D02*
X92285714Y-9554819D01*
X93619047Y-8554819D02*
X93142857Y-8554819D01*
X93142857Y-8554819D02*
X93095238Y-9031009D01*
X93095238Y-9031009D02*
X93142857Y-8983390D01*
X93142857Y-8983390D02*
X93238095Y-8935771D01*
X93238095Y-8935771D02*
X93476190Y-8935771D01*
X93476190Y-8935771D02*
X93571428Y-8983390D01*
X93571428Y-8983390D02*
X93619047Y-9031009D01*
X93619047Y-9031009D02*
X93666666Y-9126247D01*
X93666666Y-9126247D02*
X93666666Y-9364342D01*
X93666666Y-9364342D02*
X93619047Y-9459580D01*
X93619047Y-9459580D02*
X93571428Y-9507200D01*
X93571428Y-9507200D02*
X93476190Y-9554819D01*
X93476190Y-9554819D02*
X93238095Y-9554819D01*
X93238095Y-9554819D02*
X93142857Y-9507200D01*
X93142857Y-9507200D02*
X93095238Y-9459580D01*
X55833333Y-45929580D02*
X55785714Y-45977200D01*
X55785714Y-45977200D02*
X55642857Y-46024819D01*
X55642857Y-46024819D02*
X55547619Y-46024819D01*
X55547619Y-46024819D02*
X55404762Y-45977200D01*
X55404762Y-45977200D02*
X55309524Y-45881961D01*
X55309524Y-45881961D02*
X55261905Y-45786723D01*
X55261905Y-45786723D02*
X55214286Y-45596247D01*
X55214286Y-45596247D02*
X55214286Y-45453390D01*
X55214286Y-45453390D02*
X55261905Y-45262914D01*
X55261905Y-45262914D02*
X55309524Y-45167676D01*
X55309524Y-45167676D02*
X55404762Y-45072438D01*
X55404762Y-45072438D02*
X55547619Y-45024819D01*
X55547619Y-45024819D02*
X55642857Y-45024819D01*
X55642857Y-45024819D02*
X55785714Y-45072438D01*
X55785714Y-45072438D02*
X55833333Y-45120057D01*
X56166667Y-45024819D02*
X56833333Y-45024819D01*
X56833333Y-45024819D02*
X56404762Y-46024819D01*
X41833333Y-64024819D02*
X41500000Y-63548628D01*
X41261905Y-64024819D02*
X41261905Y-63024819D01*
X41261905Y-63024819D02*
X41642857Y-63024819D01*
X41642857Y-63024819D02*
X41738095Y-63072438D01*
X41738095Y-63072438D02*
X41785714Y-63120057D01*
X41785714Y-63120057D02*
X41833333Y-63215295D01*
X41833333Y-63215295D02*
X41833333Y-63358152D01*
X41833333Y-63358152D02*
X41785714Y-63453390D01*
X41785714Y-63453390D02*
X41738095Y-63501009D01*
X41738095Y-63501009D02*
X41642857Y-63548628D01*
X41642857Y-63548628D02*
X41261905Y-63548628D01*
X42785714Y-64024819D02*
X42214286Y-64024819D01*
X42500000Y-64024819D02*
X42500000Y-63024819D01*
X42500000Y-63024819D02*
X42404762Y-63167676D01*
X42404762Y-63167676D02*
X42309524Y-63262914D01*
X42309524Y-63262914D02*
X42214286Y-63310533D01*
D11*
X91306666Y-7579271D02*
X91306666Y-6309271D01*
X91306666Y-6309271D02*
X91730000Y-7216414D01*
X91730000Y-7216414D02*
X92153333Y-6309271D01*
X92153333Y-6309271D02*
X92153333Y-7579271D01*
X92758095Y-7579271D02*
X92758095Y-6309271D01*
X92758095Y-6914033D02*
X93483810Y-6914033D01*
X93483810Y-7579271D02*
X93483810Y-6309271D01*
X94028095Y-6430223D02*
X94088571Y-6369747D01*
X94088571Y-6369747D02*
X94209524Y-6309271D01*
X94209524Y-6309271D02*
X94511905Y-6309271D01*
X94511905Y-6309271D02*
X94632857Y-6369747D01*
X94632857Y-6369747D02*
X94693333Y-6430223D01*
X94693333Y-6430223D02*
X94753810Y-6551175D01*
X94753810Y-6551175D02*
X94753810Y-6672128D01*
X94753810Y-6672128D02*
X94693333Y-6853556D01*
X94693333Y-6853556D02*
X93967619Y-7579271D01*
X93967619Y-7579271D02*
X94753810Y-7579271D01*
D10*
X41904761Y-58150057D02*
X41809523Y-58102438D01*
X41809523Y-58102438D02*
X41714285Y-58007200D01*
X41714285Y-58007200D02*
X41571428Y-57864342D01*
X41571428Y-57864342D02*
X41476190Y-57816723D01*
X41476190Y-57816723D02*
X41380952Y-57816723D01*
X41428571Y-58054819D02*
X41333333Y-58007200D01*
X41333333Y-58007200D02*
X41238095Y-57911961D01*
X41238095Y-57911961D02*
X41190476Y-57721485D01*
X41190476Y-57721485D02*
X41190476Y-57388152D01*
X41190476Y-57388152D02*
X41238095Y-57197676D01*
X41238095Y-57197676D02*
X41333333Y-57102438D01*
X41333333Y-57102438D02*
X41428571Y-57054819D01*
X41428571Y-57054819D02*
X41619047Y-57054819D01*
X41619047Y-57054819D02*
X41714285Y-57102438D01*
X41714285Y-57102438D02*
X41809523Y-57197676D01*
X41809523Y-57197676D02*
X41857142Y-57388152D01*
X41857142Y-57388152D02*
X41857142Y-57721485D01*
X41857142Y-57721485D02*
X41809523Y-57911961D01*
X41809523Y-57911961D02*
X41714285Y-58007200D01*
X41714285Y-58007200D02*
X41619047Y-58054819D01*
X41619047Y-58054819D02*
X41428571Y-58054819D01*
X42809523Y-58054819D02*
X42238095Y-58054819D01*
X42523809Y-58054819D02*
X42523809Y-57054819D01*
X42523809Y-57054819D02*
X42428571Y-57197676D01*
X42428571Y-57197676D02*
X42333333Y-57292914D01*
X42333333Y-57292914D02*
X42238095Y-57340533D01*
X17774819Y-57166666D02*
X17298628Y-57499999D01*
X17774819Y-57738094D02*
X16774819Y-57738094D01*
X16774819Y-57738094D02*
X16774819Y-57357142D01*
X16774819Y-57357142D02*
X16822438Y-57261904D01*
X16822438Y-57261904D02*
X16870057Y-57214285D01*
X16870057Y-57214285D02*
X16965295Y-57166666D01*
X16965295Y-57166666D02*
X17108152Y-57166666D01*
X17108152Y-57166666D02*
X17203390Y-57214285D01*
X17203390Y-57214285D02*
X17251009Y-57261904D01*
X17251009Y-57261904D02*
X17298628Y-57357142D01*
X17298628Y-57357142D02*
X17298628Y-57738094D01*
X16774819Y-56309523D02*
X16774819Y-56499999D01*
X16774819Y-56499999D02*
X16822438Y-56595237D01*
X16822438Y-56595237D02*
X16870057Y-56642856D01*
X16870057Y-56642856D02*
X17012914Y-56738094D01*
X17012914Y-56738094D02*
X17203390Y-56785713D01*
X17203390Y-56785713D02*
X17584342Y-56785713D01*
X17584342Y-56785713D02*
X17679580Y-56738094D01*
X17679580Y-56738094D02*
X17727200Y-56690475D01*
X17727200Y-56690475D02*
X17774819Y-56595237D01*
X17774819Y-56595237D02*
X17774819Y-56404761D01*
X17774819Y-56404761D02*
X17727200Y-56309523D01*
X17727200Y-56309523D02*
X17679580Y-56261904D01*
X17679580Y-56261904D02*
X17584342Y-56214285D01*
X17584342Y-56214285D02*
X17346247Y-56214285D01*
X17346247Y-56214285D02*
X17251009Y-56261904D01*
X17251009Y-56261904D02*
X17203390Y-56309523D01*
X17203390Y-56309523D02*
X17155771Y-56404761D01*
X17155771Y-56404761D02*
X17155771Y-56595237D01*
X17155771Y-56595237D02*
X17203390Y-56690475D01*
X17203390Y-56690475D02*
X17251009Y-56738094D01*
X17251009Y-56738094D02*
X17346247Y-56785713D01*
X26024819Y-3166666D02*
X25548628Y-3499999D01*
X26024819Y-3738094D02*
X25024819Y-3738094D01*
X25024819Y-3738094D02*
X25024819Y-3357142D01*
X25024819Y-3357142D02*
X25072438Y-3261904D01*
X25072438Y-3261904D02*
X25120057Y-3214285D01*
X25120057Y-3214285D02*
X25215295Y-3166666D01*
X25215295Y-3166666D02*
X25358152Y-3166666D01*
X25358152Y-3166666D02*
X25453390Y-3214285D01*
X25453390Y-3214285D02*
X25501009Y-3261904D01*
X25501009Y-3261904D02*
X25548628Y-3357142D01*
X25548628Y-3357142D02*
X25548628Y-3738094D01*
X26024819Y-2690475D02*
X26024819Y-2499999D01*
X26024819Y-2499999D02*
X25977200Y-2404761D01*
X25977200Y-2404761D02*
X25929580Y-2357142D01*
X25929580Y-2357142D02*
X25786723Y-2261904D01*
X25786723Y-2261904D02*
X25596247Y-2214285D01*
X25596247Y-2214285D02*
X25215295Y-2214285D01*
X25215295Y-2214285D02*
X25120057Y-2261904D01*
X25120057Y-2261904D02*
X25072438Y-2309523D01*
X25072438Y-2309523D02*
X25024819Y-2404761D01*
X25024819Y-2404761D02*
X25024819Y-2595237D01*
X25024819Y-2595237D02*
X25072438Y-2690475D01*
X25072438Y-2690475D02*
X25120057Y-2738094D01*
X25120057Y-2738094D02*
X25215295Y-2785713D01*
X25215295Y-2785713D02*
X25453390Y-2785713D01*
X25453390Y-2785713D02*
X25548628Y-2738094D01*
X25548628Y-2738094D02*
X25596247Y-2690475D01*
X25596247Y-2690475D02*
X25643866Y-2595237D01*
X25643866Y-2595237D02*
X25643866Y-2404761D01*
X25643866Y-2404761D02*
X25596247Y-2309523D01*
X25596247Y-2309523D02*
X25548628Y-2261904D01*
X25548628Y-2261904D02*
X25453390Y-2214285D01*
X31105819Y-6798333D02*
X31820104Y-6798333D01*
X31820104Y-6798333D02*
X31962961Y-6845952D01*
X31962961Y-6845952D02*
X32058200Y-6941190D01*
X32058200Y-6941190D02*
X32105819Y-7084047D01*
X32105819Y-7084047D02*
X32105819Y-7179285D01*
X31534390Y-6179285D02*
X31486771Y-6274523D01*
X31486771Y-6274523D02*
X31439152Y-6322142D01*
X31439152Y-6322142D02*
X31343914Y-6369761D01*
X31343914Y-6369761D02*
X31296295Y-6369761D01*
X31296295Y-6369761D02*
X31201057Y-6322142D01*
X31201057Y-6322142D02*
X31153438Y-6274523D01*
X31153438Y-6274523D02*
X31105819Y-6179285D01*
X31105819Y-6179285D02*
X31105819Y-5988809D01*
X31105819Y-5988809D02*
X31153438Y-5893571D01*
X31153438Y-5893571D02*
X31201057Y-5845952D01*
X31201057Y-5845952D02*
X31296295Y-5798333D01*
X31296295Y-5798333D02*
X31343914Y-5798333D01*
X31343914Y-5798333D02*
X31439152Y-5845952D01*
X31439152Y-5845952D02*
X31486771Y-5893571D01*
X31486771Y-5893571D02*
X31534390Y-5988809D01*
X31534390Y-5988809D02*
X31534390Y-6179285D01*
X31534390Y-6179285D02*
X31582009Y-6274523D01*
X31582009Y-6274523D02*
X31629628Y-6322142D01*
X31629628Y-6322142D02*
X31724866Y-6369761D01*
X31724866Y-6369761D02*
X31915342Y-6369761D01*
X31915342Y-6369761D02*
X32010580Y-6322142D01*
X32010580Y-6322142D02*
X32058200Y-6274523D01*
X32058200Y-6274523D02*
X32105819Y-6179285D01*
X32105819Y-6179285D02*
X32105819Y-5988809D01*
X32105819Y-5988809D02*
X32058200Y-5893571D01*
X32058200Y-5893571D02*
X32010580Y-5845952D01*
X32010580Y-5845952D02*
X31915342Y-5798333D01*
X31915342Y-5798333D02*
X31724866Y-5798333D01*
X31724866Y-5798333D02*
X31629628Y-5845952D01*
X31629628Y-5845952D02*
X31582009Y-5893571D01*
X31582009Y-5893571D02*
X31534390Y-5988809D01*
X64833333Y-60024819D02*
X64500000Y-59548628D01*
X64261905Y-60024819D02*
X64261905Y-59024819D01*
X64261905Y-59024819D02*
X64642857Y-59024819D01*
X64642857Y-59024819D02*
X64738095Y-59072438D01*
X64738095Y-59072438D02*
X64785714Y-59120057D01*
X64785714Y-59120057D02*
X64833333Y-59215295D01*
X64833333Y-59215295D02*
X64833333Y-59358152D01*
X64833333Y-59358152D02*
X64785714Y-59453390D01*
X64785714Y-59453390D02*
X64738095Y-59501009D01*
X64738095Y-59501009D02*
X64642857Y-59548628D01*
X64642857Y-59548628D02*
X64261905Y-59548628D01*
X65738095Y-59024819D02*
X65261905Y-59024819D01*
X65261905Y-59024819D02*
X65214286Y-59501009D01*
X65214286Y-59501009D02*
X65261905Y-59453390D01*
X65261905Y-59453390D02*
X65357143Y-59405771D01*
X65357143Y-59405771D02*
X65595238Y-59405771D01*
X65595238Y-59405771D02*
X65690476Y-59453390D01*
X65690476Y-59453390D02*
X65738095Y-59501009D01*
X65738095Y-59501009D02*
X65785714Y-59596247D01*
X65785714Y-59596247D02*
X65785714Y-59834342D01*
X65785714Y-59834342D02*
X65738095Y-59929580D01*
X65738095Y-59929580D02*
X65690476Y-59977200D01*
X65690476Y-59977200D02*
X65595238Y-60024819D01*
X65595238Y-60024819D02*
X65357143Y-60024819D01*
X65357143Y-60024819D02*
X65261905Y-59977200D01*
X65261905Y-59977200D02*
X65214286Y-59929580D01*
X40491333Y-6620819D02*
X40158000Y-6144628D01*
X39919905Y-6620819D02*
X39919905Y-5620819D01*
X39919905Y-5620819D02*
X40300857Y-5620819D01*
X40300857Y-5620819D02*
X40396095Y-5668438D01*
X40396095Y-5668438D02*
X40443714Y-5716057D01*
X40443714Y-5716057D02*
X40491333Y-5811295D01*
X40491333Y-5811295D02*
X40491333Y-5954152D01*
X40491333Y-5954152D02*
X40443714Y-6049390D01*
X40443714Y-6049390D02*
X40396095Y-6097009D01*
X40396095Y-6097009D02*
X40300857Y-6144628D01*
X40300857Y-6144628D02*
X39919905Y-6144628D01*
X41062762Y-6049390D02*
X40967524Y-6001771D01*
X40967524Y-6001771D02*
X40919905Y-5954152D01*
X40919905Y-5954152D02*
X40872286Y-5858914D01*
X40872286Y-5858914D02*
X40872286Y-5811295D01*
X40872286Y-5811295D02*
X40919905Y-5716057D01*
X40919905Y-5716057D02*
X40967524Y-5668438D01*
X40967524Y-5668438D02*
X41062762Y-5620819D01*
X41062762Y-5620819D02*
X41253238Y-5620819D01*
X41253238Y-5620819D02*
X41348476Y-5668438D01*
X41348476Y-5668438D02*
X41396095Y-5716057D01*
X41396095Y-5716057D02*
X41443714Y-5811295D01*
X41443714Y-5811295D02*
X41443714Y-5858914D01*
X41443714Y-5858914D02*
X41396095Y-5954152D01*
X41396095Y-5954152D02*
X41348476Y-6001771D01*
X41348476Y-6001771D02*
X41253238Y-6049390D01*
X41253238Y-6049390D02*
X41062762Y-6049390D01*
X41062762Y-6049390D02*
X40967524Y-6097009D01*
X40967524Y-6097009D02*
X40919905Y-6144628D01*
X40919905Y-6144628D02*
X40872286Y-6239866D01*
X40872286Y-6239866D02*
X40872286Y-6430342D01*
X40872286Y-6430342D02*
X40919905Y-6525580D01*
X40919905Y-6525580D02*
X40967524Y-6573200D01*
X40967524Y-6573200D02*
X41062762Y-6620819D01*
X41062762Y-6620819D02*
X41253238Y-6620819D01*
X41253238Y-6620819D02*
X41348476Y-6573200D01*
X41348476Y-6573200D02*
X41396095Y-6525580D01*
X41396095Y-6525580D02*
X41443714Y-6430342D01*
X41443714Y-6430342D02*
X41443714Y-6239866D01*
X41443714Y-6239866D02*
X41396095Y-6144628D01*
X41396095Y-6144628D02*
X41348476Y-6097009D01*
X41348476Y-6097009D02*
X41253238Y-6049390D01*
X12035666Y-62984819D02*
X12035666Y-63699104D01*
X12035666Y-63699104D02*
X11988047Y-63841961D01*
X11988047Y-63841961D02*
X11892809Y-63937200D01*
X11892809Y-63937200D02*
X11749952Y-63984819D01*
X11749952Y-63984819D02*
X11654714Y-63984819D01*
X12940428Y-62984819D02*
X12749952Y-62984819D01*
X12749952Y-62984819D02*
X12654714Y-63032438D01*
X12654714Y-63032438D02*
X12607095Y-63080057D01*
X12607095Y-63080057D02*
X12511857Y-63222914D01*
X12511857Y-63222914D02*
X12464238Y-63413390D01*
X12464238Y-63413390D02*
X12464238Y-63794342D01*
X12464238Y-63794342D02*
X12511857Y-63889580D01*
X12511857Y-63889580D02*
X12559476Y-63937200D01*
X12559476Y-63937200D02*
X12654714Y-63984819D01*
X12654714Y-63984819D02*
X12845190Y-63984819D01*
X12845190Y-63984819D02*
X12940428Y-63937200D01*
X12940428Y-63937200D02*
X12988047Y-63889580D01*
X12988047Y-63889580D02*
X13035666Y-63794342D01*
X13035666Y-63794342D02*
X13035666Y-63556247D01*
X13035666Y-63556247D02*
X12988047Y-63461009D01*
X12988047Y-63461009D02*
X12940428Y-63413390D01*
X12940428Y-63413390D02*
X12845190Y-63365771D01*
X12845190Y-63365771D02*
X12654714Y-63365771D01*
X12654714Y-63365771D02*
X12559476Y-63413390D01*
X12559476Y-63413390D02*
X12511857Y-63461009D01*
X12511857Y-63461009D02*
X12464238Y-63556247D01*
X79833333Y-50009580D02*
X79785714Y-50057200D01*
X79785714Y-50057200D02*
X79642857Y-50104819D01*
X79642857Y-50104819D02*
X79547619Y-50104819D01*
X79547619Y-50104819D02*
X79404762Y-50057200D01*
X79404762Y-50057200D02*
X79309524Y-49961961D01*
X79309524Y-49961961D02*
X79261905Y-49866723D01*
X79261905Y-49866723D02*
X79214286Y-49676247D01*
X79214286Y-49676247D02*
X79214286Y-49533390D01*
X79214286Y-49533390D02*
X79261905Y-49342914D01*
X79261905Y-49342914D02*
X79309524Y-49247676D01*
X79309524Y-49247676D02*
X79404762Y-49152438D01*
X79404762Y-49152438D02*
X79547619Y-49104819D01*
X79547619Y-49104819D02*
X79642857Y-49104819D01*
X79642857Y-49104819D02*
X79785714Y-49152438D01*
X79785714Y-49152438D02*
X79833333Y-49200057D01*
X80166667Y-49104819D02*
X80785714Y-49104819D01*
X80785714Y-49104819D02*
X80452381Y-49485771D01*
X80452381Y-49485771D02*
X80595238Y-49485771D01*
X80595238Y-49485771D02*
X80690476Y-49533390D01*
X80690476Y-49533390D02*
X80738095Y-49581009D01*
X80738095Y-49581009D02*
X80785714Y-49676247D01*
X80785714Y-49676247D02*
X80785714Y-49914342D01*
X80785714Y-49914342D02*
X80738095Y-50009580D01*
X80738095Y-50009580D02*
X80690476Y-50057200D01*
X80690476Y-50057200D02*
X80595238Y-50104819D01*
X80595238Y-50104819D02*
X80309524Y-50104819D01*
X80309524Y-50104819D02*
X80214286Y-50057200D01*
X80214286Y-50057200D02*
X80166667Y-50009580D01*
X87833333Y-52929580D02*
X87785714Y-52977200D01*
X87785714Y-52977200D02*
X87642857Y-53024819D01*
X87642857Y-53024819D02*
X87547619Y-53024819D01*
X87547619Y-53024819D02*
X87404762Y-52977200D01*
X87404762Y-52977200D02*
X87309524Y-52881961D01*
X87309524Y-52881961D02*
X87261905Y-52786723D01*
X87261905Y-52786723D02*
X87214286Y-52596247D01*
X87214286Y-52596247D02*
X87214286Y-52453390D01*
X87214286Y-52453390D02*
X87261905Y-52262914D01*
X87261905Y-52262914D02*
X87309524Y-52167676D01*
X87309524Y-52167676D02*
X87404762Y-52072438D01*
X87404762Y-52072438D02*
X87547619Y-52024819D01*
X87547619Y-52024819D02*
X87642857Y-52024819D01*
X87642857Y-52024819D02*
X87785714Y-52072438D01*
X87785714Y-52072438D02*
X87833333Y-52120057D01*
X88404762Y-52453390D02*
X88309524Y-52405771D01*
X88309524Y-52405771D02*
X88261905Y-52358152D01*
X88261905Y-52358152D02*
X88214286Y-52262914D01*
X88214286Y-52262914D02*
X88214286Y-52215295D01*
X88214286Y-52215295D02*
X88261905Y-52120057D01*
X88261905Y-52120057D02*
X88309524Y-52072438D01*
X88309524Y-52072438D02*
X88404762Y-52024819D01*
X88404762Y-52024819D02*
X88595238Y-52024819D01*
X88595238Y-52024819D02*
X88690476Y-52072438D01*
X88690476Y-52072438D02*
X88738095Y-52120057D01*
X88738095Y-52120057D02*
X88785714Y-52215295D01*
X88785714Y-52215295D02*
X88785714Y-52262914D01*
X88785714Y-52262914D02*
X88738095Y-52358152D01*
X88738095Y-52358152D02*
X88690476Y-52405771D01*
X88690476Y-52405771D02*
X88595238Y-52453390D01*
X88595238Y-52453390D02*
X88404762Y-52453390D01*
X88404762Y-52453390D02*
X88309524Y-52501009D01*
X88309524Y-52501009D02*
X88261905Y-52548628D01*
X88261905Y-52548628D02*
X88214286Y-52643866D01*
X88214286Y-52643866D02*
X88214286Y-52834342D01*
X88214286Y-52834342D02*
X88261905Y-52929580D01*
X88261905Y-52929580D02*
X88309524Y-52977200D01*
X88309524Y-52977200D02*
X88404762Y-53024819D01*
X88404762Y-53024819D02*
X88595238Y-53024819D01*
X88595238Y-53024819D02*
X88690476Y-52977200D01*
X88690476Y-52977200D02*
X88738095Y-52929580D01*
X88738095Y-52929580D02*
X88785714Y-52834342D01*
X88785714Y-52834342D02*
X88785714Y-52643866D01*
X88785714Y-52643866D02*
X88738095Y-52548628D01*
X88738095Y-52548628D02*
X88690476Y-52501009D01*
X88690476Y-52501009D02*
X88595238Y-52453390D01*
D11*
X91306666Y-63579271D02*
X91306666Y-62309271D01*
X91306666Y-62309271D02*
X91730000Y-63216414D01*
X91730000Y-63216414D02*
X92153333Y-62309271D01*
X92153333Y-62309271D02*
X92153333Y-63579271D01*
X92758095Y-63579271D02*
X92758095Y-62309271D01*
X92758095Y-62914033D02*
X93483810Y-62914033D01*
X93483810Y-63579271D02*
X93483810Y-62309271D01*
X94632857Y-62732604D02*
X94632857Y-63579271D01*
X94330476Y-62248795D02*
X94028095Y-63155937D01*
X94028095Y-63155937D02*
X94814286Y-63155937D01*
%TO.C,R7*%
D12*
X21227500Y-57237258D02*
X21227500Y-56762742D01*
X22272500Y-57237258D02*
X22272500Y-56762742D01*
%TO.C,J2*%
X90620000Y-59380000D02*
X90620000Y-58000000D01*
X92000000Y-59380000D02*
X90620000Y-59380000D01*
X93270000Y-56620000D02*
X98460000Y-56620000D01*
X93270000Y-59380000D02*
X93270000Y-56620000D01*
X93270000Y-59380000D02*
X98460000Y-59380000D01*
X98460000Y-59380000D02*
X98460000Y-56620000D01*
%TO.C,C6*%
X59859420Y-31490000D02*
X60140580Y-31490000D01*
X59859420Y-32510000D02*
X60140580Y-32510000D01*
%TO.C,J9*%
X81620000Y-38620000D02*
X83000000Y-38620000D01*
X81620000Y-40000000D02*
X81620000Y-38620000D01*
X81620000Y-41270000D02*
X81620000Y-49000000D01*
X81620000Y-41270000D02*
X84380000Y-41270000D01*
X81620000Y-49000000D02*
X84380000Y-49000000D01*
X84380000Y-41270000D02*
X84380000Y-49000000D01*
%TO.C,U2*%
X49900000Y-6900000D02*
X70100000Y-6900000D01*
X70100000Y-27100000D01*
X49900000Y-27100000D01*
X49900000Y-6900000D01*
X49400000Y-6900000D02*
X49900000Y-6400000D01*
X49900000Y-6900000D01*
X49400000Y-6900000D01*
G36*
X49900000Y-6900000D02*
G01*
X49400000Y-6900000D01*
X49900000Y-6400000D01*
X49900000Y-6900000D01*
G37*
%TO.C,J1*%
X15300000Y-62720000D02*
X15300000Y-64500000D01*
X17200000Y-59800000D02*
X16400000Y-59800000D01*
X24700000Y-62720000D02*
X24700000Y-64500000D01*
%TO.C,J7*%
X44870000Y-38620000D02*
X46250000Y-38620000D01*
X44870000Y-40000000D02*
X44870000Y-38620000D01*
X44870000Y-41270000D02*
X44870000Y-43920000D01*
X44870000Y-41270000D02*
X47630000Y-41270000D01*
X44870000Y-43920000D02*
X47630000Y-43920000D01*
X47630000Y-41270000D02*
X47630000Y-43920000D01*
%TO.C,U3*%
X55090000Y-40440000D02*
X56910000Y-40440000D01*
X55090000Y-40490000D02*
X55090000Y-40440000D01*
X55090000Y-43560000D02*
X55090000Y-43510000D01*
X56910000Y-40440000D02*
X56910000Y-40490000D01*
X56910000Y-41610000D02*
X56910000Y-42390000D01*
X56910000Y-43510000D02*
X56910000Y-43560000D01*
X56910000Y-43560000D02*
X55090000Y-43560000D01*
X54550000Y-40490000D02*
X54310000Y-40160000D01*
X54790000Y-40160000D01*
X54550000Y-40490000D01*
G36*
X54550000Y-40490000D02*
G01*
X54310000Y-40160000D01*
X54790000Y-40160000D01*
X54550000Y-40490000D01*
G37*
%TO.C,R3*%
X62762742Y-41477500D02*
X63237258Y-41477500D01*
X62762742Y-42522500D02*
X63237258Y-42522500D01*
%TO.C,U1*%
X11500000Y-10000000D02*
X40500000Y-10000000D01*
X40500000Y-50000000D01*
X11500000Y-50000000D01*
X11500000Y-10000000D01*
X10800000Y-12220000D02*
X11400000Y-11620000D01*
X11400000Y-12820000D01*
X10800000Y-12220000D01*
G36*
X11400000Y-12820000D02*
G01*
X10800000Y-12220000D01*
X11400000Y-11620000D01*
X11400000Y-12820000D01*
G37*
%TO.C,R10*%
X20477500Y-3237258D02*
X20477500Y-2762742D01*
X21522500Y-3237258D02*
X21522500Y-2762742D01*
%TO.C,C5*%
X43490000Y-50140580D02*
X43490000Y-49859420D01*
X44510000Y-50140580D02*
X44510000Y-49859420D01*
%TO.C,C4*%
X83400000Y-20490000D02*
X84400000Y-20490000D01*
X83900000Y-19990000D02*
X83900000Y-20990000D01*
X84640000Y-19704437D02*
X84640000Y-21490000D01*
X84640000Y-19704437D02*
X85704437Y-18640000D01*
X84640000Y-26295563D02*
X84640000Y-24510000D01*
X84640000Y-26295563D02*
X85704437Y-27360000D01*
X85704437Y-18640000D02*
X93360000Y-18640000D01*
X85704437Y-27360000D02*
X93360000Y-27360000D01*
X93360000Y-18640000D02*
X93360000Y-21490000D01*
X93360000Y-27360000D02*
X93360000Y-24510000D01*
%TO.C,D1*%
X70200000Y-61735000D02*
X72485000Y-61735000D01*
X72485000Y-60265000D02*
X70200000Y-60265000D01*
X72485000Y-61735000D02*
X72485000Y-60265000D01*
%TO.C,C9*%
X57859420Y-51490000D02*
X58140580Y-51490000D01*
X57859420Y-52510000D02*
X58140580Y-52510000D01*
%TO.C,R2*%
X45477500Y-12237258D02*
X45477500Y-11762742D01*
X46522500Y-12237258D02*
X46522500Y-11762742D01*
%TO.C,J3*%
X92890000Y-39390000D02*
X92890000Y-40440000D01*
X92890000Y-40440000D02*
X91900000Y-40440000D01*
X92890000Y-44610000D02*
X92890000Y-43560000D01*
X94040000Y-39390000D02*
X92890000Y-39390000D01*
X94040000Y-44610000D02*
X92890000Y-44610000D01*
X96010000Y-40560000D02*
X96010000Y-43440000D01*
%TO.C,C1*%
X48400000Y-57490000D02*
X49400000Y-57490000D01*
X48900000Y-56990000D02*
X48900000Y-57990000D01*
X49640000Y-56704437D02*
X49640000Y-58490000D01*
X49640000Y-56704437D02*
X50704437Y-55640000D01*
X49640000Y-63295563D02*
X49640000Y-61510000D01*
X49640000Y-63295563D02*
X50704437Y-64360000D01*
X50704437Y-55640000D02*
X58360000Y-55640000D01*
X50704437Y-64360000D02*
X58360000Y-64360000D01*
X58360000Y-55640000D02*
X58360000Y-58490000D01*
X58360000Y-64360000D02*
X58360000Y-61510000D01*
%TO.C,C2*%
X73562500Y-13152500D02*
X74350000Y-13152500D01*
X73956250Y-12758750D02*
X73956250Y-13546250D01*
X74590000Y-12654437D02*
X74590000Y-13940000D01*
X74590000Y-12654437D02*
X75654437Y-11590000D01*
X74590000Y-17345563D02*
X74590000Y-16060000D01*
X74590000Y-17345563D02*
X75654437Y-18410000D01*
X75654437Y-11590000D02*
X81410000Y-11590000D01*
X75654437Y-18410000D02*
X81410000Y-18410000D01*
X81410000Y-11590000D02*
X81410000Y-13940000D01*
X81410000Y-18410000D02*
X81410000Y-16060000D01*
%TO.C,F1*%
X33613748Y-58290000D02*
X36386252Y-58290000D01*
X33613748Y-61710000D02*
X36386252Y-61710000D01*
%TO.C,J5*%
X89640000Y-9890000D02*
X89640000Y-11140000D01*
X89940000Y-11500000D02*
X90550000Y-11500000D01*
X89940000Y-12800000D02*
X90550000Y-12800000D01*
X90550000Y-10800000D02*
X90550000Y-14300000D01*
X90550000Y-14300000D02*
X95450000Y-14300000D01*
X90890000Y-9890000D02*
X89640000Y-9890000D01*
X91400000Y-9990000D02*
X91400000Y-10190000D01*
X91700000Y-9990000D02*
X91400000Y-9990000D01*
X91700000Y-10090000D02*
X91400000Y-10090000D01*
X91700000Y-10190000D02*
X91700000Y-9990000D01*
X92500000Y-10190000D02*
X92500000Y-10800000D01*
X92500000Y-10800000D02*
X90550000Y-10800000D01*
X92900000Y-13800000D02*
X93100000Y-13800000D01*
X92900000Y-14300000D02*
X92900000Y-13800000D01*
X93000000Y-14300000D02*
X93000000Y-13800000D01*
X93100000Y-13800000D02*
X93100000Y-14300000D01*
X93500000Y-10800000D02*
X93500000Y-10190000D01*
X95450000Y-10800000D02*
X93500000Y-10800000D01*
X95450000Y-14300000D02*
X95450000Y-10800000D01*
X96060000Y-11500000D02*
X95450000Y-11500000D01*
X96060000Y-12800000D02*
X95450000Y-12800000D01*
X89940000Y-10190000D02*
X96060000Y-10190000D01*
X96060000Y-14910000D01*
X89940000Y-14910000D01*
X89940000Y-10190000D01*
%TO.C,C7*%
X55859420Y-46490000D02*
X56140580Y-46490000D01*
X55859420Y-47510000D02*
X56140580Y-47510000D01*
%TO.C,R1*%
X41762742Y-64477500D02*
X42237258Y-64477500D01*
X41762742Y-65522500D02*
X42237258Y-65522500D01*
%TO.C,Q1*%
X41240000Y-58440000D02*
X42760000Y-58440000D01*
X41240000Y-58490000D02*
X41240000Y-58440000D01*
X41240000Y-60390000D02*
X41240000Y-59610000D01*
X41240000Y-61560000D02*
X41240000Y-61510000D01*
X42760000Y-58440000D02*
X42760000Y-59440000D01*
X42760000Y-60560000D02*
X42760000Y-61560000D01*
X42760000Y-61560000D02*
X41240000Y-61560000D01*
X40700000Y-59620000D02*
X40940000Y-59950000D01*
X40460000Y-59950000D01*
X40700000Y-59620000D01*
G36*
X40940000Y-59950000D02*
G01*
X40460000Y-59950000D01*
X40700000Y-59620000D01*
X40940000Y-59950000D01*
G37*
%TO.C,R6*%
X18227500Y-57237258D02*
X18227500Y-56762742D01*
X19272500Y-57237258D02*
X19272500Y-56762742D01*
%TO.C,R9*%
X26477500Y-3237258D02*
X26477500Y-2762742D01*
X27522500Y-3237258D02*
X27522500Y-2762742D01*
%TO.C,J8*%
X20271000Y-5085000D02*
X20271000Y-7845000D01*
X28001000Y-5085000D02*
X20271000Y-5085000D01*
X28001000Y-5085000D02*
X28001000Y-7845000D01*
X28001000Y-7845000D02*
X20271000Y-7845000D01*
X29271000Y-5085000D02*
X30651000Y-5085000D01*
X30651000Y-5085000D02*
X30651000Y-6465000D01*
%TO.C,R5*%
X64762742Y-60477500D02*
X65237258Y-60477500D01*
X64762742Y-61522500D02*
X65237258Y-61522500D01*
%TO.C,R8*%
X40420742Y-7073500D02*
X40895258Y-7073500D01*
X40420742Y-8118500D02*
X40895258Y-8118500D01*
%TO.C,J6*%
X10989000Y-59880000D02*
X10989000Y-52150000D01*
X13749000Y-52150000D02*
X10989000Y-52150000D01*
X13749000Y-59880000D02*
X10989000Y-59880000D01*
X13749000Y-59880000D02*
X13749000Y-52150000D01*
X13749000Y-61150000D02*
X13749000Y-62530000D01*
X13749000Y-62530000D02*
X12369000Y-62530000D01*
%TO.C,C3*%
X75562500Y-52152500D02*
X76350000Y-52152500D01*
X75956250Y-51758750D02*
X75956250Y-52546250D01*
X76590000Y-51654437D02*
X76590000Y-52940000D01*
X76590000Y-51654437D02*
X77654437Y-50590000D01*
X76590000Y-56345563D02*
X76590000Y-55060000D01*
X76590000Y-56345563D02*
X77654437Y-57410000D01*
X77654437Y-50590000D02*
X83410000Y-50590000D01*
X77654437Y-57410000D02*
X83410000Y-57410000D01*
X83410000Y-50590000D02*
X83410000Y-52940000D01*
X83410000Y-57410000D02*
X83410000Y-55060000D01*
%TO.C,C8*%
X87859420Y-53490000D02*
X88140580Y-53490000D01*
X87859420Y-54510000D02*
X88140580Y-54510000D01*
%TD*%
M02*
