%TF.GenerationSoftware,KiCad,Pcbnew,10.0.5*%
%TF.CreationDate,2026-08-30T09:08:53-07:00*%
%TF.ProjectId,droidrefit-pcb,64726f69-6472-4656-9669-742d7063622e,rev?*%
%TF.SameCoordinates,Original*%
%TF.FileFunction,Paste,Top*%
%TF.FilePolarity,Positive*%
%FSLAX46Y46*%
G04 Gerber Fmt 4.6, Leading zero omitted, Abs format (unit mm)*
G04 Created by KiCad (PCBNEW 10.0.5) date 2026-08-30 09:08:53*
%MOMM*%
%LPD*%
G01*
G04 APERTURE LIST*
G04 Aperture macros list*
%AMRoundRect*
0 Rectangle with rounded corners*
0 $1 Rounding radius*
0 $2 $3 $4 $5 $6 $7 $8 $9 X,Y pos of 4 corners*
0 Add a 4 corners polygon primitive as box body*
4,1,4,$2,$3,$4,$5,$6,$7,$8,$9,$2,$3,0*
0 Add four circle primitives for the rounded corners*
1,1,$1+$1,$2,$3*
1,1,$1+$1,$4,$5*
1,1,$1+$1,$6,$7*
1,1,$1+$1,$8,$9*
0 Add four rect primitives between the rounded corners*
20,1,$1+$1,$2,$3,$4,$5,0*
20,1,$1+$1,$4,$5,$6,$7,0*
20,1,$1+$1,$6,$7,$8,$9,0*
20,1,$1+$1,$8,$9,$2,$3,0*%
G04 Aperture macros list end*
%ADD10RoundRect,0.200000X0.275000X-0.200000X0.275000X0.200000X-0.275000X0.200000X-0.275000X-0.200000X0*%
%ADD11RoundRect,0.225000X-0.225000X-0.250000X0.225000X-0.250000X0.225000X0.250000X-0.225000X0.250000X0*%
%ADD12RoundRect,0.150000X-0.150000X-0.500000X0.150000X-0.500000X0.150000X0.500000X-0.150000X0.500000X0*%
%ADD13RoundRect,0.075000X-0.075000X-0.575000X0.075000X-0.575000X0.075000X0.575000X-0.075000X0.575000X0*%
%ADD14RoundRect,0.150000X-0.512500X-0.150000X0.512500X-0.150000X0.512500X0.150000X-0.512500X0.150000X0*%
%ADD15RoundRect,0.200000X-0.200000X-0.275000X0.200000X-0.275000X0.200000X0.275000X-0.200000X0.275000X0*%
%ADD16RoundRect,0.225000X0.250000X-0.225000X0.250000X0.225000X-0.250000X0.225000X-0.250000X-0.225000X0*%
%ADD17RoundRect,0.250000X-1.950000X-1.000000X1.950000X-1.000000X1.950000X1.000000X-1.950000X1.000000X0*%
%ADD18RoundRect,0.218750X0.218750X0.256250X-0.218750X0.256250X-0.218750X-0.256250X0.218750X-0.256250X0*%
%ADD19RoundRect,0.300000X-0.300000X-0.400000X0.300000X-0.400000X0.300000X0.400000X-0.300000X0.400000X0*%
%ADD20RoundRect,0.150000X-0.625000X0.150000X-0.625000X-0.150000X0.625000X-0.150000X0.625000X0.150000X0*%
%ADD21RoundRect,0.250000X-0.650000X0.350000X-0.650000X-0.350000X0.650000X-0.350000X0.650000X0.350000X0*%
%ADD22RoundRect,0.250000X-1.500000X-0.550000X1.500000X-0.550000X1.500000X0.550000X-1.500000X0.550000X0*%
%ADD23RoundRect,0.250000X-0.312500X-1.450000X0.312500X-1.450000X0.312500X1.450000X-0.312500X1.450000X0*%
%ADD24RoundRect,0.150000X-0.587500X-0.150000X0.587500X-0.150000X0.587500X0.150000X-0.587500X0.150000X0*%
%TA.AperFunction,Profile*%
%ADD25C,0.100000*%
%TD*%
G04 APERTURE END LIST*
D10*
%TO.C,R7*%
X21750000Y-57825000D03*
X21750000Y-56175000D03*
%TD*%
D11*
%TO.C,C6*%
X59225000Y-32000000D03*
X60775000Y-32000000D03*
%TD*%
D12*
%TO.C,J1*%
X16800000Y-60755000D03*
X17600000Y-60755000D03*
D13*
X18750000Y-60755000D03*
X19750000Y-60755000D03*
X20250000Y-60755000D03*
X21250000Y-60755000D03*
D12*
X22400000Y-60755000D03*
X23200000Y-60755000D03*
X23200000Y-60755000D03*
X22400000Y-60755000D03*
D13*
X21750000Y-60755000D03*
X20750000Y-60755000D03*
X19250000Y-60755000D03*
X18250000Y-60755000D03*
D12*
X17600000Y-60755000D03*
X16800000Y-60755000D03*
%TD*%
D14*
%TO.C,U3*%
X54862500Y-41050000D03*
X54862500Y-42000000D03*
X54862500Y-42950000D03*
X57137500Y-42950000D03*
X57137500Y-41050000D03*
%TD*%
D15*
%TO.C,R3*%
X62175000Y-42000000D03*
X63825000Y-42000000D03*
%TD*%
D16*
%TO.C,C5*%
X44000000Y-50775000D03*
X44000000Y-49225000D03*
%TD*%
D17*
%TO.C,C4*%
X85300000Y-23000000D03*
X92700000Y-23000000D03*
%TD*%
D18*
%TO.C,D1*%
X71787500Y-61000000D03*
X70212500Y-61000000D03*
%TD*%
D19*
%TO.C,JP1*%
X67000000Y-40000000D03*
X67000000Y-42000000D03*
X67000000Y-44000000D03*
X69000000Y-40000000D03*
X69000000Y-42000000D03*
X69000000Y-44000000D03*
%TD*%
D11*
%TO.C,C9*%
X57225000Y-52000000D03*
X58775000Y-52000000D03*
%TD*%
D10*
%TO.C,R2*%
X46000000Y-12825000D03*
X46000000Y-11175000D03*
%TD*%
D20*
%TO.C,J3*%
X92675000Y-41000000D03*
X92675000Y-42000000D03*
X92675000Y-43000000D03*
D21*
X95200000Y-39700000D03*
X95200000Y-44300000D03*
%TD*%
D17*
%TO.C,C1*%
X50300000Y-60000000D03*
X57700000Y-60000000D03*
%TD*%
D22*
%TO.C,C2*%
X75300000Y-15000000D03*
X80700000Y-15000000D03*
%TD*%
D23*
%TO.C,F1*%
X32862500Y-60000000D03*
X37137500Y-60000000D03*
%TD*%
D11*
%TO.C,C7*%
X55225000Y-47000000D03*
X56775000Y-47000000D03*
%TD*%
D15*
%TO.C,R1*%
X41175000Y-65000000D03*
X42825000Y-65000000D03*
%TD*%
D24*
%TO.C,Q1*%
X41062500Y-59050000D03*
X41062500Y-60950000D03*
X42937500Y-60000000D03*
%TD*%
D10*
%TO.C,R6*%
X18750000Y-57825000D03*
X18750000Y-56175000D03*
%TD*%
D15*
%TO.C,R5*%
X64175000Y-61000000D03*
X65825000Y-61000000D03*
%TD*%
D22*
%TO.C,C3*%
X77300000Y-54000000D03*
X82700000Y-54000000D03*
%TD*%
D11*
%TO.C,C8*%
X87225000Y-54000000D03*
X88775000Y-54000000D03*
%TD*%
D25*
X0Y-3000000D02*
G75*
G02*
X3000000Y0I3000000J0D01*
G01*
X0Y-67000000D02*
X0Y-3000000D01*
X3000000Y0D02*
X97000000Y0D01*
X3000000Y-70000000D02*
G75*
G02*
X0Y-67000000I0J3000000D01*
G01*
X97000000Y0D02*
G75*
G02*
X100000000Y-3000000I0J-3000000D01*
G01*
X97000000Y-70000000D02*
X3000000Y-70000000D01*
X100000000Y-3000000D02*
X100000000Y-67000000D01*
X100000000Y-67000000D02*
G75*
G02*
X97000000Y-70000000I-3000000J0D01*
G01*
M02*
