%TF.GenerationSoftware,KiCad,Pcbnew,10.0.5*%
%TF.CreationDate,2026-09-05T09:30:40-07:00*%
%TF.ProjectId,droidrefit-pcb,64726f69-6472-4656-9669-742d7063622e,rev?*%
%TF.SameCoordinates,Original*%
%TF.FileFunction,Copper,L1,Top*%
%TF.FilePolarity,Positive*%
%FSLAX46Y46*%
G04 Gerber Fmt 4.6, Leading zero omitted, Abs format (unit mm)*
G04 Created by KiCad (PCBNEW 10.0.5) date 2026-09-05 09:30:40*
%MOMM*%
%LPD*%
G01*
G04 APERTURE LIST*
G04 Aperture macros list*
%AMRoundRect*
0 Rectangle with rounded corners*
0 $1 Rounding radius*
0 $2 $3 $4 $5 $6 $7 $8 $9 X,Y pos of 4 corners*
0 Add a 4 corners polygon primitive as box body*
4,1,4,$2,$3,$4,$5,$6,$7,$8,$9,$2,$3,0*
0 Add four circle primitives for the rounded corners*
1,1,$1+$1,$2,$3*
1,1,$1+$1,$4,$5*
1,1,$1+$1,$6,$7*
1,1,$1+$1,$8,$9*
0 Add four rect primitives between the rounded corners*
20,1,$1+$1,$2,$3,$4,$5,0*
20,1,$1+$1,$4,$5,$6,$7,0*
20,1,$1+$1,$6,$7,$8,$9,0*
20,1,$1+$1,$8,$9,$2,$3,0*%
G04 Aperture macros list end*
%TA.AperFunction,SMDPad,CuDef*%
%ADD10RoundRect,0.200000X0.275000X-0.200000X0.275000X0.200000X-0.275000X0.200000X-0.275000X-0.200000X0*%
%TD*%
%TA.AperFunction,ComponentPad*%
%ADD11R,1.700000X1.700000*%
%TD*%
%TA.AperFunction,ComponentPad*%
%ADD12C,1.700000*%
%TD*%
%TA.AperFunction,SMDPad,CuDef*%
%ADD13RoundRect,0.225000X-0.225000X-0.250000X0.225000X-0.250000X0.225000X0.250000X-0.225000X0.250000X0*%
%TD*%
%TA.AperFunction,SMDPad,CuDef*%
%ADD14RoundRect,0.150000X-0.150000X-0.500000X0.150000X-0.500000X0.150000X0.500000X-0.150000X0.500000X0*%
%TD*%
%TA.AperFunction,SMDPad,CuDef*%
%ADD15RoundRect,0.075000X-0.075000X-0.575000X0.075000X-0.575000X0.075000X0.575000X-0.075000X0.575000X0*%
%TD*%
%TA.AperFunction,ComponentPad*%
%ADD16O,1.000000X2.100000*%
%TD*%
%TA.AperFunction,ComponentPad*%
%ADD17O,1.000000X1.600000*%
%TD*%
%TA.AperFunction,SMDPad,CuDef*%
%ADD18RoundRect,0.150000X-0.512500X-0.150000X0.512500X-0.150000X0.512500X0.150000X-0.512500X0.150000X0*%
%TD*%
%TA.AperFunction,SMDPad,CuDef*%
%ADD19RoundRect,0.200000X-0.200000X-0.275000X0.200000X-0.275000X0.200000X0.275000X-0.200000X0.275000X0*%
%TD*%
%TA.AperFunction,SMDPad,CuDef*%
%ADD20RoundRect,0.225000X0.250000X-0.225000X0.250000X0.225000X-0.250000X0.225000X-0.250000X-0.225000X0*%
%TD*%
%TA.AperFunction,SMDPad,CuDef*%
%ADD21RoundRect,0.250000X-1.950000X-1.000000X1.950000X-1.000000X1.950000X1.000000X-1.950000X1.000000X0*%
%TD*%
%TA.AperFunction,SMDPad,CuDef*%
%ADD22RoundRect,0.218750X0.218750X0.256250X-0.218750X0.256250X-0.218750X-0.256250X0.218750X-0.256250X0*%
%TD*%
%TA.AperFunction,SMDPad,CuDef*%
%ADD23RoundRect,0.300000X-0.300000X-0.400000X0.300000X-0.400000X0.300000X0.400000X-0.300000X0.400000X0*%
%TD*%
%TA.AperFunction,SMDPad,CuDef*%
%ADD24RoundRect,0.150000X-0.625000X0.150000X-0.625000X-0.150000X0.625000X-0.150000X0.625000X0.150000X0*%
%TD*%
%TA.AperFunction,SMDPad,CuDef*%
%ADD25RoundRect,0.250000X-0.650000X0.350000X-0.650000X-0.350000X0.650000X-0.350000X0.650000X0.350000X0*%
%TD*%
%TA.AperFunction,SMDPad,CuDef*%
%ADD26RoundRect,0.250000X-1.500000X-0.550000X1.500000X-0.550000X1.500000X0.550000X-1.500000X0.550000X0*%
%TD*%
%TA.AperFunction,SMDPad,CuDef*%
%ADD27RoundRect,0.250000X-0.312500X-1.450000X0.312500X-1.450000X0.312500X1.450000X-0.312500X1.450000X0*%
%TD*%
%TA.AperFunction,ComponentPad*%
%ADD28RoundRect,0.250000X-0.350000X-0.625000X0.350000X-0.625000X0.350000X0.625000X-0.350000X0.625000X0*%
%TD*%
%TA.AperFunction,ComponentPad*%
%ADD29O,1.200000X1.750000*%
%TD*%
%TA.AperFunction,SMDPad,CuDef*%
%ADD30RoundRect,0.150000X-0.587500X-0.150000X0.587500X-0.150000X0.587500X0.150000X-0.587500X0.150000X0*%
%TD*%
%TA.AperFunction,ViaPad*%
%ADD31C,0.600000*%
%TD*%
%TA.AperFunction,Conductor*%
%ADD32C,0.250000*%
%TD*%
%TA.AperFunction,Conductor*%
%ADD33C,0.200000*%
%TD*%
%TA.AperFunction,Conductor*%
%ADD34C,0.600000*%
%TD*%
%TA.AperFunction,Conductor*%
%ADD35C,0.400000*%
%TD*%
%TA.AperFunction,Conductor*%
%ADD36C,0.800000*%
%TD*%
G04 APERTURE END LIST*
D10*
%TO.P,R7,1*%
%TO.N,CC2*%
X21750000Y-57825000D03*
%TO.P,R7,2*%
%TO.N,GND*%
X21750000Y-56175000D03*
%TD*%
D11*
%TO.P,J2,1*%
%TO.N,SERVO_PWM*%
X92000000Y-58000000D03*
D12*
%TO.P,J2,2*%
%TO.N,+5V*%
X94540000Y-58000000D03*
%TO.P,J2,3*%
%TO.N,GND*%
X97080000Y-58000000D03*
%TD*%
D13*
%TO.P,C6,1*%
%TO.N,+5V*%
X59225000Y-32000000D03*
%TO.P,C6,2*%
%TO.N,GND*%
X60775000Y-32000000D03*
%TD*%
D11*
%TO.P,J9,1*%
%TO.N,3V3*%
X83000000Y-40000000D03*
D12*
%TO.P,J9,2*%
%TO.N,GND*%
X83000000Y-42540000D03*
%TO.P,J9,3*%
%TO.N,UART0_TX0*%
X83000000Y-45080000D03*
%TO.P,J9,4*%
%TO.N,UART0_RX0*%
X83000000Y-47620000D03*
%TD*%
D11*
%TO.P,U2,1*%
%TO.N,+5V*%
X52380000Y-8110000D03*
D12*
%TO.P,U2,2*%
%TO.N,TX2_DFP*%
X52380000Y-10650000D03*
%TO.P,U2,3*%
%TO.N,RX2_DFP*%
X52380000Y-13190000D03*
%TO.P,U2,4*%
%TO.N,N/C*%
X52380000Y-15730000D03*
%TO.P,U2,5*%
X52380000Y-18270000D03*
%TO.P,U2,6*%
%TO.N,SPK_P*%
X52380000Y-20810000D03*
%TO.P,U2,7*%
%TO.N,GND*%
X52380000Y-23350000D03*
%TO.P,U2,8*%
%TO.N,SPK_N*%
X52380000Y-25890000D03*
%TO.P,U2,9*%
%TO.N,N/C*%
X67620000Y-25890000D03*
%TO.P,U2,10*%
%TO.N,GND*%
X67620000Y-23350000D03*
%TO.P,U2,11*%
%TO.N,N/C*%
X67620000Y-20810000D03*
%TO.P,U2,12*%
X67620000Y-18270000D03*
%TO.P,U2,13*%
X67620000Y-15730000D03*
%TO.P,U2,14*%
X67620000Y-13190000D03*
%TO.P,U2,15*%
X67620000Y-10650000D03*
%TO.P,U2,16*%
%TO.N,DFP_BUSY*%
X67620000Y-8110000D03*
%TD*%
D14*
%TO.P,J1,A1*%
%TO.N,GND*%
X16800000Y-60755000D03*
%TO.P,J1,A4*%
%TO.N,VBUS_IN*%
X17600000Y-60755000D03*
D15*
%TO.P,J1,A5*%
%TO.N,CC1*%
X18750000Y-60755000D03*
%TO.P,J1,A6*%
%TO.N,N/C*%
X19750000Y-60755000D03*
%TO.P,J1,A7*%
X20250000Y-60755000D03*
%TO.P,J1,A8*%
X21250000Y-60755000D03*
D14*
%TO.P,J1,A9*%
%TO.N,VBUS_IN*%
X22400000Y-60755000D03*
%TO.P,J1,A12*%
%TO.N,GND*%
X23200000Y-60755000D03*
%TO.P,J1,B1*%
X23200000Y-60755000D03*
%TO.P,J1,B4*%
%TO.N,VBUS_IN*%
X22400000Y-60755000D03*
D15*
%TO.P,J1,B5*%
%TO.N,CC2*%
X21750000Y-60755000D03*
%TO.P,J1,B6*%
%TO.N,N/C*%
X20750000Y-60755000D03*
%TO.P,J1,B7*%
X19250000Y-60755000D03*
%TO.P,J1,B8*%
X18250000Y-60755000D03*
D14*
%TO.P,J1,B9*%
%TO.N,VBUS_IN*%
X17600000Y-60755000D03*
%TO.P,J1,B12*%
%TO.N,GND*%
X16800000Y-60755000D03*
D16*
%TO.P,J1,SH*%
X15680000Y-61395000D03*
D17*
X15680000Y-65575000D03*
D16*
X24320000Y-61395000D03*
D17*
X24320000Y-65575000D03*
%TD*%
D11*
%TO.P,J7,1*%
%TO.N,BUZZER_PWM*%
X46250000Y-40000000D03*
D12*
%TO.P,J7,2*%
%TO.N,GND*%
X46250000Y-42540000D03*
%TD*%
D18*
%TO.P,U3,1*%
%TO.N,GND*%
X54862500Y-41050000D03*
%TO.P,U3,2*%
%TO.N,NPX_IN*%
X54862500Y-42000000D03*
%TO.P,U3,3*%
%TO.N,GND*%
X54862500Y-42950000D03*
%TO.P,U3,4*%
%TO.N,NPX_DATA_5V*%
X57137500Y-42950000D03*
%TO.P,U3,5*%
%TO.N,+5V*%
X57137500Y-41050000D03*
%TD*%
D19*
%TO.P,R3,1*%
%TO.N,NPX_DATA_5V*%
X62175000Y-42000000D03*
%TO.P,R3,2*%
%TO.N,NPX_DATA*%
X63825000Y-42000000D03*
%TD*%
D11*
%TO.P,U1,1*%
%TO.N,N/C*%
X13750000Y-12220000D03*
D12*
%TO.P,U1,2*%
X13750000Y-14760000D03*
%TO.P,U1,3*%
X13750000Y-17300000D03*
%TO.P,U1,4*%
X13750000Y-19840000D03*
%TO.P,U1,5*%
X13750000Y-22380000D03*
%TO.P,U1,6*%
%TO.N,BTN_UP*%
X13750000Y-24920000D03*
%TO.P,U1,7*%
%TO.N,BTN_DOWN*%
X13750000Y-27460000D03*
%TO.P,U1,8*%
%TO.N,BTN_SND*%
X13750000Y-30000000D03*
%TO.P,U1,9*%
%TO.N,N/C*%
X13750000Y-32540000D03*
%TO.P,U1,10*%
%TO.N,BUZZER_IO27*%
X13750000Y-35080000D03*
%TO.P,U1,11*%
%TO.N,N/C*%
X13750000Y-37620000D03*
%TO.P,U1,12*%
X13750000Y-40160000D03*
%TO.P,U1,13*%
X13750000Y-42700000D03*
%TO.P,U1,14*%
%TO.N,GND*%
X13750000Y-45240000D03*
%TO.P,U1,15*%
%TO.N,+5V*%
X13750000Y-47780000D03*
%TO.P,U1,16*%
%TO.N,N/C*%
X38250000Y-12220000D03*
%TO.P,U1,17*%
%TO.N,I2C_SCL*%
X38250000Y-14760000D03*
%TO.P,U1,18*%
%TO.N,UART0_TX0*%
X38250000Y-17300000D03*
%TO.P,U1,19*%
%TO.N,UART0_RX0*%
X38250000Y-19840000D03*
%TO.P,U1,20*%
%TO.N,I2C_SDA*%
X38250000Y-22380000D03*
%TO.P,U1,21*%
%TO.N,N/C*%
X38250000Y-24920000D03*
%TO.P,U1,22*%
%TO.N,SERVO_PWM*%
X38250000Y-27460000D03*
%TO.P,U1,23*%
%TO.N,NPX_IN*%
X38250000Y-30000000D03*
%TO.P,U1,24*%
%TO.N,ESP_TX2*%
X38250000Y-32540000D03*
%TO.P,U1,25*%
%TO.N,RX2_DFP*%
X38250000Y-35080000D03*
%TO.P,U1,26*%
%TO.N,DFP_BUSY*%
X38250000Y-37620000D03*
%TO.P,U1,27*%
%TO.N,N/C*%
X38250000Y-40160000D03*
%TO.P,U1,28*%
X38250000Y-42700000D03*
%TO.P,U1,29*%
%TO.N,GND*%
X38250000Y-45240000D03*
%TO.P,U1,30*%
%TO.N,3V3*%
X38250000Y-47780000D03*
%TD*%
D10*
%TO.P,R10,1*%
%TO.N,I2C_SCL*%
X21000000Y-3825000D03*
%TO.P,R10,2*%
%TO.N,3V3*%
X21000000Y-2175000D03*
%TD*%
D20*
%TO.P,C5,1*%
%TO.N,+5V*%
X44000000Y-50775000D03*
%TO.P,C5,2*%
%TO.N,GND*%
X44000000Y-49225000D03*
%TD*%
D21*
%TO.P,C4,1*%
%TO.N,+5V*%
X85300000Y-23000000D03*
%TO.P,C4,2*%
%TO.N,GND*%
X92700000Y-23000000D03*
%TD*%
D22*
%TO.P,D1,1*%
%TO.N,GND*%
X71787500Y-61000000D03*
%TO.P,D1,2*%
%TO.N,LED_A*%
X70212500Y-61000000D03*
%TD*%
D23*
%TO.P,JP1,1*%
%TO.N,NPX_DATA*%
X67000000Y-40000000D03*
%TO.P,JP1,2*%
%TO.N,+5V*%
X67000000Y-42000000D03*
%TO.P,JP1,3*%
%TO.N,GND*%
X67000000Y-44000000D03*
%TO.P,JP1,4*%
%TO.N,NPX_P3*%
X69000000Y-40000000D03*
%TO.P,JP1,5*%
%TO.N,NPX_P2*%
X69000000Y-42000000D03*
%TO.P,JP1,6*%
%TO.N,NPX_P1*%
X69000000Y-44000000D03*
%TD*%
D13*
%TO.P,C9,1*%
%TO.N,+5V*%
X57225000Y-52000000D03*
%TO.P,C9,2*%
%TO.N,GND*%
X58775000Y-52000000D03*
%TD*%
D10*
%TO.P,R2,1*%
%TO.N,ESP_TX2*%
X46000000Y-12825000D03*
%TO.P,R2,2*%
%TO.N,TX2_DFP*%
X46000000Y-11175000D03*
%TD*%
D24*
%TO.P,J3,1*%
%TO.N,NPX_P1*%
X92675000Y-41000000D03*
%TO.P,J3,2*%
%TO.N,NPX_P2*%
X92675000Y-42000000D03*
%TO.P,J3,3*%
%TO.N,NPX_P3*%
X92675000Y-43000000D03*
D25*
%TO.P,J3,MP*%
%TO.N,N/C*%
X95200000Y-39700000D03*
X95200000Y-44300000D03*
%TD*%
D21*
%TO.P,C1,1*%
%TO.N,+5V*%
X50300000Y-60000000D03*
%TO.P,C1,2*%
%TO.N,GND*%
X57700000Y-60000000D03*
%TD*%
D26*
%TO.P,C2,1*%
%TO.N,+5V*%
X75300000Y-15000000D03*
%TO.P,C2,2*%
%TO.N,GND*%
X80700000Y-15000000D03*
%TD*%
D27*
%TO.P,F1,1*%
%TO.N,VBUS_IN*%
X32862500Y-60000000D03*
%TO.P,F1,2*%
%TO.N,VFUSED*%
X37137500Y-60000000D03*
%TD*%
D28*
%TO.P,J5,1*%
%TO.N,SPK_P*%
X92000000Y-12000000D03*
D29*
%TO.P,J5,2*%
%TO.N,SPK_N*%
X94000000Y-12000000D03*
%TD*%
D13*
%TO.P,C7,1*%
%TO.N,+5V*%
X55225000Y-47000000D03*
%TO.P,C7,2*%
%TO.N,GND*%
X56775000Y-47000000D03*
%TD*%
D19*
%TO.P,R1,1*%
%TO.N,GND*%
X41175000Y-65000000D03*
%TO.P,R1,2*%
%TO.N,VFUSED*%
X42825000Y-65000000D03*
%TD*%
D30*
%TO.P,Q1,1*%
%TO.N,GND*%
X41062500Y-59050000D03*
%TO.P,Q1,2*%
%TO.N,VFUSED*%
X41062500Y-60950000D03*
%TO.P,Q1,3*%
%TO.N,+5V*%
X42937500Y-60000000D03*
%TD*%
D10*
%TO.P,R6,1*%
%TO.N,CC1*%
X18750000Y-57825000D03*
%TO.P,R6,2*%
%TO.N,GND*%
X18750000Y-56175000D03*
%TD*%
%TO.P,R9,1*%
%TO.N,I2C_SDA*%
X27000000Y-3825000D03*
%TO.P,R9,2*%
%TO.N,3V3*%
X27000000Y-2175000D03*
%TD*%
D11*
%TO.P,J8,1*%
%TO.N,3V3*%
X29271000Y-6465000D03*
D12*
%TO.P,J8,2*%
%TO.N,GND*%
X26731000Y-6465000D03*
%TO.P,J8,3*%
%TO.N,I2C_SDA*%
X24191000Y-6465000D03*
%TO.P,J8,4*%
%TO.N,I2C_SCL*%
X21651000Y-6465000D03*
%TD*%
D19*
%TO.P,R5,1*%
%TO.N,+5V*%
X64175000Y-61000000D03*
%TO.P,R5,2*%
%TO.N,LED_A*%
X65825000Y-61000000D03*
%TD*%
%TO.P,R8,1*%
%TO.N,BUZZER_IO27*%
X39833000Y-7596000D03*
%TO.P,R8,2*%
%TO.N,BUZZER_PWM*%
X41483000Y-7596000D03*
%TD*%
D11*
%TO.P,J6,1*%
%TO.N,GND*%
X12369000Y-61150000D03*
D12*
%TO.P,J6,2*%
%TO.N,BTN_UP*%
X12369000Y-58610000D03*
%TO.P,J6,3*%
%TO.N,BTN_DOWN*%
X12369000Y-56070000D03*
%TO.P,J6,4*%
%TO.N,BTN_SND*%
X12369000Y-53530000D03*
%TD*%
D26*
%TO.P,C3,1*%
%TO.N,+5V*%
X77300000Y-54000000D03*
%TO.P,C3,2*%
%TO.N,GND*%
X82700000Y-54000000D03*
%TD*%
D13*
%TO.P,C8,1*%
%TO.N,+5V*%
X87225000Y-54000000D03*
%TO.P,C8,2*%
%TO.N,GND*%
X88775000Y-54000000D03*
%TD*%
D31*
%TO.N,GND*%
X58950000Y-44950000D03*
X16950000Y-30950000D03*
X44950000Y-44950000D03*
X16950000Y-44950000D03*
X44950000Y-2950000D03*
X2950000Y-30950000D03*
X16950000Y-16950000D03*
X2950000Y-16950000D03*
X30950000Y-30950000D03*
X16950000Y-2950000D03*
X30950000Y-2950000D03*
X72950000Y-44950000D03*
X86950000Y-16950000D03*
X86950000Y-44950000D03*
X86950000Y-30950000D03*
X2950000Y-44950000D03*
X86950000Y-58950000D03*
X72950000Y-30950000D03*
X58950000Y-16950000D03*
X30950000Y-44950000D03*
X58950000Y-2950000D03*
X44950000Y-30950000D03*
X58950000Y-30950000D03*
X2950000Y-2950000D03*
X44950000Y-58950000D03*
X72950000Y-16950000D03*
X30950000Y-16950000D03*
X86950000Y-2950000D03*
X58950000Y-58950000D03*
X72950000Y-2950000D03*
X72950000Y-58950000D03*
X2950000Y-58950000D03*
%TO.N,3V3*%
X73201700Y-45975000D03*
X78871100Y-44375600D03*
X34958200Y-14217900D03*
%TO.N,UART0_RX0*%
X69336200Y-35382400D03*
X65753100Y-23918800D03*
%TO.N,DFP_BUSY*%
X44844800Y-10833000D03*
%TO.N,NPX_IN*%
X54862500Y-42000000D03*
%TO.N,I2C_SDA*%
X30809600Y-15763600D03*
%TO.N,NPX_P3*%
X89786600Y-42833300D03*
X84813700Y-41362500D03*
%TD*%
%TO.N,CC2*%
D32*
X21750000Y-60755000D02*
X21750000Y-57825000D01*
%TO.N,+5V*%
D33*
X63102300Y-46281000D02*
X66965100Y-42418200D01*
X55170800Y-55129200D02*
X50300000Y-60000000D01*
X68000000Y-44700000D02*
X77300000Y-54000000D01*
D34*
X44000000Y-52500000D02*
X42937500Y-52500000D01*
D33*
X55170800Y-47054200D02*
X55170800Y-52000000D01*
X63102300Y-54448900D02*
X58008300Y-54448900D01*
X42937500Y-60000000D02*
X42937500Y-52500000D01*
X55170800Y-52000000D02*
X57225000Y-52000000D01*
X66965100Y-42034900D02*
X67000000Y-42000000D01*
X42937500Y-51112900D02*
X43662100Y-51112900D01*
X63102300Y-54448900D02*
X63102300Y-46281000D01*
X55170800Y-52000000D02*
X55170800Y-55129200D01*
X57225000Y-53665600D02*
X57225000Y-52000000D01*
X58008300Y-54448900D02*
X57225000Y-53665600D01*
X42937500Y-52500000D02*
X42937500Y-51112900D01*
X52380000Y-9261700D02*
X52380000Y-8110000D01*
X50300000Y-60000000D02*
X42937500Y-60000000D01*
X66965100Y-42418200D02*
X68000000Y-43453100D01*
X68000000Y-37981000D02*
X75300000Y-30681000D01*
X56036400Y-46188600D02*
X56036400Y-42151100D01*
X63102300Y-59927300D02*
X63102300Y-54448900D01*
X75300000Y-30681000D02*
X75300000Y-15000000D01*
X68000000Y-43453100D02*
X68000000Y-44700000D01*
X55225000Y-47000000D02*
X56036400Y-46188600D01*
X58181300Y-32000000D02*
X58181300Y-14775100D01*
X52667900Y-9261700D02*
X52380000Y-9261700D01*
D34*
X42937500Y-52500000D02*
X13750000Y-52500000D01*
D33*
X43662100Y-51112900D02*
X44000000Y-50775000D01*
X67000000Y-42000000D02*
X68000000Y-41000000D01*
X55225000Y-47000000D02*
X55170800Y-47054200D01*
X58181300Y-14775100D02*
X52667900Y-9261700D01*
X66965100Y-42418200D02*
X66965100Y-42034900D01*
D34*
X13750000Y-52500000D02*
X13750000Y-47780000D01*
D33*
X87225000Y-55126600D02*
X78426600Y-55126600D01*
X83300000Y-23000000D02*
X75300000Y-15000000D01*
X68000000Y-41000000D02*
X68000000Y-37981000D01*
D34*
X44000000Y-50775000D02*
X44000000Y-52500000D01*
D33*
X91666600Y-55126600D02*
X87225000Y-55126600D01*
X85300000Y-23000000D02*
X83300000Y-23000000D01*
X64175000Y-61000000D02*
X63102300Y-59927300D01*
X56036400Y-42151100D02*
X57137500Y-41050000D01*
X57137500Y-33043800D02*
X58181300Y-32000000D01*
X94540000Y-58000000D02*
X91666600Y-55126600D01*
X57137500Y-41050000D02*
X57137500Y-33043800D01*
X87225000Y-55126600D02*
X87225000Y-54000000D01*
X58181300Y-32000000D02*
X59225000Y-32000000D01*
X78426600Y-55126600D02*
X77300000Y-54000000D01*
%TO.N,3V3*%
X34958200Y-44488200D02*
X38250000Y-47780000D01*
X29271000Y-6465000D02*
X29271000Y-4446000D01*
X34958200Y-14217900D02*
X34958200Y-44488200D01*
X73201700Y-45974900D02*
X73201700Y-45975000D01*
X21000000Y-2175000D02*
X27000000Y-2175000D01*
X77271800Y-45974900D02*
X73201700Y-45974900D01*
X29271000Y-4446000D02*
X27000000Y-2175000D01*
X78871100Y-44375600D02*
X77271800Y-45974900D01*
%TO.N,UART0_RX0*%
X65753100Y-31799300D02*
X65753100Y-23918800D01*
X69336200Y-35382400D02*
X65753100Y-31799300D01*
%TO.N,TX2_DFP*%
D32*
X46000000Y-11175000D02*
X52380000Y-10650000D01*
%TO.N,RX2_DFP*%
X48500000Y-35080000D02*
X48500000Y-13190000D01*
X48500000Y-13190000D02*
X52380000Y-13190000D01*
X38250000Y-35080000D02*
X48500000Y-35080000D01*
%TO.N,DFP_BUSY*%
D33*
X37049100Y-32101800D02*
X37880900Y-31270000D01*
X37049100Y-36419100D02*
X37049100Y-32101800D01*
X38250000Y-37620000D02*
X37049100Y-36419100D01*
X37880900Y-31270000D02*
X38640500Y-31270000D01*
X42975200Y-12702600D02*
X44844800Y-10833000D01*
X42975200Y-26935300D02*
X42975200Y-12702600D01*
X38640500Y-31270000D02*
X42975200Y-26935300D01*
%TO.N,VBUS_IN*%
D35*
X17600000Y-60755000D02*
X17600000Y-54000000D01*
X25000000Y-54000000D02*
X32862500Y-54000000D01*
X32862500Y-54000000D02*
X32862500Y-60000000D01*
X17600000Y-54000000D02*
X25000000Y-54000000D01*
X22400000Y-58700000D02*
X25000000Y-58700000D01*
X25000000Y-58700000D02*
X25000000Y-54000000D01*
X22400000Y-60755000D02*
X22400000Y-58700000D01*
%TO.N,CC1*%
D32*
X18750000Y-60755000D02*
X18750000Y-57825000D01*
%TO.N,BUZZER_PWM*%
D33*
X38557000Y-16030000D02*
X41483000Y-13104000D01*
X44046600Y-38898300D02*
X37960200Y-38898300D01*
X45148300Y-40000000D02*
X44046600Y-38898300D01*
X36669900Y-17320300D02*
X37960200Y-16030000D01*
X46250000Y-40000000D02*
X45148300Y-40000000D01*
X41483000Y-13104000D02*
X41483000Y-7596000D01*
X36669900Y-37608000D02*
X36669900Y-17320300D01*
X37960200Y-16030000D02*
X38557000Y-16030000D01*
X37960200Y-38898300D02*
X36669900Y-37608000D01*
%TO.N,NPX_DATA_5V*%
D32*
X57137500Y-42950000D02*
X62175000Y-42000000D01*
%TO.N,NPX_DATA*%
X63825000Y-42000000D02*
X67000000Y-40000000D01*
%TO.N,BTN_UP*%
D33*
X10876300Y-57117300D02*
X12369000Y-58610000D01*
X13750000Y-24920000D02*
X10876300Y-27793700D01*
X10876300Y-27793700D02*
X10876300Y-57117300D01*
%TO.N,BTN_DOWN*%
X12369000Y-56070000D02*
X11241700Y-54942700D01*
X11241700Y-29968300D02*
X13750000Y-27460000D01*
X11241700Y-54942700D02*
X11241700Y-29968300D01*
%TO.N,BTN_SND*%
X12369000Y-53530000D02*
X12369000Y-31381000D01*
X12369000Y-31381000D02*
X13750000Y-30000000D01*
%TO.N,BUZZER_IO27*%
X34406500Y-14423500D02*
X13750000Y-35080000D01*
X34406500Y-13022500D02*
X34406500Y-14423500D01*
X39833000Y-7596000D02*
X34406500Y-13022500D01*
%TO.N,I2C_SCL*%
X21000000Y-3825000D02*
X21651000Y-4476000D01*
X21651000Y-4476000D02*
X21651000Y-6465000D01*
%TO.N,I2C_SDA*%
X28124900Y-13078900D02*
X28124900Y-4949900D01*
X27000000Y-3825000D02*
X24360000Y-6465000D01*
X30809600Y-15763600D02*
X28124900Y-13078900D01*
X28124900Y-4949900D02*
X27000000Y-3825000D01*
X24360000Y-6465000D02*
X24191000Y-6465000D01*
%TO.N,ESP_TX2*%
D32*
X43000000Y-32540000D02*
X46000000Y-12825000D01*
X38250000Y-32540000D02*
X43000000Y-32540000D01*
%TO.N,LED_A*%
X65825000Y-61000000D02*
X70212500Y-61000000D01*
%TO.N,NPX_P3*%
D33*
X69000000Y-40000000D02*
X69000000Y-38000000D01*
X92508300Y-42833300D02*
X92675000Y-43000000D01*
X69000000Y-38000000D02*
X84813700Y-38000000D01*
X89786600Y-42833300D02*
X92508300Y-42833300D01*
X84813700Y-38000000D02*
X84813700Y-41362500D01*
%TO.N,NPX_P2*%
X69633600Y-41366400D02*
X69000000Y-42000000D01*
X92675000Y-42000000D02*
X84483300Y-42000000D01*
X84483300Y-42000000D02*
X83849700Y-41366400D01*
X83849700Y-41366400D02*
X69633600Y-41366400D01*
%TO.N,NPX_P1*%
X92675000Y-41000000D02*
X93102500Y-41000000D01*
X69358300Y-43641700D02*
X69000000Y-44000000D01*
X93709100Y-43361600D02*
X93429000Y-43641700D01*
X93709100Y-41606600D02*
X93709100Y-43361600D01*
X93429000Y-43641700D02*
X69358300Y-43641700D01*
X93102500Y-41000000D02*
X93709100Y-41606600D01*
%TO.N,VFUSED*%
D36*
X37137500Y-60000000D02*
X41062500Y-60950000D01*
D35*
X41062500Y-60950000D02*
X42825000Y-65000000D01*
%TD*%
%TA.AperFunction,Conductor*%
%TO.N,GND*%
G36*
X83700991Y-41785807D02*
G01*
X83712803Y-41795896D01*
X84159357Y-42242449D01*
X84159362Y-42242455D01*
X84159363Y-42242455D01*
X84162818Y-42245910D01*
X84162820Y-42245913D01*
X84237387Y-42320480D01*
X84267941Y-42338120D01*
X84306682Y-42360488D01*
X84306685Y-42360489D01*
X84328713Y-42373207D01*
X84430570Y-42400500D01*
X84430572Y-42400501D01*
X84430573Y-42400501D01*
X84542090Y-42400501D01*
X84542106Y-42400500D01*
X89171607Y-42400500D01*
X89229798Y-42419407D01*
X89265762Y-42468907D01*
X89265762Y-42530093D01*
X89257343Y-42548998D01*
X89252861Y-42556763D01*
X89227024Y-42601513D01*
X89227024Y-42601514D01*
X89227023Y-42601516D01*
X89186100Y-42754243D01*
X89186100Y-42912357D01*
X89227023Y-43065084D01*
X89227024Y-43065085D01*
X89227024Y-43065086D01*
X89242967Y-43092700D01*
X89255689Y-43152548D01*
X89230803Y-43208444D01*
X89177815Y-43239037D01*
X89157231Y-43241200D01*
X69830418Y-43241200D01*
X69772227Y-43222293D01*
X69751877Y-43202468D01*
X69728282Y-43171718D01*
X69728277Y-43171714D01*
X69728276Y-43171713D01*
X69606852Y-43078542D01*
X69572196Y-43028118D01*
X69573797Y-42966953D01*
X69606852Y-42921458D01*
X69728282Y-42828282D01*
X69824536Y-42702841D01*
X69885044Y-42556762D01*
X69900500Y-42439361D01*
X69900499Y-41865899D01*
X69919406Y-41807709D01*
X69968906Y-41771745D01*
X69999499Y-41766900D01*
X83642800Y-41766900D01*
X83700991Y-41785807D01*
G37*
%TD.AperFunction*%
%TA.AperFunction,Conductor*%
G36*
X24458691Y-54519407D02*
G01*
X24494655Y-54568907D01*
X24499500Y-54599500D01*
X24499500Y-58100500D01*
X24480593Y-58158691D01*
X24431093Y-58194655D01*
X24400500Y-58199500D01*
X22622100Y-58199500D01*
X22563909Y-58180593D01*
X22527945Y-58131093D01*
X22523667Y-58089918D01*
X22525500Y-58072873D01*
X22525499Y-57577128D01*
X22519091Y-57517517D01*
X22497452Y-57459500D01*
X22468797Y-57382670D01*
X22382549Y-57267458D01*
X22382548Y-57267457D01*
X22382546Y-57267454D01*
X22359897Y-57250499D01*
X22267329Y-57181202D01*
X22132488Y-57130910D01*
X22132483Y-57130909D01*
X22132481Y-57130908D01*
X22132477Y-57130908D01*
X22101249Y-57127550D01*
X22072873Y-57124500D01*
X22072870Y-57124500D01*
X21427133Y-57124500D01*
X21427129Y-57124500D01*
X21427128Y-57124501D01*
X21419949Y-57125272D01*
X21367519Y-57130908D01*
X21367514Y-57130909D01*
X21232670Y-57181202D01*
X21117458Y-57267450D01*
X21117450Y-57267458D01*
X21031202Y-57382670D01*
X20980910Y-57517511D01*
X20980908Y-57517522D01*
X20978566Y-57539308D01*
X20975036Y-57572147D01*
X20974500Y-57577129D01*
X20974500Y-58072866D01*
X20974501Y-58072870D01*
X20980908Y-58132480D01*
X20980909Y-58132485D01*
X21031202Y-58267329D01*
X21117450Y-58382541D01*
X21117454Y-58382546D01*
X21232669Y-58468796D01*
X21260093Y-58479024D01*
X21308009Y-58517073D01*
X21324500Y-58571783D01*
X21324500Y-59705500D01*
X21305593Y-59763691D01*
X21256093Y-59799655D01*
X21225500Y-59804500D01*
X21139364Y-59804500D01*
X21100502Y-59810162D01*
X21066374Y-59815134D01*
X21043479Y-59826327D01*
X20982896Y-59834896D01*
X20956521Y-59826327D01*
X20933625Y-59815134D01*
X20860636Y-59804500D01*
X20639364Y-59804500D01*
X20600502Y-59810162D01*
X20566374Y-59815134D01*
X20543479Y-59826327D01*
X20482896Y-59834896D01*
X20456521Y-59826327D01*
X20433625Y-59815134D01*
X20360636Y-59804500D01*
X20139364Y-59804500D01*
X20100502Y-59810162D01*
X20066374Y-59815134D01*
X20043479Y-59826327D01*
X19982896Y-59834896D01*
X19956521Y-59826327D01*
X19933625Y-59815134D01*
X19860636Y-59804500D01*
X19639364Y-59804500D01*
X19600502Y-59810162D01*
X19566374Y-59815134D01*
X19543479Y-59826327D01*
X19482896Y-59834896D01*
X19456521Y-59826327D01*
X19433625Y-59815134D01*
X19360636Y-59804500D01*
X19360633Y-59804500D01*
X19274500Y-59804500D01*
X19216309Y-59785593D01*
X19180345Y-59736093D01*
X19175500Y-59705500D01*
X19175500Y-58571783D01*
X19194407Y-58513592D01*
X19239906Y-58479024D01*
X19267331Y-58468796D01*
X19382546Y-58382546D01*
X19468796Y-58267331D01*
X19519091Y-58132483D01*
X19525500Y-58072873D01*
X19525499Y-57577128D01*
X19519091Y-57517517D01*
X19497452Y-57459500D01*
X19468797Y-57382670D01*
X19382549Y-57267458D01*
X19382548Y-57267457D01*
X19382546Y-57267454D01*
X19359897Y-57250499D01*
X19267329Y-57181202D01*
X19132488Y-57130910D01*
X19132483Y-57130909D01*
X19132481Y-57130908D01*
X19132477Y-57130908D01*
X19101249Y-57127550D01*
X19072873Y-57124500D01*
X19072870Y-57124500D01*
X18427133Y-57124500D01*
X18427129Y-57124500D01*
X18427128Y-57124501D01*
X18419949Y-57125272D01*
X18367519Y-57130908D01*
X18367514Y-57130909D01*
X18234096Y-57180671D01*
X18172967Y-57183291D01*
X18121972Y-57149480D01*
X18100591Y-57092152D01*
X18100500Y-57087913D01*
X18100500Y-54599500D01*
X18119407Y-54541309D01*
X18168907Y-54505345D01*
X18199500Y-54500500D01*
X24400500Y-54500500D01*
X24458691Y-54519407D01*
G37*
%TD.AperFunction*%
%TA.AperFunction,Conductor*%
G36*
X97002992Y-500681D02*
G01*
X97295309Y-518362D01*
X97307164Y-519802D01*
X97592280Y-572051D01*
X97603882Y-574911D01*
X97880623Y-661147D01*
X97891786Y-665380D01*
X98152200Y-782583D01*
X98156118Y-784347D01*
X98166690Y-789895D01*
X98414770Y-939864D01*
X98424583Y-946638D01*
X98652755Y-1125400D01*
X98661704Y-1133327D01*
X98866672Y-1338295D01*
X98874599Y-1347244D01*
X99018721Y-1531202D01*
X99053356Y-1575409D01*
X99060138Y-1585233D01*
X99210100Y-1833303D01*
X99215652Y-1843881D01*
X99334616Y-2108206D01*
X99338855Y-2119384D01*
X99425087Y-2396114D01*
X99427948Y-2407722D01*
X99480196Y-2692828D01*
X99481637Y-2704695D01*
X99491969Y-2875498D01*
X99496963Y-2958066D01*
X99499319Y-2997006D01*
X99499500Y-3002984D01*
X99499500Y-66997015D01*
X99499319Y-67002993D01*
X99481637Y-67295304D01*
X99480196Y-67307171D01*
X99427948Y-67592277D01*
X99425087Y-67603885D01*
X99338855Y-67880615D01*
X99334616Y-67891793D01*
X99215652Y-68156118D01*
X99210096Y-68166703D01*
X99060142Y-68414758D01*
X99053356Y-68424590D01*
X98874599Y-68652755D01*
X98866672Y-68661704D01*
X98661704Y-68866672D01*
X98652755Y-68874599D01*
X98424590Y-69053356D01*
X98414758Y-69060142D01*
X98177212Y-69203744D01*
X98166703Y-69210097D01*
X98156118Y-69215652D01*
X97891793Y-69334616D01*
X97880615Y-69338855D01*
X97603885Y-69425087D01*
X97592277Y-69427948D01*
X97307171Y-69480196D01*
X97295304Y-69481637D01*
X97023993Y-69498048D01*
X97002991Y-69499319D01*
X96997015Y-69499500D01*
X3002985Y-69499500D01*
X2997008Y-69499319D01*
X2973564Y-69497900D01*
X2704695Y-69481637D01*
X2692828Y-69480196D01*
X2407722Y-69427948D01*
X2396114Y-69425087D01*
X2119384Y-69338855D01*
X2108206Y-69334616D01*
X1843881Y-69215652D01*
X1833303Y-69210100D01*
X1585233Y-69060138D01*
X1575413Y-69053359D01*
X1347244Y-68874599D01*
X1338295Y-68866672D01*
X1133327Y-68661704D01*
X1125400Y-68652755D01*
X946638Y-68424583D01*
X939864Y-68414770D01*
X789895Y-68166690D01*
X784347Y-68156118D01*
X665383Y-67891793D01*
X661147Y-67880623D01*
X574911Y-67603882D01*
X572051Y-67592277D01*
X557752Y-67514250D01*
X519802Y-67307164D01*
X518362Y-67295303D01*
X500681Y-67002992D01*
X500500Y-66997015D01*
X500500Y-65378710D01*
X2649500Y-65378710D01*
X2649500Y-65621289D01*
X2681161Y-65861781D01*
X2681161Y-65861786D01*
X2743944Y-66096092D01*
X2743948Y-66096105D01*
X2836772Y-66320204D01*
X2836774Y-66320208D01*
X2836776Y-66320212D01*
X2958064Y-66530289D01*
X2958066Y-66530292D01*
X3105729Y-66722731D01*
X3105731Y-66722733D01*
X3105735Y-66722738D01*
X3277262Y-66894265D01*
X3277266Y-66894268D01*
X3277268Y-66894270D01*
X3415059Y-67000000D01*
X3469711Y-67041936D01*
X3679788Y-67163224D01*
X3903900Y-67256054D01*
X4138211Y-67318838D01*
X4378712Y-67350500D01*
X4378713Y-67350500D01*
X4621287Y-67350500D01*
X4621288Y-67350500D01*
X4861789Y-67318838D01*
X5096100Y-67256054D01*
X5320212Y-67163224D01*
X5530289Y-67041936D01*
X5722738Y-66894265D01*
X5894265Y-66722738D01*
X6041936Y-66530289D01*
X6163224Y-66320212D01*
X6256054Y-66096100D01*
X6318838Y-65861789D01*
X6350500Y-65621288D01*
X6350500Y-65378712D01*
X6318838Y-65138211D01*
X6256054Y-64903900D01*
X6163224Y-64679788D01*
X6041936Y-64469711D01*
X5897290Y-64281204D01*
X5894270Y-64277268D01*
X5894268Y-64277266D01*
X5894265Y-64277262D01*
X5722738Y-64105735D01*
X5722733Y-64105731D01*
X5722731Y-64105729D01*
X5530292Y-63958066D01*
X5530289Y-63958064D01*
X5320212Y-63836776D01*
X5320208Y-63836774D01*
X5320204Y-63836772D01*
X5096105Y-63743948D01*
X5096104Y-63743947D01*
X5096100Y-63743946D01*
X4861789Y-63681162D01*
X4861786Y-63681161D01*
X4861784Y-63681161D01*
X4621289Y-63649500D01*
X4621288Y-63649500D01*
X4378712Y-63649500D01*
X4378710Y-63649500D01*
X4138218Y-63681161D01*
X4138213Y-63681161D01*
X3903907Y-63743944D01*
X3903894Y-63743948D01*
X3679795Y-63836772D01*
X3469707Y-63958066D01*
X3277268Y-64105729D01*
X3105729Y-64277268D01*
X2958066Y-64469707D01*
X2836772Y-64679795D01*
X2743948Y-64903894D01*
X2743944Y-64903907D01*
X2681161Y-65138213D01*
X2681161Y-65138218D01*
X2649500Y-65378710D01*
X500500Y-65378710D01*
X500500Y-61819234D01*
X16534500Y-61819234D01*
X16534500Y-61970766D01*
X16569086Y-62099847D01*
X16573720Y-62117139D01*
X16649481Y-62248360D01*
X16649483Y-62248362D01*
X16649485Y-62248365D01*
X16756635Y-62355515D01*
X16756637Y-62355516D01*
X16756639Y-62355518D01*
X16887861Y-62431279D01*
X16887859Y-62431279D01*
X16887863Y-62431280D01*
X16887865Y-62431281D01*
X17034234Y-62470500D01*
X17034236Y-62470500D01*
X17185764Y-62470500D01*
X17185766Y-62470500D01*
X17332135Y-62431281D01*
X17332137Y-62431279D01*
X17332139Y-62431279D01*
X17463360Y-62355518D01*
X17463360Y-62355517D01*
X17463365Y-62355515D01*
X17570515Y-62248365D01*
X17646281Y-62117135D01*
X17685500Y-61970766D01*
X17685500Y-61819234D01*
X17685262Y-61817428D01*
X17685500Y-61816143D01*
X17685500Y-61812745D01*
X17686130Y-61812745D01*
X17696408Y-61757267D01*
X17740788Y-61715147D01*
X17783414Y-61705500D01*
X17804273Y-61705500D01*
X17804273Y-61705499D01*
X17834699Y-61702646D01*
X17939973Y-61665808D01*
X18001142Y-61664435D01*
X18016146Y-61670310D01*
X18066375Y-61694866D01*
X18139364Y-61705500D01*
X18139367Y-61705500D01*
X18360632Y-61705500D01*
X18360636Y-61705500D01*
X18433625Y-61694866D01*
X18456520Y-61683672D01*
X18517102Y-61675102D01*
X18543478Y-61683672D01*
X18566375Y-61694866D01*
X18639364Y-61705500D01*
X18639367Y-61705500D01*
X18860632Y-61705500D01*
X18860636Y-61705500D01*
X18933625Y-61694866D01*
X18956520Y-61683672D01*
X19017102Y-61675102D01*
X19043478Y-61683672D01*
X19066375Y-61694866D01*
X19139364Y-61705500D01*
X19139367Y-61705500D01*
X19360632Y-61705500D01*
X19360636Y-61705500D01*
X19433625Y-61694866D01*
X19456520Y-61683672D01*
X19517102Y-61675102D01*
X19543478Y-61683672D01*
X19566375Y-61694866D01*
X19639364Y-61705500D01*
X19639367Y-61705500D01*
X19860632Y-61705500D01*
X19860636Y-61705500D01*
X19933625Y-61694866D01*
X19956520Y-61683672D01*
X20017102Y-61675102D01*
X20043478Y-61683672D01*
X20066375Y-61694866D01*
X20139364Y-61705500D01*
X20139367Y-61705500D01*
X20360632Y-61705500D01*
X20360636Y-61705500D01*
X20433625Y-61694866D01*
X20456520Y-61683672D01*
X20517102Y-61675102D01*
X20543478Y-61683672D01*
X20566375Y-61694866D01*
X20639364Y-61705500D01*
X20639367Y-61705500D01*
X20860632Y-61705500D01*
X20860636Y-61705500D01*
X20933625Y-61694866D01*
X20956520Y-61683672D01*
X21017102Y-61675102D01*
X21043478Y-61683672D01*
X21066375Y-61694866D01*
X21139364Y-61705500D01*
X21139367Y-61705500D01*
X21360632Y-61705500D01*
X21360636Y-61705500D01*
X21433625Y-61694866D01*
X21456520Y-61683672D01*
X21517102Y-61675102D01*
X21543478Y-61683672D01*
X21566375Y-61694866D01*
X21639364Y-61705500D01*
X21639367Y-61705500D01*
X21860632Y-61705500D01*
X21860636Y-61705500D01*
X21933625Y-61694866D01*
X21983849Y-61670312D01*
X22044428Y-61661741D01*
X22060027Y-61665809D01*
X22165301Y-61702646D01*
X22195725Y-61705499D01*
X22195727Y-61705500D01*
X22195734Y-61705500D01*
X22216586Y-61705500D01*
X22274777Y-61724407D01*
X22310741Y-61773907D01*
X22314308Y-61812745D01*
X22314500Y-61812745D01*
X22314500Y-61814836D01*
X22314738Y-61817428D01*
X22314500Y-61819234D01*
X22314500Y-61970766D01*
X22349086Y-62099847D01*
X22353720Y-62117139D01*
X22429481Y-62248360D01*
X22429483Y-62248362D01*
X22429485Y-62248365D01*
X22536635Y-62355515D01*
X22536637Y-62355516D01*
X22536639Y-62355518D01*
X22667861Y-62431279D01*
X22667859Y-62431279D01*
X22667863Y-62431280D01*
X22667865Y-62431281D01*
X22814234Y-62470500D01*
X22814236Y-62470500D01*
X22965764Y-62470500D01*
X22965766Y-62470500D01*
X23112135Y-62431281D01*
X23112137Y-62431279D01*
X23112139Y-62431279D01*
X23243360Y-62355518D01*
X23243360Y-62355517D01*
X23243365Y-62355515D01*
X23350515Y-62248365D01*
X23426281Y-62117135D01*
X23465500Y-61970766D01*
X23465500Y-61819234D01*
X23426281Y-61672865D01*
X23426279Y-61672862D01*
X23426279Y-61672860D01*
X23350518Y-61541639D01*
X23350516Y-61541637D01*
X23350515Y-61541635D01*
X23243365Y-61434485D01*
X23243362Y-61434483D01*
X23243360Y-61434481D01*
X23112138Y-61358720D01*
X23112137Y-61358719D01*
X23073874Y-61348466D01*
X23022561Y-61315141D01*
X23000636Y-61258019D01*
X23000500Y-61252840D01*
X23000500Y-60200727D01*
X23000499Y-60200725D01*
X22997646Y-60170301D01*
X22952793Y-60042118D01*
X22952792Y-60042116D01*
X22919845Y-59997474D01*
X22900503Y-59939426D01*
X22900500Y-59938686D01*
X22900500Y-59299500D01*
X22919407Y-59241309D01*
X22968907Y-59205345D01*
X22999500Y-59200500D01*
X25065890Y-59200500D01*
X25065892Y-59200500D01*
X25193186Y-59166392D01*
X25193188Y-59166390D01*
X25193190Y-59166390D01*
X25307309Y-59100503D01*
X25307309Y-59100502D01*
X25307314Y-59100500D01*
X25400500Y-59007314D01*
X25450918Y-58919988D01*
X25466390Y-58893190D01*
X25466390Y-58893188D01*
X25466392Y-58893186D01*
X25500500Y-58765892D01*
X25500500Y-54599500D01*
X25519407Y-54541309D01*
X25568907Y-54505345D01*
X25599500Y-54500500D01*
X32263000Y-54500500D01*
X32321191Y-54519407D01*
X32357155Y-54568907D01*
X32362000Y-54599500D01*
X32362000Y-57964999D01*
X32343093Y-58023190D01*
X32299320Y-58057096D01*
X32277658Y-58065638D01*
X32157081Y-58157075D01*
X32157075Y-58157081D01*
X32065640Y-58277656D01*
X32065637Y-58277660D01*
X32010123Y-58418434D01*
X31999500Y-58506893D01*
X31999500Y-61493106D01*
X32010123Y-61581565D01*
X32065637Y-61722339D01*
X32065638Y-61722341D01*
X32065639Y-61722342D01*
X32157078Y-61842922D01*
X32277658Y-61934361D01*
X32277659Y-61934361D01*
X32277660Y-61934362D01*
X32348047Y-61962119D01*
X32418436Y-61989877D01*
X32506898Y-62000500D01*
X32506900Y-62000500D01*
X33218100Y-62000500D01*
X33218102Y-62000500D01*
X33306564Y-61989877D01*
X33447342Y-61934361D01*
X33567922Y-61842922D01*
X33659361Y-61722342D01*
X33714877Y-61581564D01*
X33725500Y-61493102D01*
X33725500Y-58506898D01*
X33714877Y-58418436D01*
X33659361Y-58277658D01*
X33567922Y-58157078D01*
X33468325Y-58081551D01*
X33447341Y-58065638D01*
X33425680Y-58057096D01*
X33378483Y-58018158D01*
X33363000Y-57964999D01*
X33363000Y-53934109D01*
X33363000Y-53934108D01*
X33328892Y-53806814D01*
X33328890Y-53806811D01*
X33328890Y-53806809D01*
X33263003Y-53692690D01*
X33263001Y-53692688D01*
X33263000Y-53692686D01*
X33169814Y-53599500D01*
X33169811Y-53599498D01*
X33169809Y-53599496D01*
X33055689Y-53533609D01*
X33055691Y-53533609D01*
X33006299Y-53520375D01*
X32928392Y-53499500D01*
X25065892Y-53499500D01*
X17665892Y-53499500D01*
X17534108Y-53499500D01*
X17456200Y-53520375D01*
X17406809Y-53533609D01*
X17292690Y-53599496D01*
X17199496Y-53692690D01*
X17133609Y-53806809D01*
X17099500Y-53934109D01*
X17099500Y-59938686D01*
X17080593Y-59996877D01*
X17080155Y-59997474D01*
X17047207Y-60042116D01*
X17002355Y-60170296D01*
X17002353Y-60170305D01*
X16999500Y-60200725D01*
X16999500Y-61252840D01*
X16980593Y-61311031D01*
X16931093Y-61346995D01*
X16926126Y-61348466D01*
X16887862Y-61358719D01*
X16887861Y-61358720D01*
X16756639Y-61434481D01*
X16649481Y-61541639D01*
X16573720Y-61672860D01*
X16551793Y-61754693D01*
X16534500Y-61819234D01*
X500500Y-61819234D01*
X500500Y-27740973D01*
X10475800Y-27740973D01*
X10475800Y-57064573D01*
X10475800Y-57170027D01*
X10489324Y-57220500D01*
X10503094Y-57271892D01*
X10555816Y-57363208D01*
X10555817Y-57363209D01*
X10555818Y-57363210D01*
X10555820Y-57363213D01*
X10923198Y-57730591D01*
X11274158Y-58081551D01*
X11301935Y-58136068D01*
X11298309Y-58182147D01*
X11246828Y-58340593D01*
X11218500Y-58519450D01*
X11218500Y-58700549D01*
X11246828Y-58879406D01*
X11302788Y-59051637D01*
X11381106Y-59205345D01*
X11385004Y-59212994D01*
X11491447Y-59359501D01*
X11619499Y-59487553D01*
X11766006Y-59593996D01*
X11927361Y-59676211D01*
X12099591Y-59732171D01*
X12171136Y-59743502D01*
X12278451Y-59760500D01*
X12278454Y-59760500D01*
X12459549Y-59760500D01*
X12548977Y-59746335D01*
X12638409Y-59732171D01*
X12810639Y-59676211D01*
X12971994Y-59593996D01*
X13118501Y-59487553D01*
X13246553Y-59359501D01*
X13352996Y-59212994D01*
X13435211Y-59051639D01*
X13491171Y-58879409D01*
X13511746Y-58749502D01*
X13519500Y-58700549D01*
X13519500Y-58519450D01*
X13497815Y-58382541D01*
X13491171Y-58340591D01*
X13435211Y-58168361D01*
X13352996Y-58007006D01*
X13246553Y-57860499D01*
X13118501Y-57732447D01*
X12971994Y-57626004D01*
X12971993Y-57626003D01*
X12971991Y-57626002D01*
X12810637Y-57543788D01*
X12638406Y-57487828D01*
X12459549Y-57459500D01*
X12459546Y-57459500D01*
X12278454Y-57459500D01*
X12278451Y-57459500D01*
X12099593Y-57487828D01*
X11941147Y-57539309D01*
X11879962Y-57539308D01*
X11840551Y-57515158D01*
X11305796Y-56980403D01*
X11278019Y-56925886D01*
X11276800Y-56910399D01*
X11276800Y-56828754D01*
X11295707Y-56770563D01*
X11345207Y-56734599D01*
X11406393Y-56734599D01*
X11455890Y-56770560D01*
X11491447Y-56819501D01*
X11619499Y-56947553D01*
X11766006Y-57053996D01*
X11927361Y-57136211D01*
X12099591Y-57192171D01*
X12171136Y-57203502D01*
X12278451Y-57220500D01*
X12278454Y-57220500D01*
X12459549Y-57220500D01*
X12548977Y-57206335D01*
X12638409Y-57192171D01*
X12810639Y-57136211D01*
X12971994Y-57053996D01*
X13118501Y-56947553D01*
X13246553Y-56819501D01*
X13352996Y-56672994D01*
X13435211Y-56511639D01*
X13491171Y-56339409D01*
X13519500Y-56160546D01*
X13519500Y-55979454D01*
X13519500Y-55979450D01*
X13491171Y-55800593D01*
X13491171Y-55800591D01*
X13435211Y-55628361D01*
X13352996Y-55467006D01*
X13246553Y-55320499D01*
X13118501Y-55192447D01*
X12971994Y-55086004D01*
X12971993Y-55086003D01*
X12971991Y-55086002D01*
X12810637Y-55003788D01*
X12638406Y-54947828D01*
X12459549Y-54919500D01*
X12459546Y-54919500D01*
X12278454Y-54919500D01*
X12278451Y-54919500D01*
X12099593Y-54947828D01*
X11941147Y-54999309D01*
X11879962Y-54999308D01*
X11840551Y-54975158D01*
X11671196Y-54805803D01*
X11643419Y-54751286D01*
X11642200Y-54735799D01*
X11642200Y-54612467D01*
X11661107Y-54554276D01*
X11710607Y-54518312D01*
X11771793Y-54518312D01*
X11786145Y-54524258D01*
X11927353Y-54596208D01*
X11927359Y-54596210D01*
X11927361Y-54596211D01*
X12099591Y-54652171D01*
X12171136Y-54663502D01*
X12278451Y-54680500D01*
X12278454Y-54680500D01*
X12459549Y-54680500D01*
X12548977Y-54666335D01*
X12638409Y-54652171D01*
X12810639Y-54596211D01*
X12971994Y-54513996D01*
X13118501Y-54407553D01*
X13246553Y-54279501D01*
X13352996Y-54132994D01*
X13435211Y-53971639D01*
X13491171Y-53799409D01*
X13518888Y-53624410D01*
X13519500Y-53620549D01*
X13519500Y-53439450D01*
X13491171Y-53260589D01*
X13473395Y-53205881D01*
X13473394Y-53144696D01*
X13509358Y-53095196D01*
X13567548Y-53076288D01*
X13593169Y-53079660D01*
X13670943Y-53100500D01*
X13829057Y-53100500D01*
X42438000Y-53100500D01*
X42496191Y-53119407D01*
X42532155Y-53168907D01*
X42537000Y-53199500D01*
X42537000Y-59300500D01*
X42518093Y-59358691D01*
X42468593Y-59394655D01*
X42438000Y-59399500D01*
X42295725Y-59399500D01*
X42265305Y-59402353D01*
X42265296Y-59402355D01*
X42137116Y-59447207D01*
X42027855Y-59527845D01*
X42027845Y-59527855D01*
X41947207Y-59637116D01*
X41902355Y-59765296D01*
X41902353Y-59765305D01*
X41899500Y-59795725D01*
X41899500Y-60204274D01*
X41902353Y-60234694D01*
X41902355Y-60234704D01*
X41904762Y-60241583D01*
X41906134Y-60302753D01*
X41871288Y-60353046D01*
X41813536Y-60373253D01*
X41778619Y-60367722D01*
X41734703Y-60352355D01*
X41734694Y-60352353D01*
X41704274Y-60349500D01*
X41704266Y-60349500D01*
X41454555Y-60349500D01*
X41412941Y-60340329D01*
X41294348Y-60285389D01*
X38076211Y-59506476D01*
X38024101Y-59474410D01*
X38000791Y-59417839D01*
X38000500Y-59410254D01*
X38000500Y-58506899D01*
X38000499Y-58506893D01*
X38000037Y-58503046D01*
X37989877Y-58418436D01*
X37934361Y-58277658D01*
X37842922Y-58157078D01*
X37722342Y-58065639D01*
X37722341Y-58065638D01*
X37722339Y-58065637D01*
X37581565Y-58010123D01*
X37493106Y-57999500D01*
X37493102Y-57999500D01*
X36781898Y-57999500D01*
X36781893Y-57999500D01*
X36693434Y-58010123D01*
X36552660Y-58065637D01*
X36552656Y-58065640D01*
X36432081Y-58157075D01*
X36432075Y-58157081D01*
X36340640Y-58277656D01*
X36340637Y-58277660D01*
X36285123Y-58418434D01*
X36274500Y-58506893D01*
X36274500Y-61493106D01*
X36285123Y-61581565D01*
X36340637Y-61722339D01*
X36340638Y-61722341D01*
X36340639Y-61722342D01*
X36432078Y-61842922D01*
X36552658Y-61934361D01*
X36552659Y-61934361D01*
X36552660Y-61934362D01*
X36623047Y-61962119D01*
X36693436Y-61989877D01*
X36781898Y-62000500D01*
X36781900Y-62000500D01*
X37493100Y-62000500D01*
X37493102Y-62000500D01*
X37581564Y-61989877D01*
X37722342Y-61934361D01*
X37842922Y-61842922D01*
X37934361Y-61722342D01*
X37989877Y-61581564D01*
X38000500Y-61493102D01*
X38000500Y-61055425D01*
X38019407Y-60997234D01*
X38068907Y-60961270D01*
X38122786Y-60959203D01*
X40190699Y-61459717D01*
X40226197Y-61476283D01*
X40242318Y-61488180D01*
X40262118Y-61502793D01*
X40390301Y-61547646D01*
X40420725Y-61550499D01*
X40420727Y-61550500D01*
X40420734Y-61550500D01*
X40553965Y-61550500D01*
X40577253Y-61553277D01*
X40755128Y-61596329D01*
X40807237Y-61628395D01*
X40822615Y-61653046D01*
X42116845Y-64627025D01*
X42124103Y-64674454D01*
X42124642Y-64674483D01*
X42124503Y-64677065D01*
X42124505Y-64677075D01*
X42124500Y-64677112D01*
X42124500Y-65322866D01*
X42124501Y-65322870D01*
X42130908Y-65382480D01*
X42130909Y-65382485D01*
X42181202Y-65517329D01*
X42259026Y-65621288D01*
X42267454Y-65632546D01*
X42267457Y-65632548D01*
X42267458Y-65632549D01*
X42382670Y-65718797D01*
X42517511Y-65769089D01*
X42517512Y-65769089D01*
X42517517Y-65769091D01*
X42577127Y-65775500D01*
X43072872Y-65775499D01*
X43132483Y-65769091D01*
X43199907Y-65743943D01*
X43267329Y-65718797D01*
X43267329Y-65718796D01*
X43267331Y-65718796D01*
X43382546Y-65632546D01*
X43468796Y-65517331D01*
X43519091Y-65382483D01*
X43519497Y-65378710D01*
X93649500Y-65378710D01*
X93649500Y-65621289D01*
X93681161Y-65861781D01*
X93681161Y-65861786D01*
X93743944Y-66096092D01*
X93743948Y-66096105D01*
X93836772Y-66320204D01*
X93836774Y-66320208D01*
X93836776Y-66320212D01*
X93958064Y-66530289D01*
X93958066Y-66530292D01*
X94105729Y-66722731D01*
X94105731Y-66722733D01*
X94105735Y-66722738D01*
X94277262Y-66894265D01*
X94277266Y-66894268D01*
X94277268Y-66894270D01*
X94415059Y-67000000D01*
X94469711Y-67041936D01*
X94679788Y-67163224D01*
X94903900Y-67256054D01*
X95138211Y-67318838D01*
X95378712Y-67350500D01*
X95378713Y-67350500D01*
X95621287Y-67350500D01*
X95621288Y-67350500D01*
X95861789Y-67318838D01*
X96096100Y-67256054D01*
X96320212Y-67163224D01*
X96530289Y-67041936D01*
X96722738Y-66894265D01*
X96894265Y-66722738D01*
X97041936Y-66530289D01*
X97163224Y-66320212D01*
X97256054Y-66096100D01*
X97318838Y-65861789D01*
X97350500Y-65621288D01*
X97350500Y-65378712D01*
X97318838Y-65138211D01*
X97256054Y-64903900D01*
X97163224Y-64679788D01*
X97041936Y-64469711D01*
X96897290Y-64281204D01*
X96894270Y-64277268D01*
X96894268Y-64277266D01*
X96894265Y-64277262D01*
X96722738Y-64105735D01*
X96722733Y-64105731D01*
X96722731Y-64105729D01*
X96530292Y-63958066D01*
X96530289Y-63958064D01*
X96320212Y-63836776D01*
X96320208Y-63836774D01*
X96320204Y-63836772D01*
X96096105Y-63743948D01*
X96096104Y-63743947D01*
X96096100Y-63743946D01*
X95861789Y-63681162D01*
X95861786Y-63681161D01*
X95861784Y-63681161D01*
X95621289Y-63649500D01*
X95621288Y-63649500D01*
X95378712Y-63649500D01*
X95378710Y-63649500D01*
X95138218Y-63681161D01*
X95138213Y-63681161D01*
X94903907Y-63743944D01*
X94903894Y-63743948D01*
X94679795Y-63836772D01*
X94469707Y-63958066D01*
X94277268Y-64105729D01*
X94105729Y-64277268D01*
X93958066Y-64469707D01*
X93836772Y-64679795D01*
X93743948Y-64903894D01*
X93743944Y-64903907D01*
X93681161Y-65138213D01*
X93681161Y-65138218D01*
X93649500Y-65378710D01*
X43519497Y-65378710D01*
X43525500Y-65322873D01*
X43525499Y-64677128D01*
X43519091Y-64617517D01*
X43519090Y-64617514D01*
X43468797Y-64482670D01*
X43382549Y-64367458D01*
X43382548Y-64367457D01*
X43382546Y-64367454D01*
X43382541Y-64367450D01*
X43267329Y-64281202D01*
X43132488Y-64230910D01*
X43132483Y-64230909D01*
X43132481Y-64230908D01*
X43132477Y-64230908D01*
X43088640Y-64226195D01*
X43032804Y-64201175D01*
X43008446Y-64167267D01*
X42824222Y-63743944D01*
X41883777Y-61582920D01*
X41877895Y-61522020D01*
X41908932Y-61469291D01*
X41915759Y-61463767D01*
X41972150Y-61422150D01*
X42052793Y-61312882D01*
X42097646Y-61184699D01*
X42100499Y-61154273D01*
X42100500Y-61154273D01*
X42100500Y-60745727D01*
X42100499Y-60745725D01*
X42097646Y-60715305D01*
X42097646Y-60715301D01*
X42095237Y-60708419D01*
X42093864Y-60647250D01*
X42128707Y-60596955D01*
X42186459Y-60576746D01*
X42221376Y-60582276D01*
X42265301Y-60597646D01*
X42295725Y-60600499D01*
X42295727Y-60600500D01*
X42295734Y-60600500D01*
X43579273Y-60600500D01*
X43579273Y-60600499D01*
X43609699Y-60597646D01*
X43737882Y-60552793D01*
X43847150Y-60472150D01*
X43870352Y-60440711D01*
X43920120Y-60405119D01*
X43950008Y-60400500D01*
X47700500Y-60400500D01*
X47758691Y-60419407D01*
X47794655Y-60468907D01*
X47799500Y-60499500D01*
X47799500Y-61043106D01*
X47810123Y-61131565D01*
X47865637Y-61272339D01*
X47865638Y-61272341D01*
X47865639Y-61272342D01*
X47957078Y-61392922D01*
X48077658Y-61484361D01*
X48077659Y-61484361D01*
X48077660Y-61484362D01*
X48135157Y-61507036D01*
X48218436Y-61539877D01*
X48306898Y-61550500D01*
X48306900Y-61550500D01*
X52293100Y-61550500D01*
X52293102Y-61550500D01*
X52381564Y-61539877D01*
X52522342Y-61484361D01*
X52642922Y-61392922D01*
X52734361Y-61272342D01*
X52789877Y-61131564D01*
X52800500Y-61043102D01*
X52800500Y-58956898D01*
X52789877Y-58868436D01*
X52734361Y-58727658D01*
X52642922Y-58607078D01*
X52522342Y-58515639D01*
X52522341Y-58515638D01*
X52516947Y-58511548D01*
X52518542Y-58509443D01*
X52484846Y-58472860D01*
X52477763Y-58412086D01*
X52504820Y-58361571D01*
X55491280Y-55375113D01*
X55522811Y-55320499D01*
X55544007Y-55283787D01*
X55571300Y-55181927D01*
X55571300Y-52499500D01*
X55590207Y-52441309D01*
X55639707Y-52405345D01*
X55670300Y-52400500D01*
X56427085Y-52400500D01*
X56485276Y-52419407D01*
X56519182Y-52463181D01*
X56533505Y-52499500D01*
X56537636Y-52509975D01*
X56624922Y-52625078D01*
X56740025Y-52712364D01*
X56761818Y-52720957D01*
X56809015Y-52759893D01*
X56824500Y-52813055D01*
X56824500Y-53612873D01*
X56824500Y-53718327D01*
X56846225Y-53799406D01*
X56851794Y-53820192D01*
X56904516Y-53911508D01*
X56904517Y-53911509D01*
X56904518Y-53911510D01*
X56904520Y-53911513D01*
X57368597Y-54375590D01*
X57687819Y-54694812D01*
X57687820Y-54694813D01*
X57687819Y-54694813D01*
X57728806Y-54735799D01*
X57762387Y-54769380D01*
X57853713Y-54822107D01*
X57955573Y-54849400D01*
X58061026Y-54849400D01*
X62602800Y-54849400D01*
X62660991Y-54868307D01*
X62696955Y-54917807D01*
X62701800Y-54948400D01*
X62701800Y-59874573D01*
X62701800Y-59980027D01*
X62718437Y-60042118D01*
X62729094Y-60081892D01*
X62781816Y-60173208D01*
X62781817Y-60173209D01*
X62781818Y-60173210D01*
X62781820Y-60173213D01*
X63118703Y-60510096D01*
X63445504Y-60836897D01*
X63473281Y-60891414D01*
X63474500Y-60906901D01*
X63474500Y-61322866D01*
X63474500Y-61322869D01*
X63474501Y-61322872D01*
X63476044Y-61337229D01*
X63480908Y-61382480D01*
X63480909Y-61382485D01*
X63531202Y-61517329D01*
X63617450Y-61632541D01*
X63617454Y-61632546D01*
X63617457Y-61632548D01*
X63617458Y-61632549D01*
X63732670Y-61718797D01*
X63867511Y-61769089D01*
X63867512Y-61769089D01*
X63867517Y-61769091D01*
X63927127Y-61775500D01*
X64422872Y-61775499D01*
X64482483Y-61769091D01*
X64549907Y-61743943D01*
X64617329Y-61718797D01*
X64617329Y-61718796D01*
X64617331Y-61718796D01*
X64732546Y-61632546D01*
X64818796Y-61517331D01*
X64820363Y-61513131D01*
X64865197Y-61392924D01*
X64869091Y-61382483D01*
X64875500Y-61322873D01*
X64875499Y-60677129D01*
X65124500Y-60677129D01*
X65124500Y-61322866D01*
X65124500Y-61322869D01*
X65124501Y-61322872D01*
X65126044Y-61337229D01*
X65130908Y-61382480D01*
X65130909Y-61382485D01*
X65181202Y-61517329D01*
X65267450Y-61632541D01*
X65267454Y-61632546D01*
X65267457Y-61632548D01*
X65267458Y-61632549D01*
X65382670Y-61718797D01*
X65517511Y-61769089D01*
X65517512Y-61769089D01*
X65517517Y-61769091D01*
X65577127Y-61775500D01*
X66072872Y-61775499D01*
X66132483Y-61769091D01*
X66199907Y-61743943D01*
X66267329Y-61718797D01*
X66267329Y-61718796D01*
X66267331Y-61718796D01*
X66382546Y-61632546D01*
X66468796Y-61517331D01*
X66474339Y-61502467D01*
X66479026Y-61489904D01*
X66517076Y-61441989D01*
X66571784Y-61425500D01*
X69434948Y-61425500D01*
X69493139Y-61444407D01*
X69527045Y-61488180D01*
X69536884Y-61513131D01*
X69536885Y-61513132D01*
X69623133Y-61626867D01*
X69736868Y-61713115D01*
X69736869Y-61713115D01*
X69736870Y-61713116D01*
X69869651Y-61765478D01*
X69869654Y-61765479D01*
X69953098Y-61775500D01*
X69953100Y-61775500D01*
X70471900Y-61775500D01*
X70471902Y-61775500D01*
X70555346Y-61765479D01*
X70688132Y-61713115D01*
X70801867Y-61626867D01*
X70888115Y-61513132D01*
X70940479Y-61380346D01*
X70950500Y-61296902D01*
X70950500Y-60703098D01*
X70940479Y-60619654D01*
X70931800Y-60597645D01*
X70888116Y-60486870D01*
X70888115Y-60486869D01*
X70888115Y-60486868D01*
X70801867Y-60373133D01*
X70688132Y-60286885D01*
X70688131Y-60286884D01*
X70688129Y-60286883D01*
X70555348Y-60234521D01*
X70471904Y-60224500D01*
X70471902Y-60224500D01*
X69953098Y-60224500D01*
X69953095Y-60224500D01*
X69869651Y-60234521D01*
X69736870Y-60286883D01*
X69736866Y-60286886D01*
X69623136Y-60373130D01*
X69623130Y-60373136D01*
X69536886Y-60486866D01*
X69536884Y-60486868D01*
X69527045Y-60511820D01*
X69488108Y-60559017D01*
X69434948Y-60574500D01*
X66571784Y-60574500D01*
X66513593Y-60555593D01*
X66479026Y-60510096D01*
X66468796Y-60482669D01*
X66468795Y-60482667D01*
X66382549Y-60367458D01*
X66382548Y-60367457D01*
X66382546Y-60367454D01*
X66376439Y-60362882D01*
X66267329Y-60281202D01*
X66132488Y-60230910D01*
X66132483Y-60230909D01*
X66132481Y-60230908D01*
X66132477Y-60230908D01*
X66101249Y-60227550D01*
X66072873Y-60224500D01*
X66072870Y-60224500D01*
X65577133Y-60224500D01*
X65577129Y-60224500D01*
X65577128Y-60224501D01*
X65569949Y-60225272D01*
X65517519Y-60230908D01*
X65517514Y-60230909D01*
X65382670Y-60281202D01*
X65267458Y-60367450D01*
X65267450Y-60367458D01*
X65181202Y-60482670D01*
X65130910Y-60617511D01*
X65130908Y-60617522D01*
X65124500Y-60677129D01*
X64875499Y-60677129D01*
X64875499Y-60677128D01*
X64869091Y-60617517D01*
X64857753Y-60587118D01*
X64818797Y-60482670D01*
X64732549Y-60367458D01*
X64732548Y-60367457D01*
X64732546Y-60367454D01*
X64726439Y-60362882D01*
X64617329Y-60281202D01*
X64482488Y-60230910D01*
X64482483Y-60230909D01*
X64482481Y-60230908D01*
X64482477Y-60230908D01*
X64451249Y-60227550D01*
X64422873Y-60224500D01*
X64422870Y-60224500D01*
X64006901Y-60224500D01*
X63948710Y-60205593D01*
X63936897Y-60195504D01*
X63531796Y-59790403D01*
X63504019Y-59735886D01*
X63502800Y-59720399D01*
X63502800Y-46487900D01*
X63521707Y-46429709D01*
X63531790Y-46417902D01*
X66895097Y-43054594D01*
X66949612Y-43026819D01*
X67010044Y-43036390D01*
X67035103Y-43054596D01*
X67570504Y-43589996D01*
X67598281Y-43644513D01*
X67599500Y-43660000D01*
X67599500Y-44647273D01*
X67599500Y-44752727D01*
X67619746Y-44828286D01*
X67626794Y-44854592D01*
X67679516Y-44945908D01*
X67679517Y-44945909D01*
X67679518Y-44945910D01*
X67679520Y-44945913D01*
X71635778Y-48902171D01*
X75545176Y-52811569D01*
X75572953Y-52866086D01*
X75563382Y-52926518D01*
X75531605Y-52959639D01*
X75533053Y-52961548D01*
X75407081Y-53057075D01*
X75407075Y-53057081D01*
X75315640Y-53177656D01*
X75315637Y-53177660D01*
X75260123Y-53318434D01*
X75249500Y-53406893D01*
X75249500Y-54593106D01*
X75260123Y-54681565D01*
X75315637Y-54822339D01*
X75315638Y-54822341D01*
X75315639Y-54822342D01*
X75407078Y-54942922D01*
X75527658Y-55034361D01*
X75527659Y-55034361D01*
X75527660Y-55034362D01*
X75598047Y-55062119D01*
X75668436Y-55089877D01*
X75756898Y-55100500D01*
X77793099Y-55100500D01*
X77851290Y-55119407D01*
X77863102Y-55129496D01*
X78180686Y-55447079D01*
X78180691Y-55447083D01*
X78272008Y-55499805D01*
X78272006Y-55499805D01*
X78272010Y-55499806D01*
X78272012Y-55499807D01*
X78373873Y-55527100D01*
X78479327Y-55527100D01*
X87172273Y-55527100D01*
X87277727Y-55527100D01*
X91459699Y-55527100D01*
X91517890Y-55546007D01*
X91529703Y-55556096D01*
X92654103Y-56680496D01*
X92681880Y-56735013D01*
X92672309Y-56795445D01*
X92629044Y-56838710D01*
X92584099Y-56849500D01*
X91105139Y-56849500D01*
X91105136Y-56849501D01*
X91080009Y-56852414D01*
X90977235Y-56897794D01*
X90897794Y-56977235D01*
X90852414Y-57080011D01*
X90849500Y-57105130D01*
X90849500Y-58894860D01*
X90849501Y-58894863D01*
X90852414Y-58919990D01*
X90868709Y-58956893D01*
X90897794Y-59022765D01*
X90977235Y-59102206D01*
X91080009Y-59147585D01*
X91105135Y-59150500D01*
X92894864Y-59150499D01*
X92919991Y-59147585D01*
X93022765Y-59102206D01*
X93102206Y-59022765D01*
X93147585Y-58919991D01*
X93150500Y-58894865D01*
X93150499Y-57415899D01*
X93169406Y-57357709D01*
X93218906Y-57321745D01*
X93280092Y-57321745D01*
X93319503Y-57345896D01*
X93445158Y-57471551D01*
X93472935Y-57526068D01*
X93469309Y-57572147D01*
X93417828Y-57730593D01*
X93389500Y-57909450D01*
X93389500Y-58090549D01*
X93417828Y-58269406D01*
X93473788Y-58441637D01*
X93511494Y-58515640D01*
X93556004Y-58602994D01*
X93662447Y-58749501D01*
X93790499Y-58877553D01*
X93937006Y-58983996D01*
X94098361Y-59066211D01*
X94270591Y-59122171D01*
X94342136Y-59133502D01*
X94449451Y-59150500D01*
X94449454Y-59150500D01*
X94630549Y-59150500D01*
X94719977Y-59136335D01*
X94809409Y-59122171D01*
X94981639Y-59066211D01*
X95142994Y-58983996D01*
X95289501Y-58877553D01*
X95417553Y-58749501D01*
X95523996Y-58602994D01*
X95606211Y-58441639D01*
X95662171Y-58269409D01*
X95679962Y-58157081D01*
X95690500Y-58090549D01*
X95690500Y-57909450D01*
X95662171Y-57730593D01*
X95662171Y-57730591D01*
X95606211Y-57558361D01*
X95523996Y-57397006D01*
X95417553Y-57250499D01*
X95289501Y-57122447D01*
X95142994Y-57016004D01*
X95142993Y-57016003D01*
X95142991Y-57016002D01*
X94981637Y-56933788D01*
X94809406Y-56877828D01*
X94630549Y-56849500D01*
X94630546Y-56849500D01*
X94449454Y-56849500D01*
X94449451Y-56849500D01*
X94270593Y-56877828D01*
X94112147Y-56929309D01*
X94050962Y-56929308D01*
X94011551Y-56905158D01*
X93085843Y-55979450D01*
X91912513Y-54806120D01*
X91912510Y-54806118D01*
X91912509Y-54806117D01*
X91912508Y-54806116D01*
X91821191Y-54753394D01*
X91821193Y-54753394D01*
X91781670Y-54742804D01*
X91719327Y-54726100D01*
X91719325Y-54726100D01*
X87947791Y-54726100D01*
X87889600Y-54707193D01*
X87853636Y-54657693D01*
X87853636Y-54596507D01*
X87868904Y-54567283D01*
X87912364Y-54509975D01*
X87965359Y-54375590D01*
X87975500Y-54291144D01*
X87975500Y-53708856D01*
X87965359Y-53624410D01*
X87938861Y-53557217D01*
X87912365Y-53490027D01*
X87912364Y-53490026D01*
X87912364Y-53490025D01*
X87825078Y-53374922D01*
X87709975Y-53287636D01*
X87709974Y-53287635D01*
X87709972Y-53287634D01*
X87575591Y-53234641D01*
X87491148Y-53224500D01*
X87491144Y-53224500D01*
X86958856Y-53224500D01*
X86958851Y-53224500D01*
X86874408Y-53234641D01*
X86740027Y-53287634D01*
X86624922Y-53374922D01*
X86537634Y-53490027D01*
X86484641Y-53624408D01*
X86474500Y-53708851D01*
X86474500Y-54291148D01*
X86484641Y-54375591D01*
X86537634Y-54509972D01*
X86537635Y-54509974D01*
X86537636Y-54509975D01*
X86581093Y-54567282D01*
X86601188Y-54625071D01*
X86583477Y-54683637D01*
X86534725Y-54720608D01*
X86502209Y-54726100D01*
X79446129Y-54726100D01*
X79387938Y-54707193D01*
X79351974Y-54657693D01*
X79347835Y-54615296D01*
X79348511Y-54609665D01*
X79350500Y-54593102D01*
X79350500Y-53406898D01*
X79339877Y-53318436D01*
X79295491Y-53205881D01*
X79284362Y-53177660D01*
X79284361Y-53177659D01*
X79284361Y-53177658D01*
X79192922Y-53057078D01*
X79072342Y-52965639D01*
X79072341Y-52965638D01*
X79072339Y-52965637D01*
X78931565Y-52910123D01*
X78843106Y-52899500D01*
X78843102Y-52899500D01*
X76806901Y-52899500D01*
X76748710Y-52880593D01*
X76736897Y-52870504D01*
X71395843Y-47529450D01*
X81849500Y-47529450D01*
X81849500Y-47710549D01*
X81877828Y-47889406D01*
X81933788Y-48061637D01*
X82015313Y-48221639D01*
X82016004Y-48222994D01*
X82122447Y-48369501D01*
X82250499Y-48497553D01*
X82397006Y-48603996D01*
X82558361Y-48686211D01*
X82730591Y-48742171D01*
X82802136Y-48753502D01*
X82909451Y-48770500D01*
X82909454Y-48770500D01*
X83090549Y-48770500D01*
X83179977Y-48756335D01*
X83269409Y-48742171D01*
X83441639Y-48686211D01*
X83602994Y-48603996D01*
X83749501Y-48497553D01*
X83877553Y-48369501D01*
X83983996Y-48222994D01*
X84066211Y-48061639D01*
X84122171Y-47889409D01*
X84138788Y-47784494D01*
X84150500Y-47710549D01*
X84150500Y-47529450D01*
X84131614Y-47410212D01*
X84122171Y-47350591D01*
X84066211Y-47178361D01*
X83983996Y-47017006D01*
X83877553Y-46870499D01*
X83749501Y-46742447D01*
X83602994Y-46636004D01*
X83602993Y-46636003D01*
X83602991Y-46636002D01*
X83441637Y-46553788D01*
X83269406Y-46497828D01*
X83090549Y-46469500D01*
X83090546Y-46469500D01*
X82909454Y-46469500D01*
X82909451Y-46469500D01*
X82730593Y-46497828D01*
X82558362Y-46553788D01*
X82397008Y-46636002D01*
X82366966Y-46657829D01*
X82250499Y-46742447D01*
X82122447Y-46870499D01*
X82105054Y-46894439D01*
X82016002Y-47017008D01*
X81933788Y-47178362D01*
X81877828Y-47350593D01*
X81849500Y-47529450D01*
X71395843Y-47529450D01*
X69035896Y-45169503D01*
X69008119Y-45114986D01*
X69017690Y-45054554D01*
X69060955Y-45011289D01*
X69105900Y-45000499D01*
X69339358Y-45000499D01*
X69339360Y-45000499D01*
X69456762Y-44985044D01*
X69602841Y-44924536D01*
X69728282Y-44828282D01*
X69824536Y-44702841D01*
X69885044Y-44556762D01*
X69900500Y-44439361D01*
X69900500Y-44141200D01*
X69919407Y-44083009D01*
X69968907Y-44047045D01*
X69999500Y-44042200D01*
X78209732Y-44042200D01*
X78267923Y-44061107D01*
X78303887Y-44110607D01*
X78305358Y-44166820D01*
X78274685Y-44281299D01*
X78270600Y-44296544D01*
X78270600Y-44368699D01*
X78251693Y-44426890D01*
X78241604Y-44438703D01*
X77134903Y-45545404D01*
X77080386Y-45573181D01*
X77064899Y-45574400D01*
X73691344Y-45574400D01*
X73633153Y-45555493D01*
X73621341Y-45545404D01*
X73570418Y-45494482D01*
X73570416Y-45494480D01*
X73433484Y-45415423D01*
X73280757Y-45374500D01*
X73122643Y-45374500D01*
X72969916Y-45415423D01*
X72832984Y-45494480D01*
X72721180Y-45606284D01*
X72642123Y-45743216D01*
X72601200Y-45895943D01*
X72601200Y-46054057D01*
X72642123Y-46206784D01*
X72721180Y-46343716D01*
X72832984Y-46455520D01*
X72969916Y-46534577D01*
X73122643Y-46575500D01*
X73122645Y-46575500D01*
X73280755Y-46575500D01*
X73280757Y-46575500D01*
X73433484Y-46534577D01*
X73570416Y-46455520D01*
X73608040Y-46417896D01*
X73621541Y-46404396D01*
X73676058Y-46376619D01*
X73691544Y-46375400D01*
X77324525Y-46375400D01*
X77324527Y-46375400D01*
X77426388Y-46348107D01*
X77426390Y-46348105D01*
X77426392Y-46348105D01*
X77517708Y-46295383D01*
X77517708Y-46295382D01*
X77517713Y-46295380D01*
X78807996Y-45005095D01*
X78862513Y-44977319D01*
X78878000Y-44976100D01*
X78950155Y-44976100D01*
X78950157Y-44976100D01*
X79102884Y-44935177D01*
X79239816Y-44856120D01*
X79351620Y-44744316D01*
X79430677Y-44607384D01*
X79471600Y-44454657D01*
X79471600Y-44296543D01*
X79436841Y-44166820D01*
X79440044Y-44105722D01*
X79478549Y-44058172D01*
X79532468Y-44042200D01*
X82171739Y-44042200D01*
X82229930Y-44061107D01*
X82265894Y-44110607D01*
X82265894Y-44171793D01*
X82241744Y-44211201D01*
X82122447Y-44330499D01*
X82107332Y-44351303D01*
X82016002Y-44477008D01*
X81933788Y-44638362D01*
X81877828Y-44810593D01*
X81849500Y-44989450D01*
X81849500Y-45170549D01*
X81877828Y-45349406D01*
X81924964Y-45494480D01*
X81933789Y-45521639D01*
X82016004Y-45682994D01*
X82122447Y-45829501D01*
X82250499Y-45957553D01*
X82397006Y-46063996D01*
X82558361Y-46146211D01*
X82730591Y-46202171D01*
X82802136Y-46213502D01*
X82909451Y-46230500D01*
X82909454Y-46230500D01*
X83090549Y-46230500D01*
X83179977Y-46216335D01*
X83269409Y-46202171D01*
X83441639Y-46146211D01*
X83602994Y-46063996D01*
X83749501Y-45957553D01*
X83877553Y-45829501D01*
X83983996Y-45682994D01*
X84066211Y-45521639D01*
X84122171Y-45349409D01*
X84145756Y-45200499D01*
X84150500Y-45170549D01*
X84150500Y-44989450D01*
X84129139Y-44854588D01*
X84122171Y-44810591D01*
X84066211Y-44638361D01*
X83983996Y-44477006D01*
X83877553Y-44330499D01*
X83758255Y-44211201D01*
X83730480Y-44156687D01*
X83740051Y-44096255D01*
X83783316Y-44052990D01*
X83828261Y-44042200D01*
X93481725Y-44042200D01*
X93481727Y-44042200D01*
X93583588Y-44014907D01*
X93583590Y-44014905D01*
X93583592Y-44014905D01*
X93674908Y-43962183D01*
X93674908Y-43962182D01*
X93674913Y-43962180D01*
X93833824Y-43803268D01*
X93888339Y-43775492D01*
X93948771Y-43785063D01*
X93992036Y-43828328D01*
X94002120Y-43885076D01*
X93999500Y-43906890D01*
X93999500Y-44693106D01*
X94010123Y-44781565D01*
X94065637Y-44922339D01*
X94065638Y-44922341D01*
X94065639Y-44922342D01*
X94157078Y-45042922D01*
X94277658Y-45134361D01*
X94277659Y-45134361D01*
X94277660Y-45134362D01*
X94348047Y-45162119D01*
X94418436Y-45189877D01*
X94506898Y-45200500D01*
X94506900Y-45200500D01*
X95893100Y-45200500D01*
X95893102Y-45200500D01*
X95981564Y-45189877D01*
X96122342Y-45134361D01*
X96242922Y-45042922D01*
X96334361Y-44922342D01*
X96389877Y-44781564D01*
X96400500Y-44693102D01*
X96400500Y-43906898D01*
X96389877Y-43818436D01*
X96336861Y-43683997D01*
X96334362Y-43677660D01*
X96334361Y-43677659D01*
X96334361Y-43677658D01*
X96242922Y-43557078D01*
X96122342Y-43465639D01*
X96122341Y-43465638D01*
X96122339Y-43465637D01*
X95981565Y-43410123D01*
X95893106Y-43399500D01*
X95893102Y-43399500D01*
X94506898Y-43399500D01*
X94506893Y-43399500D01*
X94418434Y-43410123D01*
X94277660Y-43465637D01*
X94277657Y-43465639D01*
X94268418Y-43472646D01*
X94210627Y-43492740D01*
X94152061Y-43475028D01*
X94115091Y-43426275D01*
X94109600Y-43393761D01*
X94109600Y-41553874D01*
X94109600Y-41553873D01*
X94087703Y-41472150D01*
X94082307Y-41452012D01*
X94082307Y-41452011D01*
X94029583Y-41360691D01*
X94029579Y-41360686D01*
X93779496Y-41110602D01*
X93751719Y-41056086D01*
X93750500Y-41040599D01*
X93750500Y-40795727D01*
X93750499Y-40795725D01*
X93747646Y-40765301D01*
X93702793Y-40637118D01*
X93676608Y-40601639D01*
X93622154Y-40527855D01*
X93622152Y-40527853D01*
X93622150Y-40527850D01*
X93622146Y-40527847D01*
X93622144Y-40527845D01*
X93512883Y-40447207D01*
X93384703Y-40402355D01*
X93384694Y-40402353D01*
X93354274Y-40399500D01*
X93354266Y-40399500D01*
X91995734Y-40399500D01*
X91995725Y-40399500D01*
X91965305Y-40402353D01*
X91965296Y-40402355D01*
X91837116Y-40447207D01*
X91727855Y-40527845D01*
X91727845Y-40527855D01*
X91647207Y-40637116D01*
X91602355Y-40765296D01*
X91602353Y-40765305D01*
X91599500Y-40795725D01*
X91599500Y-41204274D01*
X91602353Y-41234694D01*
X91602355Y-41234703D01*
X91647207Y-41362883D01*
X91705016Y-41441212D01*
X91724358Y-41499260D01*
X91705886Y-41557590D01*
X91705094Y-41558683D01*
X91704724Y-41559184D01*
X91655005Y-41594841D01*
X91624993Y-41599500D01*
X85500899Y-41599500D01*
X85442708Y-41580593D01*
X85406744Y-41531093D01*
X85405272Y-41474878D01*
X85407063Y-41468189D01*
X85414200Y-41441557D01*
X85414200Y-41283443D01*
X85373277Y-41130716D01*
X85294220Y-40993784D01*
X85272477Y-40972041D01*
X85243196Y-40942759D01*
X85215419Y-40888242D01*
X85214200Y-40872756D01*
X85214200Y-39306893D01*
X93999500Y-39306893D01*
X93999500Y-40093106D01*
X94010123Y-40181565D01*
X94065637Y-40322339D01*
X94065638Y-40322341D01*
X94065639Y-40322342D01*
X94157078Y-40442922D01*
X94277658Y-40534361D01*
X94277659Y-40534361D01*
X94277660Y-40534362D01*
X94334463Y-40556762D01*
X94418436Y-40589877D01*
X94506898Y-40600500D01*
X94506900Y-40600500D01*
X95893100Y-40600500D01*
X95893102Y-40600500D01*
X95981564Y-40589877D01*
X96122342Y-40534361D01*
X96242922Y-40442922D01*
X96334361Y-40322342D01*
X96389877Y-40181564D01*
X96400500Y-40093102D01*
X96400500Y-39306898D01*
X96389877Y-39218436D01*
X96362119Y-39148047D01*
X96334362Y-39077660D01*
X96334361Y-39077659D01*
X96334361Y-39077658D01*
X96242922Y-38957078D01*
X96122342Y-38865639D01*
X96122341Y-38865638D01*
X96122339Y-38865637D01*
X95981565Y-38810123D01*
X95893106Y-38799500D01*
X95893102Y-38799500D01*
X94506898Y-38799500D01*
X94506893Y-38799500D01*
X94418434Y-38810123D01*
X94277660Y-38865637D01*
X94277656Y-38865640D01*
X94157081Y-38957075D01*
X94157075Y-38957081D01*
X94065640Y-39077656D01*
X94065637Y-39077660D01*
X94010123Y-39218434D01*
X93999500Y-39306893D01*
X85214200Y-39306893D01*
X85214200Y-37947274D01*
X85209109Y-37928273D01*
X85186907Y-37845413D01*
X85175937Y-37826413D01*
X85134181Y-37754089D01*
X85134180Y-37754087D01*
X85059613Y-37679520D01*
X84968287Y-37626793D01*
X84866427Y-37599500D01*
X84866425Y-37599500D01*
X69186901Y-37599500D01*
X69128710Y-37580593D01*
X69092746Y-37531093D01*
X69092746Y-37469907D01*
X69116897Y-37430496D01*
X70717892Y-35829501D01*
X75620480Y-30926913D01*
X75673207Y-30835588D01*
X75700500Y-30733727D01*
X75700500Y-30628273D01*
X75700500Y-16205901D01*
X75719407Y-16147710D01*
X75768907Y-16111746D01*
X75830093Y-16111746D01*
X75869504Y-16135897D01*
X82770504Y-23036897D01*
X82798281Y-23091414D01*
X82799500Y-23106901D01*
X82799500Y-24043106D01*
X82810123Y-24131565D01*
X82865637Y-24272339D01*
X82865638Y-24272341D01*
X82865639Y-24272342D01*
X82957078Y-24392922D01*
X83077658Y-24484361D01*
X83077659Y-24484361D01*
X83077660Y-24484362D01*
X83148047Y-24512119D01*
X83218436Y-24539877D01*
X83306898Y-24550500D01*
X83306900Y-24550500D01*
X87293100Y-24550500D01*
X87293102Y-24550500D01*
X87381564Y-24539877D01*
X87522342Y-24484361D01*
X87642922Y-24392922D01*
X87734361Y-24272342D01*
X87789877Y-24131564D01*
X87800500Y-24043102D01*
X87800500Y-21956898D01*
X87789877Y-21868436D01*
X87753822Y-21777008D01*
X87734362Y-21727660D01*
X87734361Y-21727659D01*
X87734361Y-21727658D01*
X87642922Y-21607078D01*
X87522342Y-21515639D01*
X87522341Y-21515638D01*
X87522339Y-21515637D01*
X87381565Y-21460123D01*
X87293106Y-21449500D01*
X87293102Y-21449500D01*
X83306898Y-21449500D01*
X83306893Y-21449500D01*
X83218434Y-21460123D01*
X83077660Y-21515637D01*
X83077656Y-21515640D01*
X82957081Y-21607075D01*
X82957075Y-21607081D01*
X82865640Y-21727656D01*
X82865638Y-21727658D01*
X82844200Y-21782022D01*
X82805263Y-21829219D01*
X82746020Y-21844515D01*
X82689101Y-21822068D01*
X82682099Y-21815706D01*
X77054823Y-16188430D01*
X77027046Y-16133913D01*
X77036617Y-16073481D01*
X77068401Y-16040369D01*
X77066947Y-16038452D01*
X77072342Y-16034361D01*
X77192922Y-15942922D01*
X77284361Y-15822342D01*
X77339877Y-15681564D01*
X77350500Y-15593102D01*
X77350500Y-14406898D01*
X77339877Y-14318436D01*
X77284361Y-14177658D01*
X77192922Y-14057078D01*
X77072342Y-13965639D01*
X77072341Y-13965638D01*
X77072339Y-13965637D01*
X76931565Y-13910123D01*
X76843106Y-13899500D01*
X76843102Y-13899500D01*
X73756898Y-13899500D01*
X73756893Y-13899500D01*
X73668434Y-13910123D01*
X73527660Y-13965637D01*
X73527656Y-13965640D01*
X73407081Y-14057075D01*
X73407075Y-14057081D01*
X73315640Y-14177656D01*
X73315637Y-14177660D01*
X73260123Y-14318434D01*
X73249500Y-14406893D01*
X73249500Y-15593106D01*
X73260123Y-15681565D01*
X73315637Y-15822339D01*
X73315638Y-15822341D01*
X73315639Y-15822342D01*
X73407078Y-15942922D01*
X73527658Y-16034361D01*
X73527659Y-16034361D01*
X73527660Y-16034362D01*
X73538032Y-16038452D01*
X73668436Y-16089877D01*
X73756898Y-16100500D01*
X74800500Y-16100500D01*
X74858691Y-16119407D01*
X74894655Y-16168907D01*
X74899500Y-16199500D01*
X74899500Y-30474098D01*
X74880593Y-30532289D01*
X74870504Y-30544102D01*
X70094839Y-35319766D01*
X70040322Y-35347543D01*
X69979890Y-35337972D01*
X69936625Y-35294707D01*
X69929210Y-35275390D01*
X69895777Y-35150616D01*
X69816720Y-35013684D01*
X69704916Y-34901880D01*
X69567984Y-34822823D01*
X69415257Y-34781900D01*
X69415255Y-34781900D01*
X69343100Y-34781900D01*
X69284909Y-34762993D01*
X69273096Y-34752904D01*
X66182596Y-31662403D01*
X66154819Y-31607886D01*
X66153600Y-31592399D01*
X66153600Y-25799450D01*
X66469500Y-25799450D01*
X66469500Y-25980549D01*
X66497828Y-26159406D01*
X66546595Y-26309500D01*
X66553789Y-26331639D01*
X66636004Y-26492994D01*
X66742447Y-26639501D01*
X66870499Y-26767553D01*
X67017006Y-26873996D01*
X67178361Y-26956211D01*
X67350591Y-27012171D01*
X67422136Y-27023502D01*
X67529451Y-27040500D01*
X67529454Y-27040500D01*
X67710549Y-27040500D01*
X67799977Y-27026335D01*
X67889409Y-27012171D01*
X68061639Y-26956211D01*
X68222994Y-26873996D01*
X68369501Y-26767553D01*
X68497553Y-26639501D01*
X68603996Y-26492994D01*
X68686211Y-26331639D01*
X68742171Y-26159409D01*
X68762415Y-26031596D01*
X68770500Y-25980549D01*
X68770500Y-25799450D01*
X68749918Y-25669502D01*
X68742171Y-25620591D01*
X68686211Y-25448361D01*
X68603996Y-25287006D01*
X68497553Y-25140499D01*
X68369501Y-25012447D01*
X68222994Y-24906004D01*
X68222993Y-24906003D01*
X68222991Y-24906002D01*
X68061637Y-24823788D01*
X67889406Y-24767828D01*
X67710549Y-24739500D01*
X67710546Y-24739500D01*
X67529454Y-24739500D01*
X67529451Y-24739500D01*
X67350593Y-24767828D01*
X67178362Y-24823788D01*
X67017008Y-24906002D01*
X66943752Y-24959225D01*
X66870499Y-25012447D01*
X66742447Y-25140499D01*
X66706914Y-25189406D01*
X66636002Y-25287008D01*
X66553788Y-25448362D01*
X66497828Y-25620593D01*
X66469500Y-25799450D01*
X66153600Y-25799450D01*
X66153600Y-24408543D01*
X66172507Y-24350352D01*
X66182590Y-24338545D01*
X66233620Y-24287516D01*
X66312677Y-24150584D01*
X66353600Y-23997857D01*
X66353600Y-23839743D01*
X66312677Y-23687016D01*
X66233620Y-23550084D01*
X66121816Y-23438280D01*
X65984884Y-23359223D01*
X65832157Y-23318300D01*
X65674043Y-23318300D01*
X65521316Y-23359223D01*
X65384384Y-23438280D01*
X65272580Y-23550084D01*
X65193523Y-23687016D01*
X65152600Y-23839743D01*
X65152600Y-23997857D01*
X65193523Y-24150584D01*
X65272580Y-24287516D01*
X65323605Y-24338541D01*
X65351381Y-24393056D01*
X65352600Y-24408543D01*
X65352600Y-31746573D01*
X65352600Y-31852027D01*
X65355568Y-31863103D01*
X65379894Y-31953892D01*
X65432616Y-32045208D01*
X65432618Y-32045210D01*
X65432620Y-32045213D01*
X67316908Y-33929500D01*
X68706704Y-35319296D01*
X68734481Y-35373813D01*
X68735700Y-35389300D01*
X68735700Y-35461457D01*
X68776623Y-35614184D01*
X68855680Y-35751116D01*
X68967484Y-35862920D01*
X69104416Y-35941977D01*
X69229186Y-35975409D01*
X69280499Y-36008732D01*
X69302426Y-36065854D01*
X69286590Y-36124954D01*
X69273566Y-36141039D01*
X67679517Y-37735090D01*
X67679516Y-37735091D01*
X67626793Y-37826411D01*
X67626792Y-37826411D01*
X67626793Y-37826412D01*
X67599500Y-37928273D01*
X67599500Y-38925916D01*
X67580593Y-38984107D01*
X67531093Y-39020071D01*
X67469907Y-39020071D01*
X67462616Y-39017381D01*
X67462553Y-39017355D01*
X67460746Y-39016606D01*
X67456763Y-39014956D01*
X67456758Y-39014955D01*
X67339361Y-38999500D01*
X66660642Y-38999500D01*
X66660637Y-38999501D01*
X66543241Y-39014955D01*
X66543233Y-39014957D01*
X66397161Y-39075462D01*
X66397160Y-39075462D01*
X66271723Y-39171713D01*
X66271713Y-39171723D01*
X66175462Y-39297160D01*
X66175462Y-39297161D01*
X66114957Y-39443233D01*
X66114955Y-39443241D01*
X66099500Y-39560637D01*
X66099500Y-40009717D01*
X66080593Y-40067908D01*
X66053266Y-40093483D01*
X64246246Y-41231764D01*
X64186932Y-41246781D01*
X64158886Y-41240756D01*
X64132483Y-41230909D01*
X64132479Y-41230908D01*
X64132477Y-41230908D01*
X64101249Y-41227550D01*
X64072873Y-41224500D01*
X64072870Y-41224500D01*
X63577133Y-41224500D01*
X63577129Y-41224500D01*
X63577128Y-41224501D01*
X63569949Y-41225272D01*
X63517519Y-41230908D01*
X63517514Y-41230909D01*
X63382670Y-41281202D01*
X63267458Y-41367450D01*
X63267450Y-41367458D01*
X63181202Y-41482670D01*
X63130910Y-41617511D01*
X63130908Y-41617522D01*
X63124500Y-41677129D01*
X63124500Y-42322866D01*
X63124501Y-42322870D01*
X63130908Y-42382480D01*
X63130909Y-42382485D01*
X63181202Y-42517329D01*
X63244223Y-42601514D01*
X63267454Y-42632546D01*
X63267457Y-42632548D01*
X63267458Y-42632549D01*
X63382670Y-42718797D01*
X63517511Y-42769089D01*
X63517512Y-42769089D01*
X63517517Y-42769091D01*
X63577127Y-42775500D01*
X64072872Y-42775499D01*
X64132483Y-42769091D01*
X64199907Y-42743943D01*
X64267329Y-42718797D01*
X64267329Y-42718796D01*
X64267331Y-42718796D01*
X64382546Y-42632546D01*
X64468796Y-42517331D01*
X64485648Y-42472150D01*
X64519089Y-42382488D01*
X64519090Y-42382485D01*
X64519091Y-42382483D01*
X64525500Y-42322873D01*
X64525499Y-42116264D01*
X64544406Y-42058075D01*
X64571733Y-42032499D01*
X64905187Y-41822449D01*
X66115651Y-41059951D01*
X66174964Y-41044935D01*
X66231777Y-41067649D01*
X66264388Y-41119420D01*
X66260341Y-41180471D01*
X66246958Y-41203985D01*
X66175462Y-41297160D01*
X66175462Y-41297161D01*
X66114957Y-41443233D01*
X66114955Y-41443241D01*
X66099500Y-41560637D01*
X66099500Y-42439357D01*
X66099501Y-42439362D01*
X66114433Y-42552793D01*
X66114956Y-42556762D01*
X66114956Y-42556763D01*
X66114957Y-42556765D01*
X66132166Y-42598313D01*
X66136965Y-42659309D01*
X66110705Y-42706200D01*
X62781817Y-46035090D01*
X62781816Y-46035091D01*
X62729094Y-46126407D01*
X62726557Y-46135877D01*
X62701800Y-46228273D01*
X62701800Y-53949400D01*
X62682893Y-54007591D01*
X62633393Y-54043555D01*
X62602800Y-54048400D01*
X58215201Y-54048400D01*
X58157010Y-54029493D01*
X58145197Y-54019404D01*
X57654496Y-53528703D01*
X57626719Y-53474186D01*
X57625500Y-53458699D01*
X57625500Y-52813055D01*
X57644407Y-52754864D01*
X57688181Y-52720957D01*
X57709975Y-52712364D01*
X57825078Y-52625078D01*
X57912364Y-52509975D01*
X57965359Y-52375590D01*
X57975500Y-52291144D01*
X57975500Y-51708856D01*
X57965359Y-51624410D01*
X57912364Y-51490025D01*
X57825078Y-51374922D01*
X57709975Y-51287636D01*
X57709974Y-51287635D01*
X57709972Y-51287634D01*
X57575591Y-51234641D01*
X57491148Y-51224500D01*
X57491144Y-51224500D01*
X56958856Y-51224500D01*
X56958851Y-51224500D01*
X56874408Y-51234641D01*
X56740027Y-51287634D01*
X56624922Y-51374922D01*
X56537634Y-51490028D01*
X56519182Y-51536819D01*
X56480245Y-51584016D01*
X56427085Y-51599500D01*
X55670300Y-51599500D01*
X55612109Y-51580593D01*
X55576145Y-51531093D01*
X55571300Y-51500500D01*
X55571300Y-47834429D01*
X55590207Y-47776238D01*
X55633979Y-47742333D01*
X55709975Y-47712364D01*
X55825078Y-47625078D01*
X55912364Y-47509975D01*
X55965359Y-47375590D01*
X55975500Y-47291144D01*
X55975500Y-46856900D01*
X55994407Y-46798709D01*
X56004490Y-46786902D01*
X56356880Y-46434513D01*
X56374268Y-46404396D01*
X56409605Y-46343192D01*
X56409605Y-46343190D01*
X56409607Y-46343188D01*
X56436900Y-46241327D01*
X56436900Y-46135873D01*
X56436900Y-43646667D01*
X56455807Y-43588476D01*
X56505307Y-43552512D01*
X56545144Y-43548100D01*
X56557770Y-43549284D01*
X56570729Y-43550500D01*
X56570734Y-43550500D01*
X57704273Y-43550500D01*
X57704273Y-43550499D01*
X57734699Y-43547646D01*
X57862882Y-43502793D01*
X57972150Y-43422150D01*
X58052793Y-43312882D01*
X58072299Y-43257133D01*
X58109363Y-43208455D01*
X58147394Y-43192548D01*
X61494901Y-42561256D01*
X61555587Y-42569052D01*
X61592499Y-42599211D01*
X61617454Y-42632546D01*
X61617457Y-42632548D01*
X61617458Y-42632549D01*
X61732670Y-42718797D01*
X61867511Y-42769089D01*
X61867512Y-42769089D01*
X61867517Y-42769091D01*
X61927127Y-42775500D01*
X62422872Y-42775499D01*
X62482483Y-42769091D01*
X62549907Y-42743943D01*
X62617329Y-42718797D01*
X62617329Y-42718796D01*
X62617331Y-42718796D01*
X62732546Y-42632546D01*
X62818796Y-42517331D01*
X62835648Y-42472150D01*
X62869089Y-42382488D01*
X62869090Y-42382485D01*
X62869091Y-42382483D01*
X62875500Y-42322873D01*
X62875499Y-41677128D01*
X62869091Y-41617517D01*
X62869089Y-41617511D01*
X62818797Y-41482670D01*
X62732549Y-41367458D01*
X62732548Y-41367457D01*
X62732546Y-41367454D01*
X62723512Y-41360691D01*
X62617329Y-41281202D01*
X62482488Y-41230910D01*
X62482483Y-41230909D01*
X62482481Y-41230908D01*
X62482477Y-41230908D01*
X62451249Y-41227550D01*
X62422873Y-41224500D01*
X62422870Y-41224500D01*
X61927133Y-41224500D01*
X61927129Y-41224500D01*
X61927128Y-41224501D01*
X61919949Y-41225272D01*
X61867519Y-41230908D01*
X61867514Y-41230909D01*
X61732670Y-41281202D01*
X61617458Y-41367450D01*
X61617450Y-41367458D01*
X61531202Y-41482670D01*
X61480910Y-41617511D01*
X61480906Y-41617528D01*
X61479944Y-41626481D01*
X61454922Y-41682316D01*
X61401860Y-41712780D01*
X61399859Y-41713179D01*
X57857342Y-42381247D01*
X57806298Y-42377407D01*
X57764789Y-42362883D01*
X57734699Y-42352354D01*
X57734697Y-42352353D01*
X57734694Y-42352353D01*
X57704274Y-42349500D01*
X57704266Y-42349500D01*
X56643400Y-42349500D01*
X56585209Y-42330593D01*
X56549245Y-42281093D01*
X56549245Y-42219907D01*
X56573396Y-42180496D01*
X57074396Y-41679496D01*
X57128913Y-41651719D01*
X57144400Y-41650500D01*
X57704273Y-41650500D01*
X57704273Y-41650499D01*
X57734699Y-41647646D01*
X57862882Y-41602793D01*
X57972150Y-41522150D01*
X58052793Y-41412882D01*
X58097646Y-41284699D01*
X58100499Y-41254273D01*
X58100500Y-41254273D01*
X58100500Y-40845727D01*
X58100499Y-40845725D01*
X58097646Y-40815305D01*
X58097646Y-40815301D01*
X58052793Y-40687118D01*
X57988866Y-40600500D01*
X57972154Y-40577855D01*
X57972152Y-40577853D01*
X57972150Y-40577850D01*
X57972146Y-40577847D01*
X57972144Y-40577845D01*
X57862883Y-40497207D01*
X57734703Y-40452355D01*
X57734694Y-40452353D01*
X57704274Y-40449500D01*
X57704266Y-40449500D01*
X57637000Y-40449500D01*
X57578809Y-40430593D01*
X57542845Y-40381093D01*
X57538000Y-40350500D01*
X57538000Y-33250701D01*
X57556907Y-33192510D01*
X57566996Y-33180697D01*
X58318197Y-32429496D01*
X58372714Y-32401719D01*
X58388201Y-32400500D01*
X58427085Y-32400500D01*
X58485276Y-32419407D01*
X58519182Y-32463181D01*
X58537634Y-32509971D01*
X58537636Y-32509975D01*
X58624922Y-32625078D01*
X58740025Y-32712364D01*
X58740026Y-32712364D01*
X58740027Y-32712365D01*
X58778551Y-32727557D01*
X58874410Y-32765359D01*
X58958856Y-32775500D01*
X58958858Y-32775500D01*
X59491142Y-32775500D01*
X59491144Y-32775500D01*
X59575590Y-32765359D01*
X59709975Y-32712364D01*
X59825078Y-32625078D01*
X59912364Y-32509975D01*
X59965359Y-32375590D01*
X59975500Y-32291144D01*
X59975500Y-31708856D01*
X59965359Y-31624410D01*
X59932869Y-31542022D01*
X59912365Y-31490027D01*
X59912364Y-31490026D01*
X59912364Y-31490025D01*
X59825078Y-31374922D01*
X59709975Y-31287636D01*
X59709974Y-31287635D01*
X59709972Y-31287634D01*
X59575591Y-31234641D01*
X59491148Y-31224500D01*
X59491144Y-31224500D01*
X58958856Y-31224500D01*
X58958851Y-31224500D01*
X58874408Y-31234641D01*
X58740027Y-31287634D01*
X58734121Y-31290956D01*
X58733410Y-31289693D01*
X58682819Y-31307280D01*
X58624255Y-31289564D01*
X58587289Y-31240807D01*
X58581800Y-31208301D01*
X58581800Y-20719450D01*
X66469500Y-20719450D01*
X66469500Y-20900549D01*
X66497828Y-21079406D01*
X66546595Y-21229500D01*
X66553789Y-21251639D01*
X66636004Y-21412994D01*
X66742447Y-21559501D01*
X66870499Y-21687553D01*
X67017006Y-21793996D01*
X67178361Y-21876211D01*
X67350591Y-21932171D01*
X67422136Y-21943502D01*
X67529451Y-21960500D01*
X67529454Y-21960500D01*
X67710549Y-21960500D01*
X67799977Y-21946335D01*
X67889409Y-21932171D01*
X68061639Y-21876211D01*
X68222994Y-21793996D01*
X68369501Y-21687553D01*
X68497553Y-21559501D01*
X68603996Y-21412994D01*
X68686211Y-21251639D01*
X68742171Y-21079409D01*
X68770500Y-20900546D01*
X68770500Y-20719454D01*
X68770500Y-20719450D01*
X68749918Y-20589502D01*
X68742171Y-20540591D01*
X68686211Y-20368361D01*
X68603996Y-20207006D01*
X68497553Y-20060499D01*
X68369501Y-19932447D01*
X68222994Y-19826004D01*
X68222993Y-19826003D01*
X68222991Y-19826002D01*
X68061637Y-19743788D01*
X67889406Y-19687828D01*
X67710549Y-19659500D01*
X67710546Y-19659500D01*
X67529454Y-19659500D01*
X67529451Y-19659500D01*
X67350593Y-19687828D01*
X67178362Y-19743788D01*
X67017008Y-19826002D01*
X66943752Y-19879225D01*
X66870499Y-19932447D01*
X66742447Y-20060499D01*
X66706914Y-20109406D01*
X66636002Y-20207008D01*
X66553788Y-20368362D01*
X66497828Y-20540593D01*
X66469500Y-20719450D01*
X58581800Y-20719450D01*
X58581800Y-18179450D01*
X66469500Y-18179450D01*
X66469500Y-18360549D01*
X66497828Y-18539406D01*
X66546595Y-18689500D01*
X66553789Y-18711639D01*
X66636004Y-18872994D01*
X66742447Y-19019501D01*
X66870499Y-19147553D01*
X67017006Y-19253996D01*
X67178361Y-19336211D01*
X67350591Y-19392171D01*
X67422136Y-19403502D01*
X67529451Y-19420500D01*
X67529454Y-19420500D01*
X67710549Y-19420500D01*
X67799977Y-19406335D01*
X67889409Y-19392171D01*
X68061639Y-19336211D01*
X68222994Y-19253996D01*
X68369501Y-19147553D01*
X68497553Y-19019501D01*
X68603996Y-18872994D01*
X68686211Y-18711639D01*
X68742171Y-18539409D01*
X68770500Y-18360546D01*
X68770500Y-18179454D01*
X68770500Y-18179450D01*
X68749918Y-18049502D01*
X68742171Y-18000591D01*
X68686211Y-17828361D01*
X68603996Y-17667006D01*
X68497553Y-17520499D01*
X68369501Y-17392447D01*
X68222994Y-17286004D01*
X68222993Y-17286003D01*
X68222991Y-17286002D01*
X68061637Y-17203788D01*
X67889406Y-17147828D01*
X67710549Y-17119500D01*
X67710546Y-17119500D01*
X67529454Y-17119500D01*
X67529451Y-17119500D01*
X67350593Y-17147828D01*
X67178362Y-17203788D01*
X67017008Y-17286002D01*
X66943752Y-17339225D01*
X66870499Y-17392447D01*
X66742447Y-17520499D01*
X66706914Y-17569406D01*
X66636002Y-17667008D01*
X66553788Y-17828362D01*
X66497828Y-18000593D01*
X66469500Y-18179450D01*
X58581800Y-18179450D01*
X58581800Y-15639450D01*
X66469500Y-15639450D01*
X66469500Y-15820549D01*
X66497828Y-15999406D01*
X66553788Y-16171637D01*
X66602319Y-16266885D01*
X66636004Y-16332994D01*
X66742447Y-16479501D01*
X66870499Y-16607553D01*
X67017006Y-16713996D01*
X67178361Y-16796211D01*
X67350591Y-16852171D01*
X67422136Y-16863502D01*
X67529451Y-16880500D01*
X67529454Y-16880500D01*
X67710549Y-16880500D01*
X67799977Y-16866335D01*
X67889409Y-16852171D01*
X68061639Y-16796211D01*
X68222994Y-16713996D01*
X68369501Y-16607553D01*
X68497553Y-16479501D01*
X68603996Y-16332994D01*
X68686211Y-16171639D01*
X68742171Y-15999409D01*
X68766998Y-15842657D01*
X68770500Y-15820549D01*
X68770500Y-15639450D01*
X68749918Y-15509502D01*
X68742171Y-15460591D01*
X68686211Y-15288361D01*
X68603996Y-15127006D01*
X68497553Y-14980499D01*
X68369501Y-14852447D01*
X68222994Y-14746004D01*
X68222993Y-14746003D01*
X68222991Y-14746002D01*
X68061637Y-14663788D01*
X67889406Y-14607828D01*
X67710549Y-14579500D01*
X67710546Y-14579500D01*
X67529454Y-14579500D01*
X67529451Y-14579500D01*
X67350593Y-14607828D01*
X67178362Y-14663788D01*
X67017008Y-14746002D01*
X66943752Y-14799225D01*
X66870499Y-14852447D01*
X66742447Y-14980499D01*
X66706914Y-15029406D01*
X66636002Y-15127008D01*
X66553788Y-15288362D01*
X66497828Y-15460593D01*
X66469500Y-15639450D01*
X58581800Y-15639450D01*
X58581800Y-14722374D01*
X58581800Y-14722373D01*
X58554507Y-14620513D01*
X58554507Y-14620512D01*
X58554507Y-14620511D01*
X58501783Y-14529191D01*
X58501781Y-14529189D01*
X58501780Y-14529187D01*
X57072043Y-13099450D01*
X66469500Y-13099450D01*
X66469500Y-13280549D01*
X66497828Y-13459406D01*
X66549162Y-13617400D01*
X66553789Y-13631639D01*
X66636004Y-13792994D01*
X66742447Y-13939501D01*
X66870499Y-14067553D01*
X67017006Y-14173996D01*
X67178361Y-14256211D01*
X67350591Y-14312171D01*
X67422136Y-14323502D01*
X67529451Y-14340500D01*
X67529454Y-14340500D01*
X67710549Y-14340500D01*
X67799977Y-14326335D01*
X67889409Y-14312171D01*
X68061639Y-14256211D01*
X68222994Y-14173996D01*
X68369501Y-14067553D01*
X68497553Y-13939501D01*
X68603996Y-13792994D01*
X68686211Y-13631639D01*
X68742171Y-13459409D01*
X68770500Y-13280546D01*
X68770500Y-13099454D01*
X68770500Y-13099450D01*
X68749918Y-12969502D01*
X68742171Y-12920591D01*
X68686211Y-12748361D01*
X68603996Y-12587006D01*
X68497553Y-12440499D01*
X68369501Y-12312447D01*
X68222994Y-12206004D01*
X68222993Y-12206003D01*
X68222991Y-12206002D01*
X68061637Y-12123788D01*
X67889406Y-12067828D01*
X67710549Y-12039500D01*
X67710546Y-12039500D01*
X67529454Y-12039500D01*
X67529451Y-12039500D01*
X67350593Y-12067828D01*
X67178362Y-12123788D01*
X67017008Y-12206002D01*
X66943752Y-12259225D01*
X66870499Y-12312447D01*
X66742447Y-12440499D01*
X66730686Y-12456687D01*
X66636002Y-12587008D01*
X66553788Y-12748362D01*
X66497828Y-12920593D01*
X66469500Y-13099450D01*
X57072043Y-13099450D01*
X54532043Y-10559450D01*
X66469500Y-10559450D01*
X66469500Y-10740549D01*
X66497828Y-10919406D01*
X66553788Y-11091637D01*
X66631133Y-11243436D01*
X66636004Y-11252994D01*
X66742447Y-11399501D01*
X66870499Y-11527553D01*
X67017006Y-11633996D01*
X67178361Y-11716211D01*
X67350591Y-11772171D01*
X67422136Y-11783502D01*
X67529451Y-11800500D01*
X67529454Y-11800500D01*
X67710549Y-11800500D01*
X67799977Y-11786335D01*
X67889409Y-11772171D01*
X68061639Y-11716211D01*
X68222994Y-11633996D01*
X68369501Y-11527553D01*
X68497553Y-11399501D01*
X68546673Y-11331893D01*
X91099500Y-11331893D01*
X91099500Y-12668106D01*
X91110123Y-12756565D01*
X91165637Y-12897339D01*
X91165638Y-12897341D01*
X91165639Y-12897342D01*
X91257078Y-13017922D01*
X91377658Y-13109361D01*
X91377659Y-13109361D01*
X91377660Y-13109362D01*
X91391615Y-13114865D01*
X91518436Y-13164877D01*
X91606898Y-13175500D01*
X91606900Y-13175500D01*
X92393100Y-13175500D01*
X92393102Y-13175500D01*
X92481564Y-13164877D01*
X92622342Y-13109361D01*
X92742922Y-13017922D01*
X92834361Y-12897342D01*
X92889877Y-12756564D01*
X92900500Y-12668102D01*
X92900500Y-11636306D01*
X93099500Y-11636306D01*
X93099500Y-11636309D01*
X93099500Y-12363691D01*
X93130098Y-12517519D01*
X93134106Y-12537665D01*
X93134106Y-12537667D01*
X93201985Y-12701544D01*
X93201985Y-12701545D01*
X93294162Y-12839496D01*
X93300536Y-12849035D01*
X93425965Y-12974464D01*
X93573453Y-13073013D01*
X93737334Y-13140894D01*
X93911309Y-13175500D01*
X93911310Y-13175500D01*
X94088690Y-13175500D01*
X94088691Y-13175500D01*
X94262666Y-13140894D01*
X94426547Y-13073013D01*
X94574035Y-12974464D01*
X94699464Y-12849035D01*
X94798013Y-12701547D01*
X94865894Y-12537666D01*
X94900500Y-12363691D01*
X94900500Y-11636309D01*
X94865894Y-11462334D01*
X94799704Y-11302535D01*
X94798014Y-11298455D01*
X94798014Y-11298454D01*
X94699464Y-11150965D01*
X94574034Y-11025535D01*
X94426544Y-10926985D01*
X94262666Y-10859106D01*
X94088693Y-10824500D01*
X94088691Y-10824500D01*
X93911309Y-10824500D01*
X93911306Y-10824500D01*
X93737334Y-10859106D01*
X93737332Y-10859106D01*
X93573455Y-10926985D01*
X93573454Y-10926985D01*
X93425965Y-11025535D01*
X93300535Y-11150965D01*
X93201985Y-11298454D01*
X93201985Y-11298455D01*
X93134106Y-11462332D01*
X93134106Y-11462334D01*
X93099500Y-11636306D01*
X92900500Y-11636306D01*
X92900500Y-11331898D01*
X92889877Y-11243436D01*
X92859806Y-11167181D01*
X92834362Y-11102660D01*
X92834361Y-11102659D01*
X92834361Y-11102658D01*
X92742922Y-10982078D01*
X92622342Y-10890639D01*
X92622341Y-10890638D01*
X92622339Y-10890637D01*
X92481565Y-10835123D01*
X92393106Y-10824500D01*
X92393102Y-10824500D01*
X91606898Y-10824500D01*
X91606893Y-10824500D01*
X91518434Y-10835123D01*
X91377660Y-10890637D01*
X91377656Y-10890640D01*
X91257081Y-10982075D01*
X91257075Y-10982081D01*
X91165640Y-11102656D01*
X91165637Y-11102660D01*
X91110123Y-11243434D01*
X91099500Y-11331893D01*
X68546673Y-11331893D01*
X68603996Y-11252994D01*
X68686211Y-11091639D01*
X68742171Y-10919409D01*
X68758440Y-10816692D01*
X68770500Y-10740549D01*
X68770500Y-10559450D01*
X68742171Y-10380593D01*
X68742171Y-10380591D01*
X68686211Y-10208361D01*
X68603996Y-10047006D01*
X68497553Y-9900499D01*
X68369501Y-9772447D01*
X68222994Y-9666004D01*
X68222993Y-9666003D01*
X68222991Y-9666002D01*
X68061637Y-9583788D01*
X67889406Y-9527828D01*
X67710549Y-9499500D01*
X67710546Y-9499500D01*
X67529454Y-9499500D01*
X67529451Y-9499500D01*
X67350593Y-9527828D01*
X67178362Y-9583788D01*
X67017008Y-9666002D01*
X66943752Y-9719225D01*
X66870499Y-9772447D01*
X66742447Y-9900499D01*
X66689225Y-9973752D01*
X66636002Y-10047008D01*
X66553788Y-10208362D01*
X66497828Y-10380593D01*
X66469500Y-10559450D01*
X54532043Y-10559450D01*
X53353754Y-9381161D01*
X53325977Y-9326644D01*
X53335548Y-9266212D01*
X53378813Y-9222947D01*
X53383751Y-9220601D01*
X53402765Y-9212206D01*
X53482206Y-9132765D01*
X53527585Y-9029991D01*
X53530500Y-9004865D01*
X53530499Y-8019450D01*
X66469500Y-8019450D01*
X66469500Y-8200549D01*
X66497828Y-8379406D01*
X66497829Y-8379409D01*
X66553789Y-8551639D01*
X66636004Y-8712994D01*
X66742447Y-8859501D01*
X66870499Y-8987553D01*
X67017006Y-9093996D01*
X67178361Y-9176211D01*
X67350591Y-9232171D01*
X67422136Y-9243502D01*
X67529451Y-9260500D01*
X67529454Y-9260500D01*
X67710549Y-9260500D01*
X67799977Y-9246335D01*
X67889409Y-9232171D01*
X68061639Y-9176211D01*
X68222994Y-9093996D01*
X68369501Y-8987553D01*
X68497553Y-8859501D01*
X68603996Y-8712994D01*
X68686211Y-8551639D01*
X68742171Y-8379409D01*
X68766065Y-8228549D01*
X68770500Y-8200549D01*
X68770500Y-8019450D01*
X68742171Y-7840593D01*
X68742171Y-7840591D01*
X68686211Y-7668361D01*
X68603996Y-7507006D01*
X68497553Y-7360499D01*
X68369501Y-7232447D01*
X68222994Y-7126004D01*
X68222993Y-7126003D01*
X68222991Y-7126002D01*
X68061637Y-7043788D01*
X67889406Y-6987828D01*
X67710549Y-6959500D01*
X67710546Y-6959500D01*
X67529454Y-6959500D01*
X67529451Y-6959500D01*
X67350593Y-6987828D01*
X67178362Y-7043788D01*
X67017008Y-7126002D01*
X66943752Y-7179225D01*
X66870499Y-7232447D01*
X66742447Y-7360499D01*
X66724655Y-7384988D01*
X66636002Y-7507008D01*
X66553788Y-7668362D01*
X66497828Y-7840593D01*
X66469500Y-8019450D01*
X53530499Y-8019450D01*
X53530499Y-7215136D01*
X53527585Y-7190009D01*
X53482206Y-7087235D01*
X53402765Y-7007794D01*
X53299991Y-6962415D01*
X53299990Y-6962414D01*
X53299988Y-6962414D01*
X53274868Y-6959500D01*
X51485139Y-6959500D01*
X51485136Y-6959501D01*
X51460009Y-6962414D01*
X51357235Y-7007794D01*
X51277794Y-7087235D01*
X51232414Y-7190011D01*
X51229500Y-7215130D01*
X51229500Y-9004860D01*
X51229501Y-9004863D01*
X51232414Y-9029990D01*
X51257756Y-9087385D01*
X51277794Y-9132765D01*
X51357235Y-9212206D01*
X51460009Y-9257585D01*
X51485135Y-9260500D01*
X51889084Y-9260499D01*
X51947275Y-9279406D01*
X51983239Y-9328906D01*
X51984711Y-9333875D01*
X52006793Y-9416287D01*
X52006794Y-9416288D01*
X52016288Y-9432733D01*
X52029007Y-9492582D01*
X52004120Y-9548477D01*
X51961145Y-9576385D01*
X51938368Y-9583786D01*
X51938364Y-9583788D01*
X51938361Y-9583789D01*
X51879282Y-9613891D01*
X51777008Y-9666002D01*
X51703752Y-9719225D01*
X51630499Y-9772447D01*
X51502447Y-9900499D01*
X51449225Y-9973752D01*
X51396002Y-10047008D01*
X51313785Y-10208369D01*
X51299952Y-10250943D01*
X51263988Y-10300442D01*
X51213917Y-10319016D01*
X46742502Y-10686961D01*
X46682957Y-10672889D01*
X46655131Y-10647623D01*
X46632546Y-10617454D01*
X46600219Y-10593254D01*
X46517329Y-10531202D01*
X46382488Y-10480910D01*
X46382483Y-10480909D01*
X46382481Y-10480908D01*
X46382477Y-10480908D01*
X46351249Y-10477550D01*
X46322873Y-10474500D01*
X46322870Y-10474500D01*
X45677133Y-10474500D01*
X45677129Y-10474500D01*
X45677128Y-10474501D01*
X45669949Y-10475272D01*
X45617519Y-10480908D01*
X45617514Y-10480909D01*
X45482669Y-10531203D01*
X45477252Y-10534161D01*
X45417117Y-10545451D01*
X45361831Y-10519238D01*
X45344075Y-10496768D01*
X45325321Y-10464286D01*
X45325320Y-10464284D01*
X45213516Y-10352480D01*
X45076584Y-10273423D01*
X44923857Y-10232500D01*
X44765743Y-10232500D01*
X44613016Y-10273423D01*
X44476084Y-10352480D01*
X44364280Y-10464284D01*
X44285223Y-10601216D01*
X44244300Y-10753944D01*
X44244300Y-10826099D01*
X44225393Y-10884290D01*
X44215304Y-10896103D01*
X42654716Y-12456691D01*
X42601993Y-12548011D01*
X42601992Y-12548011D01*
X42601993Y-12548012D01*
X42574700Y-12649873D01*
X42574700Y-26728399D01*
X42555793Y-26786590D01*
X42545704Y-26798403D01*
X39542560Y-29801546D01*
X39488043Y-29829323D01*
X39427611Y-29819752D01*
X39384346Y-29776487D01*
X39374775Y-29747029D01*
X39372171Y-29730593D01*
X39372171Y-29730591D01*
X39316211Y-29558361D01*
X39233996Y-29397006D01*
X39127553Y-29250499D01*
X38999501Y-29122447D01*
X38852994Y-29016004D01*
X38852993Y-29016003D01*
X38852991Y-29016002D01*
X38691637Y-28933788D01*
X38519406Y-28877828D01*
X38340549Y-28849500D01*
X38340546Y-28849500D01*
X38159454Y-28849500D01*
X38159451Y-28849500D01*
X37980593Y-28877828D01*
X37808362Y-28933788D01*
X37647008Y-29016002D01*
X37573752Y-29069225D01*
X37500499Y-29122447D01*
X37372447Y-29250499D01*
X37319225Y-29323752D01*
X37266002Y-29397008D01*
X37257610Y-29413480D01*
X37214345Y-29456745D01*
X37153913Y-29466316D01*
X37099396Y-29438538D01*
X37071619Y-29384022D01*
X37070400Y-29368535D01*
X37070400Y-28091464D01*
X37089307Y-28033273D01*
X37138807Y-27997309D01*
X37199993Y-27997309D01*
X37249493Y-28033273D01*
X37257610Y-28046521D01*
X37265998Y-28062984D01*
X37266001Y-28062990D01*
X37266002Y-28062991D01*
X37266004Y-28062994D01*
X37372447Y-28209501D01*
X37500499Y-28337553D01*
X37647006Y-28443996D01*
X37808361Y-28526211D01*
X37980591Y-28582171D01*
X38052136Y-28593502D01*
X38159451Y-28610500D01*
X38159454Y-28610500D01*
X38340549Y-28610500D01*
X38429977Y-28596335D01*
X38519409Y-28582171D01*
X38691639Y-28526211D01*
X38852994Y-28443996D01*
X38999501Y-28337553D01*
X39127553Y-28209501D01*
X39233996Y-28062994D01*
X39316211Y-27901639D01*
X39372171Y-27729409D01*
X39400500Y-27550546D01*
X39400500Y-27369454D01*
X39400500Y-27369450D01*
X39372171Y-27190593D01*
X39372171Y-27190591D01*
X39316211Y-27018361D01*
X39233996Y-26857006D01*
X39127553Y-26710499D01*
X38999501Y-26582447D01*
X38852994Y-26476004D01*
X38852993Y-26476003D01*
X38852991Y-26476002D01*
X38691637Y-26393788D01*
X38519406Y-26337828D01*
X38340549Y-26309500D01*
X38340546Y-26309500D01*
X38159454Y-26309500D01*
X38159451Y-26309500D01*
X37980593Y-26337828D01*
X37808362Y-26393788D01*
X37647008Y-26476002D01*
X37623625Y-26492991D01*
X37500499Y-26582447D01*
X37372447Y-26710499D01*
X37359442Y-26728399D01*
X37266002Y-26857008D01*
X37257610Y-26873480D01*
X37214345Y-26916745D01*
X37153913Y-26926316D01*
X37099396Y-26898538D01*
X37071619Y-26844022D01*
X37070400Y-26828535D01*
X37070400Y-25551464D01*
X37089307Y-25493273D01*
X37138807Y-25457309D01*
X37199993Y-25457309D01*
X37249493Y-25493273D01*
X37257610Y-25506521D01*
X37265998Y-25522984D01*
X37266001Y-25522990D01*
X37266002Y-25522991D01*
X37266004Y-25522994D01*
X37372447Y-25669501D01*
X37500499Y-25797553D01*
X37647006Y-25903996D01*
X37808361Y-25986211D01*
X37980591Y-26042171D01*
X38052136Y-26053502D01*
X38159451Y-26070500D01*
X38159454Y-26070500D01*
X38340549Y-26070500D01*
X38429977Y-26056335D01*
X38519409Y-26042171D01*
X38691639Y-25986211D01*
X38852994Y-25903996D01*
X38999501Y-25797553D01*
X39127553Y-25669501D01*
X39233996Y-25522994D01*
X39316211Y-25361639D01*
X39372171Y-25189409D01*
X39400500Y-25010546D01*
X39400500Y-24829454D01*
X39400500Y-24829450D01*
X39372171Y-24650593D01*
X39372171Y-24650591D01*
X39316211Y-24478361D01*
X39233996Y-24317006D01*
X39127553Y-24170499D01*
X38999501Y-24042447D01*
X38852994Y-23936004D01*
X38852993Y-23936003D01*
X38852991Y-23936002D01*
X38691637Y-23853788D01*
X38519406Y-23797828D01*
X38340549Y-23769500D01*
X38340546Y-23769500D01*
X38159454Y-23769500D01*
X38159451Y-23769500D01*
X37980593Y-23797828D01*
X37808362Y-23853788D01*
X37647008Y-23936002D01*
X37573752Y-23989225D01*
X37500499Y-24042447D01*
X37372447Y-24170499D01*
X37319225Y-24243752D01*
X37266002Y-24317008D01*
X37257610Y-24333480D01*
X37214345Y-24376745D01*
X37153913Y-24386316D01*
X37099396Y-24358538D01*
X37071619Y-24304022D01*
X37070400Y-24288535D01*
X37070400Y-23011464D01*
X37089307Y-22953273D01*
X37138807Y-22917309D01*
X37199993Y-22917309D01*
X37249493Y-22953273D01*
X37257610Y-22966521D01*
X37265998Y-22982984D01*
X37266001Y-22982990D01*
X37266002Y-22982991D01*
X37266004Y-22982994D01*
X37372447Y-23129501D01*
X37500499Y-23257553D01*
X37647006Y-23363996D01*
X37808361Y-23446211D01*
X37980591Y-23502171D01*
X38052136Y-23513502D01*
X38159451Y-23530500D01*
X38159454Y-23530500D01*
X38340549Y-23530500D01*
X38429977Y-23516335D01*
X38519409Y-23502171D01*
X38691639Y-23446211D01*
X38852994Y-23363996D01*
X38999501Y-23257553D01*
X39127553Y-23129501D01*
X39233996Y-22982994D01*
X39316211Y-22821639D01*
X39372171Y-22649409D01*
X39400500Y-22470546D01*
X39400500Y-22289454D01*
X39400500Y-22289450D01*
X39372171Y-22110593D01*
X39372171Y-22110591D01*
X39316211Y-21938361D01*
X39233996Y-21777006D01*
X39127553Y-21630499D01*
X38999501Y-21502447D01*
X38852994Y-21396004D01*
X38852993Y-21396003D01*
X38852991Y-21396002D01*
X38691637Y-21313788D01*
X38519406Y-21257828D01*
X38340549Y-21229500D01*
X38340546Y-21229500D01*
X38159454Y-21229500D01*
X38159451Y-21229500D01*
X37980593Y-21257828D01*
X37808362Y-21313788D01*
X37647008Y-21396002D01*
X37623625Y-21412991D01*
X37500499Y-21502447D01*
X37372447Y-21630499D01*
X37330997Y-21687550D01*
X37266002Y-21777008D01*
X37257610Y-21793480D01*
X37214345Y-21836745D01*
X37153913Y-21846316D01*
X37099396Y-21818538D01*
X37071619Y-21764022D01*
X37070400Y-21748535D01*
X37070400Y-20471464D01*
X37089307Y-20413273D01*
X37138807Y-20377309D01*
X37199993Y-20377309D01*
X37249493Y-20413273D01*
X37257610Y-20426521D01*
X37265998Y-20442984D01*
X37266001Y-20442990D01*
X37266002Y-20442991D01*
X37266004Y-20442994D01*
X37372447Y-20589501D01*
X37500499Y-20717553D01*
X37647006Y-20823996D01*
X37808361Y-20906211D01*
X37980591Y-20962171D01*
X38052136Y-20973502D01*
X38159451Y-20990500D01*
X38159454Y-20990500D01*
X38340549Y-20990500D01*
X38429977Y-20976335D01*
X38519409Y-20962171D01*
X38691639Y-20906211D01*
X38852994Y-20823996D01*
X38999501Y-20717553D01*
X39127553Y-20589501D01*
X39233996Y-20442994D01*
X39316211Y-20281639D01*
X39372171Y-20109409D01*
X39400500Y-19930546D01*
X39400500Y-19749454D01*
X39400500Y-19749450D01*
X39372171Y-19570593D01*
X39372171Y-19570591D01*
X39316211Y-19398361D01*
X39233996Y-19237006D01*
X39127553Y-19090499D01*
X38999501Y-18962447D01*
X38852994Y-18856004D01*
X38852993Y-18856003D01*
X38852991Y-18856002D01*
X38691637Y-18773788D01*
X38519406Y-18717828D01*
X38340549Y-18689500D01*
X38340546Y-18689500D01*
X38159454Y-18689500D01*
X38159451Y-18689500D01*
X37980593Y-18717828D01*
X37808362Y-18773788D01*
X37647008Y-18856002D01*
X37623625Y-18872991D01*
X37500499Y-18962447D01*
X37372447Y-19090499D01*
X37330997Y-19147550D01*
X37266002Y-19237008D01*
X37257610Y-19253480D01*
X37214345Y-19296745D01*
X37153913Y-19306316D01*
X37099396Y-19278538D01*
X37071619Y-19224022D01*
X37070400Y-19208535D01*
X37070400Y-17931464D01*
X37089307Y-17873273D01*
X37138807Y-17837309D01*
X37199993Y-17837309D01*
X37249493Y-17873273D01*
X37257610Y-17886521D01*
X37265998Y-17902984D01*
X37266001Y-17902990D01*
X37266002Y-17902991D01*
X37266004Y-17902994D01*
X37372447Y-18049501D01*
X37500499Y-18177553D01*
X37647006Y-18283996D01*
X37808361Y-18366211D01*
X37980591Y-18422171D01*
X38052136Y-18433502D01*
X38159451Y-18450500D01*
X38159454Y-18450500D01*
X38340549Y-18450500D01*
X38429977Y-18436335D01*
X38519409Y-18422171D01*
X38691639Y-18366211D01*
X38852994Y-18283996D01*
X38999501Y-18177553D01*
X39127553Y-18049501D01*
X39233996Y-17902994D01*
X39316211Y-17741639D01*
X39372171Y-17569409D01*
X39400500Y-17390546D01*
X39400500Y-17209454D01*
X39400500Y-17209450D01*
X39379108Y-17074390D01*
X39372171Y-17030591D01*
X39316211Y-16858361D01*
X39233996Y-16697006D01*
X39127553Y-16550499D01*
X38999501Y-16422447D01*
X38937729Y-16377567D01*
X38901767Y-16328070D01*
X38901767Y-16266885D01*
X38925916Y-16227475D01*
X41803480Y-13349913D01*
X41819477Y-13322206D01*
X41856205Y-13258592D01*
X41856205Y-13258590D01*
X41856207Y-13258588D01*
X41883500Y-13156727D01*
X41883500Y-13051273D01*
X41883500Y-8395666D01*
X41902407Y-8337475D01*
X41923171Y-8316413D01*
X41926701Y-8313769D01*
X42040546Y-8228546D01*
X42126796Y-8113331D01*
X42177091Y-7978483D01*
X42183500Y-7918873D01*
X42183499Y-7273128D01*
X42177091Y-7213517D01*
X42144450Y-7126002D01*
X42126797Y-7078670D01*
X42040549Y-6963458D01*
X42040548Y-6963457D01*
X42040546Y-6963454D01*
X42039157Y-6962414D01*
X41925329Y-6877202D01*
X41790488Y-6826910D01*
X41790483Y-6826909D01*
X41790481Y-6826908D01*
X41790477Y-6826908D01*
X41759249Y-6823550D01*
X41730873Y-6820500D01*
X41730870Y-6820500D01*
X41235133Y-6820500D01*
X41235129Y-6820500D01*
X41235128Y-6820501D01*
X41227949Y-6821272D01*
X41175519Y-6826908D01*
X41175514Y-6826909D01*
X41040670Y-6877202D01*
X40925458Y-6963450D01*
X40925450Y-6963458D01*
X40839202Y-7078670D01*
X40788910Y-7213511D01*
X40788908Y-7213522D01*
X40782500Y-7273129D01*
X40782500Y-7918866D01*
X40782501Y-7918870D01*
X40788908Y-7978480D01*
X40788909Y-7978485D01*
X40839202Y-8113329D01*
X40904493Y-8200546D01*
X40925454Y-8228546D01*
X40925457Y-8228548D01*
X40925458Y-8228549D01*
X41042829Y-8316413D01*
X41078082Y-8366421D01*
X41082500Y-8395666D01*
X41082500Y-12897098D01*
X41063593Y-12955289D01*
X41053504Y-12967102D01*
X39525116Y-14495489D01*
X39470599Y-14523266D01*
X39410167Y-14513695D01*
X39366902Y-14470430D01*
X39360957Y-14456077D01*
X39316235Y-14318436D01*
X39316211Y-14318361D01*
X39233996Y-14157006D01*
X39127553Y-14010499D01*
X38999501Y-13882447D01*
X38852994Y-13776004D01*
X38852993Y-13776003D01*
X38852991Y-13776002D01*
X38691637Y-13693788D01*
X38519406Y-13637828D01*
X38340549Y-13609500D01*
X38340546Y-13609500D01*
X38159454Y-13609500D01*
X38159451Y-13609500D01*
X37980593Y-13637828D01*
X37808362Y-13693788D01*
X37647008Y-13776002D01*
X37623625Y-13792991D01*
X37500499Y-13882447D01*
X37372447Y-14010499D01*
X37330997Y-14067550D01*
X37266002Y-14157008D01*
X37183788Y-14318362D01*
X37127828Y-14490593D01*
X37099500Y-14669450D01*
X37099500Y-14850549D01*
X37127828Y-15029406D01*
X37183788Y-15201637D01*
X37225285Y-15283080D01*
X37266004Y-15362994D01*
X37372447Y-15509501D01*
X37500499Y-15637553D01*
X37500502Y-15637555D01*
X37572229Y-15689668D01*
X37608193Y-15739168D01*
X37608192Y-15800353D01*
X37584042Y-15839764D01*
X36349417Y-17074390D01*
X36349416Y-17074391D01*
X36296693Y-17165711D01*
X36296692Y-17165711D01*
X36296693Y-17165712D01*
X36296693Y-17165713D01*
X36269400Y-17267573D01*
X36269400Y-37555273D01*
X36269400Y-37660727D01*
X36289324Y-37735087D01*
X36296694Y-37762592D01*
X36349416Y-37853908D01*
X36349418Y-37853910D01*
X36349420Y-37853913D01*
X36995008Y-38499500D01*
X37579236Y-39083728D01*
X37607013Y-39138245D01*
X37597442Y-39198677D01*
X37567424Y-39233822D01*
X37500499Y-39282447D01*
X37372447Y-39410499D01*
X37319225Y-39483752D01*
X37266002Y-39557008D01*
X37183788Y-39718362D01*
X37127828Y-39890593D01*
X37099500Y-40069450D01*
X37099500Y-40250549D01*
X37127828Y-40429406D01*
X37183788Y-40601637D01*
X37201866Y-40637118D01*
X37266004Y-40762994D01*
X37372447Y-40909501D01*
X37500499Y-41037553D01*
X37647006Y-41143996D01*
X37808361Y-41226211D01*
X37980591Y-41282171D01*
X38052136Y-41293502D01*
X38159451Y-41310500D01*
X38159454Y-41310500D01*
X38340549Y-41310500D01*
X38429977Y-41296335D01*
X38519409Y-41282171D01*
X38691639Y-41226211D01*
X38852994Y-41143996D01*
X38999501Y-41037553D01*
X39127553Y-40909501D01*
X39233996Y-40762994D01*
X39316211Y-40601639D01*
X39372171Y-40429409D01*
X39400500Y-40250546D01*
X39400500Y-40069454D01*
X39400500Y-40069450D01*
X39372171Y-39890593D01*
X39372171Y-39890591D01*
X39316211Y-39718361D01*
X39233996Y-39557006D01*
X39160603Y-39455989D01*
X39141697Y-39397800D01*
X39160604Y-39339609D01*
X39210104Y-39303645D01*
X39240697Y-39298800D01*
X43839699Y-39298800D01*
X43897890Y-39317707D01*
X43909703Y-39327796D01*
X44902387Y-40320480D01*
X44902389Y-40320481D01*
X44902390Y-40320482D01*
X44902391Y-40320483D01*
X44993708Y-40373205D01*
X44993709Y-40373205D01*
X44993712Y-40373207D01*
X45026123Y-40381891D01*
X45077438Y-40415215D01*
X45099365Y-40472336D01*
X45099501Y-40477518D01*
X45099501Y-40894863D01*
X45102414Y-40919990D01*
X45114459Y-40947269D01*
X45147794Y-41022765D01*
X45227235Y-41102206D01*
X45330009Y-41147585D01*
X45355135Y-41150500D01*
X47144864Y-41150499D01*
X47169991Y-41147585D01*
X47272765Y-41102206D01*
X47352206Y-41022765D01*
X47397585Y-40919991D01*
X47400500Y-40894865D01*
X47400499Y-39105136D01*
X47397585Y-39080009D01*
X47352206Y-38977235D01*
X47272765Y-38897794D01*
X47169991Y-38852415D01*
X47169990Y-38852414D01*
X47169988Y-38852414D01*
X47144868Y-38849500D01*
X45355139Y-38849500D01*
X45355136Y-38849501D01*
X45330009Y-38852414D01*
X45227235Y-38897794D01*
X45147794Y-38977235D01*
X45102414Y-39080011D01*
X45099500Y-39105130D01*
X45099500Y-39145799D01*
X45080593Y-39203990D01*
X45031093Y-39239954D01*
X44969907Y-39239954D01*
X44930496Y-39215803D01*
X44612487Y-38897794D01*
X44292513Y-38577820D01*
X44292510Y-38577818D01*
X44292509Y-38577817D01*
X44292508Y-38577816D01*
X44201191Y-38525094D01*
X44201193Y-38525094D01*
X44161670Y-38514504D01*
X44099327Y-38497800D01*
X44099325Y-38497800D01*
X39228636Y-38497800D01*
X39170445Y-38478893D01*
X39134481Y-38429393D01*
X39134481Y-38368207D01*
X39148540Y-38340614D01*
X39233996Y-38222994D01*
X39316211Y-38061639D01*
X39372171Y-37889409D01*
X39392257Y-37762592D01*
X39400500Y-37710549D01*
X39400500Y-37529450D01*
X39372171Y-37350593D01*
X39372171Y-37350591D01*
X39316211Y-37178361D01*
X39233996Y-37017006D01*
X39127553Y-36870499D01*
X38999501Y-36742447D01*
X38852994Y-36636004D01*
X38852993Y-36636003D01*
X38852991Y-36636002D01*
X38691637Y-36553788D01*
X38519406Y-36497828D01*
X38340549Y-36469500D01*
X38340546Y-36469500D01*
X38159454Y-36469500D01*
X38159451Y-36469500D01*
X37980593Y-36497828D01*
X37822147Y-36549309D01*
X37760962Y-36549308D01*
X37721551Y-36525158D01*
X37478596Y-36282203D01*
X37450819Y-36227686D01*
X37449600Y-36212199D01*
X37449600Y-36114870D01*
X37468507Y-36056679D01*
X37518007Y-36020715D01*
X37579193Y-36020715D01*
X37606787Y-36034775D01*
X37647006Y-36063996D01*
X37808361Y-36146211D01*
X37980591Y-36202171D01*
X38043906Y-36212199D01*
X38159451Y-36230500D01*
X38159454Y-36230500D01*
X38340549Y-36230500D01*
X38456094Y-36212199D01*
X38519409Y-36202171D01*
X38691639Y-36146211D01*
X38852994Y-36063996D01*
X38999501Y-35957553D01*
X39127553Y-35829501D01*
X39233996Y-35682994D01*
X39296892Y-35559553D01*
X39340156Y-35516290D01*
X39385101Y-35505500D01*
X48556016Y-35505500D01*
X48556018Y-35505500D01*
X48664237Y-35476503D01*
X48664239Y-35476501D01*
X48664241Y-35476501D01*
X48693064Y-35459859D01*
X48761263Y-35420485D01*
X48840485Y-35341263D01*
X48896503Y-35244237D01*
X48925500Y-35136018D01*
X48925500Y-25799450D01*
X51229500Y-25799450D01*
X51229500Y-25980549D01*
X51257828Y-26159406D01*
X51306595Y-26309500D01*
X51313789Y-26331639D01*
X51396004Y-26492994D01*
X51502447Y-26639501D01*
X51630499Y-26767553D01*
X51777006Y-26873996D01*
X51938361Y-26956211D01*
X52110591Y-27012171D01*
X52182136Y-27023502D01*
X52289451Y-27040500D01*
X52289454Y-27040500D01*
X52470549Y-27040500D01*
X52559977Y-27026335D01*
X52649409Y-27012171D01*
X52821639Y-26956211D01*
X52982994Y-26873996D01*
X53129501Y-26767553D01*
X53257553Y-26639501D01*
X53363996Y-26492994D01*
X53446211Y-26331639D01*
X53502171Y-26159409D01*
X53522415Y-26031596D01*
X53530500Y-25980549D01*
X53530500Y-25799450D01*
X53509918Y-25669502D01*
X53502171Y-25620591D01*
X53446211Y-25448361D01*
X53363996Y-25287006D01*
X53257553Y-25140499D01*
X53129501Y-25012447D01*
X52982994Y-24906004D01*
X52982993Y-24906003D01*
X52982991Y-24906002D01*
X52821637Y-24823788D01*
X52649406Y-24767828D01*
X52470549Y-24739500D01*
X52470546Y-24739500D01*
X52289454Y-24739500D01*
X52289451Y-24739500D01*
X52110593Y-24767828D01*
X51938362Y-24823788D01*
X51777008Y-24906002D01*
X51703752Y-24959225D01*
X51630499Y-25012447D01*
X51502447Y-25140499D01*
X51466914Y-25189406D01*
X51396002Y-25287008D01*
X51313788Y-25448362D01*
X51257828Y-25620593D01*
X51229500Y-25799450D01*
X48925500Y-25799450D01*
X48925500Y-20719450D01*
X51229500Y-20719450D01*
X51229500Y-20900549D01*
X51257828Y-21079406D01*
X51306595Y-21229500D01*
X51313789Y-21251639D01*
X51396004Y-21412994D01*
X51502447Y-21559501D01*
X51630499Y-21687553D01*
X51777006Y-21793996D01*
X51938361Y-21876211D01*
X52110591Y-21932171D01*
X52182136Y-21943502D01*
X52289451Y-21960500D01*
X52289454Y-21960500D01*
X52470549Y-21960500D01*
X52559977Y-21946335D01*
X52649409Y-21932171D01*
X52821639Y-21876211D01*
X52982994Y-21793996D01*
X53129501Y-21687553D01*
X53257553Y-21559501D01*
X53363996Y-21412994D01*
X53446211Y-21251639D01*
X53502171Y-21079409D01*
X53530500Y-20900546D01*
X53530500Y-20719454D01*
X53530500Y-20719450D01*
X53509918Y-20589502D01*
X53502171Y-20540591D01*
X53446211Y-20368361D01*
X53363996Y-20207006D01*
X53257553Y-20060499D01*
X53129501Y-19932447D01*
X52982994Y-19826004D01*
X52982993Y-19826003D01*
X52982991Y-19826002D01*
X52821637Y-19743788D01*
X52649406Y-19687828D01*
X52470549Y-19659500D01*
X52470546Y-19659500D01*
X52289454Y-19659500D01*
X52289451Y-19659500D01*
X52110593Y-19687828D01*
X51938362Y-19743788D01*
X51777008Y-19826002D01*
X51703752Y-19879225D01*
X51630499Y-19932447D01*
X51502447Y-20060499D01*
X51466914Y-20109406D01*
X51396002Y-20207008D01*
X51313788Y-20368362D01*
X51257828Y-20540593D01*
X51229500Y-20719450D01*
X48925500Y-20719450D01*
X48925500Y-18179450D01*
X51229500Y-18179450D01*
X51229500Y-18360549D01*
X51257828Y-18539406D01*
X51306595Y-18689500D01*
X51313789Y-18711639D01*
X51396004Y-18872994D01*
X51502447Y-19019501D01*
X51630499Y-19147553D01*
X51777006Y-19253996D01*
X51938361Y-19336211D01*
X52110591Y-19392171D01*
X52182136Y-19403502D01*
X52289451Y-19420500D01*
X52289454Y-19420500D01*
X52470549Y-19420500D01*
X52559977Y-19406335D01*
X52649409Y-19392171D01*
X52821639Y-19336211D01*
X52982994Y-19253996D01*
X53129501Y-19147553D01*
X53257553Y-19019501D01*
X53363996Y-18872994D01*
X53446211Y-18711639D01*
X53502171Y-18539409D01*
X53530500Y-18360546D01*
X53530500Y-18179454D01*
X53530500Y-18179450D01*
X53509918Y-18049502D01*
X53502171Y-18000591D01*
X53446211Y-17828361D01*
X53363996Y-17667006D01*
X53257553Y-17520499D01*
X53129501Y-17392447D01*
X52982994Y-17286004D01*
X52982993Y-17286003D01*
X52982991Y-17286002D01*
X52821637Y-17203788D01*
X52649406Y-17147828D01*
X52470549Y-17119500D01*
X52470546Y-17119500D01*
X52289454Y-17119500D01*
X52289451Y-17119500D01*
X52110593Y-17147828D01*
X51938362Y-17203788D01*
X51777008Y-17286002D01*
X51703752Y-17339225D01*
X51630499Y-17392447D01*
X51502447Y-17520499D01*
X51466914Y-17569406D01*
X51396002Y-17667008D01*
X51313788Y-17828362D01*
X51257828Y-18000593D01*
X51229500Y-18179450D01*
X48925500Y-18179450D01*
X48925500Y-15639450D01*
X51229500Y-15639450D01*
X51229500Y-15820549D01*
X51257828Y-15999406D01*
X51313788Y-16171637D01*
X51362319Y-16266885D01*
X51396004Y-16332994D01*
X51502447Y-16479501D01*
X51630499Y-16607553D01*
X51777006Y-16713996D01*
X51938361Y-16796211D01*
X52110591Y-16852171D01*
X52182136Y-16863502D01*
X52289451Y-16880500D01*
X52289454Y-16880500D01*
X52470549Y-16880500D01*
X52559977Y-16866335D01*
X52649409Y-16852171D01*
X52821639Y-16796211D01*
X52982994Y-16713996D01*
X53129501Y-16607553D01*
X53257553Y-16479501D01*
X53363996Y-16332994D01*
X53446211Y-16171639D01*
X53502171Y-15999409D01*
X53526998Y-15842657D01*
X53530500Y-15820549D01*
X53530500Y-15639450D01*
X53509918Y-15509502D01*
X53502171Y-15460591D01*
X53446211Y-15288361D01*
X53363996Y-15127006D01*
X53257553Y-14980499D01*
X53129501Y-14852447D01*
X52982994Y-14746004D01*
X52982993Y-14746003D01*
X52982991Y-14746002D01*
X52821637Y-14663788D01*
X52649406Y-14607828D01*
X52470549Y-14579500D01*
X52470546Y-14579500D01*
X52289454Y-14579500D01*
X52289451Y-14579500D01*
X52110593Y-14607828D01*
X51938362Y-14663788D01*
X51777008Y-14746002D01*
X51703752Y-14799225D01*
X51630499Y-14852447D01*
X51502447Y-14980499D01*
X51466914Y-15029406D01*
X51396002Y-15127008D01*
X51313788Y-15288362D01*
X51257828Y-15460593D01*
X51229500Y-15639450D01*
X48925500Y-15639450D01*
X48925500Y-13714500D01*
X48944407Y-13656309D01*
X48993907Y-13620345D01*
X49024500Y-13615500D01*
X51244899Y-13615500D01*
X51303090Y-13634407D01*
X51333107Y-13669552D01*
X51396004Y-13792994D01*
X51502447Y-13939501D01*
X51630499Y-14067553D01*
X51777006Y-14173996D01*
X51938361Y-14256211D01*
X52110591Y-14312171D01*
X52182136Y-14323502D01*
X52289451Y-14340500D01*
X52289454Y-14340500D01*
X52470549Y-14340500D01*
X52559977Y-14326335D01*
X52649409Y-14312171D01*
X52821639Y-14256211D01*
X52982994Y-14173996D01*
X53129501Y-14067553D01*
X53257553Y-13939501D01*
X53363996Y-13792994D01*
X53446211Y-13631639D01*
X53502171Y-13459409D01*
X53530500Y-13280546D01*
X53530500Y-13099454D01*
X53530500Y-13099450D01*
X53509918Y-12969502D01*
X53502171Y-12920591D01*
X53446211Y-12748361D01*
X53363996Y-12587006D01*
X53257553Y-12440499D01*
X53129501Y-12312447D01*
X52982994Y-12206004D01*
X52982993Y-12206003D01*
X52982991Y-12206002D01*
X52821637Y-12123788D01*
X52649406Y-12067828D01*
X52470549Y-12039500D01*
X52470546Y-12039500D01*
X52289454Y-12039500D01*
X52289451Y-12039500D01*
X52110593Y-12067828D01*
X51938362Y-12123788D01*
X51777008Y-12206002D01*
X51703752Y-12259225D01*
X51630499Y-12312447D01*
X51502447Y-12440499D01*
X51490686Y-12456687D01*
X51396002Y-12587008D01*
X51363971Y-12649873D01*
X51333107Y-12710446D01*
X51289844Y-12753710D01*
X51244899Y-12764500D01*
X48556018Y-12764500D01*
X48443982Y-12764500D01*
X48377748Y-12782247D01*
X48335758Y-12793498D01*
X48238739Y-12849513D01*
X48159513Y-12928739D01*
X48103498Y-13025758D01*
X48090876Y-13072866D01*
X48074901Y-13132488D01*
X48074500Y-13133983D01*
X48074500Y-34555500D01*
X48055593Y-34613691D01*
X48006093Y-34649655D01*
X47975500Y-34654500D01*
X39385101Y-34654500D01*
X39326910Y-34635593D01*
X39296892Y-34600447D01*
X39233996Y-34477006D01*
X39127553Y-34330499D01*
X38999501Y-34202447D01*
X38852994Y-34096004D01*
X38852993Y-34096003D01*
X38852991Y-34096002D01*
X38691637Y-34013788D01*
X38519406Y-33957828D01*
X38340549Y-33929500D01*
X38340546Y-33929500D01*
X38159454Y-33929500D01*
X38159451Y-33929500D01*
X37980593Y-33957828D01*
X37808362Y-34013788D01*
X37647006Y-34096003D01*
X37647002Y-34096005D01*
X37606790Y-34125222D01*
X37548599Y-34144129D01*
X37490409Y-34125221D01*
X37454445Y-34075721D01*
X37449600Y-34045129D01*
X37449600Y-33574870D01*
X37468507Y-33516679D01*
X37518007Y-33480715D01*
X37579193Y-33480715D01*
X37606787Y-33494775D01*
X37647006Y-33523996D01*
X37808361Y-33606211D01*
X37980591Y-33662171D01*
X38052136Y-33673502D01*
X38159451Y-33690500D01*
X38159454Y-33690500D01*
X38340549Y-33690500D01*
X38429977Y-33676335D01*
X38519409Y-33662171D01*
X38691639Y-33606211D01*
X38852994Y-33523996D01*
X38999501Y-33417553D01*
X39127553Y-33289501D01*
X39233996Y-33142994D01*
X39296892Y-33019553D01*
X39340156Y-32976290D01*
X39385101Y-32965500D01*
X42960324Y-32965500D01*
X42975217Y-32966627D01*
X42977290Y-32966942D01*
X42991370Y-32969085D01*
X43018140Y-32966107D01*
X43029085Y-32965500D01*
X43056019Y-32965500D01*
X43065958Y-32962836D01*
X43071799Y-32961270D01*
X43086474Y-32958504D01*
X43102719Y-32956698D01*
X43127812Y-32946889D01*
X43138211Y-32943475D01*
X43164237Y-32936503D01*
X43178384Y-32928334D01*
X43191847Y-32921863D01*
X43200852Y-32918342D01*
X43207068Y-32915914D01*
X43228765Y-32899946D01*
X43237936Y-32893952D01*
X43261263Y-32880485D01*
X43272817Y-32868929D01*
X43284137Y-32859201D01*
X43297307Y-32849511D01*
X43314141Y-32828461D01*
X43321427Y-32820319D01*
X43340485Y-32801263D01*
X43348659Y-32787103D01*
X43357070Y-32774785D01*
X43367283Y-32762017D01*
X43378090Y-32737339D01*
X43383038Y-32727557D01*
X43396503Y-32704237D01*
X43400735Y-32688440D01*
X43405673Y-32674360D01*
X43412230Y-32659391D01*
X43416280Y-32632766D01*
X43418525Y-32622044D01*
X43425500Y-32596018D01*
X43425500Y-32579671D01*
X43426627Y-32564778D01*
X43448748Y-32419407D01*
X46312572Y-13599314D01*
X46340017Y-13544633D01*
X46377545Y-13523577D01*
X46376680Y-13521256D01*
X46498399Y-13475857D01*
X46517331Y-13468796D01*
X46632546Y-13382546D01*
X46718796Y-13267331D01*
X46722056Y-13258592D01*
X46766292Y-13139988D01*
X46769091Y-13132483D01*
X46775500Y-13072873D01*
X46775499Y-12577128D01*
X46769091Y-12517517D01*
X46769089Y-12517511D01*
X46718797Y-12382670D01*
X46632549Y-12267458D01*
X46632548Y-12267457D01*
X46632546Y-12267454D01*
X46632541Y-12267450D01*
X46517329Y-12181202D01*
X46382488Y-12130910D01*
X46382483Y-12130909D01*
X46382481Y-12130908D01*
X46382477Y-12130908D01*
X46351249Y-12127550D01*
X46322873Y-12124500D01*
X46322870Y-12124500D01*
X45677133Y-12124500D01*
X45677129Y-12124500D01*
X45677128Y-12124501D01*
X45669949Y-12125272D01*
X45617519Y-12130908D01*
X45617514Y-12130909D01*
X45482670Y-12181202D01*
X45367458Y-12267450D01*
X45367450Y-12267458D01*
X45281202Y-12382670D01*
X45230910Y-12517511D01*
X45230908Y-12517522D01*
X45224500Y-12577129D01*
X45224500Y-13072866D01*
X45224501Y-13072870D01*
X45230908Y-13132480D01*
X45230909Y-13132485D01*
X45281202Y-13267329D01*
X45358436Y-13370500D01*
X45367454Y-13382546D01*
X45425302Y-13425851D01*
X45460553Y-13475857D01*
X45463844Y-13519995D01*
X43572573Y-25948804D01*
X43545127Y-26003488D01*
X43490780Y-26031596D01*
X43430291Y-26022392D01*
X43386765Y-25979391D01*
X43375700Y-25933911D01*
X43375700Y-12909500D01*
X43394607Y-12851309D01*
X43404696Y-12839496D01*
X44781696Y-11462496D01*
X44836213Y-11434719D01*
X44851700Y-11433500D01*
X44923855Y-11433500D01*
X44923857Y-11433500D01*
X45076584Y-11392577D01*
X45081107Y-11389965D01*
X45140952Y-11377242D01*
X45196849Y-11402125D01*
X45227444Y-11455111D01*
X45229042Y-11465117D01*
X45230908Y-11482481D01*
X45230909Y-11482485D01*
X45281202Y-11617329D01*
X45367450Y-11732541D01*
X45367454Y-11732546D01*
X45367457Y-11732548D01*
X45367458Y-11732549D01*
X45482670Y-11818797D01*
X45617511Y-11869089D01*
X45617512Y-11869089D01*
X45617517Y-11869091D01*
X45677127Y-11875500D01*
X46322872Y-11875499D01*
X46382483Y-11869091D01*
X46449907Y-11843943D01*
X46517329Y-11818797D01*
X46517329Y-11818796D01*
X46517331Y-11818796D01*
X46632546Y-11732546D01*
X46718796Y-11617331D01*
X46725504Y-11599344D01*
X46763553Y-11551429D01*
X46810142Y-11535272D01*
X51283326Y-11167181D01*
X51342869Y-11181253D01*
X51379653Y-11220903D01*
X51396002Y-11252992D01*
X51408902Y-11270747D01*
X51502447Y-11399501D01*
X51630499Y-11527553D01*
X51777006Y-11633996D01*
X51938361Y-11716211D01*
X52110591Y-11772171D01*
X52182136Y-11783502D01*
X52289451Y-11800500D01*
X52289454Y-11800500D01*
X52470549Y-11800500D01*
X52559977Y-11786335D01*
X52649409Y-11772171D01*
X52821639Y-11716211D01*
X52982994Y-11633996D01*
X53129501Y-11527553D01*
X53257553Y-11399501D01*
X53363996Y-11252994D01*
X53446211Y-11091639D01*
X53502171Y-10919409D01*
X53506921Y-10889416D01*
X53534697Y-10834901D01*
X53589212Y-10807122D01*
X53649645Y-10816692D01*
X53674706Y-10834899D01*
X57751804Y-14911997D01*
X57779581Y-14966514D01*
X57780800Y-14982001D01*
X57780800Y-31793099D01*
X57761893Y-31851290D01*
X57751804Y-31863103D01*
X56817016Y-32797891D01*
X56764294Y-32889209D01*
X56764290Y-32889217D01*
X56756264Y-32919177D01*
X56756264Y-32919179D01*
X56739529Y-32981637D01*
X56737000Y-32991074D01*
X56737000Y-40350500D01*
X56718093Y-40408691D01*
X56668593Y-40444655D01*
X56638000Y-40449500D01*
X56570725Y-40449500D01*
X56540305Y-40452353D01*
X56540296Y-40452355D01*
X56412116Y-40497207D01*
X56302855Y-40577845D01*
X56302845Y-40577855D01*
X56222207Y-40687116D01*
X56177355Y-40815296D01*
X56177353Y-40815305D01*
X56174500Y-40845725D01*
X56174500Y-41254274D01*
X56177353Y-41284695D01*
X56177353Y-41284697D01*
X56177354Y-41284699D01*
X56181715Y-41297161D01*
X56198037Y-41343808D01*
X56199409Y-41404978D01*
X56174596Y-41446509D01*
X55942651Y-41678454D01*
X55888134Y-41706231D01*
X55827702Y-41696660D01*
X55784437Y-41653395D01*
X55779202Y-41641146D01*
X55777793Y-41637118D01*
X55777629Y-41636896D01*
X55697154Y-41527855D01*
X55697152Y-41527853D01*
X55697150Y-41527850D01*
X55697146Y-41527847D01*
X55697144Y-41527845D01*
X55587883Y-41447207D01*
X55459703Y-41402355D01*
X55459694Y-41402353D01*
X55429274Y-41399500D01*
X55429266Y-41399500D01*
X54295734Y-41399500D01*
X54295725Y-41399500D01*
X54265305Y-41402353D01*
X54265296Y-41402355D01*
X54137116Y-41447207D01*
X54027855Y-41527845D01*
X54027845Y-41527855D01*
X53947207Y-41637116D01*
X53902355Y-41765296D01*
X53902353Y-41765305D01*
X53899500Y-41795725D01*
X53899500Y-42204274D01*
X53902353Y-42234694D01*
X53902355Y-42234703D01*
X53947207Y-42362883D01*
X54027845Y-42472144D01*
X54027847Y-42472146D01*
X54027850Y-42472150D01*
X54027853Y-42472152D01*
X54027855Y-42472154D01*
X54137116Y-42552792D01*
X54137117Y-42552792D01*
X54137118Y-42552793D01*
X54265301Y-42597646D01*
X54295725Y-42600499D01*
X54295727Y-42600500D01*
X54295734Y-42600500D01*
X55429273Y-42600500D01*
X55429273Y-42600499D01*
X55459699Y-42597646D01*
X55492523Y-42586160D01*
X55504202Y-42582074D01*
X55565372Y-42580701D01*
X55615667Y-42615545D01*
X55635875Y-42673296D01*
X55635900Y-42675518D01*
X55635900Y-45981699D01*
X55616993Y-46039890D01*
X55606904Y-46051703D01*
X55463103Y-46195504D01*
X55408586Y-46223281D01*
X55393099Y-46224500D01*
X54958851Y-46224500D01*
X54874408Y-46234641D01*
X54740027Y-46287634D01*
X54624922Y-46374922D01*
X54537634Y-46490027D01*
X54484641Y-46624408D01*
X54474500Y-46708851D01*
X54474500Y-47291148D01*
X54484641Y-47375591D01*
X54537634Y-47509972D01*
X54537635Y-47509974D01*
X54537636Y-47509975D01*
X54624922Y-47625078D01*
X54731121Y-47705612D01*
X54766062Y-47755837D01*
X54770300Y-47784494D01*
X54770300Y-54922299D01*
X54751393Y-54980490D01*
X54741304Y-54992303D01*
X51313103Y-58420504D01*
X51258586Y-58448281D01*
X51243099Y-58449500D01*
X48306893Y-58449500D01*
X48218434Y-58460123D01*
X48077660Y-58515637D01*
X48077656Y-58515640D01*
X47957081Y-58607075D01*
X47957075Y-58607081D01*
X47865640Y-58727656D01*
X47865637Y-58727660D01*
X47810123Y-58868434D01*
X47799500Y-58956893D01*
X47799500Y-59500500D01*
X47780593Y-59558691D01*
X47731093Y-59594655D01*
X47700500Y-59599500D01*
X43950008Y-59599500D01*
X43891817Y-59580593D01*
X43870352Y-59559288D01*
X43847150Y-59527850D01*
X43847149Y-59527849D01*
X43737883Y-59447207D01*
X43609703Y-59402355D01*
X43609694Y-59402353D01*
X43579274Y-59399500D01*
X43579266Y-59399500D01*
X43437000Y-59399500D01*
X43378809Y-59380593D01*
X43342845Y-59331093D01*
X43338000Y-59300500D01*
X43338000Y-53199500D01*
X43356907Y-53141309D01*
X43406407Y-53105345D01*
X43437000Y-53100500D01*
X44079055Y-53100500D01*
X44079057Y-53100500D01*
X44231784Y-53059577D01*
X44368716Y-52980520D01*
X44480520Y-52868716D01*
X44559577Y-52731784D01*
X44600500Y-52579057D01*
X44600500Y-51440663D01*
X44619407Y-51382472D01*
X44621063Y-51380532D01*
X44620986Y-51380473D01*
X44625076Y-51375079D01*
X44625078Y-51375078D01*
X44712364Y-51259975D01*
X44765359Y-51125590D01*
X44775500Y-51041144D01*
X44775500Y-50508856D01*
X44765359Y-50424410D01*
X44712364Y-50290025D01*
X44625078Y-50174922D01*
X44509975Y-50087636D01*
X44509974Y-50087635D01*
X44509972Y-50087634D01*
X44375591Y-50034641D01*
X44291148Y-50024500D01*
X44291144Y-50024500D01*
X43708856Y-50024500D01*
X43708851Y-50024500D01*
X43624408Y-50034641D01*
X43490027Y-50087634D01*
X43374922Y-50174922D01*
X43287634Y-50290027D01*
X43234641Y-50424408D01*
X43224500Y-50508851D01*
X43224500Y-50613400D01*
X43205593Y-50671591D01*
X43156093Y-50707555D01*
X43125500Y-50712400D01*
X42990227Y-50712400D01*
X42884773Y-50712400D01*
X42782913Y-50739693D01*
X42782912Y-50739693D01*
X42782910Y-50739694D01*
X42782909Y-50739694D01*
X42691589Y-50792418D01*
X42617018Y-50866989D01*
X42564294Y-50958309D01*
X42564294Y-50958310D01*
X42564293Y-50958312D01*
X42564293Y-50958313D01*
X42542100Y-51041142D01*
X42537000Y-51060174D01*
X42537000Y-51800500D01*
X42518093Y-51858691D01*
X42468593Y-51894655D01*
X42438000Y-51899500D01*
X14449500Y-51899500D01*
X14391309Y-51880593D01*
X14355345Y-51831093D01*
X14350500Y-51800500D01*
X14350500Y-48816251D01*
X14369407Y-48758060D01*
X14391306Y-48736160D01*
X14499501Y-48657553D01*
X14627553Y-48529501D01*
X14733996Y-48382994D01*
X14816211Y-48221639D01*
X14872171Y-48049409D01*
X14886335Y-47959977D01*
X14900500Y-47870549D01*
X14900500Y-47689450D01*
X14881614Y-47570212D01*
X14872171Y-47510591D01*
X14816211Y-47338361D01*
X14733996Y-47177006D01*
X14627553Y-47030499D01*
X14499501Y-46902447D01*
X14352994Y-46796004D01*
X14352993Y-46796003D01*
X14352991Y-46796002D01*
X14191637Y-46713788D01*
X14019406Y-46657828D01*
X13840549Y-46629500D01*
X13840546Y-46629500D01*
X13659454Y-46629500D01*
X13659451Y-46629500D01*
X13480593Y-46657828D01*
X13308362Y-46713788D01*
X13147008Y-46796002D01*
X13119631Y-46815893D01*
X13000499Y-46902447D01*
X12938501Y-46964444D01*
X12883987Y-46992220D01*
X12823555Y-46982649D01*
X12780290Y-46939384D01*
X12769500Y-46894439D01*
X12769500Y-43585561D01*
X12788407Y-43527370D01*
X12837907Y-43491406D01*
X12899093Y-43491406D01*
X12938501Y-43515555D01*
X13000499Y-43577553D01*
X13147006Y-43683996D01*
X13308361Y-43766211D01*
X13480591Y-43822171D01*
X13552136Y-43833502D01*
X13659451Y-43850500D01*
X13659454Y-43850500D01*
X13840549Y-43850500D01*
X13929977Y-43836335D01*
X14019409Y-43822171D01*
X14191639Y-43766211D01*
X14352994Y-43683996D01*
X14499501Y-43577553D01*
X14627553Y-43449501D01*
X14733996Y-43302994D01*
X14816211Y-43141639D01*
X14872171Y-42969409D01*
X14894523Y-42828285D01*
X14900500Y-42790549D01*
X14900500Y-42609450D01*
X14872171Y-42430593D01*
X14872171Y-42430591D01*
X14816211Y-42258361D01*
X14733996Y-42097006D01*
X14627553Y-41950499D01*
X14499501Y-41822447D01*
X14352994Y-41716004D01*
X14352993Y-41716003D01*
X14352991Y-41716002D01*
X14191637Y-41633788D01*
X14019406Y-41577828D01*
X13840549Y-41549500D01*
X13840546Y-41549500D01*
X13659454Y-41549500D01*
X13659451Y-41549500D01*
X13480593Y-41577828D01*
X13308362Y-41633788D01*
X13147008Y-41716002D01*
X13079161Y-41765296D01*
X13000499Y-41822447D01*
X12938501Y-41884444D01*
X12883987Y-41912220D01*
X12823555Y-41902649D01*
X12780290Y-41859384D01*
X12769500Y-41814439D01*
X12769500Y-41045561D01*
X12788407Y-40987370D01*
X12837907Y-40951406D01*
X12899093Y-40951406D01*
X12938501Y-40975555D01*
X13000499Y-41037553D01*
X13147006Y-41143996D01*
X13308361Y-41226211D01*
X13480591Y-41282171D01*
X13552136Y-41293502D01*
X13659451Y-41310500D01*
X13659454Y-41310500D01*
X13840549Y-41310500D01*
X13929977Y-41296335D01*
X14019409Y-41282171D01*
X14191639Y-41226211D01*
X14352994Y-41143996D01*
X14499501Y-41037553D01*
X14627553Y-40909501D01*
X14733996Y-40762994D01*
X14816211Y-40601639D01*
X14872171Y-40429409D01*
X14900500Y-40250546D01*
X14900500Y-40069454D01*
X14900500Y-40069450D01*
X14872171Y-39890593D01*
X14872171Y-39890591D01*
X14816211Y-39718361D01*
X14733996Y-39557006D01*
X14627553Y-39410499D01*
X14499501Y-39282447D01*
X14352994Y-39176004D01*
X14352993Y-39176003D01*
X14352991Y-39176002D01*
X14191637Y-39093788D01*
X14019406Y-39037828D01*
X13840549Y-39009500D01*
X13840546Y-39009500D01*
X13659454Y-39009500D01*
X13659451Y-39009500D01*
X13480593Y-39037828D01*
X13308362Y-39093788D01*
X13147008Y-39176002D01*
X13115799Y-39198677D01*
X13000499Y-39282447D01*
X12938501Y-39344444D01*
X12883987Y-39372220D01*
X12823555Y-39362649D01*
X12780290Y-39319384D01*
X12769500Y-39274439D01*
X12769500Y-38505561D01*
X12788407Y-38447370D01*
X12837907Y-38411406D01*
X12899093Y-38411406D01*
X12938501Y-38435555D01*
X13000499Y-38497553D01*
X13147006Y-38603996D01*
X13308361Y-38686211D01*
X13480591Y-38742171D01*
X13552136Y-38753502D01*
X13659451Y-38770500D01*
X13659454Y-38770500D01*
X13840549Y-38770500D01*
X13929977Y-38756335D01*
X14019409Y-38742171D01*
X14191639Y-38686211D01*
X14352994Y-38603996D01*
X14499501Y-38497553D01*
X14627553Y-38369501D01*
X14733996Y-38222994D01*
X14816211Y-38061639D01*
X14872171Y-37889409D01*
X14892257Y-37762592D01*
X14900500Y-37710549D01*
X14900500Y-37529450D01*
X14872171Y-37350593D01*
X14872171Y-37350591D01*
X14816211Y-37178361D01*
X14733996Y-37017006D01*
X14627553Y-36870499D01*
X14499501Y-36742447D01*
X14352994Y-36636004D01*
X14352993Y-36636003D01*
X14352991Y-36636002D01*
X14191637Y-36553788D01*
X14019406Y-36497828D01*
X13840549Y-36469500D01*
X13840546Y-36469500D01*
X13659454Y-36469500D01*
X13659451Y-36469500D01*
X13480593Y-36497828D01*
X13308362Y-36553788D01*
X13147008Y-36636002D01*
X13073752Y-36689225D01*
X13000499Y-36742447D01*
X12938501Y-36804444D01*
X12883987Y-36832220D01*
X12823555Y-36822649D01*
X12780290Y-36779384D01*
X12769500Y-36734439D01*
X12769500Y-35965561D01*
X12788407Y-35907370D01*
X12837907Y-35871406D01*
X12899093Y-35871406D01*
X12938501Y-35895555D01*
X13000499Y-35957553D01*
X13147006Y-36063996D01*
X13308361Y-36146211D01*
X13480591Y-36202171D01*
X13543906Y-36212199D01*
X13659451Y-36230500D01*
X13659454Y-36230500D01*
X13840549Y-36230500D01*
X13956094Y-36212199D01*
X14019409Y-36202171D01*
X14191639Y-36146211D01*
X14352994Y-36063996D01*
X14499501Y-35957553D01*
X14627553Y-35829501D01*
X14733996Y-35682994D01*
X14816211Y-35521639D01*
X14872171Y-35349409D01*
X14900500Y-35170546D01*
X14900500Y-34989454D01*
X14900500Y-34989450D01*
X14872171Y-34810593D01*
X14872171Y-34810591D01*
X14820690Y-34652146D01*
X14820691Y-34590961D01*
X14844839Y-34551552D01*
X34388698Y-15007694D01*
X34443213Y-14979919D01*
X34503645Y-14989490D01*
X34546910Y-15032755D01*
X34557700Y-15077699D01*
X34557700Y-44435473D01*
X34557700Y-44540927D01*
X34575507Y-44607384D01*
X34584994Y-44642792D01*
X34637716Y-44734108D01*
X34637717Y-44734109D01*
X34637718Y-44734110D01*
X34637720Y-44734113D01*
X35926314Y-46022707D01*
X37155158Y-47251551D01*
X37182935Y-47306068D01*
X37179309Y-47352147D01*
X37127828Y-47510593D01*
X37099500Y-47689450D01*
X37099500Y-47870549D01*
X37127828Y-48049406D01*
X37183788Y-48221637D01*
X37259128Y-48369501D01*
X37266004Y-48382994D01*
X37372447Y-48529501D01*
X37500499Y-48657553D01*
X37647006Y-48763996D01*
X37808361Y-48846211D01*
X37980591Y-48902171D01*
X38052136Y-48913502D01*
X38159451Y-48930500D01*
X38159454Y-48930500D01*
X38340549Y-48930500D01*
X38429977Y-48916335D01*
X38519409Y-48902171D01*
X38691639Y-48846211D01*
X38852994Y-48763996D01*
X38999501Y-48657553D01*
X39127553Y-48529501D01*
X39233996Y-48382994D01*
X39316211Y-48221639D01*
X39372171Y-48049409D01*
X39386335Y-47959977D01*
X39400500Y-47870549D01*
X39400500Y-47689450D01*
X39381614Y-47570212D01*
X39372171Y-47510591D01*
X39316211Y-47338361D01*
X39233996Y-47177006D01*
X39127553Y-47030499D01*
X38999501Y-46902447D01*
X38852994Y-46796004D01*
X38852993Y-46796003D01*
X38852991Y-46796002D01*
X38691637Y-46713788D01*
X38519406Y-46657828D01*
X38340549Y-46629500D01*
X38340546Y-46629500D01*
X38159454Y-46629500D01*
X38159451Y-46629500D01*
X37980593Y-46657828D01*
X37822147Y-46709309D01*
X37760962Y-46709308D01*
X37721551Y-46685158D01*
X35387696Y-44351303D01*
X35359919Y-44296786D01*
X35358700Y-44281299D01*
X35358700Y-42609450D01*
X37099500Y-42609450D01*
X37099500Y-42790549D01*
X37127828Y-42969406D01*
X37183788Y-43141637D01*
X37231205Y-43234699D01*
X37266004Y-43302994D01*
X37372447Y-43449501D01*
X37500499Y-43577553D01*
X37647006Y-43683996D01*
X37808361Y-43766211D01*
X37980591Y-43822171D01*
X38052136Y-43833502D01*
X38159451Y-43850500D01*
X38159454Y-43850500D01*
X38340549Y-43850500D01*
X38429977Y-43836335D01*
X38519409Y-43822171D01*
X38691639Y-43766211D01*
X38852994Y-43683996D01*
X38999501Y-43577553D01*
X39127553Y-43449501D01*
X39233996Y-43302994D01*
X39316211Y-43141639D01*
X39372171Y-42969409D01*
X39394523Y-42828285D01*
X39400500Y-42790549D01*
X39400500Y-42609450D01*
X39372171Y-42430593D01*
X39372171Y-42430591D01*
X39316211Y-42258361D01*
X39233996Y-42097006D01*
X39127553Y-41950499D01*
X38999501Y-41822447D01*
X38852994Y-41716004D01*
X38852993Y-41716003D01*
X38852991Y-41716002D01*
X38691637Y-41633788D01*
X38519406Y-41577828D01*
X38340549Y-41549500D01*
X38340546Y-41549500D01*
X38159454Y-41549500D01*
X38159451Y-41549500D01*
X37980593Y-41577828D01*
X37808362Y-41633788D01*
X37647008Y-41716002D01*
X37579161Y-41765296D01*
X37500499Y-41822447D01*
X37372447Y-41950499D01*
X37319225Y-42023752D01*
X37266002Y-42097008D01*
X37183788Y-42258362D01*
X37127828Y-42430593D01*
X37099500Y-42609450D01*
X35358700Y-42609450D01*
X35358700Y-14707643D01*
X35377607Y-14649452D01*
X35387690Y-14637645D01*
X35438720Y-14586616D01*
X35517777Y-14449684D01*
X35558700Y-14296957D01*
X35558700Y-14138843D01*
X35517777Y-13986116D01*
X35438720Y-13849184D01*
X35326916Y-13737380D01*
X35189984Y-13658323D01*
X35037257Y-13617400D01*
X34906000Y-13617400D01*
X34847809Y-13598493D01*
X34811845Y-13548993D01*
X34807000Y-13518400D01*
X34807000Y-13229400D01*
X34825907Y-13171209D01*
X34835990Y-13159402D01*
X35865942Y-12129450D01*
X37099500Y-12129450D01*
X37099500Y-12310549D01*
X37127828Y-12489406D01*
X37183788Y-12661637D01*
X37236199Y-12764500D01*
X37266004Y-12822994D01*
X37372447Y-12969501D01*
X37500499Y-13097553D01*
X37647006Y-13203996D01*
X37808361Y-13286211D01*
X37980591Y-13342171D01*
X38052136Y-13353502D01*
X38159451Y-13370500D01*
X38159454Y-13370500D01*
X38340549Y-13370500D01*
X38429977Y-13356335D01*
X38519409Y-13342171D01*
X38691639Y-13286211D01*
X38852994Y-13203996D01*
X38999501Y-13097553D01*
X39127553Y-12969501D01*
X39233996Y-12822994D01*
X39316211Y-12661639D01*
X39372171Y-12489409D01*
X39389077Y-12382669D01*
X39400500Y-12310549D01*
X39400500Y-12129450D01*
X39372171Y-11950593D01*
X39372171Y-11950591D01*
X39316211Y-11778361D01*
X39233996Y-11617006D01*
X39127553Y-11470499D01*
X38999501Y-11342447D01*
X38852994Y-11236004D01*
X38852993Y-11236003D01*
X38852991Y-11236002D01*
X38691637Y-11153788D01*
X38519406Y-11097828D01*
X38340549Y-11069500D01*
X38340546Y-11069500D01*
X38159454Y-11069500D01*
X38159451Y-11069500D01*
X37980593Y-11097828D01*
X37808362Y-11153788D01*
X37647008Y-11236002D01*
X37573752Y-11289225D01*
X37500499Y-11342447D01*
X37372447Y-11470499D01*
X37363739Y-11482485D01*
X37266002Y-11617008D01*
X37183788Y-11778362D01*
X37127828Y-11950593D01*
X37099500Y-12129450D01*
X35865942Y-12129450D01*
X39594897Y-8400494D01*
X39649414Y-8372718D01*
X39664901Y-8371499D01*
X40080867Y-8371499D01*
X40080872Y-8371499D01*
X40140483Y-8365091D01*
X40270996Y-8316413D01*
X40275329Y-8314797D01*
X40275329Y-8314796D01*
X40275331Y-8314796D01*
X40390546Y-8228546D01*
X40476796Y-8113331D01*
X40527091Y-7978483D01*
X40533500Y-7918873D01*
X40533499Y-7273128D01*
X40527091Y-7213517D01*
X40494450Y-7126002D01*
X40476797Y-7078670D01*
X40390549Y-6963458D01*
X40390548Y-6963457D01*
X40390546Y-6963454D01*
X40389157Y-6962414D01*
X40275329Y-6877202D01*
X40140488Y-6826910D01*
X40140483Y-6826909D01*
X40140481Y-6826908D01*
X40140477Y-6826908D01*
X40109249Y-6823550D01*
X40080873Y-6820500D01*
X40080870Y-6820500D01*
X39585133Y-6820500D01*
X39585129Y-6820500D01*
X39585128Y-6820501D01*
X39577949Y-6821272D01*
X39525519Y-6826908D01*
X39525514Y-6826909D01*
X39390670Y-6877202D01*
X39275458Y-6963450D01*
X39275450Y-6963458D01*
X39189202Y-7078670D01*
X39138910Y-7213511D01*
X39138908Y-7213522D01*
X39132500Y-7273129D01*
X39132500Y-7689098D01*
X39113593Y-7747289D01*
X39103504Y-7759102D01*
X34086017Y-12776590D01*
X34086016Y-12776591D01*
X34033294Y-12867907D01*
X34032198Y-12871999D01*
X34011456Y-12949412D01*
X34006716Y-12967102D01*
X34006000Y-12969773D01*
X34006000Y-14216598D01*
X33987093Y-14274789D01*
X33977004Y-14286602D01*
X14278447Y-33985158D01*
X14223930Y-34012935D01*
X14177851Y-34009309D01*
X14019406Y-33957828D01*
X13840549Y-33929500D01*
X13840546Y-33929500D01*
X13659454Y-33929500D01*
X13659451Y-33929500D01*
X13480593Y-33957828D01*
X13308362Y-34013788D01*
X13147008Y-34096002D01*
X13080767Y-34144129D01*
X13000499Y-34202447D01*
X12938501Y-34264444D01*
X12883987Y-34292220D01*
X12823555Y-34282649D01*
X12780290Y-34239384D01*
X12769500Y-34194439D01*
X12769500Y-33425561D01*
X12788407Y-33367370D01*
X12837907Y-33331406D01*
X12899093Y-33331406D01*
X12938501Y-33355555D01*
X13000499Y-33417553D01*
X13147006Y-33523996D01*
X13308361Y-33606211D01*
X13480591Y-33662171D01*
X13552136Y-33673502D01*
X13659451Y-33690500D01*
X13659454Y-33690500D01*
X13840549Y-33690500D01*
X13929977Y-33676335D01*
X14019409Y-33662171D01*
X14191639Y-33606211D01*
X14352994Y-33523996D01*
X14499501Y-33417553D01*
X14627553Y-33289501D01*
X14733996Y-33142994D01*
X14816211Y-32981639D01*
X14872171Y-32809409D01*
X14893562Y-32674350D01*
X14900500Y-32630549D01*
X14900500Y-32449450D01*
X14872171Y-32270593D01*
X14872171Y-32270591D01*
X14816211Y-32098361D01*
X14733996Y-31937006D01*
X14627553Y-31790499D01*
X14499501Y-31662447D01*
X14352994Y-31556004D01*
X14352993Y-31556003D01*
X14352991Y-31556002D01*
X14191637Y-31473788D01*
X14019406Y-31417828D01*
X13840549Y-31389500D01*
X13840546Y-31389500D01*
X13659454Y-31389500D01*
X13659451Y-31389500D01*
X13480593Y-31417828D01*
X13308362Y-31473788D01*
X13147008Y-31556002D01*
X13096912Y-31592399D01*
X13000499Y-31662447D01*
X12938501Y-31724444D01*
X12883987Y-31752220D01*
X12823555Y-31742649D01*
X12780290Y-31699384D01*
X12769500Y-31654439D01*
X12769500Y-31587900D01*
X12788407Y-31529709D01*
X12798496Y-31517897D01*
X13221550Y-31094842D01*
X13276067Y-31067064D01*
X13322146Y-31070690D01*
X13480591Y-31122171D01*
X13552136Y-31133502D01*
X13659451Y-31150500D01*
X13659454Y-31150500D01*
X13840549Y-31150500D01*
X13937860Y-31135087D01*
X14019409Y-31122171D01*
X14191639Y-31066211D01*
X14352994Y-30983996D01*
X14499501Y-30877553D01*
X14627553Y-30749501D01*
X14733996Y-30602994D01*
X14816211Y-30441639D01*
X14872171Y-30269409D01*
X14900500Y-30090546D01*
X14900500Y-29909454D01*
X14900500Y-29909450D01*
X14879440Y-29776487D01*
X14872171Y-29730591D01*
X14816211Y-29558361D01*
X14733996Y-29397006D01*
X14627553Y-29250499D01*
X14499501Y-29122447D01*
X14352994Y-29016004D01*
X14352993Y-29016003D01*
X14352991Y-29016002D01*
X14191637Y-28933788D01*
X14019406Y-28877828D01*
X13840549Y-28849500D01*
X13840546Y-28849500D01*
X13659454Y-28849500D01*
X13659451Y-28849500D01*
X13480593Y-28877828D01*
X13308362Y-28933788D01*
X13147008Y-29016002D01*
X13073752Y-29069225D01*
X13000499Y-29122447D01*
X12872447Y-29250499D01*
X12819225Y-29323752D01*
X12766002Y-29397008D01*
X12683788Y-29558362D01*
X12627828Y-29730593D01*
X12599500Y-29909450D01*
X12599500Y-30090549D01*
X12627828Y-30269406D01*
X12679309Y-30427851D01*
X12679308Y-30489036D01*
X12655158Y-30528446D01*
X12048520Y-31135086D01*
X12048516Y-31135091D01*
X11995794Y-31226407D01*
X11995793Y-31226412D01*
X11969986Y-31322727D01*
X11969986Y-31322728D01*
X11969985Y-31322727D01*
X11968500Y-31328270D01*
X11968500Y-52382160D01*
X11949593Y-52440351D01*
X11914445Y-52470370D01*
X11786145Y-52535742D01*
X11725713Y-52545313D01*
X11671196Y-52517536D01*
X11643419Y-52463019D01*
X11642200Y-52447532D01*
X11642200Y-30175200D01*
X11661107Y-30117009D01*
X11671190Y-30105202D01*
X13221552Y-28554839D01*
X13276067Y-28527064D01*
X13322146Y-28530690D01*
X13480591Y-28582171D01*
X13552136Y-28593502D01*
X13659451Y-28610500D01*
X13659454Y-28610500D01*
X13840549Y-28610500D01*
X13929977Y-28596335D01*
X14019409Y-28582171D01*
X14191639Y-28526211D01*
X14352994Y-28443996D01*
X14499501Y-28337553D01*
X14627553Y-28209501D01*
X14733996Y-28062994D01*
X14816211Y-27901639D01*
X14872171Y-27729409D01*
X14900500Y-27550546D01*
X14900500Y-27369454D01*
X14900500Y-27369450D01*
X14872171Y-27190593D01*
X14872171Y-27190591D01*
X14816211Y-27018361D01*
X14733996Y-26857006D01*
X14627553Y-26710499D01*
X14499501Y-26582447D01*
X14352994Y-26476004D01*
X14352993Y-26476003D01*
X14352991Y-26476002D01*
X14191637Y-26393788D01*
X14019406Y-26337828D01*
X13840549Y-26309500D01*
X13840546Y-26309500D01*
X13659454Y-26309500D01*
X13659451Y-26309500D01*
X13480593Y-26337828D01*
X13308362Y-26393788D01*
X13147008Y-26476002D01*
X13123625Y-26492991D01*
X13000499Y-26582447D01*
X12872447Y-26710499D01*
X12859442Y-26728399D01*
X12766002Y-26857008D01*
X12683788Y-27018362D01*
X12627828Y-27190593D01*
X12599500Y-27369450D01*
X12599500Y-27550549D01*
X12627828Y-27729406D01*
X12679309Y-27887851D01*
X12679308Y-27949036D01*
X12655158Y-27988447D01*
X11445804Y-29197802D01*
X11391287Y-29225579D01*
X11330855Y-29216008D01*
X11287590Y-29172743D01*
X11276800Y-29127798D01*
X11276800Y-28000599D01*
X11295707Y-27942408D01*
X11305790Y-27930601D01*
X13221551Y-26014839D01*
X13276066Y-25987064D01*
X13322145Y-25990690D01*
X13361535Y-26003488D01*
X13480591Y-26042171D01*
X13552136Y-26053502D01*
X13659451Y-26070500D01*
X13659454Y-26070500D01*
X13840549Y-26070500D01*
X13929977Y-26056335D01*
X14019409Y-26042171D01*
X14191639Y-25986211D01*
X14352994Y-25903996D01*
X14499501Y-25797553D01*
X14627553Y-25669501D01*
X14733996Y-25522994D01*
X14816211Y-25361639D01*
X14872171Y-25189409D01*
X14900500Y-25010546D01*
X14900500Y-24829454D01*
X14900500Y-24829450D01*
X14872171Y-24650593D01*
X14872171Y-24650591D01*
X14816211Y-24478361D01*
X14733996Y-24317006D01*
X14627553Y-24170499D01*
X14499501Y-24042447D01*
X14352994Y-23936004D01*
X14352993Y-23936003D01*
X14352991Y-23936002D01*
X14191637Y-23853788D01*
X14019406Y-23797828D01*
X13840549Y-23769500D01*
X13840546Y-23769500D01*
X13659454Y-23769500D01*
X13659451Y-23769500D01*
X13480593Y-23797828D01*
X13308362Y-23853788D01*
X13147008Y-23936002D01*
X13073752Y-23989225D01*
X13000499Y-24042447D01*
X12872447Y-24170499D01*
X12819225Y-24243752D01*
X12766002Y-24317008D01*
X12683788Y-24478362D01*
X12627828Y-24650593D01*
X12599500Y-24829450D01*
X12599500Y-25010549D01*
X12627828Y-25189406D01*
X12679309Y-25347852D01*
X12679308Y-25409037D01*
X12655158Y-25448448D01*
X10555817Y-27547790D01*
X10555816Y-27547791D01*
X10503094Y-27639107D01*
X10503093Y-27639112D01*
X10475800Y-27740973D01*
X500500Y-27740973D01*
X500500Y-22289450D01*
X12599500Y-22289450D01*
X12599500Y-22470549D01*
X12627828Y-22649406D01*
X12683788Y-22821637D01*
X12766001Y-22982990D01*
X12766004Y-22982994D01*
X12872447Y-23129501D01*
X13000499Y-23257553D01*
X13147006Y-23363996D01*
X13308361Y-23446211D01*
X13480591Y-23502171D01*
X13552136Y-23513502D01*
X13659451Y-23530500D01*
X13659454Y-23530500D01*
X13840549Y-23530500D01*
X13929977Y-23516335D01*
X14019409Y-23502171D01*
X14191639Y-23446211D01*
X14352994Y-23363996D01*
X14499501Y-23257553D01*
X14627553Y-23129501D01*
X14733996Y-22982994D01*
X14816211Y-22821639D01*
X14872171Y-22649409D01*
X14900500Y-22470546D01*
X14900500Y-22289454D01*
X14900500Y-22289450D01*
X14872171Y-22110593D01*
X14872171Y-22110591D01*
X14816211Y-21938361D01*
X14733996Y-21777006D01*
X14627553Y-21630499D01*
X14499501Y-21502447D01*
X14352994Y-21396004D01*
X14352993Y-21396003D01*
X14352991Y-21396002D01*
X14191637Y-21313788D01*
X14019406Y-21257828D01*
X13840549Y-21229500D01*
X13840546Y-21229500D01*
X13659454Y-21229500D01*
X13659451Y-21229500D01*
X13480593Y-21257828D01*
X13308362Y-21313788D01*
X13147008Y-21396002D01*
X13123625Y-21412991D01*
X13000499Y-21502447D01*
X12872447Y-21630499D01*
X12830997Y-21687550D01*
X12766002Y-21777008D01*
X12683788Y-21938362D01*
X12627828Y-22110593D01*
X12599500Y-22289450D01*
X500500Y-22289450D01*
X500500Y-19749450D01*
X12599500Y-19749450D01*
X12599500Y-19930549D01*
X12627828Y-20109406D01*
X12683788Y-20281637D01*
X12766001Y-20442990D01*
X12766004Y-20442994D01*
X12872447Y-20589501D01*
X13000499Y-20717553D01*
X13147006Y-20823996D01*
X13308361Y-20906211D01*
X13480591Y-20962171D01*
X13552136Y-20973502D01*
X13659451Y-20990500D01*
X13659454Y-20990500D01*
X13840549Y-20990500D01*
X13929977Y-20976335D01*
X14019409Y-20962171D01*
X14191639Y-20906211D01*
X14352994Y-20823996D01*
X14499501Y-20717553D01*
X14627553Y-20589501D01*
X14733996Y-20442994D01*
X14816211Y-20281639D01*
X14872171Y-20109409D01*
X14900500Y-19930546D01*
X14900500Y-19749454D01*
X14900500Y-19749450D01*
X14872171Y-19570593D01*
X14872171Y-19570591D01*
X14816211Y-19398361D01*
X14733996Y-19237006D01*
X14627553Y-19090499D01*
X14499501Y-18962447D01*
X14352994Y-18856004D01*
X14352993Y-18856003D01*
X14352991Y-18856002D01*
X14191637Y-18773788D01*
X14019406Y-18717828D01*
X13840549Y-18689500D01*
X13840546Y-18689500D01*
X13659454Y-18689500D01*
X13659451Y-18689500D01*
X13480593Y-18717828D01*
X13308362Y-18773788D01*
X13147008Y-18856002D01*
X13123625Y-18872991D01*
X13000499Y-18962447D01*
X12872447Y-19090499D01*
X12830997Y-19147550D01*
X12766002Y-19237008D01*
X12683788Y-19398362D01*
X12627828Y-19570593D01*
X12599500Y-19749450D01*
X500500Y-19749450D01*
X500500Y-17209450D01*
X12599500Y-17209450D01*
X12599500Y-17390549D01*
X12627828Y-17569406D01*
X12683788Y-17741637D01*
X12766001Y-17902990D01*
X12766004Y-17902994D01*
X12872447Y-18049501D01*
X13000499Y-18177553D01*
X13147006Y-18283996D01*
X13308361Y-18366211D01*
X13480591Y-18422171D01*
X13552136Y-18433502D01*
X13659451Y-18450500D01*
X13659454Y-18450500D01*
X13840549Y-18450500D01*
X13929977Y-18436335D01*
X14019409Y-18422171D01*
X14191639Y-18366211D01*
X14352994Y-18283996D01*
X14499501Y-18177553D01*
X14627553Y-18049501D01*
X14733996Y-17902994D01*
X14816211Y-17741639D01*
X14872171Y-17569409D01*
X14900500Y-17390546D01*
X14900500Y-17209454D01*
X14900500Y-17209450D01*
X14879108Y-17074390D01*
X14872171Y-17030591D01*
X14816211Y-16858361D01*
X14733996Y-16697006D01*
X14627553Y-16550499D01*
X14499501Y-16422447D01*
X14352994Y-16316004D01*
X14352993Y-16316003D01*
X14352991Y-16316002D01*
X14191637Y-16233788D01*
X14019406Y-16177828D01*
X13840549Y-16149500D01*
X13840546Y-16149500D01*
X13659454Y-16149500D01*
X13659451Y-16149500D01*
X13480593Y-16177828D01*
X13308362Y-16233788D01*
X13147008Y-16316002D01*
X13137133Y-16323177D01*
X13000499Y-16422447D01*
X12872447Y-16550499D01*
X12830997Y-16607550D01*
X12766002Y-16697008D01*
X12683788Y-16858362D01*
X12627828Y-17030593D01*
X12599500Y-17209450D01*
X500500Y-17209450D01*
X500500Y-14669450D01*
X12599500Y-14669450D01*
X12599500Y-14850549D01*
X12627828Y-15029406D01*
X12683788Y-15201637D01*
X12725285Y-15283080D01*
X12766004Y-15362994D01*
X12872447Y-15509501D01*
X13000499Y-15637553D01*
X13147006Y-15743996D01*
X13308361Y-15826211D01*
X13480591Y-15882171D01*
X13552136Y-15893502D01*
X13659451Y-15910500D01*
X13659454Y-15910500D01*
X13840549Y-15910500D01*
X13929977Y-15896335D01*
X14019409Y-15882171D01*
X14191639Y-15826211D01*
X14352994Y-15743996D01*
X14499501Y-15637553D01*
X14627553Y-15509501D01*
X14733996Y-15362994D01*
X14816211Y-15201639D01*
X14872171Y-15029409D01*
X14900500Y-14850546D01*
X14900500Y-14669454D01*
X14900500Y-14669450D01*
X14875830Y-14513695D01*
X14872171Y-14490591D01*
X14816211Y-14318361D01*
X14733996Y-14157006D01*
X14627553Y-14010499D01*
X14499501Y-13882447D01*
X14352994Y-13776004D01*
X14352993Y-13776003D01*
X14352991Y-13776002D01*
X14191637Y-13693788D01*
X14019406Y-13637828D01*
X13840549Y-13609500D01*
X13840546Y-13609500D01*
X13659454Y-13609500D01*
X13659451Y-13609500D01*
X13480593Y-13637828D01*
X13308362Y-13693788D01*
X13147008Y-13776002D01*
X13123625Y-13792991D01*
X13000499Y-13882447D01*
X12872447Y-14010499D01*
X12830997Y-14067550D01*
X12766002Y-14157008D01*
X12683788Y-14318362D01*
X12627828Y-14490593D01*
X12599500Y-14669450D01*
X500500Y-14669450D01*
X500500Y-11325130D01*
X12599500Y-11325130D01*
X12599500Y-13114860D01*
X12599501Y-13114863D01*
X12602414Y-13139990D01*
X12623786Y-13188393D01*
X12647794Y-13242765D01*
X12727235Y-13322206D01*
X12830009Y-13367585D01*
X12855135Y-13370500D01*
X14644864Y-13370499D01*
X14669991Y-13367585D01*
X14772765Y-13322206D01*
X14852206Y-13242765D01*
X14897585Y-13139991D01*
X14900500Y-13114865D01*
X14900499Y-11325136D01*
X14897585Y-11300009D01*
X14852206Y-11197235D01*
X14772765Y-11117794D01*
X14669991Y-11072415D01*
X14669990Y-11072414D01*
X14669988Y-11072414D01*
X14644868Y-11069500D01*
X12855139Y-11069500D01*
X12855136Y-11069501D01*
X12830009Y-11072414D01*
X12727235Y-11117794D01*
X12647794Y-11197235D01*
X12602414Y-11300011D01*
X12599500Y-11325130D01*
X500500Y-11325130D01*
X500500Y-4378709D01*
X2649500Y-4378709D01*
X2649500Y-4621289D01*
X2681161Y-4861781D01*
X2681161Y-4861786D01*
X2743944Y-5096092D01*
X2743948Y-5096105D01*
X2836772Y-5320204D01*
X2836774Y-5320208D01*
X2836776Y-5320212D01*
X2958064Y-5530289D01*
X2958066Y-5530292D01*
X3105729Y-5722731D01*
X3105731Y-5722733D01*
X3105735Y-5722738D01*
X3277262Y-5894265D01*
X3277266Y-5894268D01*
X3277268Y-5894270D01*
X3445505Y-6023362D01*
X3469711Y-6041936D01*
X3679788Y-6163224D01*
X3903900Y-6256054D01*
X4138211Y-6318838D01*
X4378712Y-6350500D01*
X4378713Y-6350500D01*
X4621287Y-6350500D01*
X4621288Y-6350500D01*
X4861789Y-6318838D01*
X5096100Y-6256054D01*
X5320212Y-6163224D01*
X5530289Y-6041936D01*
X5722738Y-5894265D01*
X5894265Y-5722738D01*
X6041936Y-5530289D01*
X6163224Y-5320212D01*
X6256054Y-5096100D01*
X6318838Y-4861789D01*
X6350500Y-4621288D01*
X6350500Y-4378712D01*
X6350439Y-4378250D01*
X6339006Y-4291407D01*
X6318838Y-4138211D01*
X6256054Y-3903900D01*
X6194751Y-3755900D01*
X6163226Y-3679791D01*
X6163223Y-3679787D01*
X6103954Y-3577129D01*
X20224500Y-3577129D01*
X20224500Y-4072866D01*
X20224501Y-4072870D01*
X20230908Y-4132480D01*
X20230909Y-4132485D01*
X20281202Y-4267329D01*
X20364584Y-4378712D01*
X20367454Y-4382546D01*
X20367457Y-4382548D01*
X20367458Y-4382549D01*
X20482670Y-4468797D01*
X20617511Y-4519089D01*
X20617512Y-4519089D01*
X20617517Y-4519091D01*
X20677127Y-4525500D01*
X21093098Y-4525499D01*
X21151289Y-4544406D01*
X21163102Y-4554495D01*
X21221504Y-4612897D01*
X21249281Y-4667414D01*
X21250500Y-4682901D01*
X21250500Y-5317160D01*
X21231593Y-5375351D01*
X21196445Y-5405370D01*
X21048008Y-5481002D01*
X20974752Y-5534225D01*
X20901499Y-5587447D01*
X20773447Y-5715499D01*
X20768193Y-5722731D01*
X20667002Y-5862008D01*
X20584788Y-6023362D01*
X20528828Y-6195593D01*
X20500500Y-6374450D01*
X20500500Y-6555549D01*
X20528828Y-6734406D01*
X20584788Y-6906637D01*
X20654670Y-7043789D01*
X20667004Y-7067994D01*
X20773447Y-7214501D01*
X20901499Y-7342553D01*
X21048006Y-7448996D01*
X21209361Y-7531211D01*
X21381591Y-7587171D01*
X21453136Y-7598502D01*
X21560451Y-7615500D01*
X21560454Y-7615500D01*
X21741549Y-7615500D01*
X21830977Y-7601335D01*
X21920409Y-7587171D01*
X22092639Y-7531211D01*
X22253994Y-7448996D01*
X22400501Y-7342553D01*
X22528553Y-7214501D01*
X22634996Y-7067994D01*
X22717211Y-6906639D01*
X22773171Y-6734409D01*
X22801500Y-6555546D01*
X22801500Y-6374454D01*
X22801500Y-6374450D01*
X22773171Y-6195593D01*
X22773171Y-6195591D01*
X22717211Y-6023361D01*
X22634996Y-5862006D01*
X22528553Y-5715499D01*
X22400501Y-5587447D01*
X22253994Y-5481004D01*
X22253993Y-5481003D01*
X22253991Y-5481002D01*
X22105555Y-5405370D01*
X22062290Y-5362105D01*
X22051500Y-5317160D01*
X22051500Y-4423274D01*
X22051500Y-4423273D01*
X22024207Y-4321413D01*
X22024207Y-4321412D01*
X22024207Y-4321411D01*
X21971483Y-4230091D01*
X21971479Y-4230086D01*
X21804495Y-4063101D01*
X21776718Y-4008585D01*
X21775499Y-3993098D01*
X21775499Y-3577133D01*
X21775499Y-3577128D01*
X21769091Y-3517517D01*
X21751259Y-3469707D01*
X21718797Y-3382670D01*
X21632549Y-3267458D01*
X21632548Y-3267457D01*
X21632546Y-3267454D01*
X21632541Y-3267450D01*
X21517329Y-3181202D01*
X21382488Y-3130910D01*
X21382483Y-3130909D01*
X21382481Y-3130908D01*
X21382477Y-3130908D01*
X21351249Y-3127550D01*
X21322873Y-3124500D01*
X21322870Y-3124500D01*
X20677133Y-3124500D01*
X20677129Y-3124500D01*
X20677128Y-3124501D01*
X20669949Y-3125272D01*
X20617519Y-3130908D01*
X20617514Y-3130909D01*
X20482670Y-3181202D01*
X20367458Y-3267450D01*
X20367450Y-3267458D01*
X20281202Y-3382670D01*
X20230910Y-3517511D01*
X20230908Y-3517522D01*
X20224500Y-3577129D01*
X6103954Y-3577129D01*
X6041936Y-3469711D01*
X5975147Y-3382670D01*
X5894270Y-3277268D01*
X5894268Y-3277266D01*
X5894265Y-3277262D01*
X5722738Y-3105735D01*
X5722733Y-3105731D01*
X5722731Y-3105729D01*
X5530292Y-2958066D01*
X5525841Y-2955496D01*
X5320212Y-2836776D01*
X5320208Y-2836774D01*
X5320204Y-2836772D01*
X5096105Y-2743948D01*
X5096104Y-2743947D01*
X5096100Y-2743946D01*
X4861789Y-2681162D01*
X4861786Y-2681161D01*
X4861784Y-2681161D01*
X4621289Y-2649500D01*
X4621288Y-2649500D01*
X4378712Y-2649500D01*
X4378710Y-2649500D01*
X4138218Y-2681161D01*
X4138213Y-2681161D01*
X3903907Y-2743944D01*
X3903894Y-2743948D01*
X3679795Y-2836772D01*
X3469707Y-2958066D01*
X3277268Y-3105729D01*
X3105729Y-3277268D01*
X2958066Y-3469707D01*
X2836772Y-3679795D01*
X2743948Y-3903894D01*
X2743944Y-3903907D01*
X2681161Y-4138213D01*
X2681161Y-4138218D01*
X2649500Y-4378709D01*
X500500Y-4378709D01*
X500500Y-3002984D01*
X500681Y-2997007D01*
X500681Y-2997006D01*
X518362Y-2704688D01*
X519801Y-2692837D01*
X572052Y-2407715D01*
X574912Y-2396114D01*
X578654Y-2384106D01*
X661148Y-2119370D01*
X665378Y-2108218D01*
X746880Y-1927129D01*
X20224500Y-1927129D01*
X20224500Y-2422866D01*
X20224501Y-2422870D01*
X20230908Y-2482480D01*
X20230909Y-2482485D01*
X20281202Y-2617329D01*
X20346605Y-2704696D01*
X20367454Y-2732546D01*
X20367457Y-2732548D01*
X20367458Y-2732549D01*
X20482670Y-2818797D01*
X20617511Y-2869089D01*
X20617512Y-2869089D01*
X20617517Y-2869091D01*
X20677127Y-2875500D01*
X21322872Y-2875499D01*
X21382483Y-2869091D01*
X21492571Y-2828031D01*
X21517329Y-2818797D01*
X21517329Y-2818796D01*
X21517331Y-2818796D01*
X21632546Y-2732546D01*
X21718796Y-2617331D01*
X21718795Y-2617331D01*
X21720413Y-2615171D01*
X21770421Y-2579918D01*
X21799666Y-2575500D01*
X26200334Y-2575500D01*
X26258525Y-2594407D01*
X26279587Y-2615171D01*
X26281204Y-2617331D01*
X26367454Y-2732546D01*
X26367457Y-2732548D01*
X26367458Y-2732549D01*
X26482670Y-2818797D01*
X26617511Y-2869089D01*
X26617512Y-2869089D01*
X26617517Y-2869091D01*
X26677127Y-2875500D01*
X27093098Y-2875499D01*
X27151289Y-2894406D01*
X27163102Y-2904495D01*
X27214103Y-2955496D01*
X27241880Y-3010013D01*
X27232309Y-3070445D01*
X27189044Y-3113710D01*
X27144099Y-3124500D01*
X26677133Y-3124500D01*
X26677129Y-3124500D01*
X26677128Y-3124501D01*
X26669949Y-3125272D01*
X26617519Y-3130908D01*
X26617514Y-3130909D01*
X26482670Y-3181202D01*
X26367458Y-3267450D01*
X26367450Y-3267458D01*
X26281202Y-3382670D01*
X26230910Y-3517511D01*
X26230908Y-3517522D01*
X26224500Y-3577129D01*
X26224500Y-3993098D01*
X26205593Y-4051289D01*
X26195504Y-4063102D01*
X24833995Y-5424610D01*
X24779478Y-5452387D01*
X24719046Y-5442816D01*
X24719046Y-5442815D01*
X24632646Y-5398791D01*
X24632640Y-5398789D01*
X24460406Y-5342828D01*
X24281549Y-5314500D01*
X24281546Y-5314500D01*
X24100454Y-5314500D01*
X24100451Y-5314500D01*
X23921593Y-5342828D01*
X23749362Y-5398788D01*
X23588008Y-5481002D01*
X23514752Y-5534225D01*
X23441499Y-5587447D01*
X23313447Y-5715499D01*
X23308193Y-5722731D01*
X23207002Y-5862008D01*
X23124788Y-6023362D01*
X23068828Y-6195593D01*
X23040500Y-6374450D01*
X23040500Y-6555549D01*
X23068828Y-6734406D01*
X23124788Y-6906637D01*
X23194670Y-7043789D01*
X23207004Y-7067994D01*
X23313447Y-7214501D01*
X23441499Y-7342553D01*
X23588006Y-7448996D01*
X23749361Y-7531211D01*
X23921591Y-7587171D01*
X23993136Y-7598502D01*
X24100451Y-7615500D01*
X24100454Y-7615500D01*
X24281549Y-7615500D01*
X24370977Y-7601335D01*
X24460409Y-7587171D01*
X24632639Y-7531211D01*
X24793994Y-7448996D01*
X24940501Y-7342553D01*
X25068553Y-7214501D01*
X25174996Y-7067994D01*
X25257211Y-6906639D01*
X25313171Y-6734409D01*
X25341500Y-6555546D01*
X25341500Y-6374454D01*
X25341500Y-6374450D01*
X25313171Y-6195591D01*
X25303135Y-6164704D01*
X25303134Y-6103519D01*
X25327283Y-6064108D01*
X26836897Y-4554495D01*
X26891414Y-4526718D01*
X26906901Y-4525499D01*
X27093098Y-4525499D01*
X27151289Y-4544406D01*
X27163102Y-4554495D01*
X27695404Y-5086797D01*
X27723181Y-5141314D01*
X27724400Y-5156801D01*
X27724400Y-13026173D01*
X27724400Y-13131627D01*
X27739610Y-13188393D01*
X27751694Y-13233492D01*
X27804416Y-13324808D01*
X27804418Y-13324810D01*
X27804420Y-13324813D01*
X30180105Y-15700498D01*
X30207881Y-15755013D01*
X30209100Y-15770500D01*
X30209100Y-15842657D01*
X30250023Y-15995384D01*
X30329080Y-16132316D01*
X30440884Y-16244120D01*
X30577816Y-16323177D01*
X30730543Y-16364100D01*
X30730545Y-16364100D01*
X30888655Y-16364100D01*
X30888657Y-16364100D01*
X31041384Y-16323177D01*
X31178316Y-16244120D01*
X31290120Y-16132316D01*
X31369177Y-15995384D01*
X31410100Y-15842657D01*
X31410100Y-15684543D01*
X31369177Y-15531816D01*
X31290120Y-15394884D01*
X31178316Y-15283080D01*
X31041384Y-15204023D01*
X30888657Y-15163100D01*
X30888655Y-15163100D01*
X30816501Y-15163100D01*
X30758310Y-15144193D01*
X30746497Y-15134104D01*
X28554396Y-12942003D01*
X28526619Y-12887486D01*
X28525400Y-12871999D01*
X28525400Y-7714499D01*
X28544307Y-7656308D01*
X28593807Y-7620344D01*
X28624400Y-7615499D01*
X30165861Y-7615499D01*
X30165864Y-7615499D01*
X30190991Y-7612585D01*
X30293765Y-7567206D01*
X30373206Y-7487765D01*
X30418585Y-7384991D01*
X30421500Y-7359865D01*
X30421499Y-5570136D01*
X30418585Y-5545009D01*
X30373206Y-5442235D01*
X30293765Y-5362794D01*
X30190991Y-5317415D01*
X30190990Y-5317414D01*
X30190988Y-5317414D01*
X30165869Y-5314500D01*
X30165865Y-5314500D01*
X29770500Y-5314500D01*
X29712309Y-5295593D01*
X29676345Y-5246093D01*
X29671500Y-5215500D01*
X29671500Y-4393822D01*
X29671500Y-4393273D01*
X29667598Y-4378712D01*
X29667597Y-4378709D01*
X93649500Y-4378709D01*
X93649500Y-4621289D01*
X93681161Y-4861781D01*
X93681161Y-4861786D01*
X93743944Y-5096092D01*
X93743948Y-5096105D01*
X93836772Y-5320204D01*
X93836774Y-5320208D01*
X93836776Y-5320212D01*
X93958064Y-5530289D01*
X93958066Y-5530292D01*
X94105729Y-5722731D01*
X94105731Y-5722733D01*
X94105735Y-5722738D01*
X94277262Y-5894265D01*
X94277266Y-5894268D01*
X94277268Y-5894270D01*
X94445505Y-6023362D01*
X94469711Y-6041936D01*
X94679788Y-6163224D01*
X94903900Y-6256054D01*
X95138211Y-6318838D01*
X95378712Y-6350500D01*
X95378713Y-6350500D01*
X95621287Y-6350500D01*
X95621288Y-6350500D01*
X95861789Y-6318838D01*
X96096100Y-6256054D01*
X96320212Y-6163224D01*
X96530289Y-6041936D01*
X96722738Y-5894265D01*
X96894265Y-5722738D01*
X97041936Y-5530289D01*
X97163224Y-5320212D01*
X97256054Y-5096100D01*
X97318838Y-4861789D01*
X97350500Y-4621288D01*
X97350500Y-4378712D01*
X97350439Y-4378250D01*
X97339006Y-4291407D01*
X97318838Y-4138211D01*
X97256054Y-3903900D01*
X97163224Y-3679788D01*
X97041936Y-3469711D01*
X96975147Y-3382670D01*
X96894270Y-3277268D01*
X96894268Y-3277266D01*
X96894265Y-3277262D01*
X96722738Y-3105735D01*
X96722733Y-3105731D01*
X96722731Y-3105729D01*
X96530292Y-2958066D01*
X96525841Y-2955496D01*
X96320212Y-2836776D01*
X96320208Y-2836774D01*
X96320204Y-2836772D01*
X96096105Y-2743948D01*
X96096104Y-2743947D01*
X96096100Y-2743946D01*
X95861789Y-2681162D01*
X95861786Y-2681161D01*
X95861784Y-2681161D01*
X95621289Y-2649500D01*
X95621288Y-2649500D01*
X95378712Y-2649500D01*
X95378710Y-2649500D01*
X95138218Y-2681161D01*
X95138213Y-2681161D01*
X94903907Y-2743944D01*
X94903894Y-2743948D01*
X94679795Y-2836772D01*
X94469707Y-2958066D01*
X94277268Y-3105729D01*
X94105729Y-3277268D01*
X93958066Y-3469707D01*
X93836772Y-3679795D01*
X93743948Y-3903894D01*
X93743944Y-3903907D01*
X93681161Y-4138213D01*
X93681161Y-4138218D01*
X93649500Y-4378709D01*
X29667597Y-4378709D01*
X29644207Y-4291412D01*
X29644205Y-4291409D01*
X29644205Y-4291407D01*
X29591483Y-4200091D01*
X29591482Y-4200090D01*
X29591481Y-4200089D01*
X29591480Y-4200087D01*
X27804495Y-2413102D01*
X27776718Y-2358585D01*
X27775499Y-2343098D01*
X27775499Y-1927133D01*
X27775499Y-1927128D01*
X27769091Y-1867517D01*
X27760276Y-1843882D01*
X27718797Y-1732670D01*
X27632549Y-1617458D01*
X27632548Y-1617457D01*
X27632546Y-1617454D01*
X27632541Y-1617450D01*
X27517329Y-1531202D01*
X27382488Y-1480910D01*
X27382483Y-1480909D01*
X27382481Y-1480908D01*
X27382477Y-1480908D01*
X27351249Y-1477550D01*
X27322873Y-1474500D01*
X27322870Y-1474500D01*
X26677133Y-1474500D01*
X26677129Y-1474500D01*
X26677128Y-1474501D01*
X26669949Y-1475272D01*
X26617519Y-1480908D01*
X26617514Y-1480909D01*
X26482670Y-1531202D01*
X26367458Y-1617450D01*
X26367450Y-1617458D01*
X26279587Y-1734829D01*
X26229579Y-1770082D01*
X26200334Y-1774500D01*
X21799666Y-1774500D01*
X21741475Y-1755593D01*
X21720413Y-1734829D01*
X21632549Y-1617458D01*
X21632548Y-1617457D01*
X21632546Y-1617454D01*
X21632541Y-1617450D01*
X21517329Y-1531202D01*
X21382488Y-1480910D01*
X21382483Y-1480909D01*
X21382481Y-1480908D01*
X21382477Y-1480908D01*
X21351249Y-1477550D01*
X21322873Y-1474500D01*
X21322870Y-1474500D01*
X20677133Y-1474500D01*
X20677129Y-1474500D01*
X20677128Y-1474501D01*
X20669949Y-1475272D01*
X20617519Y-1480908D01*
X20617514Y-1480909D01*
X20482670Y-1531202D01*
X20367458Y-1617450D01*
X20367450Y-1617458D01*
X20281202Y-1732670D01*
X20230910Y-1867511D01*
X20230908Y-1867522D01*
X20224500Y-1927129D01*
X746880Y-1927129D01*
X784347Y-1843882D01*
X789891Y-1833315D01*
X939868Y-1585221D01*
X946632Y-1575424D01*
X1125407Y-1347235D01*
X1133319Y-1338303D01*
X1338303Y-1133319D01*
X1347235Y-1125407D01*
X1575424Y-946632D01*
X1585221Y-939868D01*
X1833315Y-789891D01*
X1843875Y-784350D01*
X2108218Y-665378D01*
X2119370Y-661148D01*
X2396121Y-574910D01*
X2407715Y-572052D01*
X2692837Y-519801D01*
X2704688Y-518362D01*
X2997008Y-500681D01*
X3002985Y-500500D01*
X3065892Y-500500D01*
X96934108Y-500500D01*
X96997015Y-500500D01*
X97002992Y-500681D01*
G37*
%TD.AperFunction*%
%TD*%
M02*
