%TF.GenerationSoftware,KiCad,Pcbnew,10.0.5*%
%TF.CreationDate,2026-09-05T09:30:40-07:00*%
%TF.ProjectId,droidrefit-pcb,64726f69-6472-4656-9669-742d7063622e,rev?*%
%TF.SameCoordinates,Original*%
%TF.FileFunction,Copper,L2,Bot*%
%TF.FilePolarity,Positive*%
%FSLAX46Y46*%
G04 Gerber Fmt 4.6, Leading zero omitted, Abs format (unit mm)*
G04 Created by KiCad (PCBNEW 10.0.5) date 2026-09-05 09:30:40*
%MOMM*%
%LPD*%
G01*
G04 APERTURE LIST*
G04 Aperture macros list*
%AMRoundRect*
0 Rectangle with rounded corners*
0 $1 Rounding radius*
0 $2 $3 $4 $5 $6 $7 $8 $9 X,Y pos of 4 corners*
0 Add a 4 corners polygon primitive as box body*
4,1,4,$2,$3,$4,$5,$6,$7,$8,$9,$2,$3,0*
0 Add four circle primitives for the rounded corners*
1,1,$1+$1,$2,$3*
1,1,$1+$1,$4,$5*
1,1,$1+$1,$6,$7*
1,1,$1+$1,$8,$9*
0 Add four rect primitives between the rounded corners*
20,1,$1+$1,$2,$3,$4,$5,0*
20,1,$1+$1,$4,$5,$6,$7,0*
20,1,$1+$1,$6,$7,$8,$9,0*
20,1,$1+$1,$8,$9,$2,$3,0*%
G04 Aperture macros list end*
%TA.AperFunction,ComponentPad*%
%ADD10R,1.700000X1.700000*%
%TD*%
%TA.AperFunction,ComponentPad*%
%ADD11C,1.700000*%
%TD*%
%TA.AperFunction,ComponentPad*%
%ADD12O,1.000000X2.100000*%
%TD*%
%TA.AperFunction,ComponentPad*%
%ADD13O,1.000000X1.600000*%
%TD*%
%TA.AperFunction,ComponentPad*%
%ADD14RoundRect,0.250000X-0.350000X-0.625000X0.350000X-0.625000X0.350000X0.625000X-0.350000X0.625000X0*%
%TD*%
%TA.AperFunction,ComponentPad*%
%ADD15O,1.200000X1.750000*%
%TD*%
%TA.AperFunction,ViaPad*%
%ADD16C,0.600000*%
%TD*%
%TA.AperFunction,Conductor*%
%ADD17C,0.200000*%
%TD*%
%TA.AperFunction,Conductor*%
%ADD18C,0.250000*%
%TD*%
G04 APERTURE END LIST*
D10*
%TO.P,J2,1*%
%TO.N,SERVO_PWM*%
X92000000Y-58000000D03*
D11*
%TO.P,J2,2*%
%TO.N,+5V*%
X94540000Y-58000000D03*
%TO.P,J2,3*%
%TO.N,GND*%
X97080000Y-58000000D03*
%TD*%
D10*
%TO.P,J9,1*%
%TO.N,3V3*%
X83000000Y-40000000D03*
D11*
%TO.P,J9,2*%
%TO.N,GND*%
X83000000Y-42540000D03*
%TO.P,J9,3*%
%TO.N,UART0_TX0*%
X83000000Y-45080000D03*
%TO.P,J9,4*%
%TO.N,UART0_RX0*%
X83000000Y-47620000D03*
%TD*%
D10*
%TO.P,U2,1*%
%TO.N,+5V*%
X52380000Y-8110000D03*
D11*
%TO.P,U2,2*%
%TO.N,TX2_DFP*%
X52380000Y-10650000D03*
%TO.P,U2,3*%
%TO.N,RX2_DFP*%
X52380000Y-13190000D03*
%TO.P,U2,4*%
%TO.N,N/C*%
X52380000Y-15730000D03*
%TO.P,U2,5*%
X52380000Y-18270000D03*
%TO.P,U2,6*%
%TO.N,SPK_P*%
X52380000Y-20810000D03*
%TO.P,U2,7*%
%TO.N,GND*%
X52380000Y-23350000D03*
%TO.P,U2,8*%
%TO.N,SPK_N*%
X52380000Y-25890000D03*
%TO.P,U2,9*%
%TO.N,N/C*%
X67620000Y-25890000D03*
%TO.P,U2,10*%
%TO.N,GND*%
X67620000Y-23350000D03*
%TO.P,U2,11*%
%TO.N,N/C*%
X67620000Y-20810000D03*
%TO.P,U2,12*%
X67620000Y-18270000D03*
%TO.P,U2,13*%
X67620000Y-15730000D03*
%TO.P,U2,14*%
X67620000Y-13190000D03*
%TO.P,U2,15*%
X67620000Y-10650000D03*
%TO.P,U2,16*%
%TO.N,DFP_BUSY*%
X67620000Y-8110000D03*
%TD*%
D12*
%TO.P,J1,SH*%
%TO.N,GND*%
X15680000Y-61395000D03*
D13*
X15680000Y-65575000D03*
D12*
X24320000Y-61395000D03*
D13*
X24320000Y-65575000D03*
%TD*%
D10*
%TO.P,J7,1*%
%TO.N,BUZZER_PWM*%
X46250000Y-40000000D03*
D11*
%TO.P,J7,2*%
%TO.N,GND*%
X46250000Y-42540000D03*
%TD*%
D10*
%TO.P,U1,1*%
%TO.N,N/C*%
X13750000Y-12220000D03*
D11*
%TO.P,U1,2*%
X13750000Y-14760000D03*
%TO.P,U1,3*%
X13750000Y-17300000D03*
%TO.P,U1,4*%
X13750000Y-19840000D03*
%TO.P,U1,5*%
X13750000Y-22380000D03*
%TO.P,U1,6*%
%TO.N,BTN_UP*%
X13750000Y-24920000D03*
%TO.P,U1,7*%
%TO.N,BTN_DOWN*%
X13750000Y-27460000D03*
%TO.P,U1,8*%
%TO.N,BTN_SND*%
X13750000Y-30000000D03*
%TO.P,U1,9*%
%TO.N,N/C*%
X13750000Y-32540000D03*
%TO.P,U1,10*%
%TO.N,BUZZER_IO27*%
X13750000Y-35080000D03*
%TO.P,U1,11*%
%TO.N,N/C*%
X13750000Y-37620000D03*
%TO.P,U1,12*%
X13750000Y-40160000D03*
%TO.P,U1,13*%
X13750000Y-42700000D03*
%TO.P,U1,14*%
%TO.N,GND*%
X13750000Y-45240000D03*
%TO.P,U1,15*%
%TO.N,+5V*%
X13750000Y-47780000D03*
%TO.P,U1,16*%
%TO.N,N/C*%
X38250000Y-12220000D03*
%TO.P,U1,17*%
%TO.N,I2C_SCL*%
X38250000Y-14760000D03*
%TO.P,U1,18*%
%TO.N,UART0_TX0*%
X38250000Y-17300000D03*
%TO.P,U1,19*%
%TO.N,UART0_RX0*%
X38250000Y-19840000D03*
%TO.P,U1,20*%
%TO.N,I2C_SDA*%
X38250000Y-22380000D03*
%TO.P,U1,21*%
%TO.N,N/C*%
X38250000Y-24920000D03*
%TO.P,U1,22*%
%TO.N,SERVO_PWM*%
X38250000Y-27460000D03*
%TO.P,U1,23*%
%TO.N,NPX_IN*%
X38250000Y-30000000D03*
%TO.P,U1,24*%
%TO.N,ESP_TX2*%
X38250000Y-32540000D03*
%TO.P,U1,25*%
%TO.N,RX2_DFP*%
X38250000Y-35080000D03*
%TO.P,U1,26*%
%TO.N,DFP_BUSY*%
X38250000Y-37620000D03*
%TO.P,U1,27*%
%TO.N,N/C*%
X38250000Y-40160000D03*
%TO.P,U1,28*%
X38250000Y-42700000D03*
%TO.P,U1,29*%
%TO.N,GND*%
X38250000Y-45240000D03*
%TO.P,U1,30*%
%TO.N,3V3*%
X38250000Y-47780000D03*
%TD*%
D14*
%TO.P,J5,1*%
%TO.N,SPK_P*%
X92000000Y-12000000D03*
D15*
%TO.P,J5,2*%
%TO.N,SPK_N*%
X94000000Y-12000000D03*
%TD*%
D10*
%TO.P,J8,1*%
%TO.N,3V3*%
X29271000Y-6465000D03*
D11*
%TO.P,J8,2*%
%TO.N,GND*%
X26731000Y-6465000D03*
%TO.P,J8,3*%
%TO.N,I2C_SDA*%
X24191000Y-6465000D03*
%TO.P,J8,4*%
%TO.N,I2C_SCL*%
X21651000Y-6465000D03*
%TD*%
D10*
%TO.P,J6,1*%
%TO.N,GND*%
X12369000Y-61150000D03*
D11*
%TO.P,J6,2*%
%TO.N,BTN_UP*%
X12369000Y-58610000D03*
%TO.P,J6,3*%
%TO.N,BTN_DOWN*%
X12369000Y-56070000D03*
%TO.P,J6,4*%
%TO.N,BTN_SND*%
X12369000Y-53530000D03*
%TD*%
D16*
%TO.N,GND*%
X58950000Y-44950000D03*
X16950000Y-30950000D03*
X44950000Y-44950000D03*
X16950000Y-44950000D03*
X44950000Y-2950000D03*
X2950000Y-30950000D03*
X16950000Y-16950000D03*
X2950000Y-16950000D03*
X30950000Y-30950000D03*
X16950000Y-2950000D03*
X30950000Y-2950000D03*
X72950000Y-44950000D03*
X86950000Y-16950000D03*
X86950000Y-44950000D03*
X86950000Y-30950000D03*
X2950000Y-44950000D03*
X86950000Y-58950000D03*
X72950000Y-30950000D03*
X58950000Y-16950000D03*
X30950000Y-44950000D03*
X58950000Y-2950000D03*
X44950000Y-30950000D03*
X58950000Y-30950000D03*
X2950000Y-2950000D03*
X44950000Y-58950000D03*
X72950000Y-16950000D03*
X30950000Y-16950000D03*
X86950000Y-2950000D03*
X58950000Y-58950000D03*
X72950000Y-2950000D03*
X72950000Y-58950000D03*
X2950000Y-58950000D03*
%TO.N,3V3*%
X73201700Y-45975000D03*
X78871100Y-44375600D03*
X34958200Y-14217900D03*
%TO.N,UART0_RX0*%
X69336200Y-35382400D03*
X65753100Y-23918800D03*
%TO.N,DFP_BUSY*%
X44844800Y-10833000D03*
%TO.N,NPX_IN*%
X54862500Y-42000000D03*
%TO.N,I2C_SDA*%
X30809600Y-15763600D03*
%TO.N,NPX_P3*%
X89786600Y-42833300D03*
X84813700Y-41362500D03*
%TD*%
%TO.N,SERVO_PWM*%
D17*
X90848300Y-58000000D02*
X60308300Y-27460000D01*
X92000000Y-58000000D02*
X90848300Y-58000000D01*
X60308300Y-27460000D02*
X38250000Y-27460000D01*
%TO.N,3V3*%
X73201700Y-45975000D02*
X71396700Y-47780000D01*
X29271000Y-6465000D02*
X29271000Y-7566700D01*
X83000000Y-41101700D02*
X82145000Y-41101700D01*
X82145000Y-41101700D02*
X78871100Y-44375600D01*
X83000000Y-40000000D02*
X83000000Y-41101700D01*
X29271000Y-7566700D02*
X34958200Y-13253900D01*
X34958200Y-13253900D02*
X34958200Y-14217900D01*
X71396700Y-47780000D02*
X38250000Y-47780000D01*
%TO.N,UART0_TX0*%
X84161500Y-43918500D02*
X83000000Y-45080000D01*
X37148300Y-20325200D02*
X37961100Y-21138000D01*
X38983600Y-21138000D02*
X44871000Y-27025400D01*
X84161500Y-39066100D02*
X84161500Y-43918500D01*
X37148300Y-18401700D02*
X37148300Y-20325200D01*
X44871000Y-27025400D02*
X72120800Y-27025400D01*
X72120800Y-27025400D02*
X84161500Y-39066100D01*
X37961100Y-21138000D02*
X38983600Y-21138000D01*
X38250000Y-17300000D02*
X37148300Y-18401700D01*
%TO.N,UART0_RX0*%
X81335400Y-47620000D02*
X83000000Y-47620000D01*
X40490000Y-22080000D02*
X38250000Y-19840000D01*
X69336200Y-35620800D02*
X81335400Y-47620000D01*
X69336200Y-35382400D02*
X69336200Y-35620800D01*
X65753100Y-23918800D02*
X63914300Y-22080000D01*
X63914300Y-22080000D02*
X40490000Y-22080000D01*
%TO.N,SPK_P*%
X52467500Y-20810000D02*
X61277500Y-12000000D01*
X61277500Y-12000000D02*
X92000000Y-12000000D01*
X52380000Y-20810000D02*
X52467500Y-20810000D01*
%TO.N,SPK_N*%
X93098300Y-12678300D02*
X93098300Y-12000000D01*
X81138900Y-24637700D02*
X93098300Y-12678300D01*
X93098300Y-12000000D02*
X94000000Y-12000000D01*
X52380000Y-25890000D02*
X53632300Y-24637700D01*
X53632300Y-24637700D02*
X81138900Y-24637700D01*
%TO.N,DFP_BUSY*%
X46357800Y-9320000D02*
X44844800Y-10833000D01*
X66410000Y-9320000D02*
X46357800Y-9320000D01*
X67620000Y-8110000D02*
X66410000Y-9320000D01*
%TO.N,NPX_IN*%
D18*
X54862500Y-44000000D02*
X54862500Y-42000000D01*
X44000000Y-30000000D02*
X44000000Y-44000000D01*
X44000000Y-44000000D02*
X54862500Y-44000000D01*
X38250000Y-30000000D02*
X44000000Y-30000000D01*
%TO.N,I2C_SCL*%
D17*
X38162900Y-14847100D02*
X30033100Y-14847100D01*
X30033100Y-14847100D02*
X21651000Y-6465000D01*
X38250000Y-14760000D02*
X38162900Y-14847100D01*
%TO.N,I2C_SDA*%
X38250000Y-22380000D02*
X37426000Y-22380000D01*
X37426000Y-22380000D02*
X30809600Y-15763600D01*
%TO.N,NPX_P3*%
X84813700Y-41362500D02*
X88315800Y-41362500D01*
X88315800Y-41362500D02*
X89786600Y-42833300D01*
%TD*%
%TA.AperFunction,Conductor*%
%TO.N,GND*%
G36*
X71972090Y-27444807D02*
G01*
X71983903Y-27454896D01*
X83209503Y-38680496D01*
X83237280Y-38735013D01*
X83227709Y-38795445D01*
X83184444Y-38838710D01*
X83139499Y-38849500D01*
X82105139Y-38849500D01*
X82105136Y-38849501D01*
X82080009Y-38852414D01*
X81977235Y-38897794D01*
X81897794Y-38977235D01*
X81852414Y-39080011D01*
X81849500Y-39105130D01*
X81849500Y-40789799D01*
X81830593Y-40847990D01*
X81820504Y-40859803D01*
X78934203Y-43746104D01*
X78879686Y-43773881D01*
X78864199Y-43775100D01*
X78792043Y-43775100D01*
X78639316Y-43816023D01*
X78502384Y-43895080D01*
X78409630Y-43987833D01*
X78355116Y-44015609D01*
X78294684Y-44006038D01*
X78269625Y-43987832D01*
X69936235Y-35654442D01*
X69908458Y-35599925D01*
X69910611Y-35558819D01*
X69936700Y-35461457D01*
X69936700Y-35303343D01*
X69895777Y-35150616D01*
X69816720Y-35013684D01*
X69704916Y-34901880D01*
X69567984Y-34822823D01*
X69415257Y-34781900D01*
X69257143Y-34781900D01*
X69104416Y-34822823D01*
X68967484Y-34901880D01*
X68855680Y-35013684D01*
X68776622Y-35150617D01*
X68776347Y-35151647D01*
X68775930Y-35152288D01*
X68774140Y-35156611D01*
X68773338Y-35156279D01*
X68743021Y-35202960D01*
X68685898Y-35224885D01*
X68626798Y-35209046D01*
X68610717Y-35196024D01*
X61009597Y-27594904D01*
X60981820Y-27540387D01*
X60991391Y-27479955D01*
X61034656Y-27436690D01*
X61079601Y-27425900D01*
X71913899Y-27425900D01*
X71972090Y-27444807D01*
G37*
%TD.AperFunction*%
%TA.AperFunction,Conductor*%
G36*
X63765590Y-22499407D02*
G01*
X63777403Y-22509496D01*
X65123604Y-23855697D01*
X65151381Y-23910214D01*
X65152600Y-23925701D01*
X65152600Y-23997857D01*
X65183339Y-24112579D01*
X65180138Y-24173678D01*
X65141632Y-24221228D01*
X65087713Y-24237200D01*
X53691106Y-24237200D01*
X53691090Y-24237199D01*
X53685027Y-24237199D01*
X53579573Y-24237199D01*
X53579570Y-24237199D01*
X53477713Y-24264492D01*
X53477709Y-24264494D01*
X53386387Y-24317219D01*
X53311819Y-24391786D01*
X53311820Y-24391787D01*
X53311818Y-24391789D01*
X53311817Y-24391789D01*
X52908447Y-24795158D01*
X52853931Y-24822935D01*
X52807852Y-24819309D01*
X52649406Y-24767828D01*
X52470549Y-24739500D01*
X52470546Y-24739500D01*
X52289454Y-24739500D01*
X52289451Y-24739500D01*
X52110593Y-24767828D01*
X51938362Y-24823788D01*
X51777008Y-24906002D01*
X51705192Y-24958180D01*
X51630499Y-25012447D01*
X51502447Y-25140499D01*
X51482617Y-25167793D01*
X51396002Y-25287008D01*
X51313788Y-25448362D01*
X51257828Y-25620593D01*
X51229500Y-25799450D01*
X51229500Y-25980549D01*
X51257828Y-26159406D01*
X51313789Y-26331640D01*
X51313791Y-26331646D01*
X51389869Y-26480955D01*
X51399441Y-26541387D01*
X51371664Y-26595903D01*
X51317147Y-26623681D01*
X51301660Y-26624900D01*
X45077901Y-26624900D01*
X45019710Y-26605993D01*
X45007897Y-26595904D01*
X41061497Y-22649504D01*
X41033720Y-22594987D01*
X41043291Y-22534555D01*
X41086556Y-22491290D01*
X41131501Y-22480500D01*
X63707399Y-22480500D01*
X63765590Y-22499407D01*
G37*
%TD.AperFunction*%
%TA.AperFunction,Conductor*%
G36*
X66635401Y-12419407D02*
G01*
X66671365Y-12468907D01*
X66671365Y-12530093D01*
X66657304Y-12557688D01*
X66646930Y-12571966D01*
X66636002Y-12587008D01*
X66553788Y-12748362D01*
X66497828Y-12920593D01*
X66469500Y-13099450D01*
X66469500Y-13280549D01*
X66497828Y-13459406D01*
X66553788Y-13631637D01*
X66610857Y-13743642D01*
X66636004Y-13792994D01*
X66742447Y-13939501D01*
X66870499Y-14067553D01*
X67017006Y-14173996D01*
X67178361Y-14256211D01*
X67350591Y-14312171D01*
X67412510Y-14321978D01*
X67529451Y-14340500D01*
X67529454Y-14340500D01*
X67710549Y-14340500D01*
X67799977Y-14326335D01*
X67889409Y-14312171D01*
X68061639Y-14256211D01*
X68222994Y-14173996D01*
X68369501Y-14067553D01*
X68497553Y-13939501D01*
X68603996Y-13792994D01*
X68686211Y-13631639D01*
X68742171Y-13459409D01*
X68770500Y-13280546D01*
X68770500Y-13099454D01*
X68770500Y-13099450D01*
X68749918Y-12969502D01*
X68742171Y-12920591D01*
X68686211Y-12748361D01*
X68603996Y-12587006D01*
X68582696Y-12557689D01*
X68563790Y-12499500D01*
X68582697Y-12441309D01*
X68632197Y-12405345D01*
X68662790Y-12400500D01*
X91000500Y-12400500D01*
X91058691Y-12419407D01*
X91094655Y-12468907D01*
X91099500Y-12499500D01*
X91099500Y-12668106D01*
X91110123Y-12756565D01*
X91165637Y-12897339D01*
X91165638Y-12897341D01*
X91165639Y-12897342D01*
X91257078Y-13017922D01*
X91377658Y-13109361D01*
X91377659Y-13109361D01*
X91377660Y-13109362D01*
X91391615Y-13114865D01*
X91518436Y-13164877D01*
X91606898Y-13175500D01*
X91795700Y-13175500D01*
X91853891Y-13194407D01*
X91889855Y-13243907D01*
X91889855Y-13305093D01*
X91865704Y-13344503D01*
X86395716Y-18814491D01*
X81002003Y-24208204D01*
X80947486Y-24235981D01*
X80931999Y-24237200D01*
X66418487Y-24237200D01*
X66360296Y-24218293D01*
X66324332Y-24168793D01*
X66322860Y-24112580D01*
X66353600Y-23997857D01*
X66353600Y-23839743D01*
X66312677Y-23687016D01*
X66233620Y-23550084D01*
X66121816Y-23438280D01*
X65984884Y-23359223D01*
X65832157Y-23318300D01*
X65832155Y-23318300D01*
X65760001Y-23318300D01*
X65701810Y-23299393D01*
X65689997Y-23289304D01*
X64935248Y-22534555D01*
X64160213Y-21759520D01*
X64160210Y-21759518D01*
X64160209Y-21759517D01*
X64160208Y-21759516D01*
X64068891Y-21706794D01*
X64068893Y-21706794D01*
X64029370Y-21696204D01*
X63967027Y-21679500D01*
X63967025Y-21679500D01*
X53364666Y-21679500D01*
X53306475Y-21660593D01*
X53270511Y-21611093D01*
X53270511Y-21549907D01*
X53284574Y-21522309D01*
X53299006Y-21502446D01*
X53363996Y-21412994D01*
X53446211Y-21251639D01*
X53502171Y-21079409D01*
X53530500Y-20900546D01*
X53530500Y-20719454D01*
X53530500Y-20719450D01*
X66469500Y-20719450D01*
X66469500Y-20900549D01*
X66497828Y-21079406D01*
X66553788Y-21251637D01*
X66626365Y-21394078D01*
X66636004Y-21412994D01*
X66742447Y-21559501D01*
X66870499Y-21687553D01*
X67017006Y-21793996D01*
X67178361Y-21876211D01*
X67350591Y-21932171D01*
X67422136Y-21943502D01*
X67529451Y-21960500D01*
X67529454Y-21960500D01*
X67710549Y-21960500D01*
X67799977Y-21946335D01*
X67889409Y-21932171D01*
X68061639Y-21876211D01*
X68222994Y-21793996D01*
X68369501Y-21687553D01*
X68497553Y-21559501D01*
X68603996Y-21412994D01*
X68686211Y-21251639D01*
X68742171Y-21079409D01*
X68770500Y-20900546D01*
X68770500Y-20719454D01*
X68770500Y-20719450D01*
X68749918Y-20589502D01*
X68742171Y-20540591D01*
X68686211Y-20368361D01*
X68603996Y-20207006D01*
X68497553Y-20060499D01*
X68369501Y-19932447D01*
X68222994Y-19826004D01*
X68222993Y-19826003D01*
X68222991Y-19826002D01*
X68061637Y-19743788D01*
X67889406Y-19687828D01*
X67710549Y-19659500D01*
X67710546Y-19659500D01*
X67529454Y-19659500D01*
X67529451Y-19659500D01*
X67350593Y-19687828D01*
X67178362Y-19743788D01*
X67017008Y-19826002D01*
X66943752Y-19879225D01*
X66870499Y-19932447D01*
X66742447Y-20060499D01*
X66706916Y-20109404D01*
X66636002Y-20207008D01*
X66553788Y-20368362D01*
X66497828Y-20540593D01*
X66469500Y-20719450D01*
X53530500Y-20719450D01*
X53509918Y-20589502D01*
X53502171Y-20540591D01*
X53472148Y-20448188D01*
X53472149Y-20387003D01*
X53496297Y-20347594D01*
X55664441Y-18179450D01*
X66469500Y-18179450D01*
X66469500Y-18360549D01*
X66497828Y-18539406D01*
X66553788Y-18711637D01*
X66620348Y-18842269D01*
X66636004Y-18872994D01*
X66742447Y-19019501D01*
X66870499Y-19147553D01*
X67017006Y-19253996D01*
X67178361Y-19336211D01*
X67350591Y-19392171D01*
X67422136Y-19403502D01*
X67529451Y-19420500D01*
X67529454Y-19420500D01*
X67710549Y-19420500D01*
X67799977Y-19406335D01*
X67889409Y-19392171D01*
X68061639Y-19336211D01*
X68222994Y-19253996D01*
X68369501Y-19147553D01*
X68497553Y-19019501D01*
X68603996Y-18872994D01*
X68686211Y-18711639D01*
X68742171Y-18539409D01*
X68760740Y-18422171D01*
X68770500Y-18360549D01*
X68770500Y-18179450D01*
X68749918Y-18049502D01*
X68742171Y-18000591D01*
X68686211Y-17828361D01*
X68603996Y-17667006D01*
X68497553Y-17520499D01*
X68369501Y-17392447D01*
X68222994Y-17286004D01*
X68222993Y-17286003D01*
X68222991Y-17286002D01*
X68061637Y-17203788D01*
X67889406Y-17147828D01*
X67710549Y-17119500D01*
X67710546Y-17119500D01*
X67529454Y-17119500D01*
X67529451Y-17119500D01*
X67350593Y-17147828D01*
X67178362Y-17203788D01*
X67017008Y-17286002D01*
X66943752Y-17339225D01*
X66870499Y-17392447D01*
X66742447Y-17520499D01*
X66706914Y-17569406D01*
X66636002Y-17667008D01*
X66553788Y-17828362D01*
X66497828Y-18000593D01*
X66469500Y-18179450D01*
X55664441Y-18179450D01*
X58204442Y-15639450D01*
X66469500Y-15639450D01*
X66469500Y-15820549D01*
X66497828Y-15999406D01*
X66553788Y-16171637D01*
X66590719Y-16244119D01*
X66636004Y-16332994D01*
X66742447Y-16479501D01*
X66870499Y-16607553D01*
X67017006Y-16713996D01*
X67178361Y-16796211D01*
X67350591Y-16852171D01*
X67422136Y-16863502D01*
X67529451Y-16880500D01*
X67529454Y-16880500D01*
X67710549Y-16880500D01*
X67799977Y-16866335D01*
X67889409Y-16852171D01*
X68061639Y-16796211D01*
X68222994Y-16713996D01*
X68369501Y-16607553D01*
X68497553Y-16479501D01*
X68603996Y-16332994D01*
X68686211Y-16171639D01*
X68742171Y-15999409D01*
X68766998Y-15842657D01*
X68770500Y-15820549D01*
X68770500Y-15639450D01*
X68749918Y-15509502D01*
X68742171Y-15460591D01*
X68686211Y-15288361D01*
X68603996Y-15127006D01*
X68497553Y-14980499D01*
X68369501Y-14852447D01*
X68222994Y-14746004D01*
X68222993Y-14746003D01*
X68222991Y-14746002D01*
X68061637Y-14663788D01*
X67889406Y-14607828D01*
X67710549Y-14579500D01*
X67710546Y-14579500D01*
X67529454Y-14579500D01*
X67529451Y-14579500D01*
X67350593Y-14607828D01*
X67178362Y-14663788D01*
X67017008Y-14746002D01*
X66943752Y-14799225D01*
X66870499Y-14852447D01*
X66742447Y-14980499D01*
X66706914Y-15029406D01*
X66636002Y-15127008D01*
X66553788Y-15288362D01*
X66497828Y-15460593D01*
X66469500Y-15639450D01*
X58204442Y-15639450D01*
X61414397Y-12429496D01*
X61468914Y-12401719D01*
X61484401Y-12400500D01*
X66577210Y-12400500D01*
X66635401Y-12419407D01*
G37*
%TD.AperFunction*%
%TA.AperFunction,Conductor*%
G36*
X97002992Y-500681D02*
G01*
X97295309Y-518362D01*
X97307164Y-519802D01*
X97592280Y-572051D01*
X97603882Y-574911D01*
X97880623Y-661147D01*
X97891786Y-665380D01*
X98152200Y-782583D01*
X98156118Y-784347D01*
X98166690Y-789895D01*
X98414770Y-939864D01*
X98424583Y-946638D01*
X98652755Y-1125400D01*
X98661704Y-1133327D01*
X98866672Y-1338295D01*
X98874599Y-1347244D01*
X99053356Y-1575409D01*
X99060138Y-1585233D01*
X99210100Y-1833303D01*
X99215652Y-1843881D01*
X99334616Y-2108206D01*
X99338855Y-2119384D01*
X99425087Y-2396114D01*
X99427948Y-2407722D01*
X99480196Y-2692828D01*
X99481637Y-2704695D01*
X99489627Y-2836776D01*
X99496963Y-2958066D01*
X99499319Y-2997006D01*
X99499500Y-3002984D01*
X99499500Y-66997015D01*
X99499319Y-67002993D01*
X99481637Y-67295304D01*
X99480196Y-67307171D01*
X99427948Y-67592277D01*
X99425087Y-67603885D01*
X99338855Y-67880615D01*
X99334616Y-67891793D01*
X99215652Y-68156118D01*
X99210096Y-68166703D01*
X99060142Y-68414758D01*
X99053356Y-68424590D01*
X98874599Y-68652755D01*
X98866672Y-68661704D01*
X98661704Y-68866672D01*
X98652755Y-68874599D01*
X98424590Y-69053356D01*
X98414758Y-69060142D01*
X98177212Y-69203744D01*
X98166703Y-69210097D01*
X98156118Y-69215652D01*
X97891793Y-69334616D01*
X97880615Y-69338855D01*
X97603885Y-69425087D01*
X97592277Y-69427948D01*
X97307171Y-69480196D01*
X97295304Y-69481637D01*
X97023993Y-69498048D01*
X97002991Y-69499319D01*
X96997015Y-69499500D01*
X3002985Y-69499500D01*
X2997008Y-69499319D01*
X2973564Y-69497900D01*
X2704695Y-69481637D01*
X2692828Y-69480196D01*
X2407722Y-69427948D01*
X2396114Y-69425087D01*
X2119384Y-69338855D01*
X2108206Y-69334616D01*
X1843881Y-69215652D01*
X1833303Y-69210100D01*
X1585233Y-69060138D01*
X1575413Y-69053359D01*
X1347244Y-68874599D01*
X1338295Y-68866672D01*
X1133327Y-68661704D01*
X1125400Y-68652755D01*
X946638Y-68424583D01*
X939864Y-68414770D01*
X789895Y-68166690D01*
X784347Y-68156118D01*
X665383Y-67891793D01*
X661147Y-67880623D01*
X574911Y-67603882D01*
X572051Y-67592277D01*
X557752Y-67514250D01*
X519802Y-67307164D01*
X518362Y-67295303D01*
X500681Y-67002992D01*
X500500Y-66997015D01*
X500500Y-65378710D01*
X2649500Y-65378710D01*
X2649500Y-65621289D01*
X2681161Y-65861781D01*
X2681161Y-65861786D01*
X2743944Y-66096092D01*
X2743948Y-66096105D01*
X2836772Y-66320204D01*
X2836774Y-66320208D01*
X2836776Y-66320212D01*
X2958064Y-66530289D01*
X2958066Y-66530292D01*
X3105729Y-66722731D01*
X3105731Y-66722733D01*
X3105735Y-66722738D01*
X3277262Y-66894265D01*
X3277266Y-66894268D01*
X3277268Y-66894270D01*
X3415059Y-67000000D01*
X3469711Y-67041936D01*
X3679788Y-67163224D01*
X3903900Y-67256054D01*
X4138211Y-67318838D01*
X4378712Y-67350500D01*
X4378713Y-67350500D01*
X4621287Y-67350500D01*
X4621288Y-67350500D01*
X4861789Y-67318838D01*
X5096100Y-67256054D01*
X5320212Y-67163224D01*
X5530289Y-67041936D01*
X5722738Y-66894265D01*
X5894265Y-66722738D01*
X6041936Y-66530289D01*
X6163224Y-66320212D01*
X6256054Y-66096100D01*
X6318838Y-65861789D01*
X6350500Y-65621288D01*
X6350500Y-65378712D01*
X6350500Y-65378710D01*
X93649500Y-65378710D01*
X93649500Y-65621289D01*
X93681161Y-65861781D01*
X93681161Y-65861786D01*
X93743944Y-66096092D01*
X93743948Y-66096105D01*
X93836772Y-66320204D01*
X93836774Y-66320208D01*
X93836776Y-66320212D01*
X93958064Y-66530289D01*
X93958066Y-66530292D01*
X94105729Y-66722731D01*
X94105731Y-66722733D01*
X94105735Y-66722738D01*
X94277262Y-66894265D01*
X94277266Y-66894268D01*
X94277268Y-66894270D01*
X94415059Y-67000000D01*
X94469711Y-67041936D01*
X94679788Y-67163224D01*
X94903900Y-67256054D01*
X95138211Y-67318838D01*
X95378712Y-67350500D01*
X95378713Y-67350500D01*
X95621287Y-67350500D01*
X95621288Y-67350500D01*
X95861789Y-67318838D01*
X96096100Y-67256054D01*
X96320212Y-67163224D01*
X96530289Y-67041936D01*
X96722738Y-66894265D01*
X96894265Y-66722738D01*
X97041936Y-66530289D01*
X97163224Y-66320212D01*
X97256054Y-66096100D01*
X97318838Y-65861789D01*
X97350500Y-65621288D01*
X97350500Y-65378712D01*
X97318838Y-65138211D01*
X97256054Y-64903900D01*
X97163224Y-64679788D01*
X97041936Y-64469711D01*
X96894265Y-64277262D01*
X96722738Y-64105735D01*
X96722733Y-64105731D01*
X96722731Y-64105729D01*
X96530292Y-63958066D01*
X96530289Y-63958064D01*
X96320212Y-63836776D01*
X96320208Y-63836774D01*
X96320204Y-63836772D01*
X96096105Y-63743948D01*
X96096104Y-63743947D01*
X96096100Y-63743946D01*
X95861789Y-63681162D01*
X95861786Y-63681161D01*
X95861784Y-63681161D01*
X95621289Y-63649500D01*
X95621288Y-63649500D01*
X95378712Y-63649500D01*
X95378710Y-63649500D01*
X95138218Y-63681161D01*
X95138213Y-63681161D01*
X94903907Y-63743944D01*
X94903894Y-63743948D01*
X94679795Y-63836772D01*
X94469707Y-63958066D01*
X94277268Y-64105729D01*
X94105729Y-64277268D01*
X93958066Y-64469707D01*
X93836772Y-64679795D01*
X93743948Y-64903894D01*
X93743944Y-64903907D01*
X93681161Y-65138213D01*
X93681161Y-65138218D01*
X93649500Y-65378710D01*
X6350500Y-65378710D01*
X6318838Y-65138211D01*
X6256054Y-64903900D01*
X6163224Y-64679788D01*
X6041936Y-64469711D01*
X5894265Y-64277262D01*
X5722738Y-64105735D01*
X5722733Y-64105731D01*
X5722731Y-64105729D01*
X5530292Y-63958066D01*
X5530289Y-63958064D01*
X5320212Y-63836776D01*
X5320208Y-63836774D01*
X5320204Y-63836772D01*
X5096105Y-63743948D01*
X5096104Y-63743947D01*
X5096100Y-63743946D01*
X4861789Y-63681162D01*
X4861786Y-63681161D01*
X4861784Y-63681161D01*
X4621289Y-63649500D01*
X4621288Y-63649500D01*
X4378712Y-63649500D01*
X4378710Y-63649500D01*
X4138218Y-63681161D01*
X4138213Y-63681161D01*
X3903907Y-63743944D01*
X3903894Y-63743948D01*
X3679795Y-63836772D01*
X3469707Y-63958066D01*
X3277268Y-64105729D01*
X3105729Y-64277268D01*
X2958066Y-64469707D01*
X2836772Y-64679795D01*
X2743948Y-64903894D01*
X2743944Y-64903907D01*
X2681161Y-65138213D01*
X2681161Y-65138218D01*
X2649500Y-65378710D01*
X500500Y-65378710D01*
X500500Y-61819234D01*
X16534500Y-61819234D01*
X16534500Y-61970766D01*
X16569086Y-62099847D01*
X16573720Y-62117139D01*
X16649481Y-62248360D01*
X16649483Y-62248362D01*
X16649485Y-62248365D01*
X16756635Y-62355515D01*
X16756637Y-62355516D01*
X16756639Y-62355518D01*
X16887861Y-62431279D01*
X16887859Y-62431279D01*
X16887863Y-62431280D01*
X16887865Y-62431281D01*
X17034234Y-62470500D01*
X17034236Y-62470500D01*
X17185764Y-62470500D01*
X17185766Y-62470500D01*
X17332135Y-62431281D01*
X17332137Y-62431279D01*
X17332139Y-62431279D01*
X17463360Y-62355518D01*
X17463360Y-62355517D01*
X17463365Y-62355515D01*
X17570515Y-62248365D01*
X17646281Y-62117135D01*
X17685500Y-61970766D01*
X17685500Y-61819234D01*
X22314500Y-61819234D01*
X22314500Y-61970766D01*
X22349086Y-62099847D01*
X22353720Y-62117139D01*
X22429481Y-62248360D01*
X22429483Y-62248362D01*
X22429485Y-62248365D01*
X22536635Y-62355515D01*
X22536637Y-62355516D01*
X22536639Y-62355518D01*
X22667861Y-62431279D01*
X22667859Y-62431279D01*
X22667863Y-62431280D01*
X22667865Y-62431281D01*
X22814234Y-62470500D01*
X22814236Y-62470500D01*
X22965764Y-62470500D01*
X22965766Y-62470500D01*
X23112135Y-62431281D01*
X23112137Y-62431279D01*
X23112139Y-62431279D01*
X23243360Y-62355518D01*
X23243360Y-62355517D01*
X23243365Y-62355515D01*
X23350515Y-62248365D01*
X23426281Y-62117135D01*
X23465500Y-61970766D01*
X23465500Y-61819234D01*
X23426281Y-61672865D01*
X23426279Y-61672862D01*
X23426279Y-61672860D01*
X23350518Y-61541639D01*
X23350516Y-61541637D01*
X23350515Y-61541635D01*
X23243365Y-61434485D01*
X23243362Y-61434483D01*
X23243360Y-61434481D01*
X23112138Y-61358720D01*
X23112140Y-61358720D01*
X23055347Y-61343503D01*
X22965766Y-61319500D01*
X22814234Y-61319500D01*
X22724652Y-61343503D01*
X22667860Y-61358720D01*
X22536639Y-61434481D01*
X22429481Y-61541639D01*
X22353720Y-61672860D01*
X22353719Y-61672865D01*
X22314500Y-61819234D01*
X17685500Y-61819234D01*
X17646281Y-61672865D01*
X17646279Y-61672862D01*
X17646279Y-61672860D01*
X17570518Y-61541639D01*
X17570516Y-61541637D01*
X17570515Y-61541635D01*
X17463365Y-61434485D01*
X17463362Y-61434483D01*
X17463360Y-61434481D01*
X17332138Y-61358720D01*
X17332140Y-61358720D01*
X17275347Y-61343503D01*
X17185766Y-61319500D01*
X17034234Y-61319500D01*
X16944652Y-61343503D01*
X16887860Y-61358720D01*
X16756639Y-61434481D01*
X16649481Y-61541639D01*
X16573720Y-61672860D01*
X16573719Y-61672865D01*
X16534500Y-61819234D01*
X500500Y-61819234D01*
X500500Y-58519450D01*
X11218500Y-58519450D01*
X11218500Y-58700549D01*
X11246828Y-58879406D01*
X11302788Y-59051637D01*
X11353161Y-59150500D01*
X11385004Y-59212994D01*
X11491447Y-59359501D01*
X11619499Y-59487553D01*
X11766006Y-59593996D01*
X11927361Y-59676211D01*
X12099591Y-59732171D01*
X12171136Y-59743502D01*
X12278451Y-59760500D01*
X12278454Y-59760500D01*
X12459549Y-59760500D01*
X12548977Y-59746335D01*
X12638409Y-59732171D01*
X12810639Y-59676211D01*
X12971994Y-59593996D01*
X13118501Y-59487553D01*
X13246553Y-59359501D01*
X13352996Y-59212994D01*
X13435211Y-59051639D01*
X13491171Y-58879409D01*
X13511746Y-58749502D01*
X13519500Y-58700549D01*
X13519500Y-58519450D01*
X13496337Y-58373207D01*
X13491171Y-58340591D01*
X13435211Y-58168361D01*
X13352996Y-58007006D01*
X13246553Y-57860499D01*
X13118501Y-57732447D01*
X12971994Y-57626004D01*
X12971993Y-57626003D01*
X12971991Y-57626002D01*
X12810637Y-57543788D01*
X12638406Y-57487828D01*
X12459549Y-57459500D01*
X12459546Y-57459500D01*
X12278454Y-57459500D01*
X12278451Y-57459500D01*
X12099593Y-57487828D01*
X11927362Y-57543788D01*
X11766008Y-57626002D01*
X11692752Y-57679225D01*
X11619499Y-57732447D01*
X11491447Y-57860499D01*
X11455882Y-57909450D01*
X11385002Y-58007008D01*
X11302788Y-58168362D01*
X11246828Y-58340593D01*
X11218500Y-58519450D01*
X500500Y-58519450D01*
X500500Y-55979450D01*
X11218500Y-55979450D01*
X11218500Y-56160549D01*
X11246828Y-56339406D01*
X11246829Y-56339409D01*
X11302789Y-56511639D01*
X11385004Y-56672994D01*
X11491447Y-56819501D01*
X11619499Y-56947553D01*
X11766006Y-57053996D01*
X11927361Y-57136211D01*
X12099591Y-57192171D01*
X12171136Y-57203502D01*
X12278451Y-57220500D01*
X12278454Y-57220500D01*
X12459549Y-57220500D01*
X12548977Y-57206335D01*
X12638409Y-57192171D01*
X12810639Y-57136211D01*
X12971994Y-57053996D01*
X13118501Y-56947553D01*
X13246553Y-56819501D01*
X13352996Y-56672994D01*
X13435211Y-56511639D01*
X13491171Y-56339409D01*
X13519500Y-56160546D01*
X13519500Y-55979454D01*
X13519500Y-55979450D01*
X13491171Y-55800593D01*
X13491171Y-55800591D01*
X13435211Y-55628361D01*
X13352996Y-55467006D01*
X13246553Y-55320499D01*
X13118501Y-55192447D01*
X12971994Y-55086004D01*
X12971993Y-55086003D01*
X12971991Y-55086002D01*
X12810637Y-55003788D01*
X12638406Y-54947828D01*
X12459549Y-54919500D01*
X12459546Y-54919500D01*
X12278454Y-54919500D01*
X12278451Y-54919500D01*
X12099593Y-54947828D01*
X11927362Y-55003788D01*
X11766008Y-55086002D01*
X11692752Y-55139225D01*
X11619499Y-55192447D01*
X11491447Y-55320499D01*
X11438225Y-55393752D01*
X11385002Y-55467008D01*
X11302788Y-55628362D01*
X11246828Y-55800593D01*
X11218500Y-55979450D01*
X500500Y-55979450D01*
X500500Y-53439450D01*
X11218500Y-53439450D01*
X11218500Y-53620549D01*
X11246828Y-53799406D01*
X11246829Y-53799409D01*
X11302789Y-53971639D01*
X11385004Y-54132994D01*
X11491447Y-54279501D01*
X11619499Y-54407553D01*
X11766006Y-54513996D01*
X11927361Y-54596211D01*
X12099591Y-54652171D01*
X12171136Y-54663502D01*
X12278451Y-54680500D01*
X12278454Y-54680500D01*
X12459549Y-54680500D01*
X12548977Y-54666335D01*
X12638409Y-54652171D01*
X12810639Y-54596211D01*
X12971994Y-54513996D01*
X13118501Y-54407553D01*
X13246553Y-54279501D01*
X13352996Y-54132994D01*
X13435211Y-53971639D01*
X13491171Y-53799409D01*
X13519500Y-53620546D01*
X13519500Y-53439454D01*
X13519500Y-53439450D01*
X13491171Y-53260593D01*
X13491171Y-53260591D01*
X13435211Y-53088361D01*
X13352996Y-52927006D01*
X13246553Y-52780499D01*
X13118501Y-52652447D01*
X12971994Y-52546004D01*
X12971993Y-52546003D01*
X12971991Y-52546002D01*
X12810637Y-52463788D01*
X12638406Y-52407828D01*
X12459549Y-52379500D01*
X12459546Y-52379500D01*
X12278454Y-52379500D01*
X12278451Y-52379500D01*
X12099593Y-52407828D01*
X11927362Y-52463788D01*
X11766008Y-52546002D01*
X11692752Y-52599225D01*
X11619499Y-52652447D01*
X11491447Y-52780499D01*
X11438225Y-52853752D01*
X11385002Y-52927008D01*
X11302788Y-53088362D01*
X11246828Y-53260593D01*
X11218500Y-53439450D01*
X500500Y-53439450D01*
X500500Y-47689450D01*
X12599500Y-47689450D01*
X12599500Y-47870549D01*
X12627828Y-48049406D01*
X12683788Y-48221637D01*
X12759128Y-48369501D01*
X12766004Y-48382994D01*
X12872447Y-48529501D01*
X13000499Y-48657553D01*
X13147006Y-48763996D01*
X13308361Y-48846211D01*
X13480591Y-48902171D01*
X13552136Y-48913502D01*
X13659451Y-48930500D01*
X13659454Y-48930500D01*
X13840549Y-48930500D01*
X13929977Y-48916335D01*
X14019409Y-48902171D01*
X14191639Y-48846211D01*
X14352994Y-48763996D01*
X14499501Y-48657553D01*
X14627553Y-48529501D01*
X14733996Y-48382994D01*
X14816211Y-48221639D01*
X14872171Y-48049409D01*
X14886335Y-47959977D01*
X14900500Y-47870549D01*
X14900500Y-47689450D01*
X37099500Y-47689450D01*
X37099500Y-47870549D01*
X37127828Y-48049406D01*
X37183788Y-48221637D01*
X37259128Y-48369501D01*
X37266004Y-48382994D01*
X37372447Y-48529501D01*
X37500499Y-48657553D01*
X37647006Y-48763996D01*
X37808361Y-48846211D01*
X37980591Y-48902171D01*
X38052136Y-48913502D01*
X38159451Y-48930500D01*
X38159454Y-48930500D01*
X38340549Y-48930500D01*
X38429977Y-48916335D01*
X38519409Y-48902171D01*
X38691639Y-48846211D01*
X38852994Y-48763996D01*
X38999501Y-48657553D01*
X39127553Y-48529501D01*
X39233996Y-48382994D01*
X39309630Y-48234553D01*
X39352894Y-48191290D01*
X39397839Y-48180500D01*
X71449425Y-48180500D01*
X71449427Y-48180500D01*
X71551288Y-48153207D01*
X71551290Y-48153205D01*
X71551292Y-48153205D01*
X71642608Y-48100483D01*
X71642608Y-48100482D01*
X71642613Y-48100480D01*
X73138597Y-46604496D01*
X73193114Y-46576719D01*
X73208601Y-46575500D01*
X73280755Y-46575500D01*
X73280757Y-46575500D01*
X73433484Y-46534577D01*
X73570416Y-46455520D01*
X73682220Y-46343716D01*
X73761277Y-46206784D01*
X73802200Y-46054057D01*
X73802200Y-45895943D01*
X73761277Y-45743216D01*
X73682220Y-45606284D01*
X73570416Y-45494480D01*
X73433484Y-45415423D01*
X73280757Y-45374500D01*
X73122643Y-45374500D01*
X72969916Y-45415423D01*
X72832984Y-45494480D01*
X72721180Y-45606284D01*
X72642123Y-45743216D01*
X72601200Y-45895944D01*
X72601200Y-45968099D01*
X72582293Y-46026290D01*
X72572204Y-46038103D01*
X71259803Y-47350504D01*
X71205286Y-47378281D01*
X71189799Y-47379500D01*
X39397839Y-47379500D01*
X39339648Y-47360593D01*
X39309631Y-47325447D01*
X39233996Y-47177006D01*
X39127553Y-47030499D01*
X38999501Y-46902447D01*
X38852994Y-46796004D01*
X38852993Y-46796003D01*
X38852991Y-46796002D01*
X38691637Y-46713788D01*
X38519406Y-46657828D01*
X38340549Y-46629500D01*
X38340546Y-46629500D01*
X38159454Y-46629500D01*
X38159451Y-46629500D01*
X37980593Y-46657828D01*
X37808362Y-46713788D01*
X37647008Y-46796002D01*
X37573752Y-46849225D01*
X37500499Y-46902447D01*
X37372447Y-47030499D01*
X37319225Y-47103752D01*
X37266002Y-47177008D01*
X37183788Y-47338362D01*
X37127828Y-47510593D01*
X37099500Y-47689450D01*
X14900500Y-47689450D01*
X14881614Y-47570212D01*
X14872171Y-47510591D01*
X14816211Y-47338361D01*
X14733996Y-47177006D01*
X14627553Y-47030499D01*
X14499501Y-46902447D01*
X14352994Y-46796004D01*
X14352993Y-46796003D01*
X14352991Y-46796002D01*
X14191637Y-46713788D01*
X14019406Y-46657828D01*
X13840549Y-46629500D01*
X13840546Y-46629500D01*
X13659454Y-46629500D01*
X13659451Y-46629500D01*
X13480593Y-46657828D01*
X13308362Y-46713788D01*
X13147008Y-46796002D01*
X13073752Y-46849225D01*
X13000499Y-46902447D01*
X12872447Y-47030499D01*
X12819225Y-47103752D01*
X12766002Y-47177008D01*
X12683788Y-47338362D01*
X12627828Y-47510593D01*
X12599500Y-47689450D01*
X500500Y-47689450D01*
X500500Y-42609450D01*
X12599500Y-42609450D01*
X12599500Y-42790549D01*
X12627828Y-42969406D01*
X12627829Y-42969409D01*
X12683789Y-43141639D01*
X12766004Y-43302994D01*
X12872447Y-43449501D01*
X13000499Y-43577553D01*
X13147006Y-43683996D01*
X13308361Y-43766211D01*
X13480591Y-43822171D01*
X13552136Y-43833502D01*
X13659451Y-43850500D01*
X13659454Y-43850500D01*
X13840549Y-43850500D01*
X13929977Y-43836335D01*
X14019409Y-43822171D01*
X14191639Y-43766211D01*
X14352994Y-43683996D01*
X14499501Y-43577553D01*
X14627553Y-43449501D01*
X14733996Y-43302994D01*
X14816211Y-43141639D01*
X14872171Y-42969409D01*
X14886335Y-42879977D01*
X14900500Y-42790549D01*
X14900500Y-42609450D01*
X37099500Y-42609450D01*
X37099500Y-42790549D01*
X37127828Y-42969406D01*
X37127829Y-42969409D01*
X37183789Y-43141639D01*
X37266004Y-43302994D01*
X37372447Y-43449501D01*
X37500499Y-43577553D01*
X37647006Y-43683996D01*
X37808361Y-43766211D01*
X37980591Y-43822171D01*
X38052136Y-43833502D01*
X38159451Y-43850500D01*
X38159454Y-43850500D01*
X38340549Y-43850500D01*
X38429977Y-43836335D01*
X38519409Y-43822171D01*
X38691639Y-43766211D01*
X38852994Y-43683996D01*
X38999501Y-43577553D01*
X39127553Y-43449501D01*
X39233996Y-43302994D01*
X39316211Y-43141639D01*
X39372171Y-42969409D01*
X39386335Y-42879977D01*
X39400500Y-42790549D01*
X39400500Y-42609450D01*
X39372171Y-42430593D01*
X39372171Y-42430591D01*
X39316211Y-42258361D01*
X39233996Y-42097006D01*
X39127553Y-41950499D01*
X38999501Y-41822447D01*
X38852994Y-41716004D01*
X38852993Y-41716003D01*
X38852991Y-41716002D01*
X38691637Y-41633788D01*
X38519406Y-41577828D01*
X38340549Y-41549500D01*
X38340546Y-41549500D01*
X38159454Y-41549500D01*
X38159451Y-41549500D01*
X37980593Y-41577828D01*
X37808362Y-41633788D01*
X37647008Y-41716002D01*
X37582321Y-41763000D01*
X37500499Y-41822447D01*
X37372447Y-41950499D01*
X37363365Y-41963000D01*
X37266002Y-42097008D01*
X37183788Y-42258362D01*
X37127828Y-42430593D01*
X37099500Y-42609450D01*
X14900500Y-42609450D01*
X14872171Y-42430593D01*
X14872171Y-42430591D01*
X14816211Y-42258361D01*
X14733996Y-42097006D01*
X14627553Y-41950499D01*
X14499501Y-41822447D01*
X14352994Y-41716004D01*
X14352993Y-41716003D01*
X14352991Y-41716002D01*
X14191637Y-41633788D01*
X14019406Y-41577828D01*
X13840549Y-41549500D01*
X13840546Y-41549500D01*
X13659454Y-41549500D01*
X13659451Y-41549500D01*
X13480593Y-41577828D01*
X13308362Y-41633788D01*
X13147008Y-41716002D01*
X13082321Y-41763000D01*
X13000499Y-41822447D01*
X12872447Y-41950499D01*
X12863365Y-41963000D01*
X12766002Y-42097008D01*
X12683788Y-42258362D01*
X12627828Y-42430593D01*
X12599500Y-42609450D01*
X500500Y-42609450D01*
X500500Y-40069450D01*
X12599500Y-40069450D01*
X12599500Y-40250549D01*
X12627828Y-40429406D01*
X12683788Y-40601637D01*
X12765497Y-40762000D01*
X12766004Y-40762994D01*
X12872447Y-40909501D01*
X13000499Y-41037553D01*
X13147006Y-41143996D01*
X13308361Y-41226211D01*
X13480591Y-41282171D01*
X13552136Y-41293502D01*
X13659451Y-41310500D01*
X13659454Y-41310500D01*
X13840549Y-41310500D01*
X13929977Y-41296335D01*
X14019409Y-41282171D01*
X14191639Y-41226211D01*
X14352994Y-41143996D01*
X14499501Y-41037553D01*
X14627553Y-40909501D01*
X14733996Y-40762994D01*
X14816211Y-40601639D01*
X14872171Y-40429409D01*
X14900500Y-40250546D01*
X14900500Y-40069454D01*
X14900500Y-40069450D01*
X37099500Y-40069450D01*
X37099500Y-40250549D01*
X37127828Y-40429406D01*
X37183788Y-40601637D01*
X37265497Y-40762000D01*
X37266004Y-40762994D01*
X37372447Y-40909501D01*
X37500499Y-41037553D01*
X37647006Y-41143996D01*
X37808361Y-41226211D01*
X37980591Y-41282171D01*
X38052136Y-41293502D01*
X38159451Y-41310500D01*
X38159454Y-41310500D01*
X38340549Y-41310500D01*
X38429977Y-41296335D01*
X38519409Y-41282171D01*
X38691639Y-41226211D01*
X38852994Y-41143996D01*
X38999501Y-41037553D01*
X39127553Y-40909501D01*
X39233996Y-40762994D01*
X39316211Y-40601639D01*
X39372171Y-40429409D01*
X39400500Y-40250546D01*
X39400500Y-40069454D01*
X39400500Y-40069450D01*
X39372171Y-39890593D01*
X39372171Y-39890591D01*
X39316211Y-39718361D01*
X39233996Y-39557006D01*
X39127553Y-39410499D01*
X38999501Y-39282447D01*
X38852994Y-39176004D01*
X38852993Y-39176003D01*
X38852991Y-39176002D01*
X38691637Y-39093788D01*
X38519406Y-39037828D01*
X38340549Y-39009500D01*
X38340546Y-39009500D01*
X38159454Y-39009500D01*
X38159451Y-39009500D01*
X37980593Y-39037828D01*
X37808362Y-39093788D01*
X37647008Y-39176002D01*
X37573752Y-39229225D01*
X37500499Y-39282447D01*
X37372447Y-39410499D01*
X37319225Y-39483752D01*
X37266002Y-39557008D01*
X37183788Y-39718362D01*
X37127828Y-39890593D01*
X37099500Y-40069450D01*
X14900500Y-40069450D01*
X14872171Y-39890593D01*
X14872171Y-39890591D01*
X14816211Y-39718361D01*
X14733996Y-39557006D01*
X14627553Y-39410499D01*
X14499501Y-39282447D01*
X14352994Y-39176004D01*
X14352993Y-39176003D01*
X14352991Y-39176002D01*
X14191637Y-39093788D01*
X14019406Y-39037828D01*
X13840549Y-39009500D01*
X13840546Y-39009500D01*
X13659454Y-39009500D01*
X13659451Y-39009500D01*
X13480593Y-39037828D01*
X13308362Y-39093788D01*
X13147008Y-39176002D01*
X13073752Y-39229225D01*
X13000499Y-39282447D01*
X12872447Y-39410499D01*
X12819225Y-39483752D01*
X12766002Y-39557008D01*
X12683788Y-39718362D01*
X12627828Y-39890593D01*
X12599500Y-40069450D01*
X500500Y-40069450D01*
X500500Y-37529450D01*
X12599500Y-37529450D01*
X12599500Y-37710549D01*
X12627828Y-37889406D01*
X12627829Y-37889409D01*
X12683789Y-38061639D01*
X12766004Y-38222994D01*
X12872447Y-38369501D01*
X13000499Y-38497553D01*
X13147006Y-38603996D01*
X13308361Y-38686211D01*
X13480591Y-38742171D01*
X13552136Y-38753502D01*
X13659451Y-38770500D01*
X13659454Y-38770500D01*
X13840549Y-38770500D01*
X13929977Y-38756335D01*
X14019409Y-38742171D01*
X14191639Y-38686211D01*
X14352994Y-38603996D01*
X14499501Y-38497553D01*
X14627553Y-38369501D01*
X14733996Y-38222994D01*
X14816211Y-38061639D01*
X14872171Y-37889409D01*
X14900500Y-37710546D01*
X14900500Y-37529454D01*
X14900500Y-37529450D01*
X37099500Y-37529450D01*
X37099500Y-37710549D01*
X37127828Y-37889406D01*
X37127829Y-37889409D01*
X37183789Y-38061639D01*
X37266004Y-38222994D01*
X37372447Y-38369501D01*
X37500499Y-38497553D01*
X37647006Y-38603996D01*
X37808361Y-38686211D01*
X37980591Y-38742171D01*
X38052136Y-38753502D01*
X38159451Y-38770500D01*
X38159454Y-38770500D01*
X38340549Y-38770500D01*
X38429977Y-38756335D01*
X38519409Y-38742171D01*
X38691639Y-38686211D01*
X38852994Y-38603996D01*
X38999501Y-38497553D01*
X39127553Y-38369501D01*
X39233996Y-38222994D01*
X39316211Y-38061639D01*
X39372171Y-37889409D01*
X39400500Y-37710546D01*
X39400500Y-37529454D01*
X39400500Y-37529450D01*
X39372171Y-37350593D01*
X39372171Y-37350591D01*
X39316211Y-37178361D01*
X39233996Y-37017006D01*
X39127553Y-36870499D01*
X38999501Y-36742447D01*
X38852994Y-36636004D01*
X38852993Y-36636003D01*
X38852991Y-36636002D01*
X38691637Y-36553788D01*
X38519406Y-36497828D01*
X38340549Y-36469500D01*
X38340546Y-36469500D01*
X38159454Y-36469500D01*
X38159451Y-36469500D01*
X37980593Y-36497828D01*
X37808362Y-36553788D01*
X37647008Y-36636002D01*
X37573752Y-36689225D01*
X37500499Y-36742447D01*
X37372447Y-36870499D01*
X37319225Y-36943752D01*
X37266002Y-37017008D01*
X37183788Y-37178362D01*
X37127828Y-37350593D01*
X37099500Y-37529450D01*
X14900500Y-37529450D01*
X14872171Y-37350593D01*
X14872171Y-37350591D01*
X14816211Y-37178361D01*
X14733996Y-37017006D01*
X14627553Y-36870499D01*
X14499501Y-36742447D01*
X14352994Y-36636004D01*
X14352993Y-36636003D01*
X14352991Y-36636002D01*
X14191637Y-36553788D01*
X14019406Y-36497828D01*
X13840549Y-36469500D01*
X13840546Y-36469500D01*
X13659454Y-36469500D01*
X13659451Y-36469500D01*
X13480593Y-36497828D01*
X13308362Y-36553788D01*
X13147008Y-36636002D01*
X13073752Y-36689225D01*
X13000499Y-36742447D01*
X12872447Y-36870499D01*
X12819225Y-36943752D01*
X12766002Y-37017008D01*
X12683788Y-37178362D01*
X12627828Y-37350593D01*
X12599500Y-37529450D01*
X500500Y-37529450D01*
X500500Y-34989450D01*
X12599500Y-34989450D01*
X12599500Y-35170549D01*
X12627828Y-35349406D01*
X12627829Y-35349409D01*
X12683789Y-35521639D01*
X12766004Y-35682994D01*
X12872447Y-35829501D01*
X13000499Y-35957553D01*
X13147006Y-36063996D01*
X13308361Y-36146211D01*
X13480591Y-36202171D01*
X13552136Y-36213502D01*
X13659451Y-36230500D01*
X13659454Y-36230500D01*
X13840549Y-36230500D01*
X13929977Y-36216335D01*
X14019409Y-36202171D01*
X14191639Y-36146211D01*
X14352994Y-36063996D01*
X14499501Y-35957553D01*
X14627553Y-35829501D01*
X14733996Y-35682994D01*
X14816211Y-35521639D01*
X14872171Y-35349409D01*
X14900500Y-35170546D01*
X14900500Y-34989454D01*
X14900500Y-34989450D01*
X37099500Y-34989450D01*
X37099500Y-35170549D01*
X37127828Y-35349406D01*
X37127829Y-35349409D01*
X37183789Y-35521639D01*
X37266004Y-35682994D01*
X37372447Y-35829501D01*
X37500499Y-35957553D01*
X37647006Y-36063996D01*
X37808361Y-36146211D01*
X37980591Y-36202171D01*
X38052136Y-36213502D01*
X38159451Y-36230500D01*
X38159454Y-36230500D01*
X38340549Y-36230500D01*
X38429977Y-36216335D01*
X38519409Y-36202171D01*
X38691639Y-36146211D01*
X38852994Y-36063996D01*
X38999501Y-35957553D01*
X39127553Y-35829501D01*
X39233996Y-35682994D01*
X39316211Y-35521639D01*
X39372171Y-35349409D01*
X39400500Y-35170546D01*
X39400500Y-34989454D01*
X39400500Y-34989450D01*
X39372171Y-34810593D01*
X39372171Y-34810591D01*
X39316211Y-34638361D01*
X39233996Y-34477006D01*
X39127553Y-34330499D01*
X38999501Y-34202447D01*
X38852994Y-34096004D01*
X38852993Y-34096003D01*
X38852991Y-34096002D01*
X38691637Y-34013788D01*
X38519406Y-33957828D01*
X38340549Y-33929500D01*
X38340546Y-33929500D01*
X38159454Y-33929500D01*
X38159451Y-33929500D01*
X37980593Y-33957828D01*
X37808362Y-34013788D01*
X37647008Y-34096002D01*
X37573752Y-34149225D01*
X37500499Y-34202447D01*
X37372447Y-34330499D01*
X37319225Y-34403752D01*
X37266002Y-34477008D01*
X37183788Y-34638362D01*
X37127828Y-34810593D01*
X37099500Y-34989450D01*
X14900500Y-34989450D01*
X14872171Y-34810593D01*
X14872171Y-34810591D01*
X14816211Y-34638361D01*
X14733996Y-34477006D01*
X14627553Y-34330499D01*
X14499501Y-34202447D01*
X14352994Y-34096004D01*
X14352993Y-34096003D01*
X14352991Y-34096002D01*
X14191637Y-34013788D01*
X14019406Y-33957828D01*
X13840549Y-33929500D01*
X13840546Y-33929500D01*
X13659454Y-33929500D01*
X13659451Y-33929500D01*
X13480593Y-33957828D01*
X13308362Y-34013788D01*
X13147008Y-34096002D01*
X13073752Y-34149225D01*
X13000499Y-34202447D01*
X12872447Y-34330499D01*
X12819225Y-34403752D01*
X12766002Y-34477008D01*
X12683788Y-34638362D01*
X12627828Y-34810593D01*
X12599500Y-34989450D01*
X500500Y-34989450D01*
X500500Y-32449450D01*
X12599500Y-32449450D01*
X12599500Y-32630549D01*
X12627828Y-32809406D01*
X12627829Y-32809409D01*
X12683789Y-32981639D01*
X12766004Y-33142994D01*
X12872447Y-33289501D01*
X13000499Y-33417553D01*
X13147006Y-33523996D01*
X13308361Y-33606211D01*
X13480591Y-33662171D01*
X13552136Y-33673502D01*
X13659451Y-33690500D01*
X13659454Y-33690500D01*
X13840549Y-33690500D01*
X13929977Y-33676335D01*
X14019409Y-33662171D01*
X14191639Y-33606211D01*
X14352994Y-33523996D01*
X14499501Y-33417553D01*
X14627553Y-33289501D01*
X14733996Y-33142994D01*
X14816211Y-32981639D01*
X14872171Y-32809409D01*
X14900500Y-32630546D01*
X14900500Y-32449454D01*
X14900500Y-32449450D01*
X37099500Y-32449450D01*
X37099500Y-32630549D01*
X37127828Y-32809406D01*
X37127829Y-32809409D01*
X37183789Y-32981639D01*
X37266004Y-33142994D01*
X37372447Y-33289501D01*
X37500499Y-33417553D01*
X37647006Y-33523996D01*
X37808361Y-33606211D01*
X37980591Y-33662171D01*
X38052136Y-33673502D01*
X38159451Y-33690500D01*
X38159454Y-33690500D01*
X38340549Y-33690500D01*
X38429977Y-33676335D01*
X38519409Y-33662171D01*
X38691639Y-33606211D01*
X38852994Y-33523996D01*
X38999501Y-33417553D01*
X39127553Y-33289501D01*
X39233996Y-33142994D01*
X39316211Y-32981639D01*
X39372171Y-32809409D01*
X39400500Y-32630546D01*
X39400500Y-32449454D01*
X39400500Y-32449450D01*
X39372171Y-32270593D01*
X39372171Y-32270591D01*
X39316211Y-32098361D01*
X39233996Y-31937006D01*
X39127553Y-31790499D01*
X38999501Y-31662447D01*
X38852994Y-31556004D01*
X38852993Y-31556003D01*
X38852991Y-31556002D01*
X38691637Y-31473788D01*
X38519406Y-31417828D01*
X38340549Y-31389500D01*
X38340546Y-31389500D01*
X38159454Y-31389500D01*
X38159451Y-31389500D01*
X37980593Y-31417828D01*
X37808362Y-31473788D01*
X37647008Y-31556002D01*
X37573752Y-31609225D01*
X37500499Y-31662447D01*
X37372447Y-31790499D01*
X37319225Y-31863752D01*
X37266002Y-31937008D01*
X37183788Y-32098362D01*
X37127828Y-32270593D01*
X37099500Y-32449450D01*
X14900500Y-32449450D01*
X14872171Y-32270593D01*
X14872171Y-32270591D01*
X14816211Y-32098361D01*
X14733996Y-31937006D01*
X14627553Y-31790499D01*
X14499501Y-31662447D01*
X14352994Y-31556004D01*
X14352993Y-31556003D01*
X14352991Y-31556002D01*
X14191637Y-31473788D01*
X14019406Y-31417828D01*
X13840549Y-31389500D01*
X13840546Y-31389500D01*
X13659454Y-31389500D01*
X13659451Y-31389500D01*
X13480593Y-31417828D01*
X13308362Y-31473788D01*
X13147008Y-31556002D01*
X13073752Y-31609225D01*
X13000499Y-31662447D01*
X12872447Y-31790499D01*
X12819225Y-31863752D01*
X12766002Y-31937008D01*
X12683788Y-32098362D01*
X12627828Y-32270593D01*
X12599500Y-32449450D01*
X500500Y-32449450D01*
X500500Y-29909450D01*
X12599500Y-29909450D01*
X12599500Y-30090549D01*
X12627828Y-30269406D01*
X12627829Y-30269409D01*
X12683789Y-30441639D01*
X12766004Y-30602994D01*
X12872447Y-30749501D01*
X13000499Y-30877553D01*
X13147006Y-30983996D01*
X13308361Y-31066211D01*
X13480591Y-31122171D01*
X13552136Y-31133502D01*
X13659451Y-31150500D01*
X13659454Y-31150500D01*
X13840549Y-31150500D01*
X13929977Y-31136335D01*
X14019409Y-31122171D01*
X14191639Y-31066211D01*
X14352994Y-30983996D01*
X14499501Y-30877553D01*
X14627553Y-30749501D01*
X14733996Y-30602994D01*
X14816211Y-30441639D01*
X14872171Y-30269409D01*
X14900500Y-30090546D01*
X14900500Y-29909454D01*
X14900500Y-29909450D01*
X37099500Y-29909450D01*
X37099500Y-30090549D01*
X37127828Y-30269406D01*
X37127829Y-30269409D01*
X37183789Y-30441639D01*
X37266004Y-30602994D01*
X37372447Y-30749501D01*
X37500499Y-30877553D01*
X37647006Y-30983996D01*
X37808361Y-31066211D01*
X37980591Y-31122171D01*
X38052136Y-31133502D01*
X38159451Y-31150500D01*
X38159454Y-31150500D01*
X38340549Y-31150500D01*
X38429977Y-31136335D01*
X38519409Y-31122171D01*
X38691639Y-31066211D01*
X38852994Y-30983996D01*
X38999501Y-30877553D01*
X39127553Y-30749501D01*
X39233996Y-30602994D01*
X39296892Y-30479553D01*
X39340156Y-30436290D01*
X39385101Y-30425500D01*
X43475500Y-30425500D01*
X43533691Y-30444407D01*
X43569655Y-30493907D01*
X43574500Y-30524500D01*
X43574500Y-43943982D01*
X43574500Y-44056018D01*
X43579074Y-44073088D01*
X43603498Y-44164241D01*
X43659513Y-44261260D01*
X43659515Y-44261263D01*
X43738737Y-44340485D01*
X43738739Y-44340486D01*
X43835759Y-44396501D01*
X43835757Y-44396501D01*
X43835761Y-44396502D01*
X43835763Y-44396503D01*
X43943982Y-44425500D01*
X43943984Y-44425500D01*
X54918516Y-44425500D01*
X54918518Y-44425500D01*
X55026737Y-44396503D01*
X55026739Y-44396501D01*
X55026741Y-44396501D01*
X55055564Y-44379859D01*
X55123763Y-44340485D01*
X55202985Y-44261263D01*
X55242359Y-44193064D01*
X55259001Y-44164241D01*
X55259001Y-44164239D01*
X55259003Y-44164237D01*
X55288000Y-44056018D01*
X55288000Y-42464743D01*
X55306907Y-42406552D01*
X55316990Y-42394745D01*
X55343020Y-42368716D01*
X55422077Y-42231784D01*
X55463000Y-42079057D01*
X55463000Y-41920943D01*
X55422077Y-41768216D01*
X55343020Y-41631284D01*
X55231216Y-41519480D01*
X55094284Y-41440423D01*
X54941557Y-41399500D01*
X54783443Y-41399500D01*
X54630716Y-41440423D01*
X54493784Y-41519480D01*
X54381980Y-41631284D01*
X54302923Y-41768216D01*
X54262000Y-41920943D01*
X54262000Y-42079057D01*
X54302923Y-42231784D01*
X54381980Y-42368716D01*
X54408005Y-42394741D01*
X54435781Y-42449256D01*
X54437000Y-42464743D01*
X54437000Y-43475500D01*
X54418093Y-43533691D01*
X54368593Y-43569655D01*
X54338000Y-43574500D01*
X44524500Y-43574500D01*
X44466309Y-43555593D01*
X44430345Y-43506093D01*
X44425500Y-43475500D01*
X44425500Y-39105130D01*
X45099500Y-39105130D01*
X45099500Y-40894860D01*
X45099501Y-40894863D01*
X45102414Y-40919990D01*
X45112615Y-40943093D01*
X45147794Y-41022765D01*
X45227235Y-41102206D01*
X45330009Y-41147585D01*
X45355135Y-41150500D01*
X47144864Y-41150499D01*
X47169991Y-41147585D01*
X47272765Y-41102206D01*
X47352206Y-41022765D01*
X47397585Y-40919991D01*
X47400500Y-40894865D01*
X47400499Y-39105136D01*
X47397585Y-39080009D01*
X47352206Y-38977235D01*
X47272765Y-38897794D01*
X47169991Y-38852415D01*
X47169990Y-38852414D01*
X47169988Y-38852414D01*
X47144868Y-38849500D01*
X45355139Y-38849500D01*
X45355136Y-38849501D01*
X45330009Y-38852414D01*
X45227235Y-38897794D01*
X45147794Y-38977235D01*
X45102414Y-39080011D01*
X45099500Y-39105130D01*
X44425500Y-39105130D01*
X44425500Y-29943983D01*
X44416247Y-29909450D01*
X44396503Y-29835763D01*
X44396501Y-29835760D01*
X44396501Y-29835758D01*
X44340486Y-29738739D01*
X44340485Y-29738737D01*
X44261263Y-29659515D01*
X44261260Y-29659513D01*
X44164240Y-29603498D01*
X44164242Y-29603498D01*
X44122251Y-29592247D01*
X44056018Y-29574500D01*
X44056016Y-29574500D01*
X39385101Y-29574500D01*
X39326910Y-29555593D01*
X39296892Y-29520447D01*
X39233996Y-29397006D01*
X39127553Y-29250499D01*
X38999501Y-29122447D01*
X38852994Y-29016004D01*
X38852993Y-29016003D01*
X38852991Y-29016002D01*
X38691637Y-28933788D01*
X38519406Y-28877828D01*
X38340549Y-28849500D01*
X38340546Y-28849500D01*
X38159454Y-28849500D01*
X38159451Y-28849500D01*
X37980593Y-28877828D01*
X37808362Y-28933788D01*
X37647008Y-29016002D01*
X37573752Y-29069225D01*
X37500499Y-29122447D01*
X37372447Y-29250499D01*
X37319225Y-29323752D01*
X37266002Y-29397008D01*
X37183788Y-29558362D01*
X37127828Y-29730593D01*
X37099500Y-29909450D01*
X14900500Y-29909450D01*
X14881614Y-29790212D01*
X14872171Y-29730591D01*
X14816211Y-29558361D01*
X14733996Y-29397006D01*
X14627553Y-29250499D01*
X14499501Y-29122447D01*
X14352994Y-29016004D01*
X14352993Y-29016003D01*
X14352991Y-29016002D01*
X14191637Y-28933788D01*
X14019406Y-28877828D01*
X13840549Y-28849500D01*
X13840546Y-28849500D01*
X13659454Y-28849500D01*
X13659451Y-28849500D01*
X13480593Y-28877828D01*
X13308362Y-28933788D01*
X13147008Y-29016002D01*
X13073752Y-29069225D01*
X13000499Y-29122447D01*
X12872447Y-29250499D01*
X12819225Y-29323752D01*
X12766002Y-29397008D01*
X12683788Y-29558362D01*
X12627828Y-29730593D01*
X12599500Y-29909450D01*
X500500Y-29909450D01*
X500500Y-27369450D01*
X12599500Y-27369450D01*
X12599500Y-27550549D01*
X12627828Y-27729406D01*
X12679843Y-27889496D01*
X12683789Y-27901639D01*
X12766004Y-28062994D01*
X12872447Y-28209501D01*
X13000499Y-28337553D01*
X13147006Y-28443996D01*
X13308361Y-28526211D01*
X13480591Y-28582171D01*
X13552136Y-28593502D01*
X13659451Y-28610500D01*
X13659454Y-28610500D01*
X13840549Y-28610500D01*
X13929977Y-28596335D01*
X14019409Y-28582171D01*
X14191639Y-28526211D01*
X14352994Y-28443996D01*
X14499501Y-28337553D01*
X14627553Y-28209501D01*
X14733996Y-28062994D01*
X14816211Y-27901639D01*
X14872171Y-27729409D01*
X14886335Y-27639977D01*
X14900500Y-27550549D01*
X14900500Y-27369450D01*
X14872171Y-27190593D01*
X14872171Y-27190591D01*
X14816211Y-27018361D01*
X14733996Y-26857006D01*
X14627553Y-26710499D01*
X14499501Y-26582447D01*
X14352994Y-26476004D01*
X14352993Y-26476003D01*
X14352991Y-26476002D01*
X14191637Y-26393788D01*
X14019406Y-26337828D01*
X13840549Y-26309500D01*
X13840546Y-26309500D01*
X13659454Y-26309500D01*
X13659451Y-26309500D01*
X13480593Y-26337828D01*
X13308362Y-26393788D01*
X13147008Y-26476002D01*
X13073752Y-26529225D01*
X13000499Y-26582447D01*
X12872447Y-26710499D01*
X12819225Y-26783752D01*
X12766002Y-26857008D01*
X12683788Y-27018362D01*
X12627828Y-27190593D01*
X12599500Y-27369450D01*
X500500Y-27369450D01*
X500500Y-24829450D01*
X12599500Y-24829450D01*
X12599500Y-25010549D01*
X12627828Y-25189406D01*
X12683759Y-25361549D01*
X12683789Y-25361639D01*
X12766004Y-25522994D01*
X12872447Y-25669501D01*
X13000499Y-25797553D01*
X13147006Y-25903996D01*
X13308361Y-25986211D01*
X13480591Y-26042171D01*
X13552136Y-26053502D01*
X13659451Y-26070500D01*
X13659454Y-26070500D01*
X13840549Y-26070500D01*
X13929977Y-26056335D01*
X14019409Y-26042171D01*
X14191639Y-25986211D01*
X14352994Y-25903996D01*
X14499501Y-25797553D01*
X14627553Y-25669501D01*
X14733996Y-25522994D01*
X14816211Y-25361639D01*
X14872171Y-25189409D01*
X14891528Y-25067196D01*
X14900500Y-25010549D01*
X14900500Y-24829450D01*
X37099500Y-24829450D01*
X37099500Y-25010549D01*
X37127828Y-25189406D01*
X37183759Y-25361549D01*
X37183789Y-25361639D01*
X37266004Y-25522994D01*
X37372447Y-25669501D01*
X37500499Y-25797553D01*
X37647006Y-25903996D01*
X37808361Y-25986211D01*
X37980591Y-26042171D01*
X38052136Y-26053502D01*
X38159451Y-26070500D01*
X38159454Y-26070500D01*
X38340549Y-26070500D01*
X38429977Y-26056335D01*
X38519409Y-26042171D01*
X38691639Y-25986211D01*
X38852994Y-25903996D01*
X38999501Y-25797553D01*
X39127553Y-25669501D01*
X39233996Y-25522994D01*
X39316211Y-25361639D01*
X39372171Y-25189409D01*
X39391528Y-25067196D01*
X39400500Y-25010549D01*
X39400500Y-24829450D01*
X39372171Y-24650593D01*
X39372171Y-24650591D01*
X39316211Y-24478361D01*
X39233996Y-24317006D01*
X39127553Y-24170499D01*
X38999501Y-24042447D01*
X38852994Y-23936004D01*
X38852993Y-23936003D01*
X38852991Y-23936002D01*
X38691637Y-23853788D01*
X38519406Y-23797828D01*
X38340549Y-23769500D01*
X38340546Y-23769500D01*
X38159454Y-23769500D01*
X38159451Y-23769500D01*
X37980593Y-23797828D01*
X37808362Y-23853788D01*
X37647008Y-23936002D01*
X37573752Y-23989225D01*
X37500499Y-24042447D01*
X37372447Y-24170499D01*
X37324872Y-24235981D01*
X37266002Y-24317008D01*
X37183788Y-24478362D01*
X37127828Y-24650593D01*
X37099500Y-24829450D01*
X14900500Y-24829450D01*
X14872171Y-24650593D01*
X14872171Y-24650591D01*
X14816211Y-24478361D01*
X14733996Y-24317006D01*
X14627553Y-24170499D01*
X14499501Y-24042447D01*
X14352994Y-23936004D01*
X14352993Y-23936003D01*
X14352991Y-23936002D01*
X14191637Y-23853788D01*
X14019406Y-23797828D01*
X13840549Y-23769500D01*
X13840546Y-23769500D01*
X13659454Y-23769500D01*
X13659451Y-23769500D01*
X13480593Y-23797828D01*
X13308362Y-23853788D01*
X13147008Y-23936002D01*
X13073752Y-23989225D01*
X13000499Y-24042447D01*
X12872447Y-24170499D01*
X12824872Y-24235981D01*
X12766002Y-24317008D01*
X12683788Y-24478362D01*
X12627828Y-24650593D01*
X12599500Y-24829450D01*
X500500Y-24829450D01*
X500500Y-22289450D01*
X12599500Y-22289450D01*
X12599500Y-22470549D01*
X12627828Y-22649406D01*
X12627829Y-22649409D01*
X12683789Y-22821639D01*
X12766004Y-22982994D01*
X12872447Y-23129501D01*
X13000499Y-23257553D01*
X13147006Y-23363996D01*
X13308361Y-23446211D01*
X13480591Y-23502171D01*
X13552136Y-23513502D01*
X13659451Y-23530500D01*
X13659454Y-23530500D01*
X13840549Y-23530500D01*
X13929977Y-23516335D01*
X14019409Y-23502171D01*
X14191639Y-23446211D01*
X14352994Y-23363996D01*
X14499501Y-23257553D01*
X14627553Y-23129501D01*
X14733996Y-22982994D01*
X14816211Y-22821639D01*
X14872171Y-22649409D01*
X14895929Y-22499407D01*
X14900500Y-22470549D01*
X14900500Y-22289450D01*
X14872171Y-22110593D01*
X14872171Y-22110591D01*
X14816211Y-21938361D01*
X14733996Y-21777006D01*
X14627553Y-21630499D01*
X14499501Y-21502447D01*
X14352994Y-21396004D01*
X14352993Y-21396003D01*
X14352991Y-21396002D01*
X14191637Y-21313788D01*
X14019406Y-21257828D01*
X13840549Y-21229500D01*
X13840546Y-21229500D01*
X13659454Y-21229500D01*
X13659451Y-21229500D01*
X13480593Y-21257828D01*
X13308362Y-21313788D01*
X13147008Y-21396002D01*
X13073752Y-21449225D01*
X13000499Y-21502447D01*
X12872447Y-21630499D01*
X12866496Y-21638690D01*
X12766002Y-21777008D01*
X12683788Y-21938362D01*
X12627828Y-22110593D01*
X12599500Y-22289450D01*
X500500Y-22289450D01*
X500500Y-19749450D01*
X12599500Y-19749450D01*
X12599500Y-19930549D01*
X12627828Y-20109406D01*
X12683788Y-20281637D01*
X12728020Y-20368448D01*
X12766004Y-20442994D01*
X12872447Y-20589501D01*
X13000499Y-20717553D01*
X13147006Y-20823996D01*
X13308361Y-20906211D01*
X13480591Y-20962171D01*
X13552136Y-20973502D01*
X13659451Y-20990500D01*
X13659454Y-20990500D01*
X13840549Y-20990500D01*
X13929977Y-20976335D01*
X14019409Y-20962171D01*
X14191639Y-20906211D01*
X14352994Y-20823996D01*
X14499501Y-20717553D01*
X14627553Y-20589501D01*
X14733996Y-20442994D01*
X14816211Y-20281639D01*
X14872171Y-20109409D01*
X14900500Y-19930546D01*
X14900500Y-19749454D01*
X14900500Y-19749450D01*
X14872171Y-19570593D01*
X14872171Y-19570591D01*
X14816211Y-19398361D01*
X14733996Y-19237006D01*
X14627553Y-19090499D01*
X14499501Y-18962447D01*
X14352994Y-18856004D01*
X14352993Y-18856003D01*
X14352991Y-18856002D01*
X14191637Y-18773788D01*
X14019406Y-18717828D01*
X13840549Y-18689500D01*
X13840546Y-18689500D01*
X13659454Y-18689500D01*
X13659451Y-18689500D01*
X13480593Y-18717828D01*
X13308362Y-18773788D01*
X13147008Y-18856002D01*
X13123625Y-18872991D01*
X13000499Y-18962447D01*
X12872447Y-19090499D01*
X12830997Y-19147550D01*
X12766002Y-19237008D01*
X12683788Y-19398362D01*
X12627828Y-19570593D01*
X12599500Y-19749450D01*
X500500Y-19749450D01*
X500500Y-17209450D01*
X12599500Y-17209450D01*
X12599500Y-17390549D01*
X12627828Y-17569406D01*
X12659539Y-17667006D01*
X12683789Y-17741639D01*
X12766004Y-17902994D01*
X12872447Y-18049501D01*
X13000499Y-18177553D01*
X13147006Y-18283996D01*
X13308361Y-18366211D01*
X13480591Y-18422171D01*
X13552136Y-18433502D01*
X13659451Y-18450500D01*
X13659454Y-18450500D01*
X13840549Y-18450500D01*
X13929977Y-18436335D01*
X14019409Y-18422171D01*
X14191639Y-18366211D01*
X14352994Y-18283996D01*
X14499501Y-18177553D01*
X14627553Y-18049501D01*
X14733996Y-17902994D01*
X14816211Y-17741639D01*
X14872171Y-17569409D01*
X14900500Y-17390546D01*
X14900500Y-17209454D01*
X14900500Y-17209450D01*
X14872171Y-17030593D01*
X14872171Y-17030591D01*
X14816211Y-16858361D01*
X14733996Y-16697006D01*
X14627553Y-16550499D01*
X14499501Y-16422447D01*
X14352994Y-16316004D01*
X14352993Y-16316003D01*
X14352991Y-16316002D01*
X14191637Y-16233788D01*
X14019406Y-16177828D01*
X13840549Y-16149500D01*
X13840546Y-16149500D01*
X13659454Y-16149500D01*
X13659451Y-16149500D01*
X13480593Y-16177828D01*
X13308362Y-16233788D01*
X13147008Y-16316002D01*
X13137133Y-16323177D01*
X13000499Y-16422447D01*
X12872447Y-16550499D01*
X12830997Y-16607550D01*
X12766002Y-16697008D01*
X12683788Y-16858362D01*
X12627828Y-17030593D01*
X12599500Y-17209450D01*
X500500Y-17209450D01*
X500500Y-14669450D01*
X12599500Y-14669450D01*
X12599500Y-14850549D01*
X12627828Y-15029406D01*
X12683788Y-15201637D01*
X12752377Y-15336251D01*
X12766004Y-15362994D01*
X12872447Y-15509501D01*
X13000499Y-15637553D01*
X13147006Y-15743996D01*
X13308361Y-15826211D01*
X13480591Y-15882171D01*
X13552136Y-15893502D01*
X13659451Y-15910500D01*
X13659454Y-15910500D01*
X13840549Y-15910500D01*
X13929977Y-15896335D01*
X14019409Y-15882171D01*
X14191639Y-15826211D01*
X14352994Y-15743996D01*
X14499501Y-15637553D01*
X14627553Y-15509501D01*
X14733996Y-15362994D01*
X14816211Y-15201639D01*
X14872171Y-15029409D01*
X14900500Y-14850546D01*
X14900500Y-14669454D01*
X14900500Y-14669450D01*
X14872171Y-14490593D01*
X14872171Y-14490591D01*
X14816211Y-14318361D01*
X14733996Y-14157006D01*
X14627553Y-14010499D01*
X14499501Y-13882447D01*
X14352994Y-13776004D01*
X14352993Y-13776003D01*
X14352991Y-13776002D01*
X14191637Y-13693788D01*
X14019406Y-13637828D01*
X13840549Y-13609500D01*
X13840546Y-13609500D01*
X13659454Y-13609500D01*
X13659451Y-13609500D01*
X13480593Y-13637828D01*
X13308362Y-13693788D01*
X13147008Y-13776002D01*
X13123625Y-13792991D01*
X13000499Y-13882447D01*
X12872447Y-14010499D01*
X12830997Y-14067550D01*
X12766002Y-14157008D01*
X12683788Y-14318362D01*
X12627828Y-14490593D01*
X12599500Y-14669450D01*
X500500Y-14669450D01*
X500500Y-11325130D01*
X12599500Y-11325130D01*
X12599500Y-13114860D01*
X12599501Y-13114863D01*
X12602414Y-13139990D01*
X12626442Y-13194407D01*
X12647794Y-13242765D01*
X12727235Y-13322206D01*
X12830009Y-13367585D01*
X12855135Y-13370500D01*
X14644864Y-13370499D01*
X14669991Y-13367585D01*
X14772765Y-13322206D01*
X14852206Y-13242765D01*
X14897585Y-13139991D01*
X14900500Y-13114865D01*
X14900499Y-11325136D01*
X14897585Y-11300009D01*
X14852206Y-11197235D01*
X14772765Y-11117794D01*
X14669991Y-11072415D01*
X14669990Y-11072414D01*
X14669988Y-11072414D01*
X14644868Y-11069500D01*
X12855139Y-11069500D01*
X12855136Y-11069501D01*
X12830009Y-11072414D01*
X12727235Y-11117794D01*
X12647794Y-11197235D01*
X12602414Y-11300011D01*
X12599500Y-11325130D01*
X500500Y-11325130D01*
X500500Y-6374450D01*
X20500500Y-6374450D01*
X20500500Y-6555549D01*
X20528828Y-6734406D01*
X20584788Y-6906637D01*
X20654670Y-7043789D01*
X20667004Y-7067994D01*
X20773447Y-7214501D01*
X20901499Y-7342553D01*
X21048006Y-7448996D01*
X21209361Y-7531211D01*
X21381591Y-7587171D01*
X21453136Y-7598502D01*
X21560451Y-7615500D01*
X21560454Y-7615500D01*
X21741549Y-7615500D01*
X21920404Y-7587172D01*
X21920405Y-7587171D01*
X21920409Y-7587171D01*
X22078854Y-7535690D01*
X22140037Y-7535690D01*
X22179448Y-7559841D01*
X25951501Y-11331893D01*
X29712618Y-15093010D01*
X29712620Y-15093013D01*
X29787187Y-15167580D01*
X29787189Y-15167581D01*
X29877481Y-15219712D01*
X29877480Y-15219712D01*
X29877494Y-15219718D01*
X29878513Y-15220307D01*
X29878515Y-15220307D01*
X29878516Y-15220308D01*
X29929443Y-15233954D01*
X29980371Y-15247600D01*
X29980373Y-15247601D01*
X29980374Y-15247601D01*
X30091890Y-15247601D01*
X30091906Y-15247600D01*
X30242642Y-15247600D01*
X30300833Y-15266507D01*
X30336797Y-15316007D01*
X30336797Y-15377193D01*
X30328382Y-15396092D01*
X30250023Y-15531816D01*
X30209100Y-15684543D01*
X30209100Y-15842657D01*
X30250023Y-15995384D01*
X30329080Y-16132316D01*
X30440884Y-16244120D01*
X30577816Y-16323177D01*
X30730543Y-16364100D01*
X30802699Y-16364100D01*
X30860890Y-16383007D01*
X30872703Y-16393096D01*
X37105518Y-22625910D01*
X37105520Y-22625913D01*
X37105525Y-22625918D01*
X37110458Y-22630852D01*
X37134602Y-22670256D01*
X37183789Y-22821639D01*
X37266004Y-22982994D01*
X37372447Y-23129501D01*
X37500499Y-23257553D01*
X37647006Y-23363996D01*
X37808361Y-23446211D01*
X37980591Y-23502171D01*
X38052136Y-23513502D01*
X38159451Y-23530500D01*
X38159454Y-23530500D01*
X38340549Y-23530500D01*
X38429977Y-23516335D01*
X38519409Y-23502171D01*
X38691639Y-23446211D01*
X38852994Y-23363996D01*
X38999501Y-23257553D01*
X39127553Y-23129501D01*
X39233996Y-22982994D01*
X39316211Y-22821639D01*
X39372171Y-22649409D01*
X39395929Y-22499407D01*
X39400500Y-22470549D01*
X39400500Y-22360301D01*
X39419407Y-22302110D01*
X39468907Y-22266146D01*
X39530093Y-22266146D01*
X39569504Y-22290297D01*
X44169703Y-26890496D01*
X44197480Y-26945013D01*
X44187909Y-27005445D01*
X44144644Y-27048710D01*
X44099699Y-27059500D01*
X39397839Y-27059500D01*
X39339648Y-27040593D01*
X39309631Y-27005447D01*
X39233996Y-26857006D01*
X39127553Y-26710499D01*
X38999501Y-26582447D01*
X38852994Y-26476004D01*
X38852993Y-26476003D01*
X38852991Y-26476002D01*
X38691637Y-26393788D01*
X38519406Y-26337828D01*
X38340549Y-26309500D01*
X38340546Y-26309500D01*
X38159454Y-26309500D01*
X38159451Y-26309500D01*
X37980593Y-26337828D01*
X37808362Y-26393788D01*
X37647008Y-26476002D01*
X37573752Y-26529225D01*
X37500499Y-26582447D01*
X37372447Y-26710499D01*
X37319225Y-26783752D01*
X37266002Y-26857008D01*
X37183788Y-27018362D01*
X37127828Y-27190593D01*
X37099500Y-27369450D01*
X37099500Y-27550549D01*
X37127828Y-27729406D01*
X37179843Y-27889496D01*
X37183789Y-27901639D01*
X37266004Y-28062994D01*
X37372447Y-28209501D01*
X37500499Y-28337553D01*
X37647006Y-28443996D01*
X37808361Y-28526211D01*
X37980591Y-28582171D01*
X38052136Y-28593502D01*
X38159451Y-28610500D01*
X38159454Y-28610500D01*
X38340549Y-28610500D01*
X38429977Y-28596335D01*
X38519409Y-28582171D01*
X38691639Y-28526211D01*
X38852994Y-28443996D01*
X38999501Y-28337553D01*
X39127553Y-28209501D01*
X39233996Y-28062994D01*
X39309630Y-27914553D01*
X39352894Y-27871290D01*
X39397839Y-27860500D01*
X60101399Y-27860500D01*
X60159590Y-27879407D01*
X60171403Y-27889496D01*
X90602387Y-58320480D01*
X90602389Y-58320481D01*
X90602390Y-58320482D01*
X90602391Y-58320483D01*
X90693708Y-58373205D01*
X90693709Y-58373205D01*
X90693712Y-58373207D01*
X90776124Y-58395288D01*
X90827438Y-58428612D01*
X90849365Y-58485733D01*
X90849501Y-58490915D01*
X90849501Y-58894863D01*
X90852414Y-58919990D01*
X90877756Y-58977385D01*
X90897794Y-59022765D01*
X90977235Y-59102206D01*
X91080009Y-59147585D01*
X91105135Y-59150500D01*
X92894864Y-59150499D01*
X92919991Y-59147585D01*
X93022765Y-59102206D01*
X93102206Y-59022765D01*
X93147585Y-58919991D01*
X93150500Y-58894865D01*
X93150499Y-57909450D01*
X93389500Y-57909450D01*
X93389500Y-58090549D01*
X93417828Y-58269406D01*
X93473788Y-58441637D01*
X93498896Y-58490915D01*
X93556004Y-58602994D01*
X93662447Y-58749501D01*
X93790499Y-58877553D01*
X93937006Y-58983996D01*
X94098361Y-59066211D01*
X94270591Y-59122171D01*
X94342136Y-59133502D01*
X94449451Y-59150500D01*
X94449454Y-59150500D01*
X94630549Y-59150500D01*
X94719977Y-59136335D01*
X94809409Y-59122171D01*
X94981639Y-59066211D01*
X95142994Y-58983996D01*
X95289501Y-58877553D01*
X95417553Y-58749501D01*
X95523996Y-58602994D01*
X95606211Y-58441639D01*
X95662171Y-58269409D01*
X95690500Y-58090546D01*
X95690500Y-57909454D01*
X95690500Y-57909450D01*
X95662171Y-57730593D01*
X95662171Y-57730591D01*
X95606211Y-57558361D01*
X95523996Y-57397006D01*
X95417553Y-57250499D01*
X95289501Y-57122447D01*
X95142994Y-57016004D01*
X95142993Y-57016003D01*
X95142991Y-57016002D01*
X94981637Y-56933788D01*
X94809406Y-56877828D01*
X94630549Y-56849500D01*
X94630546Y-56849500D01*
X94449454Y-56849500D01*
X94449451Y-56849500D01*
X94270593Y-56877828D01*
X94098362Y-56933788D01*
X93937008Y-57016002D01*
X93884714Y-57053996D01*
X93790499Y-57122447D01*
X93662447Y-57250499D01*
X93609225Y-57323752D01*
X93556002Y-57397008D01*
X93473788Y-57558362D01*
X93417828Y-57730593D01*
X93389500Y-57909450D01*
X93150499Y-57909450D01*
X93150499Y-57105136D01*
X93147585Y-57080009D01*
X93102206Y-56977235D01*
X93022765Y-56897794D01*
X92919991Y-56852415D01*
X92919990Y-56852414D01*
X92919988Y-56852414D01*
X92894868Y-56849500D01*
X91105139Y-56849500D01*
X91105136Y-56849501D01*
X91080009Y-56852414D01*
X90977235Y-56897794D01*
X90897794Y-56977235D01*
X90852414Y-57080011D01*
X90849500Y-57105130D01*
X90849500Y-57195799D01*
X90830593Y-57253990D01*
X90781093Y-57289954D01*
X90719907Y-57289954D01*
X90680496Y-57265803D01*
X81604197Y-48189504D01*
X81576420Y-48134987D01*
X81585991Y-48074555D01*
X81629256Y-48031290D01*
X81674201Y-48020500D01*
X81852161Y-48020500D01*
X81910352Y-48039407D01*
X81940368Y-48074552D01*
X81971162Y-48134987D01*
X82015313Y-48221639D01*
X82016004Y-48222994D01*
X82122447Y-48369501D01*
X82250499Y-48497553D01*
X82397006Y-48603996D01*
X82558361Y-48686211D01*
X82730591Y-48742171D01*
X82802136Y-48753502D01*
X82909451Y-48770500D01*
X82909454Y-48770500D01*
X83090549Y-48770500D01*
X83179977Y-48756335D01*
X83269409Y-48742171D01*
X83441639Y-48686211D01*
X83602994Y-48603996D01*
X83749501Y-48497553D01*
X83877553Y-48369501D01*
X83983996Y-48222994D01*
X84066211Y-48061639D01*
X84122171Y-47889409D01*
X84150500Y-47710546D01*
X84150500Y-47529454D01*
X84150500Y-47529450D01*
X84126750Y-47379500D01*
X84122171Y-47350591D01*
X84066211Y-47178361D01*
X83983996Y-47017006D01*
X83877553Y-46870499D01*
X83749501Y-46742447D01*
X83602994Y-46636004D01*
X83602993Y-46636003D01*
X83602991Y-46636002D01*
X83441637Y-46553788D01*
X83269406Y-46497828D01*
X83090549Y-46469500D01*
X83090546Y-46469500D01*
X82909454Y-46469500D01*
X82909451Y-46469500D01*
X82730593Y-46497828D01*
X82558362Y-46553788D01*
X82397008Y-46636002D01*
X82366966Y-46657829D01*
X82250499Y-46742447D01*
X82122447Y-46870499D01*
X82099236Y-46902447D01*
X82016002Y-47017008D01*
X81977129Y-47093301D01*
X81940369Y-47165446D01*
X81897106Y-47208710D01*
X81852161Y-47219500D01*
X81542301Y-47219500D01*
X81484110Y-47200593D01*
X81472297Y-47190504D01*
X79258868Y-44977075D01*
X79231091Y-44922558D01*
X79240662Y-44862126D01*
X79258865Y-44837070D01*
X79351620Y-44744316D01*
X79430677Y-44607384D01*
X79471600Y-44454657D01*
X79471600Y-44382500D01*
X79490507Y-44324309D01*
X79500596Y-44312496D01*
X82281896Y-41531196D01*
X82336413Y-41503419D01*
X82351900Y-41502200D01*
X83052725Y-41502200D01*
X83052727Y-41502200D01*
X83154587Y-41474907D01*
X83245913Y-41422180D01*
X83320480Y-41347613D01*
X83373207Y-41256287D01*
X83381891Y-41223874D01*
X83415215Y-41172562D01*
X83472337Y-41150635D01*
X83477518Y-41150499D01*
X83662000Y-41150499D01*
X83720191Y-41169406D01*
X83756155Y-41218906D01*
X83761000Y-41249499D01*
X83761000Y-43711599D01*
X83742093Y-43769790D01*
X83732003Y-43781603D01*
X83528447Y-43985158D01*
X83473931Y-44012935D01*
X83427852Y-44009309D01*
X83269406Y-43957828D01*
X83090549Y-43929500D01*
X83090546Y-43929500D01*
X82909454Y-43929500D01*
X82909451Y-43929500D01*
X82730593Y-43957828D01*
X82558362Y-44013788D01*
X82397008Y-44096002D01*
X82323752Y-44149225D01*
X82250499Y-44202447D01*
X82122447Y-44330499D01*
X82084666Y-44382500D01*
X82016002Y-44477008D01*
X81933788Y-44638362D01*
X81877828Y-44810593D01*
X81849500Y-44989450D01*
X81849500Y-45170549D01*
X81877828Y-45349406D01*
X81924964Y-45494480D01*
X81933789Y-45521639D01*
X82016004Y-45682994D01*
X82122447Y-45829501D01*
X82250499Y-45957553D01*
X82397006Y-46063996D01*
X82558361Y-46146211D01*
X82730591Y-46202171D01*
X82802136Y-46213502D01*
X82909451Y-46230500D01*
X82909454Y-46230500D01*
X83090549Y-46230500D01*
X83179977Y-46216335D01*
X83269409Y-46202171D01*
X83441639Y-46146211D01*
X83602994Y-46063996D01*
X83749501Y-45957553D01*
X83877553Y-45829501D01*
X83983996Y-45682994D01*
X84066211Y-45521639D01*
X84122171Y-45349409D01*
X84150500Y-45170546D01*
X84150500Y-44989454D01*
X84150500Y-44989450D01*
X84122171Y-44810593D01*
X84122171Y-44810591D01*
X84070690Y-44652145D01*
X84070691Y-44590960D01*
X84094840Y-44551551D01*
X84481980Y-44164413D01*
X84482082Y-44164237D01*
X84534705Y-44073092D01*
X84534705Y-44073090D01*
X84534707Y-44073088D01*
X84562000Y-43971227D01*
X84562000Y-43865773D01*
X84562000Y-42045759D01*
X84580907Y-41987568D01*
X84630407Y-41951604D01*
X84686622Y-41950133D01*
X84734643Y-41963000D01*
X84734644Y-41963000D01*
X84892755Y-41963000D01*
X84892757Y-41963000D01*
X85045484Y-41922077D01*
X85182416Y-41843020D01*
X85207929Y-41817506D01*
X85233441Y-41791996D01*
X85287958Y-41764219D01*
X85303444Y-41763000D01*
X88108899Y-41763000D01*
X88167090Y-41781907D01*
X88178903Y-41791996D01*
X89157104Y-42770197D01*
X89184881Y-42824714D01*
X89186100Y-42840201D01*
X89186100Y-42912357D01*
X89227023Y-43065084D01*
X89306080Y-43202016D01*
X89417884Y-43313820D01*
X89554816Y-43392877D01*
X89707543Y-43433800D01*
X89707545Y-43433800D01*
X89865655Y-43433800D01*
X89865657Y-43433800D01*
X90018384Y-43392877D01*
X90155316Y-43313820D01*
X90267120Y-43202016D01*
X90346177Y-43065084D01*
X90387100Y-42912357D01*
X90387100Y-42754243D01*
X90346177Y-42601516D01*
X90267120Y-42464584D01*
X90155316Y-42352780D01*
X90018384Y-42273723D01*
X89865657Y-42232800D01*
X89865655Y-42232800D01*
X89793501Y-42232800D01*
X89735310Y-42213893D01*
X89723497Y-42203804D01*
X89150977Y-41631284D01*
X88561713Y-41042020D01*
X88561710Y-41042018D01*
X88561709Y-41042017D01*
X88561708Y-41042016D01*
X88470391Y-40989294D01*
X88470393Y-40989294D01*
X88430870Y-40978704D01*
X88368527Y-40962000D01*
X88368525Y-40962000D01*
X85303444Y-40962000D01*
X85245253Y-40943093D01*
X85233441Y-40933004D01*
X85182418Y-40881982D01*
X85182416Y-40881980D01*
X85045484Y-40802923D01*
X84892757Y-40762000D01*
X84734643Y-40762000D01*
X84704866Y-40769978D01*
X84686622Y-40774867D01*
X84625521Y-40771664D01*
X84577971Y-40733159D01*
X84562000Y-40679240D01*
X84562000Y-39013374D01*
X84562000Y-39013373D01*
X84534707Y-38911513D01*
X84534707Y-38911512D01*
X84534707Y-38911511D01*
X84481983Y-38820191D01*
X84481981Y-38820189D01*
X84481980Y-38820187D01*
X72366713Y-26704920D01*
X72366710Y-26704918D01*
X72366708Y-26704916D01*
X72275391Y-26652194D01*
X72275393Y-26652194D01*
X72235870Y-26641604D01*
X72173527Y-26624900D01*
X72173525Y-26624900D01*
X68698340Y-26624900D01*
X68640149Y-26605993D01*
X68604185Y-26556493D01*
X68604185Y-26495307D01*
X68610131Y-26480955D01*
X68686208Y-26331646D01*
X68686210Y-26331640D01*
X68686211Y-26331639D01*
X68742171Y-26159409D01*
X68770500Y-25980546D01*
X68770500Y-25799454D01*
X68770500Y-25799450D01*
X68749918Y-25669502D01*
X68742171Y-25620591D01*
X68686211Y-25448361D01*
X68603996Y-25287006D01*
X68537432Y-25195388D01*
X68518526Y-25137200D01*
X68537433Y-25079009D01*
X68586933Y-25043045D01*
X68617526Y-25038200D01*
X81191625Y-25038200D01*
X81191627Y-25038200D01*
X81293488Y-25010907D01*
X81293490Y-25010905D01*
X81293492Y-25010905D01*
X81384808Y-24958183D01*
X81384808Y-24958182D01*
X81384813Y-24958180D01*
X93334085Y-13008905D01*
X93388600Y-12981130D01*
X93449032Y-12990701D01*
X93459078Y-12996589D01*
X93573453Y-13073013D01*
X93737334Y-13140894D01*
X93911309Y-13175500D01*
X93911310Y-13175500D01*
X94088690Y-13175500D01*
X94088691Y-13175500D01*
X94262666Y-13140894D01*
X94426547Y-13073013D01*
X94574035Y-12974464D01*
X94699464Y-12849035D01*
X94798013Y-12701547D01*
X94865894Y-12537666D01*
X94900500Y-12363691D01*
X94900500Y-11636309D01*
X94865894Y-11462334D01*
X94804254Y-11313520D01*
X94798014Y-11298455D01*
X94798014Y-11298454D01*
X94699464Y-11150965D01*
X94574034Y-11025535D01*
X94426544Y-10926985D01*
X94262666Y-10859106D01*
X94088693Y-10824500D01*
X94088691Y-10824500D01*
X93911309Y-10824500D01*
X93911306Y-10824500D01*
X93737334Y-10859106D01*
X93737332Y-10859106D01*
X93573455Y-10926985D01*
X93573454Y-10926985D01*
X93425965Y-11025535D01*
X93300535Y-11150965D01*
X93201985Y-11298454D01*
X93201985Y-11298455D01*
X93134106Y-11462332D01*
X93122280Y-11521786D01*
X93092383Y-11575170D01*
X93050807Y-11598097D01*
X93025125Y-11604979D01*
X92964023Y-11601778D01*
X92916473Y-11563274D01*
X92900500Y-11509353D01*
X92900500Y-11331899D01*
X92900499Y-11331893D01*
X92899688Y-11325136D01*
X92889877Y-11243436D01*
X92834361Y-11102658D01*
X92742922Y-10982078D01*
X92622342Y-10890639D01*
X92622341Y-10890638D01*
X92622339Y-10890637D01*
X92481565Y-10835123D01*
X92393106Y-10824500D01*
X92393102Y-10824500D01*
X91606898Y-10824500D01*
X91606893Y-10824500D01*
X91518434Y-10835123D01*
X91377660Y-10890637D01*
X91377656Y-10890640D01*
X91257081Y-10982075D01*
X91257075Y-10982081D01*
X91165640Y-11102656D01*
X91165637Y-11102660D01*
X91110123Y-11243434D01*
X91099500Y-11331893D01*
X91099500Y-11500500D01*
X91080593Y-11558691D01*
X91031093Y-11594655D01*
X91000500Y-11599500D01*
X68536561Y-11599500D01*
X68478370Y-11580593D01*
X68442406Y-11531093D01*
X68442406Y-11469907D01*
X68466555Y-11430498D01*
X68497553Y-11399501D01*
X68603996Y-11252994D01*
X68686211Y-11091639D01*
X68742171Y-10919409D01*
X68761259Y-10798893D01*
X68770500Y-10740549D01*
X68770500Y-10559450D01*
X68742171Y-10380593D01*
X68742171Y-10380591D01*
X68686211Y-10208361D01*
X68603996Y-10047006D01*
X68497553Y-9900499D01*
X68369501Y-9772447D01*
X68222994Y-9666004D01*
X68222993Y-9666003D01*
X68222991Y-9666002D01*
X68061637Y-9583788D01*
X67889406Y-9527828D01*
X67710549Y-9499500D01*
X67710546Y-9499500D01*
X67529454Y-9499500D01*
X67529451Y-9499500D01*
X67350593Y-9527828D01*
X67178362Y-9583788D01*
X67017008Y-9666002D01*
X66979564Y-9693207D01*
X66870499Y-9772447D01*
X66742447Y-9900499D01*
X66689225Y-9973752D01*
X66636002Y-10047008D01*
X66553788Y-10208362D01*
X66497828Y-10380593D01*
X66469500Y-10559450D01*
X66469500Y-10740549D01*
X66497828Y-10919406D01*
X66553788Y-11091637D01*
X66631133Y-11243436D01*
X66636004Y-11252994D01*
X66742447Y-11399501D01*
X66773444Y-11430498D01*
X66801220Y-11485013D01*
X66791649Y-11545445D01*
X66748384Y-11588710D01*
X66703439Y-11599500D01*
X61224773Y-11599500D01*
X61173843Y-11613146D01*
X61122911Y-11626793D01*
X61106431Y-11636309D01*
X61106430Y-11636308D01*
X61031588Y-11679519D01*
X52969005Y-19742100D01*
X52914488Y-19769877D01*
X52854057Y-19760306D01*
X52821640Y-19743789D01*
X52649406Y-19687828D01*
X52470549Y-19659500D01*
X52470546Y-19659500D01*
X52289454Y-19659500D01*
X52289451Y-19659500D01*
X52110593Y-19687828D01*
X51938362Y-19743788D01*
X51777008Y-19826002D01*
X51703752Y-19879225D01*
X51630499Y-19932447D01*
X51502447Y-20060499D01*
X51466916Y-20109404D01*
X51396002Y-20207008D01*
X51313788Y-20368362D01*
X51257828Y-20540593D01*
X51229500Y-20719450D01*
X51229500Y-20900549D01*
X51257828Y-21079406D01*
X51313788Y-21251637D01*
X51396003Y-21412993D01*
X51396007Y-21412999D01*
X51431416Y-21461735D01*
X51460994Y-21502446D01*
X51475426Y-21522309D01*
X51494334Y-21580500D01*
X51475427Y-21638690D01*
X51425927Y-21674654D01*
X51395334Y-21679500D01*
X40696901Y-21679500D01*
X40638710Y-21660593D01*
X40626897Y-21650504D01*
X39344841Y-20368448D01*
X39317064Y-20313931D01*
X39320689Y-20267854D01*
X39372171Y-20109409D01*
X39400500Y-19930546D01*
X39400500Y-19749454D01*
X39400500Y-19749450D01*
X39372171Y-19570593D01*
X39372171Y-19570591D01*
X39316211Y-19398361D01*
X39233996Y-19237006D01*
X39127553Y-19090499D01*
X38999501Y-18962447D01*
X38852994Y-18856004D01*
X38852993Y-18856003D01*
X38852991Y-18856002D01*
X38691637Y-18773788D01*
X38519406Y-18717828D01*
X38340549Y-18689500D01*
X38340546Y-18689500D01*
X38159454Y-18689500D01*
X38159451Y-18689500D01*
X37980593Y-18717828D01*
X37808362Y-18773788D01*
X37692745Y-18832698D01*
X37632313Y-18842269D01*
X37577796Y-18814491D01*
X37550019Y-18759975D01*
X37548800Y-18744488D01*
X37548800Y-18608599D01*
X37567707Y-18550408D01*
X37577785Y-18538607D01*
X37721552Y-18394839D01*
X37776067Y-18367064D01*
X37822146Y-18370690D01*
X37980591Y-18422171D01*
X38052136Y-18433502D01*
X38159451Y-18450500D01*
X38159454Y-18450500D01*
X38340549Y-18450500D01*
X38429977Y-18436335D01*
X38519409Y-18422171D01*
X38691639Y-18366211D01*
X38852994Y-18283996D01*
X38996890Y-18179450D01*
X51229500Y-18179450D01*
X51229500Y-18360549D01*
X51257828Y-18539406D01*
X51313788Y-18711637D01*
X51380348Y-18842269D01*
X51396004Y-18872994D01*
X51502447Y-19019501D01*
X51630499Y-19147553D01*
X51777006Y-19253996D01*
X51938361Y-19336211D01*
X52110591Y-19392171D01*
X52182136Y-19403502D01*
X52289451Y-19420500D01*
X52289454Y-19420500D01*
X52470549Y-19420500D01*
X52559977Y-19406335D01*
X52649409Y-19392171D01*
X52821639Y-19336211D01*
X52982994Y-19253996D01*
X53129501Y-19147553D01*
X53257553Y-19019501D01*
X53363996Y-18872994D01*
X53446211Y-18711639D01*
X53502171Y-18539409D01*
X53520740Y-18422171D01*
X53530500Y-18360549D01*
X53530500Y-18179450D01*
X53509918Y-18049502D01*
X53502171Y-18000591D01*
X53446211Y-17828361D01*
X53363996Y-17667006D01*
X53257553Y-17520499D01*
X53129501Y-17392447D01*
X52982994Y-17286004D01*
X52982993Y-17286003D01*
X52982991Y-17286002D01*
X52821637Y-17203788D01*
X52649406Y-17147828D01*
X52470549Y-17119500D01*
X52470546Y-17119500D01*
X52289454Y-17119500D01*
X52289451Y-17119500D01*
X52110593Y-17147828D01*
X51938362Y-17203788D01*
X51777008Y-17286002D01*
X51703752Y-17339225D01*
X51630499Y-17392447D01*
X51502447Y-17520499D01*
X51466914Y-17569406D01*
X51396002Y-17667008D01*
X51313788Y-17828362D01*
X51257828Y-18000593D01*
X51229500Y-18179450D01*
X38996890Y-18179450D01*
X38999501Y-18177553D01*
X39127553Y-18049501D01*
X39233996Y-17902994D01*
X39316211Y-17741639D01*
X39372171Y-17569409D01*
X39400500Y-17390546D01*
X39400500Y-17209454D01*
X39400500Y-17209450D01*
X39372171Y-17030593D01*
X39372171Y-17030591D01*
X39316211Y-16858361D01*
X39233996Y-16697006D01*
X39127553Y-16550499D01*
X38999501Y-16422447D01*
X38852994Y-16316004D01*
X38852993Y-16316003D01*
X38852991Y-16316002D01*
X38691637Y-16233788D01*
X38519406Y-16177828D01*
X38340549Y-16149500D01*
X38340546Y-16149500D01*
X38159454Y-16149500D01*
X38159451Y-16149500D01*
X37980593Y-16177828D01*
X37808362Y-16233788D01*
X37647008Y-16316002D01*
X37637133Y-16323177D01*
X37500499Y-16422447D01*
X37372447Y-16550499D01*
X37330997Y-16607550D01*
X37266002Y-16697008D01*
X37183788Y-16858362D01*
X37127828Y-17030593D01*
X37099500Y-17209450D01*
X37099500Y-17390549D01*
X37127828Y-17569406D01*
X37179309Y-17727852D01*
X37179308Y-17789037D01*
X37155158Y-17828447D01*
X36827820Y-18155786D01*
X36827816Y-18155791D01*
X36775093Y-18247111D01*
X36775092Y-18247111D01*
X36775093Y-18247112D01*
X36775093Y-18247113D01*
X36747800Y-18348973D01*
X36747800Y-20272473D01*
X36747800Y-20377927D01*
X36765234Y-20442994D01*
X36775094Y-20479792D01*
X36827816Y-20571108D01*
X36827818Y-20571110D01*
X36827820Y-20571113D01*
X37247208Y-20990500D01*
X37568347Y-21311639D01*
X37596124Y-21366156D01*
X37586553Y-21426588D01*
X37556534Y-21461735D01*
X37500502Y-21502444D01*
X37500500Y-21502446D01*
X37500499Y-21502447D01*
X37377671Y-21625274D01*
X37323157Y-21653050D01*
X37262725Y-21643479D01*
X37237666Y-21625273D01*
X31439096Y-15826703D01*
X31411319Y-15772186D01*
X31410100Y-15756699D01*
X31410100Y-15684544D01*
X31397508Y-15637550D01*
X31369177Y-15531816D01*
X31290820Y-15396097D01*
X31278100Y-15336251D01*
X31302987Y-15280356D01*
X31355975Y-15249763D01*
X31376558Y-15247600D01*
X37146540Y-15247600D01*
X37204731Y-15266507D01*
X37234750Y-15301655D01*
X37252377Y-15336251D01*
X37266004Y-15362994D01*
X37372447Y-15509501D01*
X37500499Y-15637553D01*
X37647006Y-15743996D01*
X37808361Y-15826211D01*
X37980591Y-15882171D01*
X38052136Y-15893502D01*
X38159451Y-15910500D01*
X38159454Y-15910500D01*
X38340549Y-15910500D01*
X38429977Y-15896335D01*
X38519409Y-15882171D01*
X38691639Y-15826211D01*
X38852994Y-15743996D01*
X38996890Y-15639450D01*
X51229500Y-15639450D01*
X51229500Y-15820549D01*
X51257828Y-15999406D01*
X51313788Y-16171637D01*
X51350719Y-16244119D01*
X51396004Y-16332994D01*
X51502447Y-16479501D01*
X51630499Y-16607553D01*
X51777006Y-16713996D01*
X51938361Y-16796211D01*
X52110591Y-16852171D01*
X52182136Y-16863502D01*
X52289451Y-16880500D01*
X52289454Y-16880500D01*
X52470549Y-16880500D01*
X52559977Y-16866335D01*
X52649409Y-16852171D01*
X52821639Y-16796211D01*
X52982994Y-16713996D01*
X53129501Y-16607553D01*
X53257553Y-16479501D01*
X53363996Y-16332994D01*
X53446211Y-16171639D01*
X53502171Y-15999409D01*
X53526998Y-15842657D01*
X53530500Y-15820549D01*
X53530500Y-15639450D01*
X53509918Y-15509502D01*
X53502171Y-15460591D01*
X53446211Y-15288361D01*
X53363996Y-15127006D01*
X53257553Y-14980499D01*
X53129501Y-14852447D01*
X52982994Y-14746004D01*
X52982993Y-14746003D01*
X52982991Y-14746002D01*
X52821637Y-14663788D01*
X52649406Y-14607828D01*
X52470549Y-14579500D01*
X52470546Y-14579500D01*
X52289454Y-14579500D01*
X52289451Y-14579500D01*
X52110593Y-14607828D01*
X51938362Y-14663788D01*
X51777008Y-14746002D01*
X51703752Y-14799225D01*
X51630499Y-14852447D01*
X51502447Y-14980499D01*
X51466914Y-15029406D01*
X51396002Y-15127008D01*
X51313788Y-15288362D01*
X51257828Y-15460593D01*
X51229500Y-15639450D01*
X38996890Y-15639450D01*
X38999501Y-15637553D01*
X39127553Y-15509501D01*
X39233996Y-15362994D01*
X39316211Y-15201639D01*
X39372171Y-15029409D01*
X39400500Y-14850546D01*
X39400500Y-14669454D01*
X39400500Y-14669450D01*
X39372171Y-14490593D01*
X39372171Y-14490591D01*
X39316211Y-14318361D01*
X39233996Y-14157006D01*
X39127553Y-14010499D01*
X38999501Y-13882447D01*
X38852994Y-13776004D01*
X38852993Y-13776003D01*
X38852991Y-13776002D01*
X38691637Y-13693788D01*
X38519406Y-13637828D01*
X38340549Y-13609500D01*
X38340546Y-13609500D01*
X38159454Y-13609500D01*
X38159451Y-13609500D01*
X37980593Y-13637828D01*
X37808362Y-13693788D01*
X37647008Y-13776002D01*
X37623625Y-13792991D01*
X37500499Y-13882447D01*
X37372447Y-14010499D01*
X37330997Y-14067550D01*
X37266002Y-14157008D01*
X37183786Y-14318367D01*
X37164349Y-14378192D01*
X37128385Y-14427692D01*
X37070195Y-14446600D01*
X35647623Y-14446600D01*
X35589432Y-14427693D01*
X35553468Y-14378193D01*
X35551996Y-14321978D01*
X35558700Y-14296957D01*
X35558700Y-14138844D01*
X35558700Y-14138843D01*
X35517777Y-13986116D01*
X35438720Y-13849184D01*
X35438717Y-13849181D01*
X35387696Y-13798159D01*
X35359919Y-13743642D01*
X35358700Y-13728156D01*
X35358700Y-13201174D01*
X35351821Y-13175500D01*
X35331407Y-13099313D01*
X35316223Y-13073014D01*
X35278680Y-13007987D01*
X35204113Y-12933419D01*
X35204113Y-12933420D01*
X34400143Y-12129450D01*
X37099500Y-12129450D01*
X37099500Y-12310549D01*
X37127828Y-12489406D01*
X37183788Y-12661637D01*
X37232156Y-12756565D01*
X37266004Y-12822994D01*
X37372447Y-12969501D01*
X37500499Y-13097553D01*
X37647006Y-13203996D01*
X37808361Y-13286211D01*
X37980591Y-13342171D01*
X38052136Y-13353502D01*
X38159451Y-13370500D01*
X38159454Y-13370500D01*
X38340549Y-13370500D01*
X38429977Y-13356335D01*
X38519409Y-13342171D01*
X38691639Y-13286211D01*
X38852994Y-13203996D01*
X38996890Y-13099450D01*
X51229500Y-13099450D01*
X51229500Y-13280549D01*
X51257828Y-13459406D01*
X51313788Y-13631637D01*
X51370857Y-13743642D01*
X51396004Y-13792994D01*
X51502447Y-13939501D01*
X51630499Y-14067553D01*
X51777006Y-14173996D01*
X51938361Y-14256211D01*
X52110591Y-14312171D01*
X52172510Y-14321978D01*
X52289451Y-14340500D01*
X52289454Y-14340500D01*
X52470549Y-14340500D01*
X52559977Y-14326335D01*
X52649409Y-14312171D01*
X52821639Y-14256211D01*
X52982994Y-14173996D01*
X53129501Y-14067553D01*
X53257553Y-13939501D01*
X53363996Y-13792994D01*
X53446211Y-13631639D01*
X53502171Y-13459409D01*
X53530500Y-13280546D01*
X53530500Y-13099454D01*
X53530500Y-13099450D01*
X53509918Y-12969502D01*
X53502171Y-12920591D01*
X53446211Y-12748361D01*
X53363996Y-12587006D01*
X53257553Y-12440499D01*
X53129501Y-12312447D01*
X52982994Y-12206004D01*
X52982993Y-12206003D01*
X52982991Y-12206002D01*
X52821637Y-12123788D01*
X52649406Y-12067828D01*
X52470549Y-12039500D01*
X52470546Y-12039500D01*
X52289454Y-12039500D01*
X52289451Y-12039500D01*
X52110593Y-12067828D01*
X51938362Y-12123788D01*
X51777008Y-12206002D01*
X51703752Y-12259225D01*
X51630499Y-12312447D01*
X51502447Y-12440499D01*
X51449225Y-12513752D01*
X51396002Y-12587008D01*
X51313788Y-12748362D01*
X51257828Y-12920593D01*
X51229500Y-13099450D01*
X38996890Y-13099450D01*
X38999501Y-13097553D01*
X39127553Y-12969501D01*
X39233996Y-12822994D01*
X39316211Y-12661639D01*
X39372171Y-12489409D01*
X39386335Y-12399977D01*
X39400500Y-12310549D01*
X39400500Y-12129450D01*
X39372171Y-11950593D01*
X39372171Y-11950591D01*
X39316211Y-11778361D01*
X39233996Y-11617006D01*
X39127553Y-11470499D01*
X38999501Y-11342447D01*
X38852994Y-11236004D01*
X38852993Y-11236003D01*
X38852991Y-11236002D01*
X38691637Y-11153788D01*
X38519406Y-11097828D01*
X38340549Y-11069500D01*
X38340546Y-11069500D01*
X38159454Y-11069500D01*
X38159451Y-11069500D01*
X37980593Y-11097828D01*
X37808362Y-11153788D01*
X37647008Y-11236002D01*
X37623625Y-11252991D01*
X37500499Y-11342447D01*
X37372447Y-11470499D01*
X37361902Y-11485013D01*
X37266002Y-11617008D01*
X37183788Y-11778362D01*
X37127828Y-11950593D01*
X37099500Y-12129450D01*
X34400143Y-12129450D01*
X33024636Y-10753943D01*
X44244300Y-10753943D01*
X44244300Y-10912057D01*
X44285223Y-11064784D01*
X44364280Y-11201716D01*
X44476084Y-11313520D01*
X44613016Y-11392577D01*
X44765743Y-11433500D01*
X44765745Y-11433500D01*
X44923855Y-11433500D01*
X44923857Y-11433500D01*
X45076584Y-11392577D01*
X45213516Y-11313520D01*
X45325320Y-11201716D01*
X45404377Y-11064784D01*
X45445300Y-10912057D01*
X45445300Y-10839901D01*
X45464207Y-10781710D01*
X45474296Y-10769897D01*
X46494697Y-9749496D01*
X46549214Y-9721719D01*
X46564701Y-9720500D01*
X51443439Y-9720500D01*
X51501630Y-9739407D01*
X51537594Y-9788907D01*
X51537594Y-9850093D01*
X51513444Y-9889501D01*
X51502447Y-9900499D01*
X51449225Y-9973752D01*
X51396002Y-10047008D01*
X51313788Y-10208362D01*
X51257828Y-10380593D01*
X51229500Y-10559450D01*
X51229500Y-10740549D01*
X51257828Y-10919406D01*
X51313788Y-11091637D01*
X51391133Y-11243436D01*
X51396004Y-11252994D01*
X51502447Y-11399501D01*
X51630499Y-11527553D01*
X51777006Y-11633996D01*
X51938361Y-11716211D01*
X52110591Y-11772171D01*
X52182136Y-11783502D01*
X52289451Y-11800500D01*
X52289454Y-11800500D01*
X52470549Y-11800500D01*
X52559977Y-11786335D01*
X52649409Y-11772171D01*
X52821639Y-11716211D01*
X52982994Y-11633996D01*
X53129501Y-11527553D01*
X53257553Y-11399501D01*
X53363996Y-11252994D01*
X53446211Y-11091639D01*
X53502171Y-10919409D01*
X53521259Y-10798893D01*
X53530500Y-10740549D01*
X53530500Y-10559450D01*
X53502171Y-10380593D01*
X53502171Y-10380591D01*
X53446211Y-10208361D01*
X53363996Y-10047006D01*
X53257553Y-9900499D01*
X53246555Y-9889501D01*
X53218780Y-9834987D01*
X53228351Y-9774555D01*
X53271616Y-9731290D01*
X53316561Y-9720500D01*
X66462725Y-9720500D01*
X66462727Y-9720500D01*
X66564588Y-9693207D01*
X66564590Y-9693205D01*
X66564592Y-9693205D01*
X66655908Y-9640483D01*
X66655908Y-9640482D01*
X66655913Y-9640480D01*
X67091551Y-9204840D01*
X67146066Y-9177064D01*
X67192145Y-9180690D01*
X67250657Y-9199701D01*
X67350591Y-9232171D01*
X67422136Y-9243502D01*
X67529451Y-9260500D01*
X67529454Y-9260500D01*
X67710549Y-9260500D01*
X67799977Y-9246335D01*
X67889409Y-9232171D01*
X68061639Y-9176211D01*
X68222994Y-9093996D01*
X68369501Y-8987553D01*
X68497553Y-8859501D01*
X68603996Y-8712994D01*
X68686211Y-8551639D01*
X68742171Y-8379409D01*
X68770500Y-8200546D01*
X68770500Y-8019454D01*
X68770500Y-8019450D01*
X68742171Y-7840593D01*
X68742171Y-7840591D01*
X68686211Y-7668361D01*
X68603996Y-7507006D01*
X68497553Y-7360499D01*
X68369501Y-7232447D01*
X68222994Y-7126004D01*
X68222993Y-7126003D01*
X68222991Y-7126002D01*
X68061637Y-7043788D01*
X67889406Y-6987828D01*
X67710549Y-6959500D01*
X67710546Y-6959500D01*
X67529454Y-6959500D01*
X67529451Y-6959500D01*
X67350593Y-6987828D01*
X67178362Y-7043788D01*
X67017008Y-7126002D01*
X66943752Y-7179225D01*
X66870499Y-7232447D01*
X66742447Y-7360499D01*
X66724653Y-7384991D01*
X66636002Y-7507008D01*
X66553788Y-7668362D01*
X66497828Y-7840593D01*
X66469500Y-8019450D01*
X66469500Y-8200549D01*
X66497828Y-8379406D01*
X66549309Y-8537852D01*
X66549308Y-8599037D01*
X66525158Y-8638447D01*
X66273104Y-8890503D01*
X66218587Y-8918281D01*
X66203100Y-8919500D01*
X53629500Y-8919500D01*
X53571309Y-8900593D01*
X53535345Y-8851093D01*
X53530500Y-8820500D01*
X53530499Y-7215139D01*
X53530499Y-7215136D01*
X53527585Y-7190009D01*
X53482206Y-7087235D01*
X53402765Y-7007794D01*
X53299991Y-6962415D01*
X53299990Y-6962414D01*
X53299988Y-6962414D01*
X53274868Y-6959500D01*
X51485139Y-6959500D01*
X51485136Y-6959501D01*
X51460009Y-6962414D01*
X51357235Y-7007794D01*
X51277794Y-7087235D01*
X51232414Y-7190011D01*
X51229500Y-7215130D01*
X51229500Y-7215132D01*
X51229500Y-7215135D01*
X51229500Y-8019454D01*
X51229501Y-8820500D01*
X51210594Y-8878691D01*
X51161094Y-8914655D01*
X51130501Y-8919500D01*
X46410527Y-8919500D01*
X46305073Y-8919500D01*
X46242729Y-8936204D01*
X46203207Y-8946794D01*
X46111891Y-8999516D01*
X44907903Y-10203504D01*
X44853386Y-10231281D01*
X44837899Y-10232500D01*
X44765743Y-10232500D01*
X44613016Y-10273423D01*
X44476084Y-10352480D01*
X44364280Y-10464284D01*
X44285223Y-10601216D01*
X44244300Y-10753943D01*
X33024636Y-10753943D01*
X30055196Y-7784503D01*
X30027419Y-7729986D01*
X30036990Y-7669554D01*
X30080255Y-7626289D01*
X30125200Y-7615499D01*
X30165861Y-7615499D01*
X30165864Y-7615499D01*
X30190991Y-7612585D01*
X30293765Y-7567206D01*
X30373206Y-7487765D01*
X30418585Y-7384991D01*
X30421500Y-7359865D01*
X30421499Y-5570136D01*
X30418585Y-5545009D01*
X30373206Y-5442235D01*
X30293765Y-5362794D01*
X30190991Y-5317415D01*
X30190990Y-5317414D01*
X30190988Y-5317414D01*
X30165868Y-5314500D01*
X28376139Y-5314500D01*
X28376136Y-5314501D01*
X28351009Y-5317414D01*
X28248235Y-5362794D01*
X28168794Y-5442235D01*
X28123414Y-5545011D01*
X28120500Y-5570130D01*
X28120500Y-7359860D01*
X28120500Y-7359862D01*
X28120501Y-7359864D01*
X28120575Y-7360499D01*
X28123414Y-7384990D01*
X28148756Y-7442385D01*
X28168794Y-7487765D01*
X28248235Y-7567206D01*
X28351009Y-7612585D01*
X28376135Y-7615500D01*
X28793481Y-7615499D01*
X28851672Y-7634406D01*
X28887636Y-7683906D01*
X28889107Y-7688874D01*
X28897793Y-7721289D01*
X28897794Y-7721291D01*
X28950516Y-7812608D01*
X28950518Y-7812610D01*
X28950520Y-7812613D01*
X34528705Y-13390798D01*
X34556481Y-13445313D01*
X34557700Y-13460800D01*
X34557700Y-13728156D01*
X34538793Y-13786347D01*
X34528704Y-13798159D01*
X34477682Y-13849181D01*
X34398623Y-13986116D01*
X34357700Y-14138844D01*
X34357700Y-14296957D01*
X34357699Y-14296957D01*
X34364404Y-14321978D01*
X34361201Y-14383079D01*
X34322695Y-14430629D01*
X34268777Y-14446600D01*
X30240000Y-14446600D01*
X30181809Y-14427693D01*
X30169996Y-14417604D01*
X22745841Y-6993448D01*
X22718064Y-6938931D01*
X22721689Y-6892854D01*
X22773171Y-6734409D01*
X22801500Y-6555546D01*
X22801500Y-6374454D01*
X22801500Y-6374450D01*
X23040500Y-6374450D01*
X23040500Y-6555549D01*
X23068828Y-6734406D01*
X23124788Y-6906637D01*
X23194670Y-7043789D01*
X23207004Y-7067994D01*
X23313447Y-7214501D01*
X23441499Y-7342553D01*
X23588006Y-7448996D01*
X23749361Y-7531211D01*
X23921591Y-7587171D01*
X23993136Y-7598502D01*
X24100451Y-7615500D01*
X24100454Y-7615500D01*
X24281549Y-7615500D01*
X24370977Y-7601335D01*
X24460409Y-7587171D01*
X24632639Y-7531211D01*
X24793994Y-7448996D01*
X24940501Y-7342553D01*
X25068553Y-7214501D01*
X25174996Y-7067994D01*
X25257211Y-6906639D01*
X25313171Y-6734409D01*
X25341500Y-6555546D01*
X25341500Y-6374454D01*
X25341500Y-6374450D01*
X25313171Y-6195593D01*
X25313171Y-6195591D01*
X25257211Y-6023361D01*
X25174996Y-5862006D01*
X25068553Y-5715499D01*
X24940501Y-5587447D01*
X24793994Y-5481004D01*
X24793993Y-5481003D01*
X24793991Y-5481002D01*
X24632637Y-5398788D01*
X24460406Y-5342828D01*
X24281549Y-5314500D01*
X24281546Y-5314500D01*
X24100454Y-5314500D01*
X24100451Y-5314500D01*
X23921593Y-5342828D01*
X23749362Y-5398788D01*
X23588008Y-5481002D01*
X23514752Y-5534225D01*
X23441499Y-5587447D01*
X23313447Y-5715499D01*
X23308193Y-5722731D01*
X23207002Y-5862008D01*
X23124788Y-6023362D01*
X23068828Y-6195593D01*
X23040500Y-6374450D01*
X22801500Y-6374450D01*
X22773171Y-6195593D01*
X22773171Y-6195591D01*
X22717211Y-6023361D01*
X22634996Y-5862006D01*
X22528553Y-5715499D01*
X22400501Y-5587447D01*
X22253994Y-5481004D01*
X22253993Y-5481003D01*
X22253991Y-5481002D01*
X22092637Y-5398788D01*
X21920406Y-5342828D01*
X21741549Y-5314500D01*
X21741546Y-5314500D01*
X21560454Y-5314500D01*
X21560451Y-5314500D01*
X21381593Y-5342828D01*
X21209362Y-5398788D01*
X21048008Y-5481002D01*
X20974752Y-5534225D01*
X20901499Y-5587447D01*
X20773447Y-5715499D01*
X20768193Y-5722731D01*
X20667002Y-5862008D01*
X20584788Y-6023362D01*
X20528828Y-6195593D01*
X20500500Y-6374450D01*
X500500Y-6374450D01*
X500500Y-4378710D01*
X2649500Y-4378710D01*
X2649500Y-4621289D01*
X2681161Y-4861781D01*
X2681161Y-4861786D01*
X2743944Y-5096092D01*
X2743948Y-5096105D01*
X2836772Y-5320204D01*
X2836774Y-5320208D01*
X2836776Y-5320212D01*
X2958064Y-5530289D01*
X2958066Y-5530292D01*
X3105729Y-5722731D01*
X3105731Y-5722733D01*
X3105735Y-5722738D01*
X3277262Y-5894265D01*
X3277266Y-5894268D01*
X3277268Y-5894270D01*
X3445505Y-6023362D01*
X3469711Y-6041936D01*
X3679788Y-6163224D01*
X3903900Y-6256054D01*
X4138211Y-6318838D01*
X4378712Y-6350500D01*
X4378713Y-6350500D01*
X4621287Y-6350500D01*
X4621288Y-6350500D01*
X4861789Y-6318838D01*
X5096100Y-6256054D01*
X5320212Y-6163224D01*
X5530289Y-6041936D01*
X5722738Y-5894265D01*
X5894265Y-5722738D01*
X6041936Y-5530289D01*
X6163224Y-5320212D01*
X6256054Y-5096100D01*
X6318838Y-4861789D01*
X6350500Y-4621288D01*
X6350500Y-4378712D01*
X6350500Y-4378710D01*
X93649500Y-4378710D01*
X93649500Y-4621289D01*
X93681161Y-4861781D01*
X93681161Y-4861786D01*
X93743944Y-5096092D01*
X93743948Y-5096105D01*
X93836772Y-5320204D01*
X93836774Y-5320208D01*
X93836776Y-5320212D01*
X93958064Y-5530289D01*
X93958066Y-5530292D01*
X94105729Y-5722731D01*
X94105731Y-5722733D01*
X94105735Y-5722738D01*
X94277262Y-5894265D01*
X94277266Y-5894268D01*
X94277268Y-5894270D01*
X94445505Y-6023362D01*
X94469711Y-6041936D01*
X94679788Y-6163224D01*
X94903900Y-6256054D01*
X95138211Y-6318838D01*
X95378712Y-6350500D01*
X95378713Y-6350500D01*
X95621287Y-6350500D01*
X95621288Y-6350500D01*
X95861789Y-6318838D01*
X96096100Y-6256054D01*
X96320212Y-6163224D01*
X96530289Y-6041936D01*
X96722738Y-5894265D01*
X96894265Y-5722738D01*
X97041936Y-5530289D01*
X97163224Y-5320212D01*
X97256054Y-5096100D01*
X97318838Y-4861789D01*
X97350500Y-4621288D01*
X97350500Y-4378712D01*
X97318838Y-4138211D01*
X97256054Y-3903900D01*
X97163224Y-3679788D01*
X97041936Y-3469711D01*
X96894265Y-3277262D01*
X96722738Y-3105735D01*
X96722733Y-3105731D01*
X96722731Y-3105729D01*
X96530292Y-2958066D01*
X96530289Y-2958064D01*
X96320212Y-2836776D01*
X96320208Y-2836774D01*
X96320204Y-2836772D01*
X96096105Y-2743948D01*
X96096104Y-2743947D01*
X96096100Y-2743946D01*
X95861789Y-2681162D01*
X95861786Y-2681161D01*
X95861784Y-2681161D01*
X95621289Y-2649500D01*
X95621288Y-2649500D01*
X95378712Y-2649500D01*
X95378710Y-2649500D01*
X95138218Y-2681161D01*
X95138213Y-2681161D01*
X94903907Y-2743944D01*
X94903894Y-2743948D01*
X94679795Y-2836772D01*
X94469707Y-2958066D01*
X94277268Y-3105729D01*
X94105729Y-3277268D01*
X93958066Y-3469707D01*
X93836772Y-3679795D01*
X93743948Y-3903894D01*
X93743944Y-3903907D01*
X93681161Y-4138213D01*
X93681161Y-4138218D01*
X93649500Y-4378710D01*
X6350500Y-4378710D01*
X6318838Y-4138211D01*
X6256054Y-3903900D01*
X6163224Y-3679788D01*
X6041936Y-3469711D01*
X5894265Y-3277262D01*
X5722738Y-3105735D01*
X5722733Y-3105731D01*
X5722731Y-3105729D01*
X5530292Y-2958066D01*
X5530289Y-2958064D01*
X5320212Y-2836776D01*
X5320208Y-2836774D01*
X5320204Y-2836772D01*
X5096105Y-2743948D01*
X5096104Y-2743947D01*
X5096100Y-2743946D01*
X4861789Y-2681162D01*
X4861786Y-2681161D01*
X4861784Y-2681161D01*
X4621289Y-2649500D01*
X4621288Y-2649500D01*
X4378712Y-2649500D01*
X4378710Y-2649500D01*
X4138218Y-2681161D01*
X4138213Y-2681161D01*
X3903907Y-2743944D01*
X3903894Y-2743948D01*
X3679795Y-2836772D01*
X3469707Y-2958066D01*
X3277268Y-3105729D01*
X3105729Y-3277268D01*
X2958066Y-3469707D01*
X2836772Y-3679795D01*
X2743948Y-3903894D01*
X2743944Y-3903907D01*
X2681161Y-4138213D01*
X2681161Y-4138218D01*
X2649500Y-4378710D01*
X500500Y-4378710D01*
X500500Y-3002984D01*
X500681Y-2997007D01*
X500681Y-2997006D01*
X518362Y-2704688D01*
X519801Y-2692837D01*
X572052Y-2407715D01*
X574912Y-2396114D01*
X661148Y-2119370D01*
X665378Y-2108218D01*
X784350Y-1843875D01*
X789891Y-1833315D01*
X939868Y-1585221D01*
X946632Y-1575424D01*
X1125407Y-1347235D01*
X1133319Y-1338303D01*
X1338303Y-1133319D01*
X1347235Y-1125407D01*
X1575424Y-946632D01*
X1585221Y-939868D01*
X1833315Y-789891D01*
X1843875Y-784350D01*
X2108218Y-665378D01*
X2119370Y-661148D01*
X2396121Y-574910D01*
X2407715Y-572052D01*
X2692837Y-519801D01*
X2704688Y-518362D01*
X2997008Y-500681D01*
X3002985Y-500500D01*
X3065892Y-500500D01*
X96934108Y-500500D01*
X96997015Y-500500D01*
X97002992Y-500681D01*
G37*
%TD.AperFunction*%
%TD*%
M02*
