%TF.GenerationSoftware,KiCad,Pcbnew,10.0.5*%
%TF.CreationDate,2026-08-30T09:08:53-07:00*%
%TF.ProjectId,droidrefit-pcb,64726f69-6472-4656-9669-742d7063622e,rev?*%
%TF.SameCoordinates,Original*%
%TF.FileFunction,Copper,L2,Bot*%
%TF.FilePolarity,Positive*%
%FSLAX46Y46*%
G04 Gerber Fmt 4.6, Leading zero omitted, Abs format (unit mm)*
G04 Created by KiCad (PCBNEW 10.0.5) date 2026-08-30 09:08:53*
%MOMM*%
%LPD*%
G01*
G04 APERTURE LIST*
G04 Aperture macros list*
%AMRoundRect*
0 Rectangle with rounded corners*
0 $1 Rounding radius*
0 $2 $3 $4 $5 $6 $7 $8 $9 X,Y pos of 4 corners*
0 Add a 4 corners polygon primitive as box body*
4,1,4,$2,$3,$4,$5,$6,$7,$8,$9,$2,$3,0*
0 Add four circle primitives for the rounded corners*
1,1,$1+$1,$2,$3*
1,1,$1+$1,$4,$5*
1,1,$1+$1,$6,$7*
1,1,$1+$1,$8,$9*
0 Add four rect primitives between the rounded corners*
20,1,$1+$1,$2,$3,$4,$5,0*
20,1,$1+$1,$4,$5,$6,$7,0*
20,1,$1+$1,$6,$7,$8,$9,0*
20,1,$1+$1,$8,$9,$2,$3,0*%
G04 Aperture macros list end*
%TA.AperFunction,ComponentPad*%
%ADD10R,1.700000X1.700000*%
%TD*%
%TA.AperFunction,ComponentPad*%
%ADD11C,1.700000*%
%TD*%
%TA.AperFunction,ComponentPad*%
%ADD12O,1.000000X2.100000*%
%TD*%
%TA.AperFunction,ComponentPad*%
%ADD13O,1.000000X1.600000*%
%TD*%
%TA.AperFunction,ComponentPad*%
%ADD14RoundRect,0.250000X-0.350000X-0.625000X0.350000X-0.625000X0.350000X0.625000X-0.350000X0.625000X0*%
%TD*%
%TA.AperFunction,ComponentPad*%
%ADD15O,1.200000X1.750000*%
%TD*%
%TA.AperFunction,ViaPad*%
%ADD16C,0.600000*%
%TD*%
%TA.AperFunction,Conductor*%
%ADD17C,0.200000*%
%TD*%
%TA.AperFunction,Conductor*%
%ADD18C,0.250000*%
%TD*%
%TA.AperFunction,Profile*%
%ADD19C,0.100000*%
%TD*%
G04 APERTURE END LIST*
D10*
%TO.P,J2,1*%
%TO.N,SERVO_PWM*%
X92000000Y-58000000D03*
D11*
%TO.P,J2,2*%
%TO.N,+5V*%
X94540000Y-58000000D03*
%TO.P,J2,3*%
%TO.N,GND*%
X97080000Y-58000000D03*
%TD*%
D10*
%TO.P,U2,1*%
%TO.N,+5V*%
X52380000Y-8110000D03*
D11*
%TO.P,U2,2*%
%TO.N,TX2_DFP*%
X52380000Y-10650000D03*
%TO.P,U2,3*%
%TO.N,RX2_DFP*%
X52380000Y-13190000D03*
%TO.P,U2,4*%
%TO.N,N/C*%
X52380000Y-15730000D03*
%TO.P,U2,5*%
X52380000Y-18270000D03*
%TO.P,U2,6*%
%TO.N,SPK_P*%
X52380000Y-20810000D03*
%TO.P,U2,7*%
%TO.N,GND*%
X52380000Y-23350000D03*
%TO.P,U2,8*%
%TO.N,SPK_N*%
X52380000Y-25890000D03*
%TO.P,U2,9*%
%TO.N,N/C*%
X67620000Y-25890000D03*
%TO.P,U2,10*%
%TO.N,GND*%
X67620000Y-23350000D03*
%TO.P,U2,11*%
%TO.N,N/C*%
X67620000Y-20810000D03*
%TO.P,U2,12*%
X67620000Y-18270000D03*
%TO.P,U2,13*%
X67620000Y-15730000D03*
%TO.P,U2,14*%
X67620000Y-13190000D03*
%TO.P,U2,15*%
X67620000Y-10650000D03*
%TO.P,U2,16*%
%TO.N,DFP_BUSY*%
X67620000Y-8110000D03*
%TD*%
D12*
%TO.P,J1,SH*%
%TO.N,GND*%
X15680000Y-61395000D03*
D13*
X15680000Y-65575000D03*
D12*
X24320000Y-61395000D03*
D13*
X24320000Y-65575000D03*
%TD*%
D10*
%TO.P,U1,1*%
%TO.N,N/C*%
X13750000Y-12220000D03*
D11*
%TO.P,U1,2*%
X13750000Y-14760000D03*
%TO.P,U1,3*%
X13750000Y-17300000D03*
%TO.P,U1,4*%
X13750000Y-19840000D03*
%TO.P,U1,5*%
X13750000Y-22380000D03*
%TO.P,U1,6*%
X13750000Y-24920000D03*
%TO.P,U1,7*%
X13750000Y-27460000D03*
%TO.P,U1,8*%
X13750000Y-30000000D03*
%TO.P,U1,9*%
X13750000Y-32540000D03*
%TO.P,U1,10*%
X13750000Y-35080000D03*
%TO.P,U1,11*%
X13750000Y-37620000D03*
%TO.P,U1,12*%
X13750000Y-40160000D03*
%TO.P,U1,13*%
X13750000Y-42700000D03*
%TO.P,U1,14*%
%TO.N,GND*%
X13750000Y-45240000D03*
%TO.P,U1,15*%
%TO.N,+5V*%
X13750000Y-47780000D03*
%TO.P,U1,16*%
%TO.N,N/C*%
X38250000Y-12220000D03*
%TO.P,U1,17*%
X38250000Y-14760000D03*
%TO.P,U1,18*%
X38250000Y-17300000D03*
%TO.P,U1,19*%
X38250000Y-19840000D03*
%TO.P,U1,20*%
X38250000Y-22380000D03*
%TO.P,U1,21*%
X38250000Y-24920000D03*
%TO.P,U1,22*%
%TO.N,SERVO_PWM*%
X38250000Y-27460000D03*
%TO.P,U1,23*%
%TO.N,NPX_IN*%
X38250000Y-30000000D03*
%TO.P,U1,24*%
%TO.N,ESP_TX2*%
X38250000Y-32540000D03*
%TO.P,U1,25*%
%TO.N,RX2_DFP*%
X38250000Y-35080000D03*
%TO.P,U1,26*%
%TO.N,DFP_BUSY*%
X38250000Y-37620000D03*
%TO.P,U1,27*%
%TO.N,N/C*%
X38250000Y-40160000D03*
%TO.P,U1,28*%
X38250000Y-42700000D03*
%TO.P,U1,29*%
%TO.N,GND*%
X38250000Y-45240000D03*
%TO.P,U1,30*%
%TO.N,+3V3*%
X38250000Y-47780000D03*
%TD*%
D14*
%TO.P,J5,1*%
%TO.N,SPK_P*%
X92000000Y-12000000D03*
D15*
%TO.P,J5,2*%
%TO.N,SPK_N*%
X94000000Y-12000000D03*
%TD*%
D16*
%TO.N,GND*%
X16950000Y-30950000D03*
X44950000Y-44950000D03*
X72950000Y-16950000D03*
X2950000Y-16950000D03*
X86950000Y-30950000D03*
X58950000Y-58950000D03*
X44950000Y-2950000D03*
X72950000Y-58950000D03*
X58950000Y-16950000D03*
X86950000Y-2950000D03*
X2950000Y-30950000D03*
X2950000Y-2950000D03*
X72950000Y-30950000D03*
X30950000Y-2950000D03*
X30950000Y-44950000D03*
X2950000Y-44950000D03*
X86950000Y-58950000D03*
X72950000Y-2950000D03*
X2950000Y-58950000D03*
X58950000Y-30950000D03*
X44950000Y-58950000D03*
X86950000Y-44950000D03*
X16950000Y-16950000D03*
X30950000Y-30950000D03*
X58950000Y-44950000D03*
X30950000Y-16950000D03*
X86950000Y-16950000D03*
X16950000Y-44950000D03*
X58950000Y-2950000D03*
X72950000Y-44950000D03*
X16950000Y-2950000D03*
X44950000Y-30950000D03*
%TO.N,DFP_BUSY*%
X44844800Y-10833000D03*
%TO.N,NPX_IN*%
X54862500Y-42000000D03*
%TD*%
%TO.N,SERVO_PWM*%
D17*
X60308300Y-27460000D02*
X38250000Y-27460000D01*
X92000000Y-58000000D02*
X90848300Y-58000000D01*
X90848300Y-58000000D02*
X60308300Y-27460000D01*
%TO.N,SPK_P*%
X61277500Y-12000000D02*
X92000000Y-12000000D01*
X52467500Y-20810000D02*
X61277500Y-12000000D01*
X52380000Y-20810000D02*
X52467500Y-20810000D01*
%TO.N,SPK_N*%
X52380000Y-25890000D02*
X53632300Y-24637700D01*
X93098300Y-12678300D02*
X93098300Y-12000000D01*
X53632300Y-24637700D02*
X81138900Y-24637700D01*
X81138900Y-24637700D02*
X93098300Y-12678300D01*
X93098300Y-12000000D02*
X94000000Y-12000000D01*
%TO.N,DFP_BUSY*%
X67620000Y-8110000D02*
X66410000Y-9320000D01*
X66410000Y-9320000D02*
X46357800Y-9320000D01*
X46357800Y-9320000D02*
X44844800Y-10833000D01*
%TO.N,NPX_IN*%
D18*
X44000000Y-44000000D02*
X54862500Y-44000000D01*
X54862500Y-44000000D02*
X54862500Y-42000000D01*
X44000000Y-30000000D02*
X44000000Y-44000000D01*
X38250000Y-30000000D02*
X44000000Y-30000000D01*
%TD*%
%TA.AperFunction,Conductor*%
%TO.N,GND*%
G36*
X97002992Y-500681D02*
G01*
X97295309Y-518362D01*
X97307164Y-519802D01*
X97592280Y-572051D01*
X97603882Y-574911D01*
X97880623Y-661147D01*
X97891786Y-665380D01*
X98152200Y-782583D01*
X98156118Y-784347D01*
X98166690Y-789895D01*
X98414770Y-939864D01*
X98424583Y-946638D01*
X98652755Y-1125400D01*
X98661704Y-1133327D01*
X98866672Y-1338295D01*
X98874599Y-1347244D01*
X99053356Y-1575409D01*
X99060138Y-1585233D01*
X99210100Y-1833303D01*
X99215652Y-1843881D01*
X99334616Y-2108206D01*
X99338855Y-2119384D01*
X99425087Y-2396114D01*
X99427948Y-2407722D01*
X99480196Y-2692828D01*
X99481637Y-2704695D01*
X99499319Y-2997006D01*
X99499500Y-3002984D01*
X99499500Y-66997015D01*
X99499319Y-67002993D01*
X99481637Y-67295304D01*
X99480196Y-67307171D01*
X99427948Y-67592277D01*
X99425087Y-67603885D01*
X99338855Y-67880615D01*
X99334616Y-67891793D01*
X99215652Y-68156118D01*
X99210096Y-68166703D01*
X99060142Y-68414758D01*
X99053356Y-68424590D01*
X98874599Y-68652755D01*
X98866672Y-68661704D01*
X98661704Y-68866672D01*
X98652755Y-68874599D01*
X98424590Y-69053356D01*
X98414758Y-69060142D01*
X98177212Y-69203744D01*
X98166703Y-69210097D01*
X98156118Y-69215652D01*
X97891793Y-69334616D01*
X97880615Y-69338855D01*
X97603885Y-69425087D01*
X97592277Y-69427948D01*
X97307171Y-69480196D01*
X97295304Y-69481637D01*
X97023993Y-69498048D01*
X97002991Y-69499319D01*
X96997015Y-69499500D01*
X3002985Y-69499500D01*
X2997008Y-69499319D01*
X2973564Y-69497900D01*
X2704695Y-69481637D01*
X2692828Y-69480196D01*
X2407722Y-69427948D01*
X2396114Y-69425087D01*
X2119384Y-69338855D01*
X2108206Y-69334616D01*
X1843881Y-69215652D01*
X1833303Y-69210100D01*
X1585233Y-69060138D01*
X1575413Y-69053359D01*
X1347244Y-68874599D01*
X1338295Y-68866672D01*
X1133327Y-68661704D01*
X1125400Y-68652755D01*
X946638Y-68424583D01*
X939864Y-68414770D01*
X789895Y-68166690D01*
X784347Y-68156118D01*
X665383Y-67891793D01*
X661147Y-67880623D01*
X574911Y-67603882D01*
X572051Y-67592277D01*
X519803Y-67307171D01*
X518362Y-67295303D01*
X500681Y-67002992D01*
X500500Y-66997015D01*
X500500Y-62878710D01*
X5149500Y-62878710D01*
X5149500Y-63121289D01*
X5181161Y-63361781D01*
X5181161Y-63361786D01*
X5243944Y-63596092D01*
X5243948Y-63596105D01*
X5336772Y-63820204D01*
X5336774Y-63820208D01*
X5336776Y-63820212D01*
X5458064Y-64030289D01*
X5458066Y-64030292D01*
X5605729Y-64222731D01*
X5605731Y-64222733D01*
X5605735Y-64222738D01*
X5777262Y-64394265D01*
X5777266Y-64394268D01*
X5777268Y-64394270D01*
X5969707Y-64541933D01*
X5969711Y-64541936D01*
X6179788Y-64663224D01*
X6403900Y-64756054D01*
X6638211Y-64818838D01*
X6878712Y-64850500D01*
X6878713Y-64850500D01*
X7121287Y-64850500D01*
X7121288Y-64850500D01*
X7361789Y-64818838D01*
X7596100Y-64756054D01*
X7820212Y-64663224D01*
X8030289Y-64541936D01*
X8222738Y-64394265D01*
X8394265Y-64222738D01*
X8541936Y-64030289D01*
X8663224Y-63820212D01*
X8756054Y-63596100D01*
X8818838Y-63361789D01*
X8850500Y-63121288D01*
X8850500Y-62878712D01*
X8850500Y-62878710D01*
X91149500Y-62878710D01*
X91149500Y-63121289D01*
X91181161Y-63361781D01*
X91181161Y-63361786D01*
X91243944Y-63596092D01*
X91243948Y-63596105D01*
X91336772Y-63820204D01*
X91336774Y-63820208D01*
X91336776Y-63820212D01*
X91458064Y-64030289D01*
X91458066Y-64030292D01*
X91605729Y-64222731D01*
X91605731Y-64222733D01*
X91605735Y-64222738D01*
X91777262Y-64394265D01*
X91777266Y-64394268D01*
X91777268Y-64394270D01*
X91969707Y-64541933D01*
X91969711Y-64541936D01*
X92179788Y-64663224D01*
X92403900Y-64756054D01*
X92638211Y-64818838D01*
X92878712Y-64850500D01*
X92878713Y-64850500D01*
X93121287Y-64850500D01*
X93121288Y-64850500D01*
X93361789Y-64818838D01*
X93596100Y-64756054D01*
X93820212Y-64663224D01*
X94030289Y-64541936D01*
X94222738Y-64394265D01*
X94394265Y-64222738D01*
X94541936Y-64030289D01*
X94663224Y-63820212D01*
X94756054Y-63596100D01*
X94818838Y-63361789D01*
X94850500Y-63121288D01*
X94850500Y-62878712D01*
X94818838Y-62638211D01*
X94756054Y-62403900D01*
X94663224Y-62179788D01*
X94541936Y-61969711D01*
X94541933Y-61969707D01*
X94394270Y-61777268D01*
X94394268Y-61777266D01*
X94394265Y-61777262D01*
X94222738Y-61605735D01*
X94222733Y-61605731D01*
X94222731Y-61605729D01*
X94030292Y-61458066D01*
X94030289Y-61458064D01*
X93820212Y-61336776D01*
X93820208Y-61336774D01*
X93820204Y-61336772D01*
X93596105Y-61243948D01*
X93596104Y-61243947D01*
X93596100Y-61243946D01*
X93361789Y-61181162D01*
X93361786Y-61181161D01*
X93361784Y-61181161D01*
X93121289Y-61149500D01*
X93121288Y-61149500D01*
X92878712Y-61149500D01*
X92878710Y-61149500D01*
X92638218Y-61181161D01*
X92638213Y-61181161D01*
X92403907Y-61243944D01*
X92403894Y-61243948D01*
X92179795Y-61336772D01*
X91969707Y-61458066D01*
X91777268Y-61605729D01*
X91605729Y-61777268D01*
X91458066Y-61969707D01*
X91336772Y-62179795D01*
X91243948Y-62403894D01*
X91243944Y-62403907D01*
X91181161Y-62638213D01*
X91181161Y-62638218D01*
X91149500Y-62878710D01*
X8850500Y-62878710D01*
X8818838Y-62638211D01*
X8756054Y-62403900D01*
X8663224Y-62179788D01*
X8541936Y-61969711D01*
X8541933Y-61969707D01*
X8467737Y-61873012D01*
X8426472Y-61819234D01*
X16534500Y-61819234D01*
X16534500Y-61970766D01*
X16569086Y-62099847D01*
X16573720Y-62117139D01*
X16649481Y-62248360D01*
X16649483Y-62248362D01*
X16649485Y-62248365D01*
X16756635Y-62355515D01*
X16756637Y-62355516D01*
X16756639Y-62355518D01*
X16887861Y-62431279D01*
X16887859Y-62431279D01*
X16887863Y-62431280D01*
X16887865Y-62431281D01*
X17034234Y-62470500D01*
X17034236Y-62470500D01*
X17185764Y-62470500D01*
X17185766Y-62470500D01*
X17332135Y-62431281D01*
X17332137Y-62431279D01*
X17332139Y-62431279D01*
X17463360Y-62355518D01*
X17463360Y-62355517D01*
X17463365Y-62355515D01*
X17570515Y-62248365D01*
X17646281Y-62117135D01*
X17685500Y-61970766D01*
X17685500Y-61819234D01*
X22314500Y-61819234D01*
X22314500Y-61970766D01*
X22349086Y-62099847D01*
X22353720Y-62117139D01*
X22429481Y-62248360D01*
X22429483Y-62248362D01*
X22429485Y-62248365D01*
X22536635Y-62355515D01*
X22536637Y-62355516D01*
X22536639Y-62355518D01*
X22667861Y-62431279D01*
X22667859Y-62431279D01*
X22667863Y-62431280D01*
X22667865Y-62431281D01*
X22814234Y-62470500D01*
X22814236Y-62470500D01*
X22965764Y-62470500D01*
X22965766Y-62470500D01*
X23112135Y-62431281D01*
X23112137Y-62431279D01*
X23112139Y-62431279D01*
X23243360Y-62355518D01*
X23243360Y-62355517D01*
X23243365Y-62355515D01*
X23350515Y-62248365D01*
X23426281Y-62117135D01*
X23465500Y-61970766D01*
X23465500Y-61819234D01*
X23426281Y-61672865D01*
X23426279Y-61672862D01*
X23426279Y-61672860D01*
X23350518Y-61541639D01*
X23350516Y-61541637D01*
X23350515Y-61541635D01*
X23243365Y-61434485D01*
X23243362Y-61434483D01*
X23243360Y-61434481D01*
X23112138Y-61358720D01*
X23112140Y-61358720D01*
X23055347Y-61343503D01*
X22965766Y-61319500D01*
X22814234Y-61319500D01*
X22724652Y-61343503D01*
X22667860Y-61358720D01*
X22536639Y-61434481D01*
X22429481Y-61541639D01*
X22353720Y-61672860D01*
X22353719Y-61672865D01*
X22314500Y-61819234D01*
X17685500Y-61819234D01*
X17646281Y-61672865D01*
X17646279Y-61672862D01*
X17646279Y-61672860D01*
X17570518Y-61541639D01*
X17570516Y-61541637D01*
X17570515Y-61541635D01*
X17463365Y-61434485D01*
X17463362Y-61434483D01*
X17463360Y-61434481D01*
X17332138Y-61358720D01*
X17332140Y-61358720D01*
X17275347Y-61343503D01*
X17185766Y-61319500D01*
X17034234Y-61319500D01*
X16944652Y-61343503D01*
X16887860Y-61358720D01*
X16756639Y-61434481D01*
X16649481Y-61541639D01*
X16573720Y-61672860D01*
X16573719Y-61672865D01*
X16534500Y-61819234D01*
X8426472Y-61819234D01*
X8394270Y-61777268D01*
X8394268Y-61777266D01*
X8394265Y-61777262D01*
X8222738Y-61605735D01*
X8222733Y-61605731D01*
X8222731Y-61605729D01*
X8030292Y-61458066D01*
X8030289Y-61458064D01*
X7820212Y-61336776D01*
X7820208Y-61336774D01*
X7820204Y-61336772D01*
X7596105Y-61243948D01*
X7596104Y-61243947D01*
X7596100Y-61243946D01*
X7361789Y-61181162D01*
X7361786Y-61181161D01*
X7361784Y-61181161D01*
X7121289Y-61149500D01*
X7121288Y-61149500D01*
X6878712Y-61149500D01*
X6878710Y-61149500D01*
X6638218Y-61181161D01*
X6638213Y-61181161D01*
X6403907Y-61243944D01*
X6403894Y-61243948D01*
X6179795Y-61336772D01*
X5969707Y-61458066D01*
X5777268Y-61605729D01*
X5605729Y-61777268D01*
X5458066Y-61969707D01*
X5336772Y-62179795D01*
X5243948Y-62403894D01*
X5243944Y-62403907D01*
X5181161Y-62638213D01*
X5181161Y-62638218D01*
X5149500Y-62878710D01*
X500500Y-62878710D01*
X500500Y-47689450D01*
X12599500Y-47689450D01*
X12599500Y-47870549D01*
X12627828Y-48049406D01*
X12627829Y-48049409D01*
X12683789Y-48221639D01*
X12766004Y-48382994D01*
X12872447Y-48529501D01*
X13000499Y-48657553D01*
X13147006Y-48763996D01*
X13308361Y-48846211D01*
X13480591Y-48902171D01*
X13552136Y-48913502D01*
X13659451Y-48930500D01*
X13659454Y-48930500D01*
X13840549Y-48930500D01*
X13929977Y-48916335D01*
X14019409Y-48902171D01*
X14191639Y-48846211D01*
X14352994Y-48763996D01*
X14499501Y-48657553D01*
X14627553Y-48529501D01*
X14733996Y-48382994D01*
X14816211Y-48221639D01*
X14872171Y-48049409D01*
X14900500Y-47870546D01*
X14900500Y-47689454D01*
X14900500Y-47689450D01*
X37099500Y-47689450D01*
X37099500Y-47870549D01*
X37127828Y-48049406D01*
X37127829Y-48049409D01*
X37183789Y-48221639D01*
X37266004Y-48382994D01*
X37372447Y-48529501D01*
X37500499Y-48657553D01*
X37647006Y-48763996D01*
X37808361Y-48846211D01*
X37980591Y-48902171D01*
X38052136Y-48913502D01*
X38159451Y-48930500D01*
X38159454Y-48930500D01*
X38340549Y-48930500D01*
X38429977Y-48916335D01*
X38519409Y-48902171D01*
X38691639Y-48846211D01*
X38852994Y-48763996D01*
X38999501Y-48657553D01*
X39127553Y-48529501D01*
X39233996Y-48382994D01*
X39316211Y-48221639D01*
X39372171Y-48049409D01*
X39400500Y-47870546D01*
X39400500Y-47689454D01*
X39400500Y-47689450D01*
X39372171Y-47510593D01*
X39372171Y-47510591D01*
X39316211Y-47338361D01*
X39233996Y-47177006D01*
X39127553Y-47030499D01*
X38999501Y-46902447D01*
X38852994Y-46796004D01*
X38852993Y-46796003D01*
X38852991Y-46796002D01*
X38691637Y-46713788D01*
X38519406Y-46657828D01*
X38340549Y-46629500D01*
X38340546Y-46629500D01*
X38159454Y-46629500D01*
X38159451Y-46629500D01*
X37980593Y-46657828D01*
X37808362Y-46713788D01*
X37647008Y-46796002D01*
X37573752Y-46849225D01*
X37500499Y-46902447D01*
X37372447Y-47030499D01*
X37319225Y-47103752D01*
X37266002Y-47177008D01*
X37183788Y-47338362D01*
X37127828Y-47510593D01*
X37099500Y-47689450D01*
X14900500Y-47689450D01*
X14872171Y-47510593D01*
X14872171Y-47510591D01*
X14816211Y-47338361D01*
X14733996Y-47177006D01*
X14627553Y-47030499D01*
X14499501Y-46902447D01*
X14352994Y-46796004D01*
X14352993Y-46796003D01*
X14352991Y-46796002D01*
X14191637Y-46713788D01*
X14019406Y-46657828D01*
X13840549Y-46629500D01*
X13840546Y-46629500D01*
X13659454Y-46629500D01*
X13659451Y-46629500D01*
X13480593Y-46657828D01*
X13308362Y-46713788D01*
X13147008Y-46796002D01*
X13073752Y-46849225D01*
X13000499Y-46902447D01*
X12872447Y-47030499D01*
X12819225Y-47103752D01*
X12766002Y-47177008D01*
X12683788Y-47338362D01*
X12627828Y-47510593D01*
X12599500Y-47689450D01*
X500500Y-47689450D01*
X500500Y-42609450D01*
X12599500Y-42609450D01*
X12599500Y-42790549D01*
X12627828Y-42969406D01*
X12627829Y-42969409D01*
X12683789Y-43141639D01*
X12766004Y-43302994D01*
X12872447Y-43449501D01*
X13000499Y-43577553D01*
X13147006Y-43683996D01*
X13308361Y-43766211D01*
X13480591Y-43822171D01*
X13552136Y-43833502D01*
X13659451Y-43850500D01*
X13659454Y-43850500D01*
X13840549Y-43850500D01*
X13929977Y-43836335D01*
X14019409Y-43822171D01*
X14191639Y-43766211D01*
X14352994Y-43683996D01*
X14499501Y-43577553D01*
X14627553Y-43449501D01*
X14733996Y-43302994D01*
X14816211Y-43141639D01*
X14872171Y-42969409D01*
X14900500Y-42790546D01*
X14900500Y-42609454D01*
X14900500Y-42609450D01*
X37099500Y-42609450D01*
X37099500Y-42790549D01*
X37127828Y-42969406D01*
X37127829Y-42969409D01*
X37183789Y-43141639D01*
X37266004Y-43302994D01*
X37372447Y-43449501D01*
X37500499Y-43577553D01*
X37647006Y-43683996D01*
X37808361Y-43766211D01*
X37980591Y-43822171D01*
X38052136Y-43833502D01*
X38159451Y-43850500D01*
X38159454Y-43850500D01*
X38340549Y-43850500D01*
X38429977Y-43836335D01*
X38519409Y-43822171D01*
X38691639Y-43766211D01*
X38852994Y-43683996D01*
X38999501Y-43577553D01*
X39127553Y-43449501D01*
X39233996Y-43302994D01*
X39316211Y-43141639D01*
X39372171Y-42969409D01*
X39400500Y-42790546D01*
X39400500Y-42609454D01*
X39400500Y-42609450D01*
X39372171Y-42430593D01*
X39372171Y-42430591D01*
X39316211Y-42258361D01*
X39233996Y-42097006D01*
X39127553Y-41950499D01*
X38999501Y-41822447D01*
X38852994Y-41716004D01*
X38852993Y-41716003D01*
X38852991Y-41716002D01*
X38691637Y-41633788D01*
X38519406Y-41577828D01*
X38340549Y-41549500D01*
X38340546Y-41549500D01*
X38159454Y-41549500D01*
X38159451Y-41549500D01*
X37980593Y-41577828D01*
X37808362Y-41633788D01*
X37647008Y-41716002D01*
X37575142Y-41768216D01*
X37500499Y-41822447D01*
X37372447Y-41950499D01*
X37319225Y-42023752D01*
X37266002Y-42097008D01*
X37183788Y-42258362D01*
X37127828Y-42430593D01*
X37099500Y-42609450D01*
X14900500Y-42609450D01*
X14872171Y-42430593D01*
X14872171Y-42430591D01*
X14816211Y-42258361D01*
X14733996Y-42097006D01*
X14627553Y-41950499D01*
X14499501Y-41822447D01*
X14352994Y-41716004D01*
X14352993Y-41716003D01*
X14352991Y-41716002D01*
X14191637Y-41633788D01*
X14019406Y-41577828D01*
X13840549Y-41549500D01*
X13840546Y-41549500D01*
X13659454Y-41549500D01*
X13659451Y-41549500D01*
X13480593Y-41577828D01*
X13308362Y-41633788D01*
X13147008Y-41716002D01*
X13075142Y-41768216D01*
X13000499Y-41822447D01*
X12872447Y-41950499D01*
X12819225Y-42023752D01*
X12766002Y-42097008D01*
X12683788Y-42258362D01*
X12627828Y-42430593D01*
X12599500Y-42609450D01*
X500500Y-42609450D01*
X500500Y-40069450D01*
X12599500Y-40069450D01*
X12599500Y-40250549D01*
X12627828Y-40429406D01*
X12627829Y-40429409D01*
X12683789Y-40601639D01*
X12766004Y-40762994D01*
X12872447Y-40909501D01*
X13000499Y-41037553D01*
X13147006Y-41143996D01*
X13308361Y-41226211D01*
X13480591Y-41282171D01*
X13552136Y-41293502D01*
X13659451Y-41310500D01*
X13659454Y-41310500D01*
X13840549Y-41310500D01*
X13929977Y-41296335D01*
X14019409Y-41282171D01*
X14191639Y-41226211D01*
X14352994Y-41143996D01*
X14499501Y-41037553D01*
X14627553Y-40909501D01*
X14733996Y-40762994D01*
X14816211Y-40601639D01*
X14872171Y-40429409D01*
X14900500Y-40250546D01*
X14900500Y-40069454D01*
X14900500Y-40069450D01*
X37099500Y-40069450D01*
X37099500Y-40250549D01*
X37127828Y-40429406D01*
X37127829Y-40429409D01*
X37183789Y-40601639D01*
X37266004Y-40762994D01*
X37372447Y-40909501D01*
X37500499Y-41037553D01*
X37647006Y-41143996D01*
X37808361Y-41226211D01*
X37980591Y-41282171D01*
X38052136Y-41293502D01*
X38159451Y-41310500D01*
X38159454Y-41310500D01*
X38340549Y-41310500D01*
X38429977Y-41296335D01*
X38519409Y-41282171D01*
X38691639Y-41226211D01*
X38852994Y-41143996D01*
X38999501Y-41037553D01*
X39127553Y-40909501D01*
X39233996Y-40762994D01*
X39316211Y-40601639D01*
X39372171Y-40429409D01*
X39400500Y-40250546D01*
X39400500Y-40069454D01*
X39400500Y-40069450D01*
X39372171Y-39890593D01*
X39372171Y-39890591D01*
X39316211Y-39718361D01*
X39233996Y-39557006D01*
X39127553Y-39410499D01*
X38999501Y-39282447D01*
X38852994Y-39176004D01*
X38852993Y-39176003D01*
X38852991Y-39176002D01*
X38691637Y-39093788D01*
X38519406Y-39037828D01*
X38340549Y-39009500D01*
X38340546Y-39009500D01*
X38159454Y-39009500D01*
X38159451Y-39009500D01*
X37980593Y-39037828D01*
X37808362Y-39093788D01*
X37647008Y-39176002D01*
X37573752Y-39229225D01*
X37500499Y-39282447D01*
X37372447Y-39410499D01*
X37319225Y-39483752D01*
X37266002Y-39557008D01*
X37183788Y-39718362D01*
X37127828Y-39890593D01*
X37099500Y-40069450D01*
X14900500Y-40069450D01*
X14872171Y-39890593D01*
X14872171Y-39890591D01*
X14816211Y-39718361D01*
X14733996Y-39557006D01*
X14627553Y-39410499D01*
X14499501Y-39282447D01*
X14352994Y-39176004D01*
X14352993Y-39176003D01*
X14352991Y-39176002D01*
X14191637Y-39093788D01*
X14019406Y-39037828D01*
X13840549Y-39009500D01*
X13840546Y-39009500D01*
X13659454Y-39009500D01*
X13659451Y-39009500D01*
X13480593Y-39037828D01*
X13308362Y-39093788D01*
X13147008Y-39176002D01*
X13073752Y-39229225D01*
X13000499Y-39282447D01*
X12872447Y-39410499D01*
X12819225Y-39483752D01*
X12766002Y-39557008D01*
X12683788Y-39718362D01*
X12627828Y-39890593D01*
X12599500Y-40069450D01*
X500500Y-40069450D01*
X500500Y-37529450D01*
X12599500Y-37529450D01*
X12599500Y-37710549D01*
X12627828Y-37889406D01*
X12627829Y-37889409D01*
X12683789Y-38061639D01*
X12766004Y-38222994D01*
X12872447Y-38369501D01*
X13000499Y-38497553D01*
X13147006Y-38603996D01*
X13308361Y-38686211D01*
X13480591Y-38742171D01*
X13552136Y-38753502D01*
X13659451Y-38770500D01*
X13659454Y-38770500D01*
X13840549Y-38770500D01*
X13929977Y-38756335D01*
X14019409Y-38742171D01*
X14191639Y-38686211D01*
X14352994Y-38603996D01*
X14499501Y-38497553D01*
X14627553Y-38369501D01*
X14733996Y-38222994D01*
X14816211Y-38061639D01*
X14872171Y-37889409D01*
X14900500Y-37710546D01*
X14900500Y-37529454D01*
X14900500Y-37529450D01*
X37099500Y-37529450D01*
X37099500Y-37710549D01*
X37127828Y-37889406D01*
X37127829Y-37889409D01*
X37183789Y-38061639D01*
X37266004Y-38222994D01*
X37372447Y-38369501D01*
X37500499Y-38497553D01*
X37647006Y-38603996D01*
X37808361Y-38686211D01*
X37980591Y-38742171D01*
X38052136Y-38753502D01*
X38159451Y-38770500D01*
X38159454Y-38770500D01*
X38340549Y-38770500D01*
X38429977Y-38756335D01*
X38519409Y-38742171D01*
X38691639Y-38686211D01*
X38852994Y-38603996D01*
X38999501Y-38497553D01*
X39127553Y-38369501D01*
X39233996Y-38222994D01*
X39316211Y-38061639D01*
X39372171Y-37889409D01*
X39400500Y-37710546D01*
X39400500Y-37529454D01*
X39400500Y-37529450D01*
X39372171Y-37350593D01*
X39372171Y-37350591D01*
X39316211Y-37178361D01*
X39233996Y-37017006D01*
X39127553Y-36870499D01*
X38999501Y-36742447D01*
X38852994Y-36636004D01*
X38852993Y-36636003D01*
X38852991Y-36636002D01*
X38691637Y-36553788D01*
X38519406Y-36497828D01*
X38340549Y-36469500D01*
X38340546Y-36469500D01*
X38159454Y-36469500D01*
X38159451Y-36469500D01*
X37980593Y-36497828D01*
X37808362Y-36553788D01*
X37647008Y-36636002D01*
X37573752Y-36689225D01*
X37500499Y-36742447D01*
X37372447Y-36870499D01*
X37319225Y-36943752D01*
X37266002Y-37017008D01*
X37183788Y-37178362D01*
X37127828Y-37350593D01*
X37099500Y-37529450D01*
X14900500Y-37529450D01*
X14872171Y-37350593D01*
X14872171Y-37350591D01*
X14816211Y-37178361D01*
X14733996Y-37017006D01*
X14627553Y-36870499D01*
X14499501Y-36742447D01*
X14352994Y-36636004D01*
X14352993Y-36636003D01*
X14352991Y-36636002D01*
X14191637Y-36553788D01*
X14019406Y-36497828D01*
X13840549Y-36469500D01*
X13840546Y-36469500D01*
X13659454Y-36469500D01*
X13659451Y-36469500D01*
X13480593Y-36497828D01*
X13308362Y-36553788D01*
X13147008Y-36636002D01*
X13073752Y-36689225D01*
X13000499Y-36742447D01*
X12872447Y-36870499D01*
X12819225Y-36943752D01*
X12766002Y-37017008D01*
X12683788Y-37178362D01*
X12627828Y-37350593D01*
X12599500Y-37529450D01*
X500500Y-37529450D01*
X500500Y-34989450D01*
X12599500Y-34989450D01*
X12599500Y-35170549D01*
X12627828Y-35349406D01*
X12627829Y-35349409D01*
X12683789Y-35521639D01*
X12766004Y-35682994D01*
X12872447Y-35829501D01*
X13000499Y-35957553D01*
X13147006Y-36063996D01*
X13308361Y-36146211D01*
X13480591Y-36202171D01*
X13552136Y-36213502D01*
X13659451Y-36230500D01*
X13659454Y-36230500D01*
X13840549Y-36230500D01*
X13929977Y-36216335D01*
X14019409Y-36202171D01*
X14191639Y-36146211D01*
X14352994Y-36063996D01*
X14499501Y-35957553D01*
X14627553Y-35829501D01*
X14733996Y-35682994D01*
X14816211Y-35521639D01*
X14872171Y-35349409D01*
X14900500Y-35170546D01*
X14900500Y-34989454D01*
X14900500Y-34989450D01*
X37099500Y-34989450D01*
X37099500Y-35170549D01*
X37127828Y-35349406D01*
X37127829Y-35349409D01*
X37183789Y-35521639D01*
X37266004Y-35682994D01*
X37372447Y-35829501D01*
X37500499Y-35957553D01*
X37647006Y-36063996D01*
X37808361Y-36146211D01*
X37980591Y-36202171D01*
X38052136Y-36213502D01*
X38159451Y-36230500D01*
X38159454Y-36230500D01*
X38340549Y-36230500D01*
X38429977Y-36216335D01*
X38519409Y-36202171D01*
X38691639Y-36146211D01*
X38852994Y-36063996D01*
X38999501Y-35957553D01*
X39127553Y-35829501D01*
X39233996Y-35682994D01*
X39316211Y-35521639D01*
X39372171Y-35349409D01*
X39400500Y-35170546D01*
X39400500Y-34989454D01*
X39400500Y-34989450D01*
X39372171Y-34810593D01*
X39372171Y-34810591D01*
X39316211Y-34638361D01*
X39233996Y-34477006D01*
X39127553Y-34330499D01*
X38999501Y-34202447D01*
X38852994Y-34096004D01*
X38852993Y-34096003D01*
X38852991Y-34096002D01*
X38691637Y-34013788D01*
X38519406Y-33957828D01*
X38340549Y-33929500D01*
X38340546Y-33929500D01*
X38159454Y-33929500D01*
X38159451Y-33929500D01*
X37980593Y-33957828D01*
X37808362Y-34013788D01*
X37647008Y-34096002D01*
X37573752Y-34149225D01*
X37500499Y-34202447D01*
X37372447Y-34330499D01*
X37319225Y-34403752D01*
X37266002Y-34477008D01*
X37183788Y-34638362D01*
X37127828Y-34810593D01*
X37099500Y-34989450D01*
X14900500Y-34989450D01*
X14872171Y-34810593D01*
X14872171Y-34810591D01*
X14816211Y-34638361D01*
X14733996Y-34477006D01*
X14627553Y-34330499D01*
X14499501Y-34202447D01*
X14352994Y-34096004D01*
X14352993Y-34096003D01*
X14352991Y-34096002D01*
X14191637Y-34013788D01*
X14019406Y-33957828D01*
X13840549Y-33929500D01*
X13840546Y-33929500D01*
X13659454Y-33929500D01*
X13659451Y-33929500D01*
X13480593Y-33957828D01*
X13308362Y-34013788D01*
X13147008Y-34096002D01*
X13073752Y-34149225D01*
X13000499Y-34202447D01*
X12872447Y-34330499D01*
X12819225Y-34403752D01*
X12766002Y-34477008D01*
X12683788Y-34638362D01*
X12627828Y-34810593D01*
X12599500Y-34989450D01*
X500500Y-34989450D01*
X500500Y-32449450D01*
X12599500Y-32449450D01*
X12599500Y-32630549D01*
X12627828Y-32809406D01*
X12627829Y-32809409D01*
X12683789Y-32981639D01*
X12766004Y-33142994D01*
X12872447Y-33289501D01*
X13000499Y-33417553D01*
X13147006Y-33523996D01*
X13308361Y-33606211D01*
X13480591Y-33662171D01*
X13552136Y-33673502D01*
X13659451Y-33690500D01*
X13659454Y-33690500D01*
X13840549Y-33690500D01*
X13929977Y-33676335D01*
X14019409Y-33662171D01*
X14191639Y-33606211D01*
X14352994Y-33523996D01*
X14499501Y-33417553D01*
X14627553Y-33289501D01*
X14733996Y-33142994D01*
X14816211Y-32981639D01*
X14872171Y-32809409D01*
X14900500Y-32630546D01*
X14900500Y-32449454D01*
X14900500Y-32449450D01*
X37099500Y-32449450D01*
X37099500Y-32630549D01*
X37127828Y-32809406D01*
X37127829Y-32809409D01*
X37183789Y-32981639D01*
X37266004Y-33142994D01*
X37372447Y-33289501D01*
X37500499Y-33417553D01*
X37647006Y-33523996D01*
X37808361Y-33606211D01*
X37980591Y-33662171D01*
X38052136Y-33673502D01*
X38159451Y-33690500D01*
X38159454Y-33690500D01*
X38340549Y-33690500D01*
X38429977Y-33676335D01*
X38519409Y-33662171D01*
X38691639Y-33606211D01*
X38852994Y-33523996D01*
X38999501Y-33417553D01*
X39127553Y-33289501D01*
X39233996Y-33142994D01*
X39316211Y-32981639D01*
X39372171Y-32809409D01*
X39400500Y-32630546D01*
X39400500Y-32449454D01*
X39400500Y-32449450D01*
X39372171Y-32270593D01*
X39372171Y-32270591D01*
X39316211Y-32098361D01*
X39233996Y-31937006D01*
X39127553Y-31790499D01*
X38999501Y-31662447D01*
X38852994Y-31556004D01*
X38852993Y-31556003D01*
X38852991Y-31556002D01*
X38691637Y-31473788D01*
X38519406Y-31417828D01*
X38340549Y-31389500D01*
X38340546Y-31389500D01*
X38159454Y-31389500D01*
X38159451Y-31389500D01*
X37980593Y-31417828D01*
X37808362Y-31473788D01*
X37647008Y-31556002D01*
X37573752Y-31609225D01*
X37500499Y-31662447D01*
X37372447Y-31790499D01*
X37319225Y-31863752D01*
X37266002Y-31937008D01*
X37183788Y-32098362D01*
X37127828Y-32270593D01*
X37099500Y-32449450D01*
X14900500Y-32449450D01*
X14872171Y-32270593D01*
X14872171Y-32270591D01*
X14816211Y-32098361D01*
X14733996Y-31937006D01*
X14627553Y-31790499D01*
X14499501Y-31662447D01*
X14352994Y-31556004D01*
X14352993Y-31556003D01*
X14352991Y-31556002D01*
X14191637Y-31473788D01*
X14019406Y-31417828D01*
X13840549Y-31389500D01*
X13840546Y-31389500D01*
X13659454Y-31389500D01*
X13659451Y-31389500D01*
X13480593Y-31417828D01*
X13308362Y-31473788D01*
X13147008Y-31556002D01*
X13073752Y-31609225D01*
X13000499Y-31662447D01*
X12872447Y-31790499D01*
X12819225Y-31863752D01*
X12766002Y-31937008D01*
X12683788Y-32098362D01*
X12627828Y-32270593D01*
X12599500Y-32449450D01*
X500500Y-32449450D01*
X500500Y-29909450D01*
X12599500Y-29909450D01*
X12599500Y-30090549D01*
X12627828Y-30269406D01*
X12627829Y-30269409D01*
X12683789Y-30441639D01*
X12766004Y-30602994D01*
X12872447Y-30749501D01*
X13000499Y-30877553D01*
X13147006Y-30983996D01*
X13308361Y-31066211D01*
X13480591Y-31122171D01*
X13552136Y-31133502D01*
X13659451Y-31150500D01*
X13659454Y-31150500D01*
X13840549Y-31150500D01*
X13929977Y-31136335D01*
X14019409Y-31122171D01*
X14191639Y-31066211D01*
X14352994Y-30983996D01*
X14499501Y-30877553D01*
X14627553Y-30749501D01*
X14733996Y-30602994D01*
X14816211Y-30441639D01*
X14872171Y-30269409D01*
X14900500Y-30090546D01*
X14900500Y-29909454D01*
X14900500Y-29909450D01*
X37099500Y-29909450D01*
X37099500Y-30090549D01*
X37127828Y-30269406D01*
X37127829Y-30269409D01*
X37183789Y-30441639D01*
X37266004Y-30602994D01*
X37372447Y-30749501D01*
X37500499Y-30877553D01*
X37647006Y-30983996D01*
X37808361Y-31066211D01*
X37980591Y-31122171D01*
X38052136Y-31133502D01*
X38159451Y-31150500D01*
X38159454Y-31150500D01*
X38340549Y-31150500D01*
X38429977Y-31136335D01*
X38519409Y-31122171D01*
X38691639Y-31066211D01*
X38852994Y-30983996D01*
X38999501Y-30877553D01*
X39127553Y-30749501D01*
X39233996Y-30602994D01*
X39296892Y-30479553D01*
X39340156Y-30436290D01*
X39385101Y-30425500D01*
X43475500Y-30425500D01*
X43533691Y-30444407D01*
X43569655Y-30493907D01*
X43574500Y-30524500D01*
X43574500Y-44056018D01*
X43600072Y-44151455D01*
X43603498Y-44164241D01*
X43659513Y-44261260D01*
X43659515Y-44261263D01*
X43738737Y-44340485D01*
X43738739Y-44340486D01*
X43835759Y-44396501D01*
X43835757Y-44396501D01*
X43835761Y-44396502D01*
X43835763Y-44396503D01*
X43943982Y-44425500D01*
X43943984Y-44425500D01*
X54918516Y-44425500D01*
X54918518Y-44425500D01*
X55026737Y-44396503D01*
X55026739Y-44396501D01*
X55026741Y-44396501D01*
X55055564Y-44379859D01*
X55123763Y-44340485D01*
X55202985Y-44261263D01*
X55259003Y-44164237D01*
X55288000Y-44056018D01*
X55288000Y-42464743D01*
X55306907Y-42406552D01*
X55316990Y-42394745D01*
X55343020Y-42368716D01*
X55422077Y-42231784D01*
X55463000Y-42079057D01*
X55463000Y-41920943D01*
X55422077Y-41768216D01*
X55343020Y-41631284D01*
X55231216Y-41519480D01*
X55094284Y-41440423D01*
X54941557Y-41399500D01*
X54783443Y-41399500D01*
X54630716Y-41440423D01*
X54493784Y-41519480D01*
X54381980Y-41631284D01*
X54302923Y-41768216D01*
X54262000Y-41920943D01*
X54262000Y-42079057D01*
X54302923Y-42231784D01*
X54381980Y-42368716D01*
X54408005Y-42394741D01*
X54435781Y-42449256D01*
X54437000Y-42464743D01*
X54437000Y-43475500D01*
X54418093Y-43533691D01*
X54368593Y-43569655D01*
X54338000Y-43574500D01*
X44524500Y-43574500D01*
X44466309Y-43555593D01*
X44430345Y-43506093D01*
X44425500Y-43475500D01*
X44425500Y-29943983D01*
X44416247Y-29909450D01*
X44396503Y-29835763D01*
X44396501Y-29835760D01*
X44396501Y-29835758D01*
X44340486Y-29738739D01*
X44340485Y-29738737D01*
X44261263Y-29659515D01*
X44261260Y-29659513D01*
X44164240Y-29603498D01*
X44164242Y-29603498D01*
X44122251Y-29592247D01*
X44056018Y-29574500D01*
X44056016Y-29574500D01*
X39385101Y-29574500D01*
X39326910Y-29555593D01*
X39296892Y-29520447D01*
X39233996Y-29397006D01*
X39127553Y-29250499D01*
X38999501Y-29122447D01*
X38852994Y-29016004D01*
X38852993Y-29016003D01*
X38852991Y-29016002D01*
X38691637Y-28933788D01*
X38519406Y-28877828D01*
X38340549Y-28849500D01*
X38340546Y-28849500D01*
X38159454Y-28849500D01*
X38159451Y-28849500D01*
X37980593Y-28877828D01*
X37808362Y-28933788D01*
X37647008Y-29016002D01*
X37573752Y-29069225D01*
X37500499Y-29122447D01*
X37372447Y-29250499D01*
X37319225Y-29323752D01*
X37266002Y-29397008D01*
X37183788Y-29558362D01*
X37127828Y-29730593D01*
X37099500Y-29909450D01*
X14900500Y-29909450D01*
X14881614Y-29790212D01*
X14872171Y-29730591D01*
X14816211Y-29558361D01*
X14733996Y-29397006D01*
X14627553Y-29250499D01*
X14499501Y-29122447D01*
X14352994Y-29016004D01*
X14352993Y-29016003D01*
X14352991Y-29016002D01*
X14191637Y-28933788D01*
X14019406Y-28877828D01*
X13840549Y-28849500D01*
X13840546Y-28849500D01*
X13659454Y-28849500D01*
X13659451Y-28849500D01*
X13480593Y-28877828D01*
X13308362Y-28933788D01*
X13147008Y-29016002D01*
X13073752Y-29069225D01*
X13000499Y-29122447D01*
X12872447Y-29250499D01*
X12819225Y-29323752D01*
X12766002Y-29397008D01*
X12683788Y-29558362D01*
X12627828Y-29730593D01*
X12599500Y-29909450D01*
X500500Y-29909450D01*
X500500Y-27369450D01*
X12599500Y-27369450D01*
X12599500Y-27550549D01*
X12627828Y-27729406D01*
X12679843Y-27889496D01*
X12683789Y-27901639D01*
X12766004Y-28062994D01*
X12872447Y-28209501D01*
X13000499Y-28337553D01*
X13147006Y-28443996D01*
X13308361Y-28526211D01*
X13480591Y-28582171D01*
X13552136Y-28593502D01*
X13659451Y-28610500D01*
X13659454Y-28610500D01*
X13840549Y-28610500D01*
X13929977Y-28596335D01*
X14019409Y-28582171D01*
X14191639Y-28526211D01*
X14352994Y-28443996D01*
X14499501Y-28337553D01*
X14627553Y-28209501D01*
X14733996Y-28062994D01*
X14816211Y-27901639D01*
X14872171Y-27729409D01*
X14900500Y-27550546D01*
X14900500Y-27369454D01*
X14900500Y-27369450D01*
X37099500Y-27369450D01*
X37099500Y-27550549D01*
X37127828Y-27729406D01*
X37179843Y-27889496D01*
X37183789Y-27901639D01*
X37266004Y-28062994D01*
X37372447Y-28209501D01*
X37500499Y-28337553D01*
X37647006Y-28443996D01*
X37808361Y-28526211D01*
X37980591Y-28582171D01*
X38052136Y-28593502D01*
X38159451Y-28610500D01*
X38159454Y-28610500D01*
X38340549Y-28610500D01*
X38429977Y-28596335D01*
X38519409Y-28582171D01*
X38691639Y-28526211D01*
X38852994Y-28443996D01*
X38999501Y-28337553D01*
X39127553Y-28209501D01*
X39233996Y-28062994D01*
X39309630Y-27914553D01*
X39352894Y-27871290D01*
X39397839Y-27860500D01*
X60101399Y-27860500D01*
X60159590Y-27879407D01*
X60171403Y-27889496D01*
X90602387Y-58320480D01*
X90602389Y-58320481D01*
X90602390Y-58320482D01*
X90602391Y-58320483D01*
X90693708Y-58373205D01*
X90693709Y-58373205D01*
X90693712Y-58373207D01*
X90776124Y-58395288D01*
X90827438Y-58428612D01*
X90849365Y-58485733D01*
X90849501Y-58490915D01*
X90849501Y-58894863D01*
X90852414Y-58919990D01*
X90877756Y-58977385D01*
X90897794Y-59022765D01*
X90977235Y-59102206D01*
X91080009Y-59147585D01*
X91105135Y-59150500D01*
X92894864Y-59150499D01*
X92919991Y-59147585D01*
X93022765Y-59102206D01*
X93102206Y-59022765D01*
X93147585Y-58919991D01*
X93150500Y-58894865D01*
X93150499Y-57909450D01*
X93389500Y-57909450D01*
X93389500Y-58090549D01*
X93417828Y-58269406D01*
X93473788Y-58441637D01*
X93498896Y-58490915D01*
X93556004Y-58602994D01*
X93662447Y-58749501D01*
X93790499Y-58877553D01*
X93937006Y-58983996D01*
X94098361Y-59066211D01*
X94270591Y-59122171D01*
X94342136Y-59133502D01*
X94449451Y-59150500D01*
X94449454Y-59150500D01*
X94630549Y-59150500D01*
X94719977Y-59136335D01*
X94809409Y-59122171D01*
X94981639Y-59066211D01*
X95142994Y-58983996D01*
X95289501Y-58877553D01*
X95417553Y-58749501D01*
X95523996Y-58602994D01*
X95606211Y-58441639D01*
X95662171Y-58269409D01*
X95690500Y-58090546D01*
X95690500Y-57909454D01*
X95690500Y-57909450D01*
X95662171Y-57730593D01*
X95662171Y-57730591D01*
X95606211Y-57558361D01*
X95523996Y-57397006D01*
X95417553Y-57250499D01*
X95289501Y-57122447D01*
X95142994Y-57016004D01*
X95142993Y-57016003D01*
X95142991Y-57016002D01*
X94981637Y-56933788D01*
X94809406Y-56877828D01*
X94630549Y-56849500D01*
X94630546Y-56849500D01*
X94449454Y-56849500D01*
X94449451Y-56849500D01*
X94270593Y-56877828D01*
X94098362Y-56933788D01*
X93937008Y-57016002D01*
X93863752Y-57069225D01*
X93790499Y-57122447D01*
X93662447Y-57250499D01*
X93609225Y-57323752D01*
X93556002Y-57397008D01*
X93473788Y-57558362D01*
X93417828Y-57730593D01*
X93389500Y-57909450D01*
X93150499Y-57909450D01*
X93150499Y-57105136D01*
X93147585Y-57080009D01*
X93102206Y-56977235D01*
X93022765Y-56897794D01*
X92919991Y-56852415D01*
X92919990Y-56852414D01*
X92919988Y-56852414D01*
X92894868Y-56849500D01*
X91105139Y-56849500D01*
X91105136Y-56849501D01*
X91080009Y-56852414D01*
X90977235Y-56897794D01*
X90897794Y-56977235D01*
X90852414Y-57080011D01*
X90849500Y-57105130D01*
X90849500Y-57195799D01*
X90830593Y-57253990D01*
X90781093Y-57289954D01*
X90719907Y-57289954D01*
X90680496Y-57265803D01*
X75646476Y-42231783D01*
X60554213Y-27139520D01*
X60554210Y-27139518D01*
X60554209Y-27139517D01*
X60554208Y-27139516D01*
X60462891Y-27086794D01*
X60462893Y-27086794D01*
X60423370Y-27076204D01*
X60361027Y-27059500D01*
X60361025Y-27059500D01*
X53031287Y-27059500D01*
X52973096Y-27040593D01*
X52937132Y-26991093D01*
X52937132Y-26929907D01*
X52973096Y-26880407D01*
X52979830Y-26876284D01*
X52979675Y-26876030D01*
X52982990Y-26873998D01*
X52982989Y-26873998D01*
X52982994Y-26873996D01*
X53129501Y-26767553D01*
X53257553Y-26639501D01*
X53363996Y-26492994D01*
X53446211Y-26331639D01*
X53502171Y-26159409D01*
X53530500Y-25980546D01*
X53530500Y-25799454D01*
X53530500Y-25799450D01*
X53502172Y-25620595D01*
X53470459Y-25522991D01*
X53450689Y-25462143D01*
X53450689Y-25400960D01*
X53474839Y-25361551D01*
X53769196Y-25067196D01*
X53823712Y-25039419D01*
X53839199Y-25038200D01*
X66622474Y-25038200D01*
X66680665Y-25057107D01*
X66716629Y-25106607D01*
X66716629Y-25167793D01*
X66702569Y-25195385D01*
X66657326Y-25257658D01*
X66636002Y-25287008D01*
X66553788Y-25448362D01*
X66497828Y-25620593D01*
X66469500Y-25799450D01*
X66469500Y-25980549D01*
X66497828Y-26159406D01*
X66546595Y-26309500D01*
X66553789Y-26331639D01*
X66636004Y-26492994D01*
X66742447Y-26639501D01*
X66870499Y-26767553D01*
X67017006Y-26873996D01*
X67178361Y-26956211D01*
X67350591Y-27012171D01*
X67422136Y-27023502D01*
X67529451Y-27040500D01*
X67529454Y-27040500D01*
X67710549Y-27040500D01*
X67799977Y-27026335D01*
X67889409Y-27012171D01*
X68061639Y-26956211D01*
X68222994Y-26873996D01*
X68369501Y-26767553D01*
X68497553Y-26639501D01*
X68603996Y-26492994D01*
X68686211Y-26331639D01*
X68742171Y-26159409D01*
X68770500Y-25980546D01*
X68770500Y-25799454D01*
X68770500Y-25799450D01*
X68749918Y-25669502D01*
X68742171Y-25620591D01*
X68686211Y-25448361D01*
X68603996Y-25287006D01*
X68537432Y-25195388D01*
X68518526Y-25137200D01*
X68537433Y-25079009D01*
X68586933Y-25043045D01*
X68617526Y-25038200D01*
X81191625Y-25038200D01*
X81191627Y-25038200D01*
X81293488Y-25010907D01*
X81293490Y-25010905D01*
X81293492Y-25010905D01*
X81384808Y-24958183D01*
X81384808Y-24958182D01*
X81384813Y-24958180D01*
X93334085Y-13008905D01*
X93388600Y-12981130D01*
X93449032Y-12990701D01*
X93459078Y-12996589D01*
X93573453Y-13073013D01*
X93737334Y-13140894D01*
X93911309Y-13175500D01*
X93911310Y-13175500D01*
X94088690Y-13175500D01*
X94088691Y-13175500D01*
X94262666Y-13140894D01*
X94426547Y-13073013D01*
X94574035Y-12974464D01*
X94699464Y-12849035D01*
X94798013Y-12701547D01*
X94865894Y-12537666D01*
X94900500Y-12363691D01*
X94900500Y-11636309D01*
X94865894Y-11462334D01*
X94804254Y-11313520D01*
X94798014Y-11298455D01*
X94798014Y-11298454D01*
X94699464Y-11150965D01*
X94574034Y-11025535D01*
X94426544Y-10926985D01*
X94262666Y-10859106D01*
X94088693Y-10824500D01*
X94088691Y-10824500D01*
X93911309Y-10824500D01*
X93911306Y-10824500D01*
X93737334Y-10859106D01*
X93737332Y-10859106D01*
X93573455Y-10926985D01*
X93573454Y-10926985D01*
X93425965Y-11025535D01*
X93300535Y-11150965D01*
X93201985Y-11298454D01*
X93201985Y-11298455D01*
X93134106Y-11462332D01*
X93122280Y-11521786D01*
X93092383Y-11575170D01*
X93050807Y-11598097D01*
X93025125Y-11604979D01*
X92964023Y-11601778D01*
X92916473Y-11563274D01*
X92900500Y-11509353D01*
X92900500Y-11331899D01*
X92900499Y-11331893D01*
X92899688Y-11325136D01*
X92889877Y-11243436D01*
X92834361Y-11102658D01*
X92742922Y-10982078D01*
X92622342Y-10890639D01*
X92622341Y-10890638D01*
X92622339Y-10890637D01*
X92481565Y-10835123D01*
X92393106Y-10824500D01*
X92393102Y-10824500D01*
X91606898Y-10824500D01*
X91606893Y-10824500D01*
X91518434Y-10835123D01*
X91377660Y-10890637D01*
X91377656Y-10890640D01*
X91257081Y-10982075D01*
X91257075Y-10982081D01*
X91165640Y-11102656D01*
X91165637Y-11102660D01*
X91110123Y-11243434D01*
X91099500Y-11331893D01*
X91099500Y-11500500D01*
X91080593Y-11558691D01*
X91031093Y-11594655D01*
X91000500Y-11599500D01*
X68536561Y-11599500D01*
X68478370Y-11580593D01*
X68442406Y-11531093D01*
X68442406Y-11469907D01*
X68466555Y-11430498D01*
X68497553Y-11399501D01*
X68603996Y-11252994D01*
X68686211Y-11091639D01*
X68742171Y-10919409D01*
X68761259Y-10798893D01*
X68770500Y-10740549D01*
X68770500Y-10559450D01*
X68742171Y-10380593D01*
X68742171Y-10380591D01*
X68686211Y-10208361D01*
X68603996Y-10047006D01*
X68497553Y-9900499D01*
X68369501Y-9772447D01*
X68222994Y-9666004D01*
X68222993Y-9666003D01*
X68222991Y-9666002D01*
X68061637Y-9583788D01*
X67889406Y-9527828D01*
X67710549Y-9499500D01*
X67710546Y-9499500D01*
X67529454Y-9499500D01*
X67529451Y-9499500D01*
X67350593Y-9527828D01*
X67178362Y-9583788D01*
X67017008Y-9666002D01*
X66979564Y-9693207D01*
X66870499Y-9772447D01*
X66742447Y-9900499D01*
X66689225Y-9973752D01*
X66636002Y-10047008D01*
X66553788Y-10208362D01*
X66497828Y-10380593D01*
X66469500Y-10559450D01*
X66469500Y-10740549D01*
X66497828Y-10919406D01*
X66553788Y-11091637D01*
X66631133Y-11243436D01*
X66636004Y-11252994D01*
X66742447Y-11399501D01*
X66773444Y-11430498D01*
X66801220Y-11485013D01*
X66791649Y-11545445D01*
X66748384Y-11588710D01*
X66703439Y-11599500D01*
X61224773Y-11599500D01*
X61173843Y-11613146D01*
X61122911Y-11626793D01*
X61106431Y-11636309D01*
X61106430Y-11636308D01*
X61031588Y-11679519D01*
X52969005Y-19742100D01*
X52914488Y-19769877D01*
X52854057Y-19760306D01*
X52821640Y-19743789D01*
X52649406Y-19687828D01*
X52470549Y-19659500D01*
X52470546Y-19659500D01*
X52289454Y-19659500D01*
X52289451Y-19659500D01*
X52110593Y-19687828D01*
X51938362Y-19743788D01*
X51777008Y-19826002D01*
X51703752Y-19879225D01*
X51630499Y-19932447D01*
X51502447Y-20060499D01*
X51466914Y-20109406D01*
X51396002Y-20207008D01*
X51313788Y-20368362D01*
X51257828Y-20540593D01*
X51229500Y-20719450D01*
X51229500Y-20900549D01*
X51257828Y-21079406D01*
X51306595Y-21229500D01*
X51313789Y-21251639D01*
X51396004Y-21412994D01*
X51502447Y-21559501D01*
X51630499Y-21687553D01*
X51777006Y-21793996D01*
X51938361Y-21876211D01*
X52110591Y-21932171D01*
X52182136Y-21943502D01*
X52289451Y-21960500D01*
X52289454Y-21960500D01*
X52470549Y-21960500D01*
X52559977Y-21946335D01*
X52649409Y-21932171D01*
X52821639Y-21876211D01*
X52982994Y-21793996D01*
X53129501Y-21687553D01*
X53257553Y-21559501D01*
X53363996Y-21412994D01*
X53446211Y-21251639D01*
X53502171Y-21079409D01*
X53530500Y-20900546D01*
X53530500Y-20719454D01*
X53530500Y-20719450D01*
X66469500Y-20719450D01*
X66469500Y-20900549D01*
X66497828Y-21079406D01*
X66546595Y-21229500D01*
X66553789Y-21251639D01*
X66636004Y-21412994D01*
X66742447Y-21559501D01*
X66870499Y-21687553D01*
X67017006Y-21793996D01*
X67178361Y-21876211D01*
X67350591Y-21932171D01*
X67422136Y-21943502D01*
X67529451Y-21960500D01*
X67529454Y-21960500D01*
X67710549Y-21960500D01*
X67799977Y-21946335D01*
X67889409Y-21932171D01*
X68061639Y-21876211D01*
X68222994Y-21793996D01*
X68369501Y-21687553D01*
X68497553Y-21559501D01*
X68603996Y-21412994D01*
X68686211Y-21251639D01*
X68742171Y-21079409D01*
X68770500Y-20900546D01*
X68770500Y-20719454D01*
X68770500Y-20719450D01*
X68749918Y-20589502D01*
X68742171Y-20540591D01*
X68686211Y-20368361D01*
X68603996Y-20207006D01*
X68497553Y-20060499D01*
X68369501Y-19932447D01*
X68222994Y-19826004D01*
X68222993Y-19826003D01*
X68222991Y-19826002D01*
X68061637Y-19743788D01*
X67889406Y-19687828D01*
X67710549Y-19659500D01*
X67710546Y-19659500D01*
X67529454Y-19659500D01*
X67529451Y-19659500D01*
X67350593Y-19687828D01*
X67178362Y-19743788D01*
X67017008Y-19826002D01*
X66943752Y-19879225D01*
X66870499Y-19932447D01*
X66742447Y-20060499D01*
X66706914Y-20109406D01*
X66636002Y-20207008D01*
X66553788Y-20368362D01*
X66497828Y-20540593D01*
X66469500Y-20719450D01*
X53530500Y-20719450D01*
X53509918Y-20589502D01*
X53502171Y-20540591D01*
X53472148Y-20448188D01*
X53472149Y-20387003D01*
X53496297Y-20347594D01*
X55664441Y-18179450D01*
X66469500Y-18179450D01*
X66469500Y-18360549D01*
X66497828Y-18539406D01*
X66546595Y-18689500D01*
X66553789Y-18711639D01*
X66636004Y-18872994D01*
X66742447Y-19019501D01*
X66870499Y-19147553D01*
X67017006Y-19253996D01*
X67178361Y-19336211D01*
X67350591Y-19392171D01*
X67422136Y-19403502D01*
X67529451Y-19420500D01*
X67529454Y-19420500D01*
X67710549Y-19420500D01*
X67799977Y-19406335D01*
X67889409Y-19392171D01*
X68061639Y-19336211D01*
X68222994Y-19253996D01*
X68369501Y-19147553D01*
X68497553Y-19019501D01*
X68603996Y-18872994D01*
X68686211Y-18711639D01*
X68742171Y-18539409D01*
X68770500Y-18360546D01*
X68770500Y-18179454D01*
X68770500Y-18179450D01*
X68749918Y-18049502D01*
X68742171Y-18000591D01*
X68686211Y-17828361D01*
X68603996Y-17667006D01*
X68497553Y-17520499D01*
X68369501Y-17392447D01*
X68222994Y-17286004D01*
X68222993Y-17286003D01*
X68222991Y-17286002D01*
X68061637Y-17203788D01*
X67889406Y-17147828D01*
X67710549Y-17119500D01*
X67710546Y-17119500D01*
X67529454Y-17119500D01*
X67529451Y-17119500D01*
X67350593Y-17147828D01*
X67178362Y-17203788D01*
X67017008Y-17286002D01*
X66943752Y-17339225D01*
X66870499Y-17392447D01*
X66742447Y-17520499D01*
X66706914Y-17569406D01*
X66636002Y-17667008D01*
X66553788Y-17828362D01*
X66497828Y-18000593D01*
X66469500Y-18179450D01*
X55664441Y-18179450D01*
X58204442Y-15639450D01*
X66469500Y-15639450D01*
X66469500Y-15820549D01*
X66497828Y-15999406D01*
X66546595Y-16149500D01*
X66553789Y-16171639D01*
X66636004Y-16332994D01*
X66742447Y-16479501D01*
X66870499Y-16607553D01*
X67017006Y-16713996D01*
X67178361Y-16796211D01*
X67350591Y-16852171D01*
X67422136Y-16863502D01*
X67529451Y-16880500D01*
X67529454Y-16880500D01*
X67710549Y-16880500D01*
X67799977Y-16866335D01*
X67889409Y-16852171D01*
X68061639Y-16796211D01*
X68222994Y-16713996D01*
X68369501Y-16607553D01*
X68497553Y-16479501D01*
X68603996Y-16332994D01*
X68686211Y-16171639D01*
X68742171Y-15999409D01*
X68770500Y-15820546D01*
X68770500Y-15639454D01*
X68770500Y-15639450D01*
X68749918Y-15509502D01*
X68742171Y-15460591D01*
X68686211Y-15288361D01*
X68603996Y-15127006D01*
X68497553Y-14980499D01*
X68369501Y-14852447D01*
X68222994Y-14746004D01*
X68222993Y-14746003D01*
X68222991Y-14746002D01*
X68061637Y-14663788D01*
X67889406Y-14607828D01*
X67710549Y-14579500D01*
X67710546Y-14579500D01*
X67529454Y-14579500D01*
X67529451Y-14579500D01*
X67350593Y-14607828D01*
X67178362Y-14663788D01*
X67017008Y-14746002D01*
X66943752Y-14799225D01*
X66870499Y-14852447D01*
X66742447Y-14980499D01*
X66706914Y-15029406D01*
X66636002Y-15127008D01*
X66553788Y-15288362D01*
X66497828Y-15460593D01*
X66469500Y-15639450D01*
X58204442Y-15639450D01*
X61414397Y-12429496D01*
X61468914Y-12401719D01*
X61484401Y-12400500D01*
X66577210Y-12400500D01*
X66635401Y-12419407D01*
X66671365Y-12468907D01*
X66671365Y-12530093D01*
X66657304Y-12557688D01*
X66646930Y-12571966D01*
X66636002Y-12587008D01*
X66553788Y-12748362D01*
X66497828Y-12920593D01*
X66469500Y-13099450D01*
X66469500Y-13280549D01*
X66497828Y-13459406D01*
X66546595Y-13609500D01*
X66553789Y-13631639D01*
X66636004Y-13792994D01*
X66742447Y-13939501D01*
X66870499Y-14067553D01*
X67017006Y-14173996D01*
X67178361Y-14256211D01*
X67350591Y-14312171D01*
X67422136Y-14323502D01*
X67529451Y-14340500D01*
X67529454Y-14340500D01*
X67710549Y-14340500D01*
X67799977Y-14326335D01*
X67889409Y-14312171D01*
X68061639Y-14256211D01*
X68222994Y-14173996D01*
X68369501Y-14067553D01*
X68497553Y-13939501D01*
X68603996Y-13792994D01*
X68686211Y-13631639D01*
X68742171Y-13459409D01*
X68770500Y-13280546D01*
X68770500Y-13099454D01*
X68770500Y-13099450D01*
X68749918Y-12969502D01*
X68742171Y-12920591D01*
X68686211Y-12748361D01*
X68603996Y-12587006D01*
X68582696Y-12557689D01*
X68563790Y-12499500D01*
X68582697Y-12441309D01*
X68632197Y-12405345D01*
X68662790Y-12400500D01*
X91000500Y-12400500D01*
X91058691Y-12419407D01*
X91094655Y-12468907D01*
X91099500Y-12499500D01*
X91099500Y-12668106D01*
X91110123Y-12756565D01*
X91165637Y-12897339D01*
X91165638Y-12897341D01*
X91165639Y-12897342D01*
X91257078Y-13017922D01*
X91377658Y-13109361D01*
X91377659Y-13109361D01*
X91377660Y-13109362D01*
X91391615Y-13114865D01*
X91518436Y-13164877D01*
X91606898Y-13175500D01*
X91795700Y-13175500D01*
X91853891Y-13194407D01*
X91889855Y-13243907D01*
X91889855Y-13305093D01*
X91865704Y-13344503D01*
X86354205Y-18856002D01*
X81002003Y-24208204D01*
X80947486Y-24235981D01*
X80931999Y-24237200D01*
X53691106Y-24237200D01*
X53691090Y-24237199D01*
X53685027Y-24237199D01*
X53579573Y-24237199D01*
X53579570Y-24237199D01*
X53477713Y-24264492D01*
X53477709Y-24264494D01*
X53386387Y-24317219D01*
X53311819Y-24391786D01*
X53311820Y-24391787D01*
X53311818Y-24391789D01*
X53311817Y-24391789D01*
X52908447Y-24795158D01*
X52853931Y-24822935D01*
X52807852Y-24819309D01*
X52649406Y-24767828D01*
X52470549Y-24739500D01*
X52470546Y-24739500D01*
X52289454Y-24739500D01*
X52289451Y-24739500D01*
X52110593Y-24767828D01*
X51938362Y-24823788D01*
X51777008Y-24906002D01*
X51705192Y-24958180D01*
X51630499Y-25012447D01*
X51502447Y-25140499D01*
X51482617Y-25167793D01*
X51396002Y-25287008D01*
X51313788Y-25448362D01*
X51257828Y-25620593D01*
X51229500Y-25799450D01*
X51229500Y-25980549D01*
X51257828Y-26159406D01*
X51306595Y-26309500D01*
X51313789Y-26331639D01*
X51396004Y-26492994D01*
X51502447Y-26639501D01*
X51630499Y-26767553D01*
X51753624Y-26857008D01*
X51777009Y-26873998D01*
X51780325Y-26876030D01*
X51779202Y-26877861D01*
X51816885Y-26915481D01*
X51826507Y-26975905D01*
X51798775Y-27030445D01*
X51744282Y-27058268D01*
X51728713Y-27059500D01*
X39397839Y-27059500D01*
X39339648Y-27040593D01*
X39309631Y-27005447D01*
X39233996Y-26857006D01*
X39127553Y-26710499D01*
X38999501Y-26582447D01*
X38852994Y-26476004D01*
X38852993Y-26476003D01*
X38852991Y-26476002D01*
X38691637Y-26393788D01*
X38519406Y-26337828D01*
X38340549Y-26309500D01*
X38340546Y-26309500D01*
X38159454Y-26309500D01*
X38159451Y-26309500D01*
X37980593Y-26337828D01*
X37808362Y-26393788D01*
X37647008Y-26476002D01*
X37623625Y-26492991D01*
X37500499Y-26582447D01*
X37372447Y-26710499D01*
X37330997Y-26767550D01*
X37266002Y-26857008D01*
X37183788Y-27018362D01*
X37127828Y-27190593D01*
X37099500Y-27369450D01*
X14900500Y-27369450D01*
X14872171Y-27190593D01*
X14872171Y-27190591D01*
X14816211Y-27018361D01*
X14733996Y-26857006D01*
X14627553Y-26710499D01*
X14499501Y-26582447D01*
X14352994Y-26476004D01*
X14352993Y-26476003D01*
X14352991Y-26476002D01*
X14191637Y-26393788D01*
X14019406Y-26337828D01*
X13840549Y-26309500D01*
X13840546Y-26309500D01*
X13659454Y-26309500D01*
X13659451Y-26309500D01*
X13480593Y-26337828D01*
X13308362Y-26393788D01*
X13147008Y-26476002D01*
X13123625Y-26492991D01*
X13000499Y-26582447D01*
X12872447Y-26710499D01*
X12830997Y-26767550D01*
X12766002Y-26857008D01*
X12683788Y-27018362D01*
X12627828Y-27190593D01*
X12599500Y-27369450D01*
X500500Y-27369450D01*
X500500Y-24829450D01*
X12599500Y-24829450D01*
X12599500Y-25010549D01*
X12627828Y-25189406D01*
X12683759Y-25361549D01*
X12683789Y-25361639D01*
X12766004Y-25522994D01*
X12872447Y-25669501D01*
X13000499Y-25797553D01*
X13147006Y-25903996D01*
X13308361Y-25986211D01*
X13480591Y-26042171D01*
X13552136Y-26053502D01*
X13659451Y-26070500D01*
X13659454Y-26070500D01*
X13840549Y-26070500D01*
X13929977Y-26056335D01*
X14019409Y-26042171D01*
X14191639Y-25986211D01*
X14352994Y-25903996D01*
X14499501Y-25797553D01*
X14627553Y-25669501D01*
X14733996Y-25522994D01*
X14816211Y-25361639D01*
X14872171Y-25189409D01*
X14891528Y-25067196D01*
X14900500Y-25010549D01*
X14900500Y-24829450D01*
X37099500Y-24829450D01*
X37099500Y-25010549D01*
X37127828Y-25189406D01*
X37183759Y-25361549D01*
X37183789Y-25361639D01*
X37266004Y-25522994D01*
X37372447Y-25669501D01*
X37500499Y-25797553D01*
X37647006Y-25903996D01*
X37808361Y-25986211D01*
X37980591Y-26042171D01*
X38052136Y-26053502D01*
X38159451Y-26070500D01*
X38159454Y-26070500D01*
X38340549Y-26070500D01*
X38429977Y-26056335D01*
X38519409Y-26042171D01*
X38691639Y-25986211D01*
X38852994Y-25903996D01*
X38999501Y-25797553D01*
X39127553Y-25669501D01*
X39233996Y-25522994D01*
X39316211Y-25361639D01*
X39372171Y-25189409D01*
X39391528Y-25067196D01*
X39400500Y-25010549D01*
X39400500Y-24829450D01*
X39372171Y-24650593D01*
X39372171Y-24650591D01*
X39316211Y-24478361D01*
X39233996Y-24317006D01*
X39127553Y-24170499D01*
X38999501Y-24042447D01*
X38852994Y-23936004D01*
X38852993Y-23936003D01*
X38852991Y-23936002D01*
X38691637Y-23853788D01*
X38519406Y-23797828D01*
X38340549Y-23769500D01*
X38340546Y-23769500D01*
X38159454Y-23769500D01*
X38159451Y-23769500D01*
X37980593Y-23797828D01*
X37808362Y-23853788D01*
X37647008Y-23936002D01*
X37573752Y-23989225D01*
X37500499Y-24042447D01*
X37372447Y-24170499D01*
X37345053Y-24208204D01*
X37266002Y-24317008D01*
X37183788Y-24478362D01*
X37127828Y-24650593D01*
X37099500Y-24829450D01*
X14900500Y-24829450D01*
X14872171Y-24650593D01*
X14872171Y-24650591D01*
X14816211Y-24478361D01*
X14733996Y-24317006D01*
X14627553Y-24170499D01*
X14499501Y-24042447D01*
X14352994Y-23936004D01*
X14352993Y-23936003D01*
X14352991Y-23936002D01*
X14191637Y-23853788D01*
X14019406Y-23797828D01*
X13840549Y-23769500D01*
X13840546Y-23769500D01*
X13659454Y-23769500D01*
X13659451Y-23769500D01*
X13480593Y-23797828D01*
X13308362Y-23853788D01*
X13147008Y-23936002D01*
X13073752Y-23989225D01*
X13000499Y-24042447D01*
X12872447Y-24170499D01*
X12845053Y-24208204D01*
X12766002Y-24317008D01*
X12683788Y-24478362D01*
X12627828Y-24650593D01*
X12599500Y-24829450D01*
X500500Y-24829450D01*
X500500Y-22289450D01*
X12599500Y-22289450D01*
X12599500Y-22470549D01*
X12627828Y-22649406D01*
X12627829Y-22649409D01*
X12683789Y-22821639D01*
X12766004Y-22982994D01*
X12872447Y-23129501D01*
X13000499Y-23257553D01*
X13147006Y-23363996D01*
X13308361Y-23446211D01*
X13480591Y-23502171D01*
X13552136Y-23513502D01*
X13659451Y-23530500D01*
X13659454Y-23530500D01*
X13840549Y-23530500D01*
X13929977Y-23516335D01*
X14019409Y-23502171D01*
X14191639Y-23446211D01*
X14352994Y-23363996D01*
X14499501Y-23257553D01*
X14627553Y-23129501D01*
X14733996Y-22982994D01*
X14816211Y-22821639D01*
X14872171Y-22649409D01*
X14900500Y-22470546D01*
X14900500Y-22289454D01*
X14900500Y-22289450D01*
X37099500Y-22289450D01*
X37099500Y-22470549D01*
X37127828Y-22649406D01*
X37127829Y-22649409D01*
X37183789Y-22821639D01*
X37266004Y-22982994D01*
X37372447Y-23129501D01*
X37500499Y-23257553D01*
X37647006Y-23363996D01*
X37808361Y-23446211D01*
X37980591Y-23502171D01*
X38052136Y-23513502D01*
X38159451Y-23530500D01*
X38159454Y-23530500D01*
X38340549Y-23530500D01*
X38429977Y-23516335D01*
X38519409Y-23502171D01*
X38691639Y-23446211D01*
X38852994Y-23363996D01*
X38999501Y-23257553D01*
X39127553Y-23129501D01*
X39233996Y-22982994D01*
X39316211Y-22821639D01*
X39372171Y-22649409D01*
X39400500Y-22470546D01*
X39400500Y-22289454D01*
X39400500Y-22289450D01*
X39372171Y-22110593D01*
X39372171Y-22110591D01*
X39316211Y-21938361D01*
X39233996Y-21777006D01*
X39127553Y-21630499D01*
X38999501Y-21502447D01*
X38852994Y-21396004D01*
X38852993Y-21396003D01*
X38852991Y-21396002D01*
X38691637Y-21313788D01*
X38519406Y-21257828D01*
X38340549Y-21229500D01*
X38340546Y-21229500D01*
X38159454Y-21229500D01*
X38159451Y-21229500D01*
X37980593Y-21257828D01*
X37808362Y-21313788D01*
X37647008Y-21396002D01*
X37623625Y-21412991D01*
X37500499Y-21502447D01*
X37372447Y-21630499D01*
X37330997Y-21687550D01*
X37266002Y-21777008D01*
X37183788Y-21938362D01*
X37127828Y-22110593D01*
X37099500Y-22289450D01*
X14900500Y-22289450D01*
X14872171Y-22110593D01*
X14872171Y-22110591D01*
X14816211Y-21938361D01*
X14733996Y-21777006D01*
X14627553Y-21630499D01*
X14499501Y-21502447D01*
X14352994Y-21396004D01*
X14352993Y-21396003D01*
X14352991Y-21396002D01*
X14191637Y-21313788D01*
X14019406Y-21257828D01*
X13840549Y-21229500D01*
X13840546Y-21229500D01*
X13659454Y-21229500D01*
X13659451Y-21229500D01*
X13480593Y-21257828D01*
X13308362Y-21313788D01*
X13147008Y-21396002D01*
X13123625Y-21412991D01*
X13000499Y-21502447D01*
X12872447Y-21630499D01*
X12830997Y-21687550D01*
X12766002Y-21777008D01*
X12683788Y-21938362D01*
X12627828Y-22110593D01*
X12599500Y-22289450D01*
X500500Y-22289450D01*
X500500Y-19749450D01*
X12599500Y-19749450D01*
X12599500Y-19930549D01*
X12627828Y-20109406D01*
X12659539Y-20207006D01*
X12683789Y-20281639D01*
X12766004Y-20442994D01*
X12872447Y-20589501D01*
X13000499Y-20717553D01*
X13147006Y-20823996D01*
X13308361Y-20906211D01*
X13480591Y-20962171D01*
X13552136Y-20973502D01*
X13659451Y-20990500D01*
X13659454Y-20990500D01*
X13840549Y-20990500D01*
X13929977Y-20976335D01*
X14019409Y-20962171D01*
X14191639Y-20906211D01*
X14352994Y-20823996D01*
X14499501Y-20717553D01*
X14627553Y-20589501D01*
X14733996Y-20442994D01*
X14816211Y-20281639D01*
X14872171Y-20109409D01*
X14900500Y-19930546D01*
X14900500Y-19749454D01*
X14900500Y-19749450D01*
X37099500Y-19749450D01*
X37099500Y-19930549D01*
X37127828Y-20109406D01*
X37159539Y-20207006D01*
X37183789Y-20281639D01*
X37266004Y-20442994D01*
X37372447Y-20589501D01*
X37500499Y-20717553D01*
X37647006Y-20823996D01*
X37808361Y-20906211D01*
X37980591Y-20962171D01*
X38052136Y-20973502D01*
X38159451Y-20990500D01*
X38159454Y-20990500D01*
X38340549Y-20990500D01*
X38429977Y-20976335D01*
X38519409Y-20962171D01*
X38691639Y-20906211D01*
X38852994Y-20823996D01*
X38999501Y-20717553D01*
X39127553Y-20589501D01*
X39233996Y-20442994D01*
X39316211Y-20281639D01*
X39372171Y-20109409D01*
X39400500Y-19930546D01*
X39400500Y-19749454D01*
X39400500Y-19749450D01*
X39372171Y-19570593D01*
X39372171Y-19570591D01*
X39316211Y-19398361D01*
X39233996Y-19237006D01*
X39127553Y-19090499D01*
X38999501Y-18962447D01*
X38852994Y-18856004D01*
X38852993Y-18856003D01*
X38852991Y-18856002D01*
X38691637Y-18773788D01*
X38519406Y-18717828D01*
X38340549Y-18689500D01*
X38340546Y-18689500D01*
X38159454Y-18689500D01*
X38159451Y-18689500D01*
X37980593Y-18717828D01*
X37808362Y-18773788D01*
X37647008Y-18856002D01*
X37623625Y-18872991D01*
X37500499Y-18962447D01*
X37372447Y-19090499D01*
X37330997Y-19147550D01*
X37266002Y-19237008D01*
X37183788Y-19398362D01*
X37127828Y-19570593D01*
X37099500Y-19749450D01*
X14900500Y-19749450D01*
X14872171Y-19570593D01*
X14872171Y-19570591D01*
X14816211Y-19398361D01*
X14733996Y-19237006D01*
X14627553Y-19090499D01*
X14499501Y-18962447D01*
X14352994Y-18856004D01*
X14352993Y-18856003D01*
X14352991Y-18856002D01*
X14191637Y-18773788D01*
X14019406Y-18717828D01*
X13840549Y-18689500D01*
X13840546Y-18689500D01*
X13659454Y-18689500D01*
X13659451Y-18689500D01*
X13480593Y-18717828D01*
X13308362Y-18773788D01*
X13147008Y-18856002D01*
X13123625Y-18872991D01*
X13000499Y-18962447D01*
X12872447Y-19090499D01*
X12830997Y-19147550D01*
X12766002Y-19237008D01*
X12683788Y-19398362D01*
X12627828Y-19570593D01*
X12599500Y-19749450D01*
X500500Y-19749450D01*
X500500Y-17209450D01*
X12599500Y-17209450D01*
X12599500Y-17390549D01*
X12627828Y-17569406D01*
X12659539Y-17667006D01*
X12683789Y-17741639D01*
X12766004Y-17902994D01*
X12872447Y-18049501D01*
X13000499Y-18177553D01*
X13147006Y-18283996D01*
X13308361Y-18366211D01*
X13480591Y-18422171D01*
X13552136Y-18433502D01*
X13659451Y-18450500D01*
X13659454Y-18450500D01*
X13840549Y-18450500D01*
X13929977Y-18436335D01*
X14019409Y-18422171D01*
X14191639Y-18366211D01*
X14352994Y-18283996D01*
X14499501Y-18177553D01*
X14627553Y-18049501D01*
X14733996Y-17902994D01*
X14816211Y-17741639D01*
X14872171Y-17569409D01*
X14900500Y-17390546D01*
X14900500Y-17209454D01*
X14900500Y-17209450D01*
X37099500Y-17209450D01*
X37099500Y-17390549D01*
X37127828Y-17569406D01*
X37159539Y-17667006D01*
X37183789Y-17741639D01*
X37266004Y-17902994D01*
X37372447Y-18049501D01*
X37500499Y-18177553D01*
X37647006Y-18283996D01*
X37808361Y-18366211D01*
X37980591Y-18422171D01*
X38052136Y-18433502D01*
X38159451Y-18450500D01*
X38159454Y-18450500D01*
X38340549Y-18450500D01*
X38429977Y-18436335D01*
X38519409Y-18422171D01*
X38691639Y-18366211D01*
X38852994Y-18283996D01*
X38996890Y-18179450D01*
X51229500Y-18179450D01*
X51229500Y-18360549D01*
X51257828Y-18539406D01*
X51306595Y-18689500D01*
X51313789Y-18711639D01*
X51396004Y-18872994D01*
X51502447Y-19019501D01*
X51630499Y-19147553D01*
X51777006Y-19253996D01*
X51938361Y-19336211D01*
X52110591Y-19392171D01*
X52182136Y-19403502D01*
X52289451Y-19420500D01*
X52289454Y-19420500D01*
X52470549Y-19420500D01*
X52559977Y-19406335D01*
X52649409Y-19392171D01*
X52821639Y-19336211D01*
X52982994Y-19253996D01*
X53129501Y-19147553D01*
X53257553Y-19019501D01*
X53363996Y-18872994D01*
X53446211Y-18711639D01*
X53502171Y-18539409D01*
X53530500Y-18360546D01*
X53530500Y-18179454D01*
X53530500Y-18179450D01*
X53509918Y-18049502D01*
X53502171Y-18000591D01*
X53446211Y-17828361D01*
X53363996Y-17667006D01*
X53257553Y-17520499D01*
X53129501Y-17392447D01*
X52982994Y-17286004D01*
X52982993Y-17286003D01*
X52982991Y-17286002D01*
X52821637Y-17203788D01*
X52649406Y-17147828D01*
X52470549Y-17119500D01*
X52470546Y-17119500D01*
X52289454Y-17119500D01*
X52289451Y-17119500D01*
X52110593Y-17147828D01*
X51938362Y-17203788D01*
X51777008Y-17286002D01*
X51703752Y-17339225D01*
X51630499Y-17392447D01*
X51502447Y-17520499D01*
X51466914Y-17569406D01*
X51396002Y-17667008D01*
X51313788Y-17828362D01*
X51257828Y-18000593D01*
X51229500Y-18179450D01*
X38996890Y-18179450D01*
X38999501Y-18177553D01*
X39127553Y-18049501D01*
X39233996Y-17902994D01*
X39316211Y-17741639D01*
X39372171Y-17569409D01*
X39400500Y-17390546D01*
X39400500Y-17209454D01*
X39400500Y-17209450D01*
X39372171Y-17030593D01*
X39372171Y-17030591D01*
X39316211Y-16858361D01*
X39233996Y-16697006D01*
X39127553Y-16550499D01*
X38999501Y-16422447D01*
X38852994Y-16316004D01*
X38852993Y-16316003D01*
X38852991Y-16316002D01*
X38691637Y-16233788D01*
X38519406Y-16177828D01*
X38340549Y-16149500D01*
X38340546Y-16149500D01*
X38159454Y-16149500D01*
X38159451Y-16149500D01*
X37980593Y-16177828D01*
X37808362Y-16233788D01*
X37647008Y-16316002D01*
X37623625Y-16332991D01*
X37500499Y-16422447D01*
X37372447Y-16550499D01*
X37330997Y-16607550D01*
X37266002Y-16697008D01*
X37183788Y-16858362D01*
X37127828Y-17030593D01*
X37099500Y-17209450D01*
X14900500Y-17209450D01*
X14872171Y-17030593D01*
X14872171Y-17030591D01*
X14816211Y-16858361D01*
X14733996Y-16697006D01*
X14627553Y-16550499D01*
X14499501Y-16422447D01*
X14352994Y-16316004D01*
X14352993Y-16316003D01*
X14352991Y-16316002D01*
X14191637Y-16233788D01*
X14019406Y-16177828D01*
X13840549Y-16149500D01*
X13840546Y-16149500D01*
X13659454Y-16149500D01*
X13659451Y-16149500D01*
X13480593Y-16177828D01*
X13308362Y-16233788D01*
X13147008Y-16316002D01*
X13123625Y-16332991D01*
X13000499Y-16422447D01*
X12872447Y-16550499D01*
X12830997Y-16607550D01*
X12766002Y-16697008D01*
X12683788Y-16858362D01*
X12627828Y-17030593D01*
X12599500Y-17209450D01*
X500500Y-17209450D01*
X500500Y-14669450D01*
X12599500Y-14669450D01*
X12599500Y-14850549D01*
X12627828Y-15029406D01*
X12659539Y-15127006D01*
X12683789Y-15201639D01*
X12766004Y-15362994D01*
X12872447Y-15509501D01*
X13000499Y-15637553D01*
X13147006Y-15743996D01*
X13308361Y-15826211D01*
X13480591Y-15882171D01*
X13552136Y-15893502D01*
X13659451Y-15910500D01*
X13659454Y-15910500D01*
X13840549Y-15910500D01*
X13929977Y-15896335D01*
X14019409Y-15882171D01*
X14191639Y-15826211D01*
X14352994Y-15743996D01*
X14499501Y-15637553D01*
X14627553Y-15509501D01*
X14733996Y-15362994D01*
X14816211Y-15201639D01*
X14872171Y-15029409D01*
X14900500Y-14850546D01*
X14900500Y-14669454D01*
X14900500Y-14669450D01*
X37099500Y-14669450D01*
X37099500Y-14850549D01*
X37127828Y-15029406D01*
X37159539Y-15127006D01*
X37183789Y-15201639D01*
X37266004Y-15362994D01*
X37372447Y-15509501D01*
X37500499Y-15637553D01*
X37647006Y-15743996D01*
X37808361Y-15826211D01*
X37980591Y-15882171D01*
X38052136Y-15893502D01*
X38159451Y-15910500D01*
X38159454Y-15910500D01*
X38340549Y-15910500D01*
X38429977Y-15896335D01*
X38519409Y-15882171D01*
X38691639Y-15826211D01*
X38852994Y-15743996D01*
X38996890Y-15639450D01*
X51229500Y-15639450D01*
X51229500Y-15820549D01*
X51257828Y-15999406D01*
X51306595Y-16149500D01*
X51313789Y-16171639D01*
X51396004Y-16332994D01*
X51502447Y-16479501D01*
X51630499Y-16607553D01*
X51777006Y-16713996D01*
X51938361Y-16796211D01*
X52110591Y-16852171D01*
X52182136Y-16863502D01*
X52289451Y-16880500D01*
X52289454Y-16880500D01*
X52470549Y-16880500D01*
X52559977Y-16866335D01*
X52649409Y-16852171D01*
X52821639Y-16796211D01*
X52982994Y-16713996D01*
X53129501Y-16607553D01*
X53257553Y-16479501D01*
X53363996Y-16332994D01*
X53446211Y-16171639D01*
X53502171Y-15999409D01*
X53530500Y-15820546D01*
X53530500Y-15639454D01*
X53530500Y-15639450D01*
X53509918Y-15509502D01*
X53502171Y-15460591D01*
X53446211Y-15288361D01*
X53363996Y-15127006D01*
X53257553Y-14980499D01*
X53129501Y-14852447D01*
X52982994Y-14746004D01*
X52982993Y-14746003D01*
X52982991Y-14746002D01*
X52821637Y-14663788D01*
X52649406Y-14607828D01*
X52470549Y-14579500D01*
X52470546Y-14579500D01*
X52289454Y-14579500D01*
X52289451Y-14579500D01*
X52110593Y-14607828D01*
X51938362Y-14663788D01*
X51777008Y-14746002D01*
X51703752Y-14799225D01*
X51630499Y-14852447D01*
X51502447Y-14980499D01*
X51466914Y-15029406D01*
X51396002Y-15127008D01*
X51313788Y-15288362D01*
X51257828Y-15460593D01*
X51229500Y-15639450D01*
X38996890Y-15639450D01*
X38999501Y-15637553D01*
X39127553Y-15509501D01*
X39233996Y-15362994D01*
X39316211Y-15201639D01*
X39372171Y-15029409D01*
X39400500Y-14850546D01*
X39400500Y-14669454D01*
X39400500Y-14669450D01*
X39372171Y-14490593D01*
X39372171Y-14490591D01*
X39316211Y-14318361D01*
X39233996Y-14157006D01*
X39127553Y-14010499D01*
X38999501Y-13882447D01*
X38852994Y-13776004D01*
X38852993Y-13776003D01*
X38852991Y-13776002D01*
X38691637Y-13693788D01*
X38519406Y-13637828D01*
X38340549Y-13609500D01*
X38340546Y-13609500D01*
X38159454Y-13609500D01*
X38159451Y-13609500D01*
X37980593Y-13637828D01*
X37808362Y-13693788D01*
X37647008Y-13776002D01*
X37623625Y-13792991D01*
X37500499Y-13882447D01*
X37372447Y-14010499D01*
X37330997Y-14067550D01*
X37266002Y-14157008D01*
X37183788Y-14318362D01*
X37127828Y-14490593D01*
X37099500Y-14669450D01*
X14900500Y-14669450D01*
X14872171Y-14490593D01*
X14872171Y-14490591D01*
X14816211Y-14318361D01*
X14733996Y-14157006D01*
X14627553Y-14010499D01*
X14499501Y-13882447D01*
X14352994Y-13776004D01*
X14352993Y-13776003D01*
X14352991Y-13776002D01*
X14191637Y-13693788D01*
X14019406Y-13637828D01*
X13840549Y-13609500D01*
X13840546Y-13609500D01*
X13659454Y-13609500D01*
X13659451Y-13609500D01*
X13480593Y-13637828D01*
X13308362Y-13693788D01*
X13147008Y-13776002D01*
X13123625Y-13792991D01*
X13000499Y-13882447D01*
X12872447Y-14010499D01*
X12830997Y-14067550D01*
X12766002Y-14157008D01*
X12683788Y-14318362D01*
X12627828Y-14490593D01*
X12599500Y-14669450D01*
X500500Y-14669450D01*
X500500Y-11325130D01*
X12599500Y-11325130D01*
X12599500Y-13114860D01*
X12599501Y-13114863D01*
X12602414Y-13139990D01*
X12626442Y-13194407D01*
X12647794Y-13242765D01*
X12727235Y-13322206D01*
X12830009Y-13367585D01*
X12855135Y-13370500D01*
X14644864Y-13370499D01*
X14669991Y-13367585D01*
X14772765Y-13322206D01*
X14852206Y-13242765D01*
X14897585Y-13139991D01*
X14900500Y-13114865D01*
X14900499Y-12129450D01*
X37099500Y-12129450D01*
X37099500Y-12310549D01*
X37127828Y-12489406D01*
X37183788Y-12661637D01*
X37232156Y-12756565D01*
X37266004Y-12822994D01*
X37372447Y-12969501D01*
X37500499Y-13097553D01*
X37647006Y-13203996D01*
X37808361Y-13286211D01*
X37980591Y-13342171D01*
X38052136Y-13353502D01*
X38159451Y-13370500D01*
X38159454Y-13370500D01*
X38340549Y-13370500D01*
X38429977Y-13356335D01*
X38519409Y-13342171D01*
X38691639Y-13286211D01*
X38852994Y-13203996D01*
X38996890Y-13099450D01*
X51229500Y-13099450D01*
X51229500Y-13280549D01*
X51257828Y-13459406D01*
X51306595Y-13609500D01*
X51313789Y-13631639D01*
X51396004Y-13792994D01*
X51502447Y-13939501D01*
X51630499Y-14067553D01*
X51777006Y-14173996D01*
X51938361Y-14256211D01*
X52110591Y-14312171D01*
X52182136Y-14323502D01*
X52289451Y-14340500D01*
X52289454Y-14340500D01*
X52470549Y-14340500D01*
X52559977Y-14326335D01*
X52649409Y-14312171D01*
X52821639Y-14256211D01*
X52982994Y-14173996D01*
X53129501Y-14067553D01*
X53257553Y-13939501D01*
X53363996Y-13792994D01*
X53446211Y-13631639D01*
X53502171Y-13459409D01*
X53530500Y-13280546D01*
X53530500Y-13099454D01*
X53530500Y-13099450D01*
X53509918Y-12969502D01*
X53502171Y-12920591D01*
X53446211Y-12748361D01*
X53363996Y-12587006D01*
X53257553Y-12440499D01*
X53129501Y-12312447D01*
X52982994Y-12206004D01*
X52982993Y-12206003D01*
X52982991Y-12206002D01*
X52821637Y-12123788D01*
X52649406Y-12067828D01*
X52470549Y-12039500D01*
X52470546Y-12039500D01*
X52289454Y-12039500D01*
X52289451Y-12039500D01*
X52110593Y-12067828D01*
X51938362Y-12123788D01*
X51777008Y-12206002D01*
X51703752Y-12259225D01*
X51630499Y-12312447D01*
X51502447Y-12440499D01*
X51449225Y-12513752D01*
X51396002Y-12587008D01*
X51313788Y-12748362D01*
X51257828Y-12920593D01*
X51229500Y-13099450D01*
X38996890Y-13099450D01*
X38999501Y-13097553D01*
X39127553Y-12969501D01*
X39233996Y-12822994D01*
X39316211Y-12661639D01*
X39372171Y-12489409D01*
X39386335Y-12399977D01*
X39400500Y-12310549D01*
X39400500Y-12129450D01*
X39372171Y-11950593D01*
X39372171Y-11950591D01*
X39316211Y-11778361D01*
X39233996Y-11617006D01*
X39127553Y-11470499D01*
X38999501Y-11342447D01*
X38852994Y-11236004D01*
X38852993Y-11236003D01*
X38852991Y-11236002D01*
X38691637Y-11153788D01*
X38519406Y-11097828D01*
X38340549Y-11069500D01*
X38340546Y-11069500D01*
X38159454Y-11069500D01*
X38159451Y-11069500D01*
X37980593Y-11097828D01*
X37808362Y-11153788D01*
X37647008Y-11236002D01*
X37623625Y-11252991D01*
X37500499Y-11342447D01*
X37372447Y-11470499D01*
X37361902Y-11485013D01*
X37266002Y-11617008D01*
X37183788Y-11778362D01*
X37127828Y-11950593D01*
X37099500Y-12129450D01*
X14900499Y-12129450D01*
X14900499Y-11325136D01*
X14897585Y-11300009D01*
X14852206Y-11197235D01*
X14772765Y-11117794D01*
X14669991Y-11072415D01*
X14669990Y-11072414D01*
X14669988Y-11072414D01*
X14644868Y-11069500D01*
X12855139Y-11069500D01*
X12855136Y-11069501D01*
X12830009Y-11072414D01*
X12727235Y-11117794D01*
X12647794Y-11197235D01*
X12602414Y-11300011D01*
X12599500Y-11325130D01*
X500500Y-11325130D01*
X500500Y-10753943D01*
X44244300Y-10753943D01*
X44244300Y-10912057D01*
X44285223Y-11064784D01*
X44364280Y-11201716D01*
X44476084Y-11313520D01*
X44613016Y-11392577D01*
X44765743Y-11433500D01*
X44765745Y-11433500D01*
X44923855Y-11433500D01*
X44923857Y-11433500D01*
X45076584Y-11392577D01*
X45213516Y-11313520D01*
X45325320Y-11201716D01*
X45404377Y-11064784D01*
X45445300Y-10912057D01*
X45445300Y-10839901D01*
X45464207Y-10781710D01*
X45474296Y-10769897D01*
X46494697Y-9749496D01*
X46549214Y-9721719D01*
X46564701Y-9720500D01*
X51443439Y-9720500D01*
X51501630Y-9739407D01*
X51537594Y-9788907D01*
X51537594Y-9850093D01*
X51513444Y-9889501D01*
X51502447Y-9900499D01*
X51449225Y-9973752D01*
X51396002Y-10047008D01*
X51313788Y-10208362D01*
X51257828Y-10380593D01*
X51229500Y-10559450D01*
X51229500Y-10740549D01*
X51257828Y-10919406D01*
X51313788Y-11091637D01*
X51391133Y-11243436D01*
X51396004Y-11252994D01*
X51502447Y-11399501D01*
X51630499Y-11527553D01*
X51777006Y-11633996D01*
X51938361Y-11716211D01*
X52110591Y-11772171D01*
X52182136Y-11783502D01*
X52289451Y-11800500D01*
X52289454Y-11800500D01*
X52470549Y-11800500D01*
X52559977Y-11786335D01*
X52649409Y-11772171D01*
X52821639Y-11716211D01*
X52982994Y-11633996D01*
X53129501Y-11527553D01*
X53257553Y-11399501D01*
X53363996Y-11252994D01*
X53446211Y-11091639D01*
X53502171Y-10919409D01*
X53521259Y-10798893D01*
X53530500Y-10740549D01*
X53530500Y-10559450D01*
X53502171Y-10380593D01*
X53502171Y-10380591D01*
X53446211Y-10208361D01*
X53363996Y-10047006D01*
X53257553Y-9900499D01*
X53246555Y-9889501D01*
X53218780Y-9834987D01*
X53228351Y-9774555D01*
X53271616Y-9731290D01*
X53316561Y-9720500D01*
X66462725Y-9720500D01*
X66462727Y-9720500D01*
X66564588Y-9693207D01*
X66564590Y-9693205D01*
X66564592Y-9693205D01*
X66655908Y-9640483D01*
X66655908Y-9640482D01*
X66655913Y-9640480D01*
X67091551Y-9204840D01*
X67146066Y-9177064D01*
X67192145Y-9180690D01*
X67250657Y-9199701D01*
X67350591Y-9232171D01*
X67422136Y-9243502D01*
X67529451Y-9260500D01*
X67529454Y-9260500D01*
X67710549Y-9260500D01*
X67799977Y-9246335D01*
X67889409Y-9232171D01*
X68061639Y-9176211D01*
X68222994Y-9093996D01*
X68369501Y-8987553D01*
X68497553Y-8859501D01*
X68603996Y-8712994D01*
X68686211Y-8551639D01*
X68742171Y-8379409D01*
X68756335Y-8289977D01*
X68770500Y-8200549D01*
X68770500Y-8019450D01*
X68742171Y-7840593D01*
X68742171Y-7840591D01*
X68686211Y-7668361D01*
X68603996Y-7507006D01*
X68497553Y-7360499D01*
X68369501Y-7232447D01*
X68222994Y-7126004D01*
X68222993Y-7126003D01*
X68222991Y-7126002D01*
X68061637Y-7043788D01*
X67889406Y-6987828D01*
X67797376Y-6973252D01*
X67710549Y-6959500D01*
X67710546Y-6959500D01*
X67529454Y-6959500D01*
X67529451Y-6959500D01*
X67350593Y-6987828D01*
X67178362Y-7043788D01*
X67017008Y-7126002D01*
X66943752Y-7179225D01*
X66870499Y-7232447D01*
X66742447Y-7360499D01*
X66741516Y-7361781D01*
X66636002Y-7507008D01*
X66553788Y-7668362D01*
X66497828Y-7840593D01*
X66469500Y-8019450D01*
X66469500Y-8200549D01*
X66497828Y-8379406D01*
X66549309Y-8537852D01*
X66549308Y-8599037D01*
X66525158Y-8638447D01*
X66273104Y-8890503D01*
X66218587Y-8918281D01*
X66203100Y-8919500D01*
X53629500Y-8919500D01*
X53571309Y-8900593D01*
X53535345Y-8851093D01*
X53530500Y-8820500D01*
X53530499Y-7215139D01*
X53530499Y-7215136D01*
X53527585Y-7190009D01*
X53482206Y-7087235D01*
X53402765Y-7007794D01*
X53299991Y-6962415D01*
X53299990Y-6962414D01*
X53299988Y-6962414D01*
X53274868Y-6959500D01*
X51485139Y-6959500D01*
X51485136Y-6959501D01*
X51460009Y-6962414D01*
X51357235Y-7007794D01*
X51277794Y-7087235D01*
X51232414Y-7190011D01*
X51229500Y-7215130D01*
X51229500Y-7215132D01*
X51229500Y-7215135D01*
X51229500Y-8030292D01*
X51229501Y-8820500D01*
X51210594Y-8878691D01*
X51161094Y-8914655D01*
X51130501Y-8919500D01*
X46410527Y-8919500D01*
X46305073Y-8919500D01*
X46242729Y-8936204D01*
X46203207Y-8946794D01*
X46111891Y-8999516D01*
X44907903Y-10203504D01*
X44853386Y-10231281D01*
X44837899Y-10232500D01*
X44765743Y-10232500D01*
X44613016Y-10273423D01*
X44476084Y-10352480D01*
X44364280Y-10464284D01*
X44285223Y-10601216D01*
X44244300Y-10753943D01*
X500500Y-10753943D01*
X500500Y-6878710D01*
X5149500Y-6878710D01*
X5149500Y-7121289D01*
X5181161Y-7361781D01*
X5181161Y-7361786D01*
X5243944Y-7596092D01*
X5243948Y-7596105D01*
X5336772Y-7820204D01*
X5336774Y-7820208D01*
X5336776Y-7820212D01*
X5458064Y-8030289D01*
X5458066Y-8030292D01*
X5605729Y-8222731D01*
X5605731Y-8222733D01*
X5605735Y-8222738D01*
X5777262Y-8394265D01*
X5777266Y-8394268D01*
X5777268Y-8394270D01*
X5964389Y-8537852D01*
X5969711Y-8541936D01*
X6179788Y-8663224D01*
X6403900Y-8756054D01*
X6638211Y-8818838D01*
X6878712Y-8850500D01*
X6878713Y-8850500D01*
X7121287Y-8850500D01*
X7121288Y-8850500D01*
X7361789Y-8818838D01*
X7596100Y-8756054D01*
X7820212Y-8663224D01*
X8030289Y-8541936D01*
X8222738Y-8394265D01*
X8394265Y-8222738D01*
X8541936Y-8030289D01*
X8663224Y-7820212D01*
X8756054Y-7596100D01*
X8818838Y-7361789D01*
X8850500Y-7121288D01*
X8850500Y-6878712D01*
X8850500Y-6878710D01*
X91149500Y-6878710D01*
X91149500Y-7121289D01*
X91181161Y-7361781D01*
X91181161Y-7361786D01*
X91243944Y-7596092D01*
X91243948Y-7596105D01*
X91336772Y-7820204D01*
X91336774Y-7820208D01*
X91336776Y-7820212D01*
X91458064Y-8030289D01*
X91458066Y-8030292D01*
X91605729Y-8222731D01*
X91605731Y-8222733D01*
X91605735Y-8222738D01*
X91777262Y-8394265D01*
X91777266Y-8394268D01*
X91777268Y-8394270D01*
X91964389Y-8537852D01*
X91969711Y-8541936D01*
X92179788Y-8663224D01*
X92403900Y-8756054D01*
X92638211Y-8818838D01*
X92878712Y-8850500D01*
X92878713Y-8850500D01*
X93121287Y-8850500D01*
X93121288Y-8850500D01*
X93361789Y-8818838D01*
X93596100Y-8756054D01*
X93820212Y-8663224D01*
X94030289Y-8541936D01*
X94222738Y-8394265D01*
X94394265Y-8222738D01*
X94541936Y-8030289D01*
X94663224Y-7820212D01*
X94756054Y-7596100D01*
X94818838Y-7361789D01*
X94850500Y-7121288D01*
X94850500Y-6878712D01*
X94818838Y-6638211D01*
X94756054Y-6403900D01*
X94663224Y-6179788D01*
X94541936Y-5969711D01*
X94394265Y-5777262D01*
X94222738Y-5605735D01*
X94222733Y-5605731D01*
X94222731Y-5605729D01*
X94030292Y-5458066D01*
X94030289Y-5458064D01*
X93820212Y-5336776D01*
X93820208Y-5336774D01*
X93820204Y-5336772D01*
X93596105Y-5243948D01*
X93596104Y-5243947D01*
X93596100Y-5243946D01*
X93361789Y-5181162D01*
X93361786Y-5181161D01*
X93361784Y-5181161D01*
X93121289Y-5149500D01*
X93121288Y-5149500D01*
X92878712Y-5149500D01*
X92878710Y-5149500D01*
X92638218Y-5181161D01*
X92638213Y-5181161D01*
X92403907Y-5243944D01*
X92403894Y-5243948D01*
X92179795Y-5336772D01*
X91969707Y-5458066D01*
X91777268Y-5605729D01*
X91605729Y-5777268D01*
X91458066Y-5969707D01*
X91336772Y-6179795D01*
X91243948Y-6403894D01*
X91243944Y-6403907D01*
X91181161Y-6638213D01*
X91181161Y-6638218D01*
X91149500Y-6878710D01*
X8850500Y-6878710D01*
X8818838Y-6638211D01*
X8756054Y-6403900D01*
X8663224Y-6179788D01*
X8541936Y-5969711D01*
X8394265Y-5777262D01*
X8222738Y-5605735D01*
X8222733Y-5605731D01*
X8222731Y-5605729D01*
X8030292Y-5458066D01*
X8030289Y-5458064D01*
X7820212Y-5336776D01*
X7820208Y-5336774D01*
X7820204Y-5336772D01*
X7596105Y-5243948D01*
X7596104Y-5243947D01*
X7596100Y-5243946D01*
X7361789Y-5181162D01*
X7361786Y-5181161D01*
X7361784Y-5181161D01*
X7121289Y-5149500D01*
X7121288Y-5149500D01*
X6878712Y-5149500D01*
X6878710Y-5149500D01*
X6638218Y-5181161D01*
X6638213Y-5181161D01*
X6403907Y-5243944D01*
X6403894Y-5243948D01*
X6179795Y-5336772D01*
X5969707Y-5458066D01*
X5777268Y-5605729D01*
X5605729Y-5777268D01*
X5458066Y-5969707D01*
X5336772Y-6179795D01*
X5243948Y-6403894D01*
X5243944Y-6403907D01*
X5181161Y-6638213D01*
X5181161Y-6638218D01*
X5149500Y-6878710D01*
X500500Y-6878710D01*
X500500Y-3002984D01*
X500681Y-2997007D01*
X518362Y-2704696D01*
X518363Y-2704695D01*
X518362Y-2704688D01*
X519801Y-2692837D01*
X572052Y-2407715D01*
X574912Y-2396114D01*
X661148Y-2119370D01*
X665378Y-2108218D01*
X784350Y-1843875D01*
X789891Y-1833315D01*
X939868Y-1585221D01*
X946632Y-1575424D01*
X1125407Y-1347235D01*
X1133319Y-1338303D01*
X1338303Y-1133319D01*
X1347235Y-1125407D01*
X1575424Y-946632D01*
X1585221Y-939868D01*
X1833315Y-789891D01*
X1843875Y-784350D01*
X2108218Y-665378D01*
X2119370Y-661148D01*
X2396121Y-574910D01*
X2407715Y-572052D01*
X2692837Y-519801D01*
X2704688Y-518362D01*
X2997008Y-500681D01*
X3002985Y-500500D01*
X3065892Y-500500D01*
X96934108Y-500500D01*
X96997015Y-500500D01*
X97002992Y-500681D01*
G37*
%TD.AperFunction*%
%TD*%
D19*
X0Y-3000000D02*
G75*
G02*
X3000000Y0I3000000J0D01*
G01*
X0Y-67000000D02*
X0Y-3000000D01*
X3000000Y0D02*
X97000000Y0D01*
X3000000Y-70000000D02*
G75*
G02*
X0Y-67000000I0J3000000D01*
G01*
X97000000Y0D02*
G75*
G02*
X100000000Y-3000000I0J-3000000D01*
G01*
X97000000Y-70000000D02*
X3000000Y-70000000D01*
X100000000Y-3000000D02*
X100000000Y-67000000D01*
X100000000Y-67000000D02*
G75*
G02*
X97000000Y-70000000I-3000000J0D01*
G01*
M02*
