M48
; DRILL file KiCad 10.0.5 date 2026-08-30T09:08:58
; FORMAT={-:-/ absolute / metric / decimal}
; #@! TF.CreationDate,2026-08-30T09:08:58-07:00
; #@! TF.GenerationSoftware,Kicad,Pcbnew,10.0.5
; #@! TF.FileFunction,Plated,1,2,PTH
FMAT,2
METRIC
; #@! TA.AperFunction,Plated,PTH,ViaDrill
T1C0.300
; #@! TA.AperFunction,Plated,PTH,ComponentDrill
T2C0.600
; #@! TA.AperFunction,Plated,PTH,ComponentDrill
T3C0.750
; #@! TA.AperFunction,Plated,PTH,ComponentDrill
T4C1.000
%
G90
G05
T1
X2.95Y-2.95
X2.95Y-16.95
X2.95Y-30.95
X2.95Y-44.95
X2.95Y-58.95
X16.95Y-2.95
X16.95Y-16.95
X16.95Y-30.95
X16.95Y-44.95
X30.95Y-2.95
X30.95Y-16.95
X30.95Y-30.95
X30.95Y-44.95
X44.845Y-10.833
X44.95Y-2.95
X44.95Y-30.95
X44.95Y-44.95
X44.95Y-58.95
X54.862Y-42.0
X58.95Y-2.95
X58.95Y-16.95
X58.95Y-30.95
X58.95Y-44.95
X58.95Y-58.95
X72.95Y-2.95
X72.95Y-16.95
X72.95Y-30.95
X72.95Y-44.95
X72.95Y-58.95
X86.95Y-2.95
X86.95Y-16.95
X86.95Y-30.95
X86.95Y-44.95
X86.95Y-58.95
T3
X92.0Y-12.0
X94.0Y-12.0
T4
X13.75Y-12.22
X13.75Y-14.76
X13.75Y-17.3
X13.75Y-19.84
X13.75Y-22.38
X13.75Y-24.92
X13.75Y-27.46
X13.75Y-30.0
X13.75Y-32.54
X13.75Y-35.08
X13.75Y-37.62
X13.75Y-40.16
X13.75Y-42.7
X13.75Y-45.24
X13.75Y-47.78
X38.25Y-12.22
X38.25Y-14.76
X38.25Y-17.3
X38.25Y-19.84
X38.25Y-22.38
X38.25Y-24.92
X38.25Y-27.46
X38.25Y-30.0
X38.25Y-32.54
X38.25Y-35.08
X38.25Y-37.62
X38.25Y-40.16
X38.25Y-42.7
X38.25Y-45.24
X38.25Y-47.78
X52.38Y-8.11
X52.38Y-10.65
X52.38Y-13.19
X52.38Y-15.73
X52.38Y-18.27
X52.38Y-20.81
X52.38Y-23.35
X52.38Y-25.89
X67.62Y-8.11
X67.62Y-10.65
X67.62Y-13.19
X67.62Y-15.73
X67.62Y-18.27
X67.62Y-20.81
X67.62Y-23.35
X67.62Y-25.89
X92.0Y-58.0
X94.54Y-58.0
X97.08Y-58.0
T2
X15.68Y-60.845G85X15.68Y-61.945
G05
X15.68Y-65.275G85X15.68Y-65.875
G05
X24.32Y-60.845G85X24.32Y-61.945
G05
X24.32Y-65.275G85X24.32Y-65.875
G05
M30
